<svg viewBox="0 0 1620 1028" xmlns="http://www.w3.org/2000/svg"><g id="a"></g><g id="b"><g id="c"><g><path fill="#ebf3fa" d="M135.7,1025.87s-188.51-244.42-31.88-509.03c138.97-234.79,300.99-218.74,419.87-123.46,50.63,40.58,196.6,5,320.84-233.9,169.43-325.8,756.74-128.2,649.66,373.05-51.82,242.57,157.71,251.39,50.95,493.86l-1409.44-.51Z"></path><g><path fill="#78acea" d="M778.2,164.67h310.12c17.86,0,32.35,14.5,32.35,32.35V991.21c0,17.86-14.5,32.35-32.35,32.35h-310.12c-17.86,0-32.35-14.5-32.35-32.35V197.03c0-17.86,14.5-32.35,32.35-32.35Z"></path><path fill="#afcdfb" d="M1140.49,187.84V1000.4c0,12.74-8.63,23.16-19.18,23.16h-336.47c-10.55,0-19.18-10.42-19.18-23.16V187.84c0-12.74,8.63-23.17,19.18-23.17h336.47c10.55,0,19.18,10.42,19.18,23.17Z"></path><g><path opacity=".4" fill="#5e92dd" d="M1008,197.18h-97.44c-2.09,0-3.79-2.06-3.79-4.58h0c0-2.52,1.71-4.58,3.79-4.58h97.44c2.08,0,3.79,2.06,3.79,4.58h0c0,2.52-1.71,4.58-3.79,4.58Z"></path><path opacity=".4" fill="#5e92dd" d="M893.26,197.18h0c-2.08,0-3.79-2.06-3.79-4.58h0c0-2.52,1.71-4.58,3.79-4.58h0c2.08,0,3.79,2.06,3.79,4.58h0c0,2.52-1.71,4.58-3.79,4.58Z"></path></g><path fill="#95c0f4" d="M982.17,976.1c0,8.1-2.71,15.45-7.09,20.79-4.43,5.4-10.58,8.74-17.36,8.74-13.5,0-24.45-13.22-24.45-29.53,0-10.48,4.52-19.68,11.35-24.92,3.78-2.91,8.28-4.6,13.11-4.6,13.5,0,24.45,13.22,24.45,29.52Z"></path><rect fill="#95c0f4" height="714.48" width="332.38" y="217.58" x="788.1"></rect><path fill="#8cbaf1" d="M975.08,996.89c-4.43,5.4-10.58,8.74-17.36,8.74-13.5,0-24.45-13.22-24.45-29.53,0-10.48,4.52-19.68,11.35-24.92,2.4,12.57,9.5,33.6,30.47,45.71Z"></path></g><path opacity=".9" fill="#78acea" d="M1115.7,303h-309.33c-2.63,0-4.78,3.36-4.78,7.48v238.83c0,4.11,2.15,7.47,4.78,7.47h309.33c2.63,0,4.78-3.36,4.78-7.47v-238.83c0-4.12-2.15-7.48-4.78-7.48Z"></path><path opacity=".9" fill="#78acea" d="M1000.3,593.15h-241.16c-2.05,0-3.73,3.36-3.73,7.48v238.83c0,4.11,1.68,7.47,3.73,7.47h241.16c2.05,0,3.73-3.36,3.73-7.47v-238.83c0-4.12-1.68-7.48-3.73-7.48Z"></path><g><path fill="#fcecdb" d="M1233.3,288.97v238.83c0,4.1-2.78,7.47-6.2,7.47h-400.51c-3.4,0-6.18-3.36-6.18-7.47v-238.83c0-4.12,2.78-7.48,6.18-7.48h400.51c3.41,0,6.2,3.36,6.2,7.48Z"></path><path fill="#f99746" d="M1233.3,288.97v238.83c0,4.11-3.24,7.47-7.2,7.47h-199.24v-253.78h199.24c3.96,0,7.2,3.36,7.2,7.48Z"></path><g><path fill="#fcecdb" d="M1124.66,374.19h-70.49c-2.47,0-4.49-2.44-4.49-5.42h0c0-2.98,2.02-5.42,4.49-5.42h70.49c2.47,0,4.49,2.44,4.49,5.42h0c0,2.98-2.02,5.42-4.49,5.42Z"></path><path fill="#fcecdb" d="M1054.18,379.61h52.51c2.48,0,4.5,2.02,4.5,4.5v1.84c0,2.48-2.02,4.5-4.5,4.5h-52.51c-2.48,0-4.5-2.02-4.5-4.5v-1.84c0-2.48,2.02-4.5,4.5-4.5Z"></path></g><g><path fill="#fcecdb" d="M1055.1,313.45c1.69-2.69,3.92-4.04,6.62-4.04s4.9,1.35,6.59,4c1.69,2.65,2.52,5.96,2.52,9.92s-.83,7.27-2.52,9.92c-1.69,2.65-3.88,4-6.59,4s-4.93-1.35-6.62-4c-1.69-2.65-2.52-5.96-2.52-9.92s.83-7.23,2.52-9.88Zm11.49,1.85c-1.27-2.15-2.9-3.23-4.87-3.23s-3.6,1.08-4.87,3.23c-1.27,2.15-1.91,4.84-1.91,8.04s.64,5.92,1.88,8.07c1.27,2.11,2.9,3.19,4.9,3.19s3.63-1.08,4.87-3.19c1.27-2.15,1.91-4.84,1.91-8.07s-.64-5.88-1.91-8.04Z"></path><path fill="#fcecdb" d="M1089,312.76c1.5,2.19,2.26,5.31,2.26,9.27,.13,8.38-3.63,15.3-9.68,15.22-1.81,0-3.41-.54-4.71-1.65v-2.73c1.4,1.15,2.9,1.73,4.52,1.73,5.28,0,7.48-5.8,7.58-11.49-1.18,2.42-3.5,4-6.53,4-2.01,0-3.72-.81-5.13-2.38-1.37-1.61-2.07-3.69-2.07-6.19,0-2.65,.73-4.81,2.16-6.54,1.46-1.73,3.28-2.58,5.41-2.58,2.61,0,4.68,1.11,6.18,3.34Zm-9.9,1.15c-1.02,1.19-1.53,2.73-1.53,4.61s.51,3.31,1.56,4.42c1.05,1.11,2.32,1.65,3.88,1.65,1.31,0,2.51-.5,3.63-1.5,1.12-1,1.85-2.23,2.26-3.73-.38-4.61-2.48-7.3-5.95-7.3-1.53,0-2.8,.61-3.85,1.85Z"></path><path fill="#fcecdb" d="M1095.97,319.3c.64-.77,1.72-.77,2.36,0,.64,.77,.64,2.08,0,2.84-.64,.77-1.72,.77-2.36,0-.64-.77-.64-2.08,0-2.84Zm0,14.3c.64-.77,1.72-.77,2.36,0,.64,.77,.64,2.08,0,2.84-.64,.77-1.72,.77-2.36,0-.64-.77-.64-2.08,0-2.84Z"></path><path fill="#fcecdb" d="M1106.99,336.79v-23.84l-5,3.46v-2.73l5.25-3.81h2.07v26.91h-2.32Z"></path><path fill="#fcecdb" d="M1117.43,313.45c1.69-2.69,3.92-4.04,6.62-4.04s4.9,1.35,6.59,4c1.69,2.65,2.52,5.96,2.52,9.92s-.83,7.27-2.52,9.92c-1.69,2.65-3.88,4-6.59,4s-4.93-1.35-6.62-4c-1.69-2.65-2.51-5.96-2.51-9.92s.83-7.23,2.51-9.88Zm11.49,1.85c-1.27-2.15-2.9-3.23-4.87-3.23s-3.6,1.08-4.87,3.23c-1.27,2.15-1.91,4.84-1.91,8.04s.64,5.92,1.88,8.07c1.27,2.11,2.9,3.19,4.9,3.19s3.63-1.08,4.87-3.19c1.27-2.15,1.91-4.84,1.91-8.07s-.64-5.88-1.91-8.04Z"></path><path fill="#fcecdb" d="M1146.88,336.79v-26.91h9.36c4.46,0,7.13,3,7.13,7.46s-2.67,7.57-7.13,7.57h-7v11.88h-2.36Zm2.36-14.46h6.84c3.15,0,4.97-1.81,4.97-4.92s-1.81-4.96-4.97-4.96h-6.84v9.88Z"></path><path fill="#fcecdb" d="M1168.05,336.79v-26.91h2.32l8.05,13.03,8.05-13.03h2.29v26.91h-2.32v-22.61l-7.29,11.76h-1.43l-7.35-11.76v22.61h-2.32Z"></path></g><path fill="#f9e5d1" d="M939.28,535.27h-112.68c-3.4,0-6.18-3.36-6.18-7.47v-162.3c30.72,43.83,90.86,129.75,118.86,169.77Z"></path><path fill="#f99746" d="M922.87,312.93c-22.55,0-40.82,22.07-40.82,49.3s40.82,87.76,40.82,87.76c0,0,40.83-60.53,40.83-87.76s-18.28-49.3-40.83-49.3Zm0,71.84c-10.54,0-19.08-10.32-19.08-23.04s8.54-23.04,19.08-23.04,19.08,10.32,19.08,23.04-8.54,23.04-19.08,23.04Z"></path><g><path fill="#efcbab" d="M919.44,490.91h-70.49c-2.47,0-4.49-2.44-4.49-5.42h0c0-2.98,2.02-5.42,4.49-5.42h70.49c2.47,0,4.49,2.44,4.49,5.42h0c0,2.98-2.02,5.42-4.49,5.42Z"></path><rect fill="#efcbab" ry="4.5" rx="4.5" height="10.84" width="61.51" y="496.33" x="844.46"></rect></g></g><g><path fill="#fcecdb" d="M1035.53,582.29v238.83c0,4.11-2.78,7.47-6.19,7.47h-400.5c-3.41,0-6.2-3.36-6.2-7.47v-238.83c0-4.1,2.78-7.47,6.2-7.47h400.5c3.41,0,6.19,3.36,6.19,7.47Z"></path><path fill="#f99746" d="M1035.53,582.29v238.83c0,4.12-2.78,7.48-6.19,7.48h-178.13v-253.78h178.13c3.4,0,6.19,3.36,6.19,7.47Z"></path><g><path fill="#fcecdb" d="M942.02,753.43c-3.54,0-6.82-2.26-8.62-5.97l-26.32-54.34c-2.79-5.75-1.18-13.14,3.58-16.5,4.76-3.36,10.88-1.43,13.67,4.32l16.89,34.86,31.8-79.01c2.41-5.99,8.39-8.49,13.35-5.58,4.96,2.91,7.03,10.13,4.62,16.12l-39.97,99.31c-1.61,4-4.92,6.61-8.6,6.78-.13,0-.26,0-.39,0Z"></path><path fill="#fcecdb" d="M942.03,781.4c-34.19,0-62-33.59-62-74.88s27.81-74.88,62-74.88,62,33.59,62,74.88-27.81,74.88-62,74.88Zm0-140.98c-30.18,0-54.74,29.65-54.74,66.1s24.56,66.1,54.74,66.1,54.74-29.65,54.74-66.1-24.56-66.1-54.74-66.1Z"></path></g><path fill="#f9e5d1" d="M739.96,828.6h-111.11c-3.41,0-6.2-3.36-6.2-7.47v-184.81l117.31,192.29Z"></path><g><g><path fill="#f99746" d="M676.39,616.25c-12.27,0-22.21,12.01-22.21,26.82s9.94,26.82,22.21,26.82,22.21-12.01,22.21-26.82-9.94-26.82-22.21-26.82Zm15.38,27.68h-15.38c-.39,0-.71-.38-.71-.86v-19.97c0-.47,.32-.86,.71-.86s.71,.38,.71,.86v19.12h14.67c.39,0,.71,.38,.71,.86s-.32,.86-.71,.86Z"></path><g><path fill="#efcbab" d="M790.65,633.08h-70.49c-2.47,0-4.49-2.44-4.49-5.42h0c0-2.98,2.02-5.42,4.49-5.42h70.49c2.47,0,4.49,2.44,4.49,5.42h0c0,2.98-2.02,5.42-4.49,5.42Z"></path><rect fill="#efcbab" ry="4.5" rx="4.5" height="10.84" width="61.51" y="638.5" x="715.68"></rect></g></g><g><path fill="#f99746" d="M674.17,720.05c-11.04,0-19.99,10.81-19.99,24.14s19.99,42.98,19.99,42.98c0,0,19.99-29.64,19.99-42.98s-8.95-24.14-19.99-24.14Zm0,35.18c-5.16,0-9.34-5.05-9.34-11.28s4.18-11.28,9.34-11.28,9.34,5.05,9.34,11.28-4.18,11.28-9.34,11.28Z"></path><g><path fill="#efcbab" d="M785.29,737.65h-70.49c-2.47,0-4.49-2.44-4.49-5.42h0c0-2.98,2.02-5.42,4.49-5.42h70.49c2.47,0,4.49,2.44,4.49,5.42h0c0,2.98-2.02,5.42-4.49,5.42Z"></path><rect fill="#efcbab" ry="4.5" rx="4.5" height="10.84" width="61.51" y="743.07" x="710.32"></rect></g></g></g></g><g><g><path fill="#b7d3f3" d="M241.61,718.58c-1.47-43.59-4.63-81.52-8.42-107.96-6.04-42.16-11.47-66.41-11.53-66.67-.8-3.71-12.28-18.71-37.83-18.25-25.54,.46-23.12,20.14-23.12,20.14h0c0,.66,.07,1.29,.18,1.75,.25,1.01,23.69,103.68,22.68,236.24-.01,1.86-.19,5.08-.08,7.22,0,0,59.19,1.85,59.21,0,2.06-11.58,1.06-43.69-1.09-72.47Z"></path><path fill="#d2e3fc" d="M249.05,783.17c-.02,1.85-.83,3.33-1.81,3.33h-.02c-.98-.03-1.77-1.51-1.78-3.33h-50.73c-.02,1.85-.83,3.33-1.81,3.33h-.02c-1-.03-1.8-1.55-1.79-3.42,.29-37.95-1.5-73.38-4.21-104.65-6.74-77.99-19.21-130.11-19.39-130.84-.11-.46-.18-1.08-.18-1.75,0,0-2.42-19.67,23.12-20.14,25.55-.47,37.03,14.54,37.83,18.25,.05,.19,3.12,13.93,7.21,38.62,1.36,8.18,2.82,17.56,4.32,28.05,3.78,26.45,6.95,64.37,8.42,107.96,2.15,28.78,2.9,53.01,.84,64.6Z"></path><path fill="#c5dcf8" d="M187.34,786.5h198.88s-4.63-22.63-119.81-19.26c-81.51,2.39-79.07,19.26-79.07,19.26Z"></path><path fill="#b7d3f3" d="M171.16,1022.91c23.06-140.97,17.13-227.48,17.1-228.57-.06-2.17,3.25-4.14,5.04-4.21,1.8-.04,9.76-.64,10.68,1.22,1.21,2.43,5.85,109.02-28.52,231.56h-4.3Z"></path><path fill="#b7d3f3" d="M356.85,1022.91c-23.06-140.97-17.13-227.48-17.1-228.57,.06-2.17-3.25-4.14-5.04-4.21-1.8-.04-9.76-.64-10.68,1.22-1.21,2.43-5.85,109.02,28.52,231.56h4.3Z"></path><path fill="#b7d3f3" d="M393.65,1022.91c-23.06-140.97-17.13-227.48-17.1-228.57,.06-2.17-3.25-4.14-5.04-4.21-1.8-.04-9.76-.64-10.68,1.22-1.21,2.43-5.85,109.02,28.52,231.56h4.3Z"></path><path fill="#b7d3f3" d="M208.2,1022.91c23.06-140.97,17.13-227.48,17.1-228.57-.06-2.17,3.25-4.14,5.04-4.21,1.8-.04,9.76-.64,10.68,1.22,1.21,2.43,5.85,109.02-28.52,231.56h-4.3Z"></path><rect fill="#b7d3f3" ry="5.43" rx="5.43" height="13.07" width="207.03" y="780.65" x="183.39"></rect><g><path fill="#ffb27d" d="M379.36,576.82l66.11-17.29,3.89,11.46s-72.94,52.42-79.78,49.85c-6.83-2.57,9.78-44.02,9.78-44.02Z"></path><path fill="#ffb27d" d="M319.25,937.89c-1.66,2.29-1.87,4.85-1.05,7.59,0,.01,0,.03,.02,.04,1.52,5.06,6.52,10.7,12.34,16.34,.74,.73,1.4,1.38,1.98,1.99,.15,.16,.3,.32,.44,.48,.12,.12,.23,.25,.34,.37,5.42,6.04,3.38,7.42,13.12,19.67,11.11,13.96,18.76,14.21,20.93,12.94,1.84-1.08-1.9-8.49-6.04-16.81-.2-.4-.4-.81-.6-1.21-.55-1.11-1.1-2.23-1.65-3.34-4.86-10.01-3.61-14.71-2.46-29.62,.94-12.11,15.6-67.66,15.6-67.66l-21.29-4.43s-6.41,44.23-13.47,51.05c-3.78,3.63-8.01,3.68-11.64,6.37-.26,.19-.51,.38-.76,.58-2.06,1.65-4.16,3.36-5.82,5.65Z"></path><path fill="#1c468a" d="M319.25,937.89c-1.66,2.29-1.87,4.85-1.05,7.59,0,.01,0,.03,.02,.04,1.86,5.05,6.74,10.67,12.36,16.29,.73,.74,1.38,1.41,1.96,2.04,.15,.16,.3,.32,.44,.48,.12,.12,.23,.25,.34,.37,5.42,6.04,3.38,7.42,13.12,19.67,11.11,13.96,18.76,14.21,20.93,12.94,1.84-1.08-1.9-8.49-6.04-16.81-2.16-.96-12.21-5.88-19.8-17.62-6.69-10.31-11.15-23.55-15.71-31.23-.26,.19-.51,.38-.76,.58-2.06,1.65-4.16,3.36-5.82,5.65Z"></path><path fill="#ffb27d" d="M490.91,921.83c1.31,7.94,10.68,6.61,21.15,3.52,10.47-3.09,7.98,.58,22.87-1.41,14.89-1.99,19.41-8.7,19.86-11.37,.41-2.37-6.95-3.21-14.85-4.31-.99-.13-1.99-.28-2.99-.43-8.91-1.35-15.44-8.29-23.53-14-7.67-5.4-19.11-27.42-19.11-27.42l-20.43,1.95s10.72,19.66,14.86,28.21c2.44,5.03,2.31,11.68,2,16.81-.16,2.79-.31,5.64,.16,8.44Z"></path><path fill="#1c468a" d="M512.06,925.36c10.47-3.09,7.98,.58,22.87-1.41,14.89-1.99,19.41-8.7,19.86-11.37,.41-2.37-6.95-3.21-14.85-4.31l-.07,.18s-8.93,7.65-21.33,8.01c-10.1,.3-20.81-3.2-27.79-3.06-.16,2.79-.31,5.64,.16,8.44,1.31,7.94,10.68,6.61,21.15,3.52Z"></path><path fill="#ffb27d" d="M445.46,559.53s4.87-14.4,10.22-14.99c5.35-.59,22.39-3.82,23.6-.88,1.22,2.94,0,13.52-3.65,17.34-3.65,3.82-26.28,9.99-26.28,9.99l-3.89-11.46Z"></path><path fill="#163560" d="M412.64,764.1l-44.02,143.07s-6.76,.79-13.25-1.47c-5.97-2.08-12.8-7.53-12.8-7.53,0,0,10.92-137.37,30.94-165.95,20.02-28.57,39.13,31.87,39.13,31.87Z"></path><path fill="#1c468a" d="M238.52,706.23s126.49-51.65,154.71-40.66c28.21,10.99,112.91,214.5,112.91,214.5,0,0-1.91,3.07-7.13,5.43-4.85,2.2-16.6,2.06-16.6,2.06,0,0-76.44-79.13-85.54-102.21-9.1-23.08-12.74-45.06-21.84-42.86-9.1,2.2-117.39,53.85-141.97,23.08-24.57-30.77-18.15-70.75-18.15-70.75l23.61,11.41Z"></path><path fill="#b5453c" d="M310.63,342c-5.47-3.75-12.02-4.16-16.6-3.84,1.18-1.47,3.5-2.01,3.5-2.01-2.84-.51-9.19,2.89-9.19,2.89-39.53-18.4-45.75,51.9-44.92,68.23,.82,16.33,.92,35.13-18.81,49.77-38.83,28.82-6.07,79.13-6.07,79.13,.31,.22,18.07,36.6,18.07,36.6-1-13.2,49.43-82.84,75.73-103.7,6.4-11.39,8.68-31.5,8.85-33.08-1.11,15.95-3.36,24.89-5.38,29.93,22.28-24.76,9.31-113.99-5.19-123.93Z"></path><path fill="#ffb27d" d="M310.79,470.12c.13,.07-12.7,8.12-22.35,4.93-9.08-2.99-15.01-17.21-14.89-17.24,3.85-.92,4.95-7.3,4.87-34.73l1.74,.41,29.23,6.99s-.67,11.11-.68,21.57c-.02,8.79,.42,17.12,2.09,18.06Z"></path><path fill="#ed975d" d="M309.39,430.49s-.67,11.11-.68,21.57c-16.36-.56-25-18.58-28.54-28.56l29.23,6.99Z"></path><path fill="#b5453c" d="M277.14,419.66s-8.57-16.36-10.63-30.34c-1.47-9.98,2.74-46.99,33.54-41.66,0,0,8.94,1.06,17.35,7.92,6.69,5.45,16.34,17.23,5.55,49.52l-2.8,10.91-43.01,3.65Z"></path><path fill="#ffb27d" d="M314.85,440.4s-38.7,.77-38.73-28.34c-.03-29.11-5.04-48.62,19.67-50.34,24.71-1.72,29.52,9.38,31.48,19.09,1.97,9.71-2.36,58.64-12.43,59.59Z"></path><path fill="#b5453c" d="M313.42,361.01s-10.6,34.15-26.86,39.2c-16.26,5.05-23.31-.21-23.31-.21,0,0,12.47-11.97,15.06-32.85,0,0,27.12-22.39,35.11-6.14Z"></path><path fill="#b5453c" d="M310.8,363.78s7.91,7.62,9.84,15.04c1.93,7.41,2.8,22.67,6.48,22.15,0,0,7.98-23.21-.99-36.35-9.51-13.92-15.33-.85-15.33-.85Z"></path><path fill="#1c468a" d="M224.62,595.85c-3.82-19.33,9.17-56.84,22.72-87.89,12.3-28.14,25.06-50.97,26.21-50.15,32.44,23.25,35.37,3.92,35.37,3.92h0s29.46,4.73,37.81,22.07c10.35,21.52,21.53,81.64,32.63,93.02-1.71,6.3-.97,9.66,.83,17.47,.39,1.68,.81,3.27,1.29,4.77,1.67,5.49,3.77,9.95,5.57,13.82-5.64,4.14-16.55,12.02-24.58,6.35-12.24-8.65-21.8-35-27.17-45.49-.02-.04-.04-.08-.06-.12-11.69,79.88,4.2,98.07-3.84,106.49-8.49,8.89-20.63-4.23-47.32,9.74-17.51,9.17-41.81,22.44-58.17,24.74-8.58,1.22-14.98-.59-17.07-7.58-6.07-20.33,23.06-74.33,15.77-111.18Z"></path><path fill="#fff" d="M306.25,422.75s.72,3.7,8.34,3.13c0,0,6.4-.48,6.2-4.54,0,0-6.2-2.89-14.54,1.41Z"></path><path fill="#163560" d="M208.84,707.03c2.09,7,8.49,8.8,17.07,7.58,11.32-5.96,60.23-28.84,59.68-44.34-.81-22.96-9.4-23.69-3.34-52.02,4.87-22.75-40.32-65.05-47.53-74.25-13.55,31.05-13.93,32.52-10.11,51.85,7.28,36.85-21.84,90.85-15.77,111.18Z"></path><path fill="#1c468a" d="M203.32,624.24c8.67-14.71,17.71-22.49,23.65-26.4-1.37-4.26,36.48-60.29,36.48-68.98s10.1-71.05,10.1-71.05c0,0-31.54,2.35-42.46,20.74-13.66,23-42.02,111.51-27.78,145.69Z"></path><path fill="#ffb27d" d="M226.97,597.84l63.02,19.86-5.92,12.82s-76.7-.65-80.76-6.28c-4.06-5.64,23.65-26.4,23.65-26.4Z"></path><path fill="#163560" d="M335.3,573.76c5.38,10.49,14.93,36.83,27.17,45.49,8.03,5.66,18.93-2.21,24.58-6.35-1.81-3.87-3.9-8.33-5.57-13.82-4.51,1.24-10,2.84-13.55,4.13-6.9,2.52-32.63-29.43-32.63-29.43Z"></path><path fill="#ffb27d" d="M289.99,617.7s19.79-6.76,24.51-5.18c4.71,1.58,20.87,14.5,18.6,18-2.27,3.51-16.5-2.1-23.05-1.04-6.55,1.06-11.61,4.96-16.33,4.12-4.71-.84-9.64-3.08-9.64-3.08l5.92-12.82Z"></path><path fill="#ffb27d" d="M289.99,617.7s9.68-6.01,12.44-9.43c.35-.43,.94-.34,1.2,.17,.74,1.41,1.43,4.12-1.97,6.82-4.89,3.89-11.67,2.44-11.67,2.44Z"></path></g></g><g><path fill="#ed7d2b" d="M381.46,651.33h-92.34c0-4.91,3.3-8.89,7.36-8.89h84.98v8.89Z"></path><polygon fill="#ed7d2b" points="381.19 529.89 523.95 529.89 489.71 651.33 346.02 651.33 381.19 529.89"></polygon><polygon fill="#f99746" points="526.05 529.89 491.81 651.32 348.13 651.32 383.29 529.89 526.05 529.89"></polygon><path fill="#f9ddbf" d="M449.09,589.48c-.89,4.64-4.72,8.4-8.56,8.4s-6.24-3.76-5.35-8.4c.89-4.64,4.72-8.4,8.56-8.4s6.24,3.76,5.35,8.4Z"></path><path fill="#ed893e" d="M526.05,529.89l-34.25,121.44h-95.15c63.03-25.98,79.81-105.2,82.63-121.44h46.77Z"></path></g></g><g><path fill="#95c0f4" d="M111.61,1022.91c1.81,0,3.35-1.53,3.66-3.62l17.93-122.73,25.79-176.51,7.21-49.36-18.37-.63-3.19,28.65-22.38,201.36-13.27,119.35c-.2,1.85,1.02,3.49,2.61,3.49Z"></path><path fill="#78acea" d="M144.64,698.7c11.9,6.34,14.35,21.34,14.35,21.34l7.21-49.36-18.37-.63-3.19,28.65Z"></path></g><g><path fill="#95c0f4" d="M568.51,1022.91c-1.81,0-3.35-1.53-3.66-3.62l-17.93-122.73-25.79-176.51-7.21-49.36,18.37-.63,3.19,28.65,22.38,201.36,13.27,119.35c.2,1.85-1.02,3.49-2.61,3.49Z"></path><path fill="#78acea" d="M535.47,698.7c-11.9,6.34-14.34,21.34-14.34,21.34l-7.21-49.36,18.37-.63,3.19,28.65Z"></path></g><rect fill="#78acea" transform="translate(669.11 1341.36) rotate(180)" ry="16.09" rx="16.09" height="38.76" width="492.82" y="651.3" x="88.14"></rect><rect fill="#2e3552" ry="2.16" rx="2.16" height="5.19" width="1620" y="1022.81" x="0"></rect><g><path fill="#ffb27d" d="M1193.87,390.45s-6.57-25.59-10.3-28.34c-3.73-2.75-19.28-12.01-20.2-9.51-.92,2.5,8.4,14.65,10.47,18.71,2.07,4.05,3.11,8.06,1.66,6.31-1.45-1.75-9.32-7.61-10.15-6.31-.83,1.3,3.94,6.31,6.21,10.31,2.28,4,4.76,10.76,12.84,12.26,8.08,1.5,9.47-3.43,9.47-3.43Z"></path><path fill="#ffb27d" d="M1433.25,605.88s-1.97,23.11-4.13,27.48c-2.16,4.37-11.36,18.34-15.27,21.08-3.92,2.74,2.39-18.41,1.59-22.52-.8-4.12-3.22,7.51-4.95,7.78-1.73,.27-1.28-10.19-1.34-14-.06-3.81,8.4-13.21,11.38-21.32,2.98-8.11,12.72,1.49,12.72,1.49Z"></path><path fill="#233862" d="M1373.24,368.75s-15.91,94.32-103.48,125.14c-27.34,9.62-89.44-99.06-89.44-99.06,0,0,2.18-10.02,15.86-7.72,0,0,60.47,48.34,68.08,53.6,6.75,4.66,51.18-59.9,71.43-70.32,20.25-10.41,37.55-1.64,37.55-1.64Z"></path><g><path fill="#233862" d="M1477.79,961.69s10.86,11.97,8.74,20.48c-2.12,8.51-11.92,14.18-13.25,24.58-1.32,10.4-6.62,16.07-11.39,16.07h-22.74s-3.51-7.32,4.97-9.52c8.48-2.21,11.68-14.42,11.15-25.77-.53-11.34,.79-26.47,.79-26.47l18.02-5.04,3.71,5.67Z"></path><path fill="#233862" d="M1344.51,992.65s1.95,27.25-2.82,30.08l-61.04-.15s0-8.51,9.8-10.4c9.8-1.89,27.03-8.82,29.94-24.26,2.91-15.44,24.11,4.73,24.11,4.73Z"></path><path fill="#f99746" d="M1292.97,607.76s3.22,47.76,7,105.18c5.14,77.99,11.33,173.79,11.94,191.94,1.06,31.51,5.3,81.92,5.3,81.92,0,0,10.06,11.98,30.21,6.93,0,0,17.95-71.96,23.08-148.1,.08-1.25,.16-2.51,.24-3.76,4.77-77.51,12.19-240.72,12.19-240.72l-89.95,6.62Z"></path><path fill="#ed7d2b" d="M1292.97,607.76s3.22,47.76,7,105.18l70.52,132.69c.08-1.25,.16-2.51,.24-3.76,4.77-77.51,12.19-240.72,12.19-240.72l-89.95,6.62Z"></path><path fill="#f99746" d="M1307.68,613.43s58.03,172.97,96.18,254.26c38.15,81.29,50.08,103.97,50.08,103.97,0,0,21.86-10.4,23.85-17.49,0,0-14.59-156.93-40.14-195.19-14.44-21.62-31.4-86.49-32.19-109.17-.79-22.69-5.17-67.58-5.17-67.58l-92.61,31.19Z"></path></g><path fill="#ffb27d" d="M1384.02,346.86s-39.26,22.88-61.9,14.39c0,0,5.57-8.49,15.32-14.8-.78-5.49-1.39-10.25-1.74-14.29-.96-9.32-.96-14.6-.96-14.6l15.15-14.39,14.36-13.77c-1.13,38.72,19.76,57.45,19.76,57.45Z"></path><path fill="#2a4e96" d="M1404.71,591.09c.09,2.9-5.05,6.21-7.31,7.45-16.8,8.91-32.47,15.11-50.23,17.19-20.98,2.59-45.79-3.11-54.32-2.9-.87,0-1.65-.41-2.35-1.14-.61-.52-1.04-31.05-.61-69.46,0-1.55,0-3.1,.09-4.65v-.52c.17-15.01,.61-30.75,1.22-46.48,1.22-34.57,3.49-67.91,7.31-86.33,4.61-21.74,15.06-36.13,24.55-46.59l7.83-8.28c7.84,1.86,16.11,1.34,24.38-3.52,9.05-5.28,18.8-10.97,20.37-9.52,11.84,10.45,19.85,33.95,24.12,63.98,.02,.15,.04,.29,.06,.44,2.39,17.17,3.59,36.37,3.51,56.49,0,7.46-.17,15.11-.52,22.67-1.75,34.24-.58,64.71,.57,85.83,.22,4.17,.45,7.98,.65,11.38,.35,6,.61,10.66,.7,13.97Z"></path><path fill="#233862" d="M1403.37,565.74c-65.08-90.74-24.71-156.7-24.71-156.7l21.16-8.29c2.39,17.17,3.59,36.37,3.51,56.49,0,7.46-.17,15.11-.52,22.67-1.75,34.24-.58,64.71,.57,85.83Z"></path><path fill="#ed985f" d="M1364.52,304.21s-9.92,21.84-28.82,27.95c-.96-9.32-.96-14.6-.96-14.6l15.15-14.39,14.63,1.03Z"></path><path fill="#ffb27d" d="M1327.84,316.93s37.46,7.4,40.97-20.41c3.52-27.81,10.72-45.58-13.05-51.48-23.77-5.9-29.76,3.88-32.84,12.82-3.07,8.94-4.74,56.43,4.91,59.07Z"></path><path fill="#2c3a64" d="M1382.43,241.72c.34-.47,1.12-.85,2.87-.97,0,0-1.39-1.05-3.26-1.11-.36-2.93-1.66-8.12-5.83-9.38,0,0,2.24,1.45,2.54,4.56-4.84-6-15.2-10.37-43.91-7.63-37.83,3.61-25.36,32.86-20.47,36.34,4.9,3.49,17.23-6.07,26.35-5.2,9.12,.87,10.86,16.8,13.96,18.98,3.1,2.18,1.88-1.68,6.07-3.97,4.19-2.29,4.59,6.1,3.38,11.54-1.21,5.45,4.55,12.64,4.55,12.64l5.82-7.56c5.82-7.56,11.3-39.6,8.65-46.43-.23-.6-.46-1.21-.7-1.83Z"></path><path fill="#2a4e96" d="M1375.62,336.11s23.7,13.55,35.06,34.39c17.63,32.32,38.06,150.1,38.43,161,.38,10.91-14.91,87.91-14.91,87.91,0,0-15.51-1.23-19.51-10.69,0,0,3.1-79.11,1.13-84.2-1.96-5.09-64.64-106.12-57.6-127.68,7.05-21.56,17.39-60.72,17.39-60.72Z"></path></g><rect fill="#fcecdb" ry="16.92" rx="16.92" height="40.76" width="123.04" y="472.43" x="1070.83"></rect><g><path fill="#f99746" d="M1132.14,501.72c-.66,0-1.27-.42-1.61-1.11l-4.91-10.14c-.52-1.07-.22-2.45,.67-3.08,.89-.63,2.03-.27,2.55,.81l3.15,6.5,5.93-14.74c.45-1.12,1.57-1.58,2.49-1.04,.93,.54,1.31,1.89,.86,3.01l-7.46,18.53c-.3,.75-.92,1.23-1.6,1.27-.02,0-.05,0-.07,0Z"></path><path fill="#f99746" d="M1132.14,506.94c-6.38,0-11.57-6.27-11.57-13.97s5.19-13.97,11.57-13.97,11.57,6.27,11.57,13.97-5.19,13.97-11.57,13.97Zm0-26.31c-5.63,0-10.21,5.53-10.21,12.33s4.58,12.33,10.21,12.33,10.21-5.53,10.21-12.33-4.58-12.33-10.21-12.33Z"></path></g><g><path fill="#d2e3fc" d="M604.75,366.82h-99.88c-13.12,0-23.86,12.97-23.86,28.81v45.63c0,7.24,2.25,13.88,5.93,18.95l-5.93,32.76,34.22-22.9h89.52c13.12,0,23.86-12.97,23.86-28.81v-45.63c0-15.85-10.74-28.81-23.86-28.81Z"></path><path fill="#b7d3f3" d="M606.63,401.58h-103.55c-2.13,0-3.88-2.11-3.88-4.68h0c0-2.57,1.74-4.68,3.88-4.68h103.55c2.13,0,3.88,2.11,3.88,4.68h0c0,2.57-1.74,4.68-3.88,4.68Z"></path><path fill="#b7d3f3" d="M606.63,422.06h-103.55c-2.13,0-3.88-2.11-3.88-4.68h0c0-2.57,1.74-4.68,3.88-4.68h103.55c2.13,0,3.88,2.11,3.88,4.68h0c0,2.57-1.74,4.68-3.88,4.68Z"></path><path fill="#b7d3f3" d="M606.63,441.78h-103.55c-2.13,0-3.88-2.11-3.88-4.68h0c0-2.57,1.74-4.68,3.88-4.68h103.55c2.13,0,3.88,2.11,3.88,4.68h0c0,2.57-1.74,4.68-3.88,4.68Z"></path></g></g></g></g></svg>