<svg viewBox="0 0 1920 1028" xmlns="http://www.w3.org/2000/svg"><g id="a"></g><g id="b"><g id="c"><g><path fill="#ebf3fa" d="M66.11,1025.43S-126.58,575.96,145.99,412.78c272.57-163.18,292.69-10.52,476.35-214.54C805.99-5.78,1037.73-34.58,1205.1,32.13c167.37,66.71,68.03,219.89,250.79,250.1,182.76,30.22,462.25,135.5,370.17,355.63-92.08,220.13,117.64,118.79,63.71,387.56H66.11Z"></path><path fill="#d2e0ff" d="M603.68,598.24s63.89-135.02-12.03-221.96c0,0-14.99-16.65-35.77-2.22-20.79,14.43,12.28,43.4,26.65,68.96,14.38,25.57,36.21,99.95,21.15,155.22Z"></path><path fill="#d2e0ff" d="M622.34,578.8s82.89-85.8,46.57-173.38c0,0-7.29-16.89-26.85-11.58-19.55,5.31-1.5,36.64,3.09,60.2,4.59,23.56,2.62,86.58-22.81,124.76Z"></path><path fill="#d2e0ff" d="M484.99,594.29s66.36-22.68,47.47-76.06c0,0-16.79-33.85-39.26-46.32,0,0-.65,73.62-13.71,72.65-13.06-.97,6.37-81.98,6.37-81.98,0,0-56.94-44.78-82.1-47.4,0,0,25.95,77.4,13.52,73.09-12.43-4.31-43-83.54-43-83.54,0,0-62.16-25.91-80.08,12.02-17.92,37.93-4.98,61.44,4.11,65.93,9.09,4.49,70.58,16.38,67.41,24.4-3.17,8.02-47.11,12.79-68.79,.48,0,0,13.04,71.25,47.12,74.85,34.09,3.6,48.54-15.96,69.56-13.34,21.03,2.63,35.06,11.61,23.6,15.31-11.46,3.7-45.76-7.5-65.31,3.94-19.54,11.44-34.82,17.81-5.01,30.94,29.8,13.12,86.35,20.52,102.23-2.22l15.88-22.74Z"></path><path fill="#d2e0ff" d="M321.3,435.38s156.56,91.48,163.69,158.91c0,0-7.42,30.57-15.88,22.74,0,0,47.84-47.34-147.81-181.65Z"></path><g><g opacity=".4"><polygon fill="#b6cbfb" points="1539.86 664.3 1293.49 688.71 1262.83 348.56 1509.2 324.15 1539.86 664.3"></polygon></g><rect fill="#e2eafd" transform="translate(-36.81 150.34) rotate(-5.17)" height="341.52" width="247.34" y="312.33" x="1524.03"></rect><g><g opacity=".4"><polygon fill="#b6cbfb" points="1367.41 499.17 1310.31 504.83 1309.82 499.42 1366.92 493.77 1367.41 499.17"></polygon></g><g opacity=".4"><polygon fill="#b6cbfb" points="1433.41 492.64 1376.31 498.29 1375.82 492.88 1432.92 487.23 1433.41 492.64"></polygon></g></g><g><g opacity=".4"><polygon fill="#b6cbfb" points="1397.94 480.27 1311.48 488.83 1310.99 483.42 1397.45 474.86 1397.94 480.27"></polygon></g><g opacity=".4"><polygon fill="#b6cbfb" points="1497.47 470.41 1411.01 478.97 1410.52 473.56 1496.99 465 1497.47 470.41"></polygon></g></g><g><g opacity=".4"><polygon fill="#b6cbfb" points="1399.83 512.87 1313.37 521.44 1312.88 516.03 1399.34 507.47 1399.83 512.87"></polygon></g><g opacity=".4"><polygon fill="#b6cbfb" points="1499.37 503.01 1412.9 511.58 1412.42 506.17 1498.88 497.61 1499.37 503.01"></polygon></g></g><g><g opacity=".4"><polygon fill="#b6cbfb" points="1367.19 434.02 1310.09 439.68 1309.6 434.27 1366.71 428.62 1367.19 434.02"></polygon></g><g opacity=".4"><polygon fill="#b6cbfb" points="1433.19 427.49 1376.09 433.14 1375.6 427.74 1432.71 422.08 1433.19 427.49"></polygon></g></g><g><g opacity=".4"><polygon fill="#b6cbfb" points="1395.19 415.37 1308.72 423.93 1308.24 418.52 1394.7 409.96 1395.19 415.37"></polygon></g><g opacity=".4"><polygon fill="#b6cbfb" points="1494.72 405.51 1408.26 414.07 1407.77 408.67 1494.23 400.1 1494.72 405.51"></polygon></g></g><g><g opacity=".4"><polygon fill="#b6cbfb" points="1399.62 447.72 1313.15 456.29 1312.67 450.88 1399.13 442.32 1399.62 447.72"></polygon></g><g opacity=".4"><polygon fill="#b6cbfb" points="1499.15 437.86 1412.69 446.43 1412.2 441.02 1498.66 432.46 1499.15 437.86"></polygon></g></g><g><g><path fill="#f77d48" d="M1410.36,593.06l-6.45,20.46h-8.28l21.17-65.05h9.58l21.17,65.05h-8.56l-6.63-20.46h-22Zm20.44-6.56l-6.17-18.72c-1.38-4.25-2.3-8.11-3.22-11.87h-.18c-.92,3.76-1.84,7.82-3.13,11.77l-6.08,18.82h18.78Z"></path><path fill="#f77d48" d="M1421.5,637.33c-27.42,0-49.72-23.38-49.72-52.12s22.31-52.13,49.72-52.13c.93,0,1.69,.79,1.69,1.77s-.76,1.77-1.69,1.77c-25.56,0-46.35,21.8-46.35,48.58s20.79,48.58,46.35,48.58c16.55,0,31.96-9.36,40.22-24.42,.46-.85,1.5-1.14,2.31-.65,.81,.49,1.09,1.57,.62,2.42-8.85,16.16-25.39,26.2-43.15,26.2Z"></path></g><g><path fill="#ffb27d" d="M1577.05,686.91s-11.33,3.24-13.11,3.98c-1.79,.74-7.25,4.29-6.3,5.23,.95,.94,7.68,5.25,9.96,4.02,2.28-1.23,5.52,1.1,8.96-6.43l.5-6.8Z"></path><path fill="#6980e2" d="M1659.95,641.34s-27.28,28.56-41.46,35.39c-10.13,4.88-46.02,10.19-46.02,10.19l2.31,9.91s23.69,4.69,40.87,4.85c26.86,.24,36.06-16.99,36.06-16.99l8.25-43.34Z"></path><path fill="#1c4b8e" d="M1728.82,1003.77s-1.14,19.28-4.7,19.55c-.47,.04-18.04,.04-18.04,.04l-22.43-.14s.15-5.67,6.7-6.86c6.56-1.2,17.53-6.03,21.5-15.11,4.18-9.56,16.97,2.52,16.97,2.52Z"></path><path fill="#2b478b" d="M1730.11,1005.11s-6.82,2.39-12.14,2.39c-5.94,0-11.33-1.69-11.33-1.69,0,0-1.28-13.01-8.35-41.69-3.7-15.03-8.99-34.35-16.52-58.37-20.81-66.36-27.13-105.19-27.71-108.86-.03-.19-.04-.29-.04-.29l.07-.03,63.96-29.44s-7.9,91.46,2.18,126.57c1.41,4.91,2.62,10.62,3.66,16.82,6.37,38.13,6.22,94.59,6.22,94.59Z"></path><path fill="#233862" d="M1698.29,964.12c-3.7-15.03-8.99-34.35-16.52-58.37-20.81-66.36-27.13-105.19-27.71-108.86,0-.11,.01-.21,.02-.32l63.96-29.44s-7.9,91.46,2.18,126.57c1.41,4.91-21.94,70.42-21.94,70.42Z"></path><path fill="#1c4b8e" d="M1678.86,1003.77s-1.14,19.28-4.7,19.55c-.47,.04-18.04,.04-18.04,.04l-22.43-.14s.15-5.67,6.7-6.86c6.56-1.2,17.53-6.03,21.5-15.11,4.18-9.56,16.97,2.52,16.97,2.52Z"></path><path fill="#2b478b" d="M1642.6,769.28s-.83,59.27,8.95,132.04c9.78,72.77,6.47,103.66,6.47,103.66,0,0,6.72,2.28,9.43,2.51,6.91,.59,14-1.7,14-1.7,0,0,14-72.8,9.99-109.22-4.01-36.42,19.17-124.99,19.17-124.99l-68.01-2.31Z"></path><path fill="#ffb27d" d="M1687.95,630.58l-12.48,8.58-11.37-3.37c-2.08-3.11-2.63-9.1-2.66-14.29-.03-5.15,.45-9.52,.45-9.52l16.85-7.79,6.29-2.9c-.02,.1-.49,5.41-.56,6.19-1.17,13.76,3.5,23.11,3.5,23.11Z"></path><path fill="#8c9df4" d="M1642.31,785.76c15.54,15.73,74.36,13.08,77.98-4.25,3.62-17.33-3.95-147.53-30.5-155.71-5.51-1.7-34.96,8.28-34.96,8.28,0,0-4.62,12.67-7.65,28.81-.59,3.14-2.31,36.41-3.59,67.54-.6,14.56-1.11,28.65-1.36,38.97-.24,9.66-.25,16.01,.09,16.36Z"></path><path fill="#fca56b" d="M1683.19,607.71c-3.42,6.06-15.41,11.36-21.76,13.79-.03-5.15,.45-9.52,.45-9.52l16.85-7.79c3.72-.05,5.99,.82,4.47,3.53Z"></path><path fill="#ffb27d" d="M1655.52,610.91s27.14,8.88,32.15-8.93c5.01-17.8,11.89-28.65-5.23-35.07-17.12-6.42-22.41-.67-25.46,4.84-3.05,5.52-8.4,36.39-1.46,39.15Z"></path><path fill="#163560" d="M1658.05,570.04s1.73,20.72,5.82,19.82c4.09-.9,8.59-2.82,7.99,3.42-.6,6.25,3.97,16.95,9.87,16.93,12.64-.06,26.37-34.06,22.91-40.5-9.98-18.6-61.02-22.36-46.59,.34Z"></path><path fill="#6980e2" d="M1662.05,626.25c.35-.15,20.21-9.49,22.53-8.69,2.32,.8,5.22,8.24,5.22,8.24l-34.96,8.29s2.75-5.87,7.22-7.84Z"></path><path fill="#6980e2" d="M1642.22,769.4c61.33-45.81,56.23-106.94,56.23-106.94-22.41,13.25-44.66,42.56-54.86,67.98-.6,14.56-1.11,28.65-1.36,38.97Z"></path><g><path fill="#8c9df4" d="M1727.71,894.87c-.57,.59-1.18,1.15-1.8,1.65-2,1.62-4.22,2.79-6.54,3.49-1.81,.55-3.69,.82-5.56,.8-5.02-.03-10.03-2.06-13.84-6.1l-193.79-205.31c-7.58-8.03-7.93-21.07-.41-29.15,3.88-4.17,9.02-6.24,14.16-6.21,5.02,.02,10.03,2.06,13.85,6.1l194.09,205.63c7.62,8.08,7.56,21.1-.15,29.09Z"></path><path fill="#8c9df4" d="M1729.7,862.44l-43.46-46.04c-.99-1.05-.98-2.75,.02-3.79l.65-.67c1-1.04,2.63-1.03,3.62,.02l43.46,46.04c.99,1.05,.98,2.75-.02,3.79l-.65,.67c-1,1.04-2.63,1.03-3.62-.02Z"></path><polygon fill="#6980e2" points="1723.18 860.82 1715.96 853.18 1718.49 850.56 1725.7 858.21 1723.18 860.82"></polygon><path fill="#6980e2" d="M1719.36,900.02c-1.81,.55-3.69,.82-5.56,.8-5.02-.03-10.03-2.06-13.84-6.1l-41.11-43.56,7.28-7.55,53.24,56.4Z"></path><polygon fill="#f99746" points="1481.04 662.79 1669.19 862.11 1676.8 854.92 1698.39 834.57 1509.17 634.09 1488.38 655.3 1481.04 662.79"></polygon><polygon fill="#ef873a" points="1481.04 662.79 1669.19 862.11 1676.8 854.92 1488.38 655.3 1481.04 662.79"></polygon><path fill="#6980e2" d="M1467.12,613.24c-2.18-1.08-4.5,1.2-3.6,3.55l4.26,11.18,13.27,34.82,28.13-28.69-31.11-15.43-10.94-5.43Z"></path><path fill="#163560" d="M1462.6,614.4l5.17,13.57,10.29-9.3-13.16-6.53c-1.39-.69-2.87,.76-2.3,2.26Z"></path></g><path fill="#ffb27d" d="M1581.69,748.54c-4.32-1.05-7.23-4.47-7.83-5.07,0,0-1.84,.13,.3,4.26,.18,.35,.58,1.23,.88,1.86,.12,.26-.05,.55-.32,.58-2.5,.2-5-.84-9.81,.21-.66,.14-.86,1.81-.83,2.52,.04,1.2-.04,2.55,1.29,4.39,.78,1.07,2.94,2.22,7.75,4.25,1.83,.77,7.08,.19,11.99-1.58l3.93-1.9-1.22-7.65-.99,.22c-1.57,.34-3.51-1.66-5.14-2.08Z"></path><path fill="#8c9df4" d="M1679.42,634.09s55.1,11-16.21,94.65c-11.41,13.38-73.03,30.8-73.03,30.8,0,0-6.25-5.57-3.1-10.09,0,0,42.43-32.3,51.76-37.43,4.2-2.31,16.3-51.55,23.14-63.41,6.85-11.86,17.43-14.52,17.43-14.52Z"></path><path fill="#ffb27d" d="M1570.1,690.89s-3.7,1.25-5.55,1.29c-1.85,.04-7.46,1.44-8.54,2.24-.43,.32-.17,1.68,1.39,2.12,.68,.19,1.99,.06,3.58-.29,2.6-.58,5.87,.18,7.02,.03,2.88-.39,2.09-5.38,2.09-5.38Z"></path></g></g></g><g><path fill="#2b478b" d="M960.52,555.2c36.78,19.18,78.46,30,122.59,30,148.1,0,268.59-121.99,268.59-271.92,0-108.86-63.51-202.99-154.99-246.38l-6.24,12.93c86.75,41.06,147.01,130.27,147.01,233.45,0,142-114.11,257.53-254.37,257.53-41.88,0-81.45-10.31-116.33-28.55l-6.26,12.94Z"></path><polygon fill="#2b478b" points="1148.6 137.92 1159.8 144.69 1201.39 69.17 1189.88 62.97 1148.6 137.92"></polygon><polygon fill="#2b478b" points="966.78 542.25 975.93 552.08 1015.68 482.38 1004.19 475.66 966.78 542.25"></polygon><rect fill="#2b478b" transform="translate(2172.11 1445.26) rotate(180)" height="288.73" width="21.33" y="578.26" x="1075.39"></rect><rect fill="#2b478b" transform="translate(2172.11 1467) rotate(180)" height="16.2" width="119.98" y="725.4" x="1026.07"></rect><path fill="#9fb1ff" d="M1262.26,386.06c-24.3,63.36-75.27,107.13-133.91,122.8h0c-.08,.05-.15,.09-.24,.13-1.77,.9-3.83,1.37-5.85,1.39h0c-10.62,2.46-21.46,4.01-32.42,4.59-27.58,1.48-55.9-3.15-83.2-14.66-21.34-9-40.35-21.48-56.68-36.57-60.69-56.1-84.23-148.23-52.32-231.41,6.68-17.42,15.38-33.36,25.69-47.63,30.02-41.55,73.74-69.06,121.47-78.21,35.28-6.76,72.75-3.49,108.48,11.58,35.63,15.02,64.77,39.75,85.75,70.13,19.7,28.51,32.21,61.97,36.15,97.04,3.73,33.13-.18,67.68-12.89,100.8Z"></path><path fill="#8c9df4" d="M1124.23,178.28c-2.09,3.84-7.31,4.19-11.36,2.97-4.05-1.23-7.93-3.54-12.14-3.38-5.11,.21-9.64,4.33-11.37,9.38-1.73,5.05-.95,10.78,1.24,15.63,2.41,5.32,6.47,11.53,3.3,16.38-3.04,4.65-10.22,3.15-14.22-.62-4-3.77-6.55-9.14-10.99-12.34-5.57-4.02-13.12-3.76-19.51-1.43-6.39,2.33-12,6.48-17.89,9.99-2.01,1.2-4.24,2.37-6.53,2.04-2.29-.32-4.41-2.85-3.54-5.1,.59-1.51,2.18-2.25,3.46-3.19,5.51-4.09,5.18-13.45,.85-18.88-4.34-5.43-11.3-7.68-17.97-8.76-.18,8.7-12.97,13.14-12.16,21.8,.5,5.42,6.05,8.39,10.59,11.03,8.09,4.7,15.15,11.39,23.76,14.97,16.39,6.82,37.43,2.09,50.18,14.87,4.78,4.8,7.52,11.42,9.27,18.11,4.17,15.96,2.74,34.47-7.56,47-11.89,14.46-34,25.21-35.13,25.05-14.02-2.07-21.77-6.43-26.62-5.04-18.24,5.23-12.17,37.2-16.13,50.76-10.93,37.39-28.6,55.69-30.75,54.63-24.78-12.14-40.45-42.04-36.95-70.47,1.84-14.89,8.33-28.98,8.84-43.98,.45-13.14-3.74-25.93-5.17-38.99-2.63-24,4.52-49.01,19.3-67.54,3.19-4,6.78-7.79,8.8-12.55,2.03-4.76,2.12-10.91-1.32-14.68-4.08-4.48-11.11-3.81-16.67-1.68-5.56,2.12-11.03,5.37-16.93,4.98-3.63-.25-6.95-1.96-9.61-4.52,30.02-41.55,73.74-69.06,121.47-78.21,8.12,6.73,5.39,22.56,11.52,30.8,9.47,12.73,30.48,6.28,42.38,16.52,2.28,1.95,4.11,4.46,6.52,6.23,3.99,2.93,9.1,3.56,13.43,5.88,4.33,2.32,8,7.91,5.6,12.34Z"></path><path fill="#7c9af2" d="M927.23,316.16c.5,2.29,1,4.58,1.5,6.86,.34,1.58,.69,3.2,.44,4.8-.54,3.36-4.11,5.81-7.26,4.98-3.15-.83-5.2-4.75-4.16-7.98,.64-2,2.27-3.81,1.91-5.88-.75-4.33-9.15-8.88-1.95-11.06,5.34-1.61,8.6,3.69,9.53,8.27Z"></path><path fill="#fff" d="M1089.83,514.98c-27.58,1.48-55.9-3.15-83.2-14.66-21.34-9-40.35-21.48-56.68-36.57,6.21-1.26,12.61-1.7,18.1,1.3,1.68,.92,3.22,2.15,4.51,3.61,.89,1.01,1.69,2.15,2.78,2.92,1.15,.81,2.53,1.15,3.87,1.52,14.37,3.94,27.62,12.2,37.79,23.54,5.39-1.05,9.05-7.34,14.52-7.65,3.49-.2,6.58,2.1,9.74,3.65,6.45,3.16,13.81,3.29,20.92,3.7,7.1,.41,14.56,1.29,20.37,5.6,3.3,2.45,7.19,8.04,7.29,13.03Z"></path><path fill="#8c9df4" d="M1239,188.21c19.7,28.51,32.21,61.97,36.15,97.04-2.63,2.03-5.33,3.95-7.94,5.84-3.81,2.75-7.66,5.72-10.07,9.87-2.08,3.61-2.94,7.87-4.98,11.51-6.37,11.36-22.64,14.18-27.3,26.42-4.23,11.09,3.49,22.92,5.27,34.71,1.66,10.96-2.29,22.67-10.14,30.1-3.95,3.75-8.75,6.41-12.78,10.06-19.33,17.52-16.83,52.92-37.38,68.84-8.59,6.66-19.88,8.62-28.41,15.36-4.45,3.52-8.08,8.28-13.06,10.91h0c-.08,.05-.15,.09-.24,.13-1.77,.9-3.83,1.37-5.85,1.39h0c-3.81,.02-7.48-1.62-8.85-5.23-1.78-4.71,1.2-9.76,3.62-14.14,7.32-13.25,10.4-28.53,13.15-43.57,2.22-12.1,4.19-25.11-.64-36.33-1.78-4.15-4.42-7.84-6.2-11.98-2.78-6.53-3.25-14.23-.71-20.87,2.55-6.63,8.25-11.99,14.95-13.33,2.6-.52,5.35-.48,7.71-1.74,7.64-4.07,4.75-16.46,8.85-24.35,3.97-7.62,13.73-9.45,21.95-8.42,8.23,1.04,16.42,4.03,24.6,2.66,8.18-1.38,16.2-9.74,13.47-17.94-3.58-10.75-21.42-11.39-22.85-22.67-.47-3.73,1.19-7.68-.13-11.17-1.07-2.81-3.81-4.55-5.15-7.22-1.58-3.12-1.03-7.06-2.59-10.19-2.64-5.29-10.55-6.99-11.19-12.91-.71-6.54,7.64-9.11,12.66-13.08,6.74-5.37,7.69-17.06,1.91-23.54-4.22-4.72-11.86-8.85-9.89-14.98,1.59-4.92,8-5.28,12.92-4.7,8.87,1.03,17.75,2.06,26.62,3.09,10.15,1.18,13.51-.87,20.27-7.72,.79-.8,1.55-1.4,2.28-1.82Z"></path></g><g><g><path fill="#d2e0ff" transform="translate(2257.22 1800.04) rotate(180)" d="M995.4,850.87h227.48c21.49,0,38.94,17.45,38.94,38.94v21.29c0,21.01-17.06,38.07-38.07,38.07h-228.34v-98.3h0Z"></path><path fill="#a4c0f4" d="M796.7,891.32v14.79c0,7.9,1.78,15.3,4.88,21.66,6.24,12.8,17.85,21.4,31.14,21.4h436.23c2.89,0,5.23-2.8,5.23-6.24v-2.21c0-3.45-2.34-6.24-5.23-6.24h-265.92c-1.42-2.07-2.67-4.32-3.73-6.71-2.49-5.61-3.9-12-3.9-18.79v-18.8c0-3.46,.37-6.81,1.08-10,1.19-5.41,3.32-10.36,6.17-14.6h266.31c2.89,0,5.23-2.8,5.23-6.25v-2.21c0-3.45-2.34-6.25-5.23-6.25h-438.43c-15.45,0-28.48,12.38-32.53,29.3-.85,3.54-1.3,7.28-1.3,11.14Z"></path></g><polygon fill="#a4c0f4" points="1261.82 900.02 1229.52 901.67 1261.82 902.67 1261.82 900.02"></polygon><polygon fill="#a4c0f4" points="1261.82 915.45 1184.98 917.1 1261.82 918.09 1261.82 915.45"></polygon><g><g><path fill="#b6cbfb" d="M1132.48,948.97h231.22c16.01,0,29.01,13,29.01,29.01v16.56c0,17.05-13.84,30.89-30.89,30.89h-229.34v-76.46h0Z"></path><path fill="#d2e0ff" d="M884.29,948.97h261.61c16.35,0,29.62,13.27,29.62,29.62v16.56c0,16.72-13.57,30.29-30.29,30.29h-260.94v-76.46h0Z"></path><rect fill="#b6cbfb" ry="4.48" rx="4.48" height="11.44" width="326.62" y="1013.99" x="870.78"></rect><path fill="#b6cbfb" d="M875.26,948.97h317.66c2.47,0,4.48,2.01,4.48,4.48v2.48c0,2.47-2.01,4.48-4.48,4.48h-317.66c-2.47,0-4.48-2.01-4.48-4.48v-2.48c0-2.47,2.01-4.48,4.48-4.48Z"></path></g><polygon fill="#b6cbfb" points="884.29 987.2 919.59 988.48 884.29 989.26 884.29 987.2"></polygon><polygon fill="#b6cbfb" points="884.29 969.6 968.28 970.89 884.29 971.66 884.29 969.6"></polygon></g><g><path fill="#699dee" d="M1069.48,970.63s-3.6,3.29-4.79,8.69c-.21,.94-.35,1.96-.37,3.02-.2,7.17,0,23.41,0,23.41l-10.63-8.12-10.6,8.12v-22.01c0-4.16,.91-8.21,2.6-10.86,.82-1.28,1.81-2.25,2.94-2.25h20.86Z"></path><path fill="#568cdb" d="M1069.48,970.63s-3.6,3.29-4.79,8.69l-21.3,.32s.84-7.73,5.23-9.01h20.86Z"></path></g><g><g><path fill="#d2e0ff" transform="translate(2351.12 1589.82) rotate(-180)" d="M1032.08,738.74h242.46c24.56,0,44.5,19.94,44.5,44.5v24.33c0,24.01-19.5,43.51-43.51,43.51h-243.45v-112.34h0Z"></path><path fill="#b6cbfb" d="M1031.94,782.33v24.18c.06,10.33,4.78,19.28,11.71,24.07,3.41,2.35,7.36,3.69,11.55,3.69h271.39c3.18,0,5.76,3.12,5.76,6.98v2.85c0,3.85-2.58,6.98-5.76,6.98h-468.83c-13.45,0-25.34-8.1-32.52-20.5-4.53-7.81-7.19-17.32-7.19-27.6v-19.08c0-7.04,1.33-13.7,3.7-19.64,6.03-15.1,18.8-25.52,33.58-25.52h471.25c3.18,0,5.76,3.12,5.76,6.97v2.85c0,3.85-2.58,6.98-5.76,6.98h-272.22c-6.5,0-12.39,3.36-16.51,8.72-3.64,4.76-5.89,11.09-5.93,18.06Z"></path></g><polygon fill="#b6cbfb" points="1319.04 794.91 1284.25 796.8 1319.04 797.94 1319.04 794.91"></polygon><polygon fill="#b6cbfb" points="1319.04 769.06 1236.27 770.95 1319.04 772.08 1319.04 769.06"></polygon><g><path fill="#f99746" d="M1056.28,770.57s5.46,3.56,7.27,9.42c.32,1.02,.52,2.12,.57,3.28,.3,7.78,0,25.39,0,25.39l16.13-8.8,16.09,8.8v-23.86c0-4.51-1.38-8.9-3.94-11.78-1.24-1.39-2.75-2.44-4.46-2.44h-31.65Z"></path><path fill="#ed7d2b" d="M1056.28,770.57s5.46,3.56,7.27,9.42l32.32,.35s-1.27-8.38-7.94-9.77h-31.65Z"></path></g></g></g><g><path fill="#ffb27d" d="M337.59,645.56s7.89-11.54,13.94-15.77c6.05-4.23,22.2-8.65,22.01-5.58-.18,3.08-9.55,15.42-9.55,19.15s-13.37,3.93-16.01,5.72c-2.64,1.8-3.13,3.46-3.13,3.46l-7.28-6.99Z"></path><path fill="#f99746" d="M347.99,655.86s-23.33,49.78-45.46,50.81c-1.25,.06-2.55-.12-3.92-.52h0s-.04,0-.05-.02c-.35-.09-.7-.22-1.05-.34l-.05-.02c-3.37-1.26-7.06-3.74-10.87-7.14-1.15-1.02-2.32-2.13-3.49-3.31h0c-2.71-2.74-5.45-5.86-8.17-9.27-7.3-9.14-14.44-20.34-20.21-31.46-.12-.23-.24-.46-.36-.69-8.2-15.95-8.04-28.04-5.28-36.57,3.5-10.85,11.18-15.95,11.18-15.95,0,0,.01,0,.02,0,.21,.05,1.77,.42,4.12,1.3,6.12,2.28,17.56,7.92,24.03,19.71,1.17,2.14,2.19,4.49,2.97,7.05,6.9,22.51,11.72,40.43,15.38,39.27,5.83-1.85,29.67-27.51,29.67-27.51,0,0,2.88,.95,6.64,4.58,4.31,4.17,4.92,10.07,4.92,10.07Z"></path><path fill="#e8783a" d="M274.91,686.04h0c7.81,9.78,15.8,17.21,22.55,19.72l.05,.02,1.05,.35,.06,.02h0c-.24-.18-7.46-4.1-8.59-11.38-1.16-7.44,6.36-13.53-12.52-25.05-11-6.71-2.58,16.33-2.58,16.33Z"></path><path fill="#24406d" d="M292.19,1027.45h-51.88c-3.72-2.64,1-28.48,1-28.48,0,0,14.16-5.63,16.61,5.82,2.45,11.44,18.03,15.08,26.28,16.48,5.64,.96,7.43,4.21,7.99,6.18Z"></path><path fill="#8c9df4" d="M213.07,759.65s1.64,31.73,3.68,68.49c1.47,26.36,3.15,55.31,4.59,77,.19,2.88,.38,5.63,.56,8.23,.05,.81,.11,1.61,.17,2.4,3.72,48.62,16.14,91.22,16.14,91.22,14.59,3.22,21.18-2.67,21.18-2.67,0,0,10.05-123.48,13.77-173.28,2.74-36.66,5.07-90.03,5.07-90.03l-65.16,18.65Z"></path><path fill="#7185db" d="M216.75,828.14c1.47,26.36,3.15,55.31,4.59,77,9.54-23.58,29.02-115.49,29.02-115.49l-33.61,38.49Z"></path><path fill="#24406d" d="M215.24,1027.45h-51.88c-3.72-2.64,1-28.48,1-28.48,0,0,14.16-5.63,16.61,5.82,2.45,11.44,18.03,15.08,26.28,16.48,5.64,.96,7.43,4.21,7.99,6.18Z"></path><path fill="#8c9df4" d="M264.14,753.34s-37.05,96.67-48.89,133.32c-8.44,26.1-32.23,117.68-32.23,117.68,0,0-10.35,3.3-19.04-3.08,0,0-8.85-93.56,9.03-119.94,9.49-13.99,2.36-145.49,40.82-146.61,38.46-1.13,50.31,18.63,50.31,18.63Z"></path><path fill="#f99746" d="M283.64,737.06c-.81,11.08-3.04,19.01-7.93,19.01,0,0-21.77,8.03-47.78,8.25-5.08,.04-12.28-1-18.26-2.05-6.1-1.08-10.93-2.18-10.93-2.18-5.23-1.26-10.31-3.14-10.2-11.46,.02-1.66-.04-6.54-.12-13.55-.04-3.73-.1-8.06-.15-12.84-.05-4.71-.1-9.86-.15-15.28-.12-12.73-.2-26.96-.16-40.65h0c.04-13.56,.2-26.59,.57-37.11,.47-13,1.27-22.18,2.58-23.78h0c1.75-2.12,4.96-3.92,9.14-5.34,14.82-5.06,41.88-5.47,59.99,1.31,0,0,.01,0,.02,0,1.31,.5,2.58,1.03,3.8,1.6,3.29,1.55,6.16,3.38,8.47,5.52,1.63,1.5,6.74,10.29,8.53,20.91,.37,2.16,.6,4.41,.63,6.68,.15,9.98,.85,36.01,1.39,59.23,.47,20.19,.81,38.25,.56,41.75Z"></path><path fill="#ffb27d" d="M220.46,598.74c6.84,7.77,29.83,6.62,29.14-.16-.09-.84-.24-5.8-.32-6.57-.06-.62-.12-1.22-.16-1.79-.16-1.67-.28-3.15-.39-4.43-.31-3.72-.4-5.74-.4-5.74h-.02c-.66-.19-15.44-4.59-22.79-6.42-2.47-.61-4.1-.93-4.07-.71,2.25,17.31-3.23,23.27-.99,25.82Z"></path><path fill="#ed975d" d="M224.74,578.73s6.17,6.57,23.99,7.05c-.31-3.72-.4-5.74-.4-5.74h-.02c-.66-.19-15.44-4.59-22.79-6.42-1.29,.56,.42,4.18-.78,5.11Z"></path><path fill="#ffb27d" d="M252.85,579.12s-4.51,1.7-10.27,2.51c-8.41,1.19-19.48,.49-22.95-10.18-5.85-17.96-13.33-28.73,3.9-36.06,9.22-3.93,15.12-4.14,19.13-2.64,3.48,1.29,5.53,3.88,7.09,6.43,3.35,5.5,10.08,36.8,3.11,39.94Z"></path><path fill="#233862" d="M248.45,525.28c6.15,4.24,4.14,14.17-3.11,15.5-4.35,.8-7.99,.96-10.1,1.94-4.28,2-7.97,4.11-6.95,11.08,.34,2.37,1.45,5.26-4.37,3.82-.95-.23-1.64-.16-2.11,.13-2.41,1.5,.67,8.78,1.6,10.35,0,0,1.34,5.21-1.63,7.75-.36,.3-6.2,2.98-20.26-19.59-2.21-3.54-4.32-11.52-.91-19.2,3.41-7.68,12.92-17.4,30.84-17.4,4.66,0,11.68,1.94,17.01,5.61Z"></path><path fill="#fff" d="M252.98,567.52s.36,2.33-4.8,4.18c0,0-4.33,1.56-5.12-.83,0,0,3.44-3.43,9.92-3.35Z"></path><path fill="#e8783a" d="M188.27,722.25c2.62,12.75,6.87,17.17,9.26,12.41,8.38-16.66,8.28-23.65,4.65-35.46-3.64-11.81,9.13-30.29,0-38.17-8.92-7.7-14.01,4.71-14.23,5.26-.05,19.53,.14,40.15,.32,55.95Z"></path><path fill="#ffb27d" d="M188.68,720.61s6.17,10.57,10.21,10.2c4.04-.37,9.5-1.95,12.65,1.2,3.15,3.15,8.23,11.28,6.81,13.44-1.42,2.16-7.12,.25-11.22-2.12-4.1-2.37-10.55,1.17-13.99-1.53-3.44-2.69-11.68-13.38-11.68-13.38l7.22-7.81Z"></path><path fill="#f99746" d="M198.81,656.49c-2.41,1.18-6.69,5.13-10.85,9.81h0c-5.45,6.13-10.7,13.49-11.31,17.45-.46,3.01,5.61,13.73,11.47,23.21,5.28,8.54,10.38,16.07,10.38,16.07-1.56,4.17-6.42,8.92-10.07,12.05-2.46,2.12-4.37,3.5-4.37,3.5-25.04-20.91-34.44-33.81-37.47-49.11-4.21-21.27,14.77-49.31,29.26-67.02,8.22-10.05,14.99-16.78,15.26-17.04h0c7.16,3.28,10.46,18.14,10.98,31.01,.42,10.05-.85,18.88-3.29,20.08Z"></path><path fill="#ffb27d" d="M198.89,730.81s5.39-2.47,7.13-3.53c1.73-1.06,1.35,.66,.82,1.51-.53,.86-1.97,2.78-4.09,2.98-2.12,.2-3.85-.96-3.85-.96Z"></path><g><path fill="#f77d48" d="M799.55,788.19c-5.59,75.51-41.53,140.91-94.29,184.12-1.12,.92-2.23,1.82-3.37,2.71-41.2,32.58-92.24,51.8-146.91,52.13-2.77,.02-5.54-.01-8.32-.1-4.16-.11-8.34-.33-12.54-.68-83.57-6.8-154.18-56.44-193.77-126.76-1.37-2.42-2.7-4.88-3.99-7.35-22.21-42.57-33.28-92.16-29.43-144.14,2.81-38.01,13.31-73.45,29.77-104.79,1.34-2.55,2.73-5.07,4.13-7.55,21.05-37.04,50.62-67.95,85.64-89.93,1.3-.83,2.6-1.64,3.93-2.43,41.57-25.02,90.54-37.65,141.96-33.47,9.56,.78,18.96,2.12,28.16,3.99,2.59,.52,5.15,1.09,7.69,1.69,56.87,13.53,105.73,47.36,139.93,93.37,1.87,2.52,3.71,5.06,5.47,7.63,20.55,29.83,35.13,64.28,42.07,101.39,.51,2.68,.99,5.39,1.41,8.1,3.14,20.08,4.04,40.88,2.47,62.09Z"></path><path fill="#d8653d" d="M518.88,718.54c-1.73-1.94-3.49-3.86-5.28-5.72-40.83-42.88-95.85-71.27-157.82-76.31-5.02-.41-9.99-.66-14.96-.74-1.4,2.48-2.79,5.01-4.13,7.55,6.12,.02,12.32,.28,18.53,.78,59.82,4.87,112.96,32.13,152.52,73.34,1.79,1.87,3.55,3.75,5.28,5.68,45.67,50.57,71.59,120.39,66.05,195.14-2.94,39.68-14.43,76.55-32.41,108.78,2.78,.09,5.55,.13,8.32,.1,17.35-32.3,28.43-68.95,31.34-108.29,5.67-76.65-20.76-148.29-67.44-200.31Z"></path><path fill="#d8653d" d="M795.67,718.01c-52.72-12.01-98.63-41.76-132.3-82.62-1.79-2.17-3.56-4.38-5.29-6.62-24.9-32.38-42.36-71.1-49.87-113.14-2.54-.61-5.1-1.18-7.69-1.69,7.28,43.61,24.95,83.86,50.38,117.58,1.67,2.24,3.41,4.44,5.16,6.61,35.42,44.01,84.52,75.89,141.02,87.99-.42-2.71-.89-5.42-1.41-8.1Z"></path><path fill="#d8653d" d="M698.25,975.38c-6.87-74.51-25.49-143.26-55.35-204.34-23.88-48.85-54.97-92.95-92.4-131.07-63.8-64.97-124.74-90.34-125.35-90.59l2.64-7.1c.62,.25,62.7,26.05,127.53,91.98,38.06,38.7,69.66,83.48,93.95,133.1,30.34,61.99,49.25,131.73,56.21,207.29l-7.23,.73Z"></path><path fill="#d8653d" d="M753.6,616.62c-24.93,.97-55.15,6.06-90.23,18.77-2.42,.87-4.85,1.78-7.31,2.73-20.97,8.09-43.6,18.88-67.83,33.12-2.13,1.24-4.29,2.52-6.44,3.83-19.93,12.05-40.91,26.41-62.91,43.47-1.93,1.49-3.9,3.03-5.86,4.59-12.66,9.99-25.63,20.87-38.92,32.72-74.09,65.98-126.06,133.55-133.76,143.75-1.37-2.42-2.7-4.88-3.99-7.35,12.34-16.13,62.76-79.91,132.78-142.31,12.91-11.5,25.78-22.35,38.61-32.5,1.96-1.56,3.91-3.1,5.86-4.62,21.27-16.53,42.36-31.18,63.16-43.87,2.14-1.33,4.28-2.61,6.41-3.89,8.6-5.09,17.11-9.84,25.58-14.25,14.21-7.4,28.28-13.84,42.15-19.3,2.4-.95,4.78-1.86,7.18-2.74,31.05-11.53,61.14-18.16,90.05-19.78,1.87,2.52,3.71,5.06,5.47,7.63Z"></path></g><path fill="#e8783a" d="M237.13,604.79c-9.63,0-21.67-4.52-21.54-7.87l1.97-7.58s7.98,2.16,14.88,4.58c2.26,.79,3.96,2.8,4.43,5.25,.58,3.04,.64,5.62,.26,5.62Z"></path><path fill="#e8783a" d="M253.65,599.32s-7.28,6.24-16.52,5.47c1.01-2.21,1.5-6.99,3.39-9.23,3.95-4.66,9.81-6.22,9.81-6.22l3.31,9.98Z"></path><path fill="#e58339" d="M240.95,612.66c.43-.03,.87-.11,1.3-.22-.42,.26-.86,.32-1.3,.22Z"></path><path fill="#8c9df4" d="M288.42,622.39l-7.35,7.02-26.36,25.18-6.6,6.3-46-24.47-13.57-7.22-12.68-6.75c8.22-10.05,14.99-16.78,15.26-17.04h0c1.75-2.12,4.96-3.92,9.14-5.34l42.95,22.85,5.86-5.59,15.01-14.34,.32-.3c6.12,2.28,17.56,7.92,24.03,19.71Z"></path><path fill="#2b478b" d="M249.88,759.11l-.52-.55c4.05-4.21,6.4-22.42-.03-31.39-6.68-9.31-1.21-21.93,5.51-29.9,3.91-4.64,.48-8.46-4.27-13.75-2.87-3.2-6.12-6.82-8.33-11.36-3.98-8.16-1.71-14.58,.49-20.78,1.08-3.04,2.19-6.19,2.57-9.53,1.16-10.04-6.22-28.98-6.29-29.17l.68-.29c.31,.78,7.52,19.31,6.34,29.55-.4,3.43-1.52,6.62-2.61,9.7-2.24,6.33-4.35,12.3-.52,20.17,2.16,4.44,5.38,8.02,8.21,11.18,4.83,5.38,8.64,9.62,4.29,14.79-6.53,7.75-11.89,19.98-5.47,28.93,6.62,9.24,4.16,28.05-.03,32.4Z"></path><path fill="#2b478b" d="M238.23,610.81s-.67,4.29,0,4.87c.67,.58,2.63,.64,2.69-.58,.06-1.22-.57-4.41-1.06-4.6-.49-.19-1.55-.27-1.64,.31Z"></path></g><path fill="#9fb1ff" d="M768.18,492.46l-2.83-.98c-3.02-1.04-4.67-4.47-3.67-7.64l7.83-24.9c1-3.17,4.27-4.89,7.29-3.85l4.05,1.4c.59,.21,.91,.87,.72,1.49-.2,.62-.83,.96-1.43,.75l-4.05-1.4c-1.84-.64-3.83,.42-4.43,2.34l-7.83,24.9c-.61,1.93,.4,4.01,2.24,4.65l2.83,.98c1.84,.64,3.83-.42,4.43-2.34l5.2-16.53c.2-.62,.83-.96,1.43-.75,.59,.2,.91,.87,.72,1.49l-5.2,16.53c-1,3.17-4.26,4.89-7.29,3.85Z"></path><path fill="#9fb1ff" d="M761.4,518.33l-5.07-1.75c-4.71-1.63-7.19-7.26-5.53-12.55l11.77-37.43c.2-.62,.83-.96,1.43-.75,.59,.2,.91,.87,.72,1.49l-11.77,37.43c-1.28,4.05,.56,8.34,4.09,9.56l5.07,1.75c3.53,1.22,7.44-1.09,8.71-5.14l13.41-42.63c1.27-4.05-.56-8.34-4.09-9.56-.59-.2-.91-.87-.72-1.49s.83-.96,1.43-.75c4.71,1.63,7.19,7.26,5.53,12.55l-13.41,42.63c-1.66,5.29-6.85,8.27-11.56,6.64Z"></path><path fill="#9fb1ff" d="M678.82,289.86l-1.32,2.8c-1.41,2.99-4.87,4.22-7.73,2.75l-22.43-11.59c-2.85-1.48-4.03-5.11-2.62-8.1l1.89-4.01c.28-.59,.95-.83,1.51-.54,.56,.29,.79,1,.51,1.59l-1.89,4.01c-.86,1.82-.14,4.03,1.6,4.93l22.43,11.59c1.74,.9,3.85,.15,4.7-1.67l1.32-2.8c.86-1.82,.14-4.03-1.6-4.93l-14.89-7.7c-.56-.29-.79-1-.51-1.59,.28-.59,.95-.83,1.51-.54l14.89,7.7c2.85,1.48,4.03,5.11,2.62,8.1Z"></path><path fill="#9fb1ff" d="M702.31,300.5l-2.36,5.02c-2.19,4.66-7.86,6.45-12.62,3.99l-33.72-17.43c-.56-.29-.79-1-.51-1.59,.28-.59,.95-.83,1.51-.54l33.72,17.43c3.65,1.89,7.96,.58,9.6-2.91l2.36-5.02c1.64-3.49,.01-7.87-3.64-9.76l-38.41-19.86c-3.65-1.89-7.96-.58-9.6,2.91-.27,.59-.95,.83-1.51,.54-.56-.29-.79-1-.51-1.59,2.19-4.66,7.86-6.45,12.62-3.99l38.41,19.86c4.77,2.46,6.86,8.26,4.67,12.93Z"></path><g><path fill="#f99746" d="M1503.59,867.29l-2.43,1.82c-2.59,1.94-6.2,1.31-8.05-1.41l-14.54-21.33c-1.85-2.71-1.25-6.5,1.34-8.44l3.47-2.6c.51-.38,1.21-.26,1.58,.27,.36,.53,.25,1.27-.26,1.65l-3.47,2.6c-1.58,1.18-1.94,3.48-.82,5.14l14.54,21.33c1.13,1.65,3.32,2.04,4.9,.86l2.42-1.82c1.58-1.18,1.94-3.48,.82-5.14l-9.65-14.16c-.36-.53-.25-1.27,.26-1.65,.51-.38,1.21-.26,1.58,.27l9.65,14.16c1.85,2.71,1.25,6.5-1.34,8.44Z"></path><path fill="#f99746" d="M1519.49,888.3l-4.35,3.26c-4.04,3.02-9.83,1.79-12.92-2.74l-21.86-32.07c-.36-.53-.24-1.27,.26-1.65,.51-.38,1.21-.26,1.57,.27l21.86,32.07c2.37,3.47,6.75,4.45,9.77,2.19l4.35-3.26c3.02-2.26,3.56-6.93,1.19-10.4l-24.9-36.53c-2.37-3.47-6.75-4.45-9.77-2.19-.51,.38-1.21,.26-1.58-.28-.36-.53-.24-1.27,.26-1.65,4.04-3.02,9.83-1.8,12.92,2.74l24.89,36.53c3.09,4.53,2.32,10.68-1.72,13.7Z"></path></g><g><path fill="#ffb27d" d="M925.66,554.46c-9.19,59.95-16.76,124.55-13.48,158.57,2.7,9.52,11.05,12.7,18.43,13.93l-5.07,5.8-14.28,.86-19.05-7.87s1.1-3.95,1.98-10.83c1.01-8-2.52-26.28-2.52-26.28,0,0-9.29-63.13-4.01-77.31,1.5-4.03,2.49-8.64,3.1-13.64h0c1.56-12.75,.69-28.09-.34-42.99-1.11-16.19-2.4-31.86-.94-43.18,6.66-51.66,6.74-96.33,6.74-96.33h37.39s10.6,31.55,5.66,58.61c-4.19,23-9.09,51.27-13.59,80.66Z"></path><path fill="#f3a36c" d="M890.75,597.68c1.56-12.75,.69-28.08-.34-42.98l27.61-11.7,7.64,11.46c-1.17,1.51-21.71,26.91-34.91,43.22Z"></path><path fill="#ffb27d" d="M998.17,375.58s4.24-4.69,7.27-7.01c3.03-2.32,11.54-4.64,12.41-.75,.38,1.73-2.61,5.57-4.76,6.93-2.15,1.37-2.49,3.1-4.78,5.55-2.29,2.44-7.89,2.57-7.89,2.57l-2.25-7.29Z"></path><path fill="#233862" d="M873.76,336.79c-1.78-3.6,38.87-16.57,39.51,18.97,0,0,76.14-1.96,39.79-46.45-12.59-15.4-11.29-28.14-10.91-39.99,.38-11.86-7.84-46.31-36.02-42.84,0,0-7.38-3.15-16.59,1.86-20.95,11.39-67.87,121.56-15.77,108.45Z"></path><path fill="#f77d48" d="M926.56,379.09s2.69,5.59,7.58,12.02c5.89,7.73,14.97,16.67,26.37,18.43,5.45,.84,10.77-.39,15.67-2.67,.01,0,.02,0,.02,0,13.85-6.44,24.26-21.26,24.26-21.26,2.44-6.98-1.55-11.71-1.55-11.71,0,0-27.96,6.59-30.62,5.2-2.66-1.4-18.2-48.31-21.89-54.2-3.7-5.89-16.31-8.96-16.31-8.96l-3.52,63.16Z"></path><path fill="#8eb3ef" d="M934.14,391.11c5.89,7.73,14.97,16.67,26.37,18.43,5.45,.84,10.77-.39,15.67-2.67-.54,.07-14.37,1.87-19.88-8.47-5.62-10.55-11.7-27.3-20.06-21.71-3.6,2.41-3.44,8.4-2.1,14.42Z"></path><path fill="#ffb27d" d="M847.72,736.32h-12.89c-3.74,0-8.01-3.01-9.05-10.1-1.04-7.09-8.74-10.95-10.4-16.75-1.14-3.98,1.56-6.83,4.12-9.02,1.17-1.01,2.31-1.87,3.04-2.64,2.62-2.77,5.09-14.75,5.09-14.75l13.59,7.49s-6.4,11.41-2.71,24.24c1.73,6,3.27,11.53,7.09,14.97,.9,.82,1.93,1.51,3.12,2.07,5.94,2.82-.99,4.48-.99,4.48Z"></path><path fill="#f77d48" d="M857.58,355.77s-.71,10.56,0,23.23c.48,8.4,8.58,19.65,9.73,22.43,2.89,6.98,6.14,8.11,6.14,8.11l25.17,6.47,8.85,2.27,27.91-8.74s12.71-37.19,7.61-58.13c-5.1-20.94-12.9-35.48-12.9-35.48,0,0-32.09-8.75-56.94-1.14l-15.56,40.98Z"></path><path fill="#ffb27d" d="M875.05,413.84s-21.08,29.65-23.05,49.7c-1.96,20.05,16.68,75.53,12.49,95.07-3.11,14.5-19.68,26.01-24.25,62.58-1.59,12.7-7.32,38.11-12.61,61.87l11.68,12.02c27.82-66.47,56.59-108.32,58.29-123.02,1.2-10.4,6.84-65.12,29.66-105.51,5.48-9.7-3.36-48.26-3.36-48.26l-48.85-4.44Z"></path><path fill="#2b478b" d="M940.57,482.1c-3.1,39.6-6.75,72.95-6.75,72.95,0,0-17.61,12.44-42.53,14.02h0c-11.39,.73-24.3-.81-37.75-6.84,0,0-5.13-95.62-1.87-110.85,3.27-15.23,17.72-36.19,17.72-36.19l65.03,2.63s9.25,24.68,6.15,64.28Z"></path><path fill="#ed7d2b" d="M935.81,408.22s-5.55,4.6-16.57,4.83c-13.17,.28-45.79-3.52-45.79-3.52,0,0-1.45,4.25-1.39,8.73,0,0,39.84,10.54,62.93,1.54,0,0,2.98-5.87,.82-11.58Z"></path><path fill="#fff" d="M916.39,417.82c0-3.93,2.7-7.13,6.01-7.13s6.01,3.2,6.01,7.13-2.69,7.13-6.01,7.13-6.01-3.2-6.01-7.13Zm1.99,0c0,2.78,1.8,5.04,4.02,5.04s4.02-2.26,4.02-5.04-1.8-5.04-4.02-5.04-4.02,2.26-4.02,5.04Z"></path><polygon fill="#8c9df4" points="830.56 416.38 871.38 453.64 920.04 395.07 879.21 357.81 830.56 416.38"></polygon><path fill="#ffb27d" d="M882.66,416.52s14.96,1.83,14.91,5.55c-.05,3.72-3.73,11.37-5.57,11.71-1.85,.34-12.17-10.34-12.17-10.34l2.84-6.92Z"></path><path fill="#f77d48" d="M877.66,313.95s-19.97,1.47-27.62,20.97c-7.65,19.51-22.18,52.26-22.18,57.77s8.11,22.49,51.68,32.26c0,0,4.51-4.97,4.23-8.9,0,0-27.2-24.49-27.12-27.35,.14-5.41,4.46-12.56,28.34-37.6,6.49-6.81-7.33-37.15-7.33-37.15Z"></path><path fill="#f9ddbf" d="M995.29,431.45l59.84-184.38c.28-.84,.64-1.64-.15-1.95l-.73-.28c-.82-.31-1.06,.24-1.35,1.1l-63.79,181.73c-.6,1.74,.18,3.67,1.79,4.42l1.48,.69c1.15,.54,2.5-.07,2.91-1.33Z"></path><path fill="#ffb27d" d="M1003.42,374.67s2.72-.09,5.6-.88c2.26-.62,5.17-1.73,5.17-1.73,1.71,1.3-4.23,4.86-5.74,7.29-1.24,1.98-2.64,2.56-6.05,3.33l1.03-8.01Z"></path><path fill="#233862" d="M907.77,735.79c8.32-1.08,6.12,1.15,17.78,1.22,11.66,.07,15.65-4,16.2-5.75,.49-1.55-5.13-2.81-11.15-4.29l-.22,.16s-7.33,4.24-16.94,3.31c-7.83-.76-15.84-4.12-21.25-4.68-.33,1.86-.66,3.76-.51,5.68,.42,5.45,7.76,5.45,16.08,4.37Z"></path><path fill="#233862" d="M847.72,736.32h-12.89c-3.74,0-8.01-3.01-9.05-10.1-1.04-7.09-8.74-10.95-10.4-16.75-1.14-3.98,1.56-6.83,4.12-9.02,1.41,2.22,4.47,7.78,7.47,18.01,3.5,11.96,11.9,12.3,18.63,11.31,.9,.82,1.93,1.51,3.12,2.07,5.94,2.82-.99,4.48-.99,4.48Z"></path><path fill="#ffb27d" d="M880.79,312.94c4.05-.94,7.4-3.92,8.79-8.01,1.68-4.93,3.01-12.21,2.98-21.33l1.26,.26,21.25,4.41s-.48,7.01-.5,13.61c0,.05,0,.11,0,.16-.03,5.74,3.56,10.8,8.82,12.39,2.68,.81-12.8,22.18-14.57,21.76-3.68-.87-29.32-22.95-28.04-23.25Z"></path><path fill="#e8945b" d="M915.08,288.27s-.48,7.01-.5,13.61c-11.89-.35-18.17-11.72-20.75-18.02l21.25,4.41Z"></path><path fill="#ffb27d" d="M919.05,294.52s-28.13,.49-28.15-17.88c-.02-18.37-3.66-30.68,14.3-31.77,17.96-1.09,21.46,5.92,22.89,12.05,1.43,6.13-1.72,37-9.03,37.6Z"></path><path fill="#233862" d="M918.01,244.42s-7.7,21.55-19.52,24.74c-11.82,3.19-16.95-.13-16.95-.13,0,0,9.07-7.55,10.95-20.73,0,0,19.71-14.13,25.52-3.87Z"></path><path fill="#233862" d="M916.1,246.17s5.71,2.24,8.06,6.6c2.3,4.27,4.26,9.93,3.8,16.86,0,0,5.8-14.65-.72-22.93-6.92-8.79-11.15-.53-11.15-.53Z"></path><path fill="#fff" d="M913.55,283.62s.49,2.16,5.62,1.83c0,0,4.31-.28,4.18-2.66,0,0-4.18-1.69-9.8,.83Z"></path><path fill="#ff9773" d="M908.83,336.19s-19.03-21.31-19.74-30.01c0,0-4.85,1.41-10.56,7.23,0,0,4.57,12.01,10.03,15.97,0,0,3.97-.59,7.1-1.94,0,0-1.99,3.45-3.56,5.52,0,0,8.62,5.13,16.72,3.23Z"></path><path fill="#ff9773" d="M915.5,306.99s7.5,14.38-6.67,29.2c0,0,8.89-1.78,13.47-8.36,0,0-1.42-3.53-2.62-4.35,0,0,2.67-1.11,4.35,.52,0,0,1.02-7.71,0-10.06-1.02-2.35-6.32-7.03-8.52-6.96Z"></path><path fill="#233862" d="M907.41,336.19c0-.82,.63-1.49,1.42-1.49s1.42,.67,1.42,1.49-.63,1.49-1.42,1.49-1.42-.67-1.42-1.49Z"></path><path fill="#233862" d="M914.97,357.25c0-.82,.63-1.49,1.42-1.49s1.42,.67,1.42,1.49-.63,1.49-1.42,1.49-1.42-.66-1.42-1.49Z"></path><path fill="#233862" d="M916.39,381.96c0-.82,.63-1.49,1.42-1.49s1.42,.66,1.42,1.49-.63,1.49-1.42,1.49-1.42-.66-1.42-1.49Z"></path><path fill="#233862" d="M940.57,482.1c-3.1,39.6-6.75,72.95-6.75,72.95,0,0-17.61,12.44-42.53,14.02,.44-.17,14.61-5.9,25.1-18.77,10.66-13.07,24.18-68.2,24.18-68.2Z"></path></g><g><path fill="#ed985f" d="M606.12,755.42c-3.62-12.19-19.37-14.48-25.71-3.57-1.14,1.96-1.86,4.21-1.92,6.8-.35,14.29,26.54,69.62,30.11,74.51,6.5,8.91,45.72,30.34,45.72,30.34l8.34-1.27s-4.71-3.1-9.59-8.21c-10.08-10.55-24.77-27.69-27.46-30.07-4.62-4.07-12.61-45.37-19.49-68.52Z"></path><path fill="#233862" d="M617.5,685.49c.22-.92-19.03,9.12-20,10.25-9.03,10.49-6.45,24.19-1.29,24.32,3.31,.08,2.67,5.86,2.67,5.86l36.9-16.36s-4.44-27.16-18.28-24.07Z"></path><path fill="#233862" d="M622.05,687.61s1.32-15.07-14.74-15.07c0,0,4.87,1.38,7.38,4.15,0,0-10.24-6.3-21.39,3.38-11.15,9.69-4.22,33.98-7.61,38.59-3.39,4.61-16.59,5.54-14.98,20.45,1.61,14.92,41.9,33.6,39.31,45.94,0,0,15.79-24.33,4.5-35.43,0,0,5.5,5.43,6.06,11.89,0,0,1.49-12.61-6.16-16.64-6.77-3.57-12.32-16.62-11.73-18.95,.59-2.33,19.36-38.31,19.36-38.31Z"></path><path fill="#2b478b" d="M576.94,1013.42l-7.98-1.23s-26.85-22.37-30.85-64.1c-.41-4.25-.49-8.56-.19-12.9,.03-.5-.02-1-.28-1.42,0,0,0,0,0-.01-.86-1.38-3-4.84-5.89-9.76-2.85-4.85-7.74-14.01-13.11-24.29-9.68-18.52-20.95-40.67-24.82-47.72-12.32-22.48-6.38-37.6-6.38-37.6,0,0,34.36-3.56,43.78-12.2l3.39,5.48s7.45,34.55,7.09,34.71c.37,1.18,.74,2.37,1.12,3.59,5.88,19.01,12.63,42.77,16.32,62.13,2.07,10.89,3.17,20.38,2.58,26.84-.2,2.22,.04,5.62,.61,9.83,3.33,24.8,14.63,68.66,14.63,68.66Z"></path><path fill="#233862" d="M593.68,1024.01h-33.31s-.8-5.32,.94-9.36c1.67-3.87,4.04-4,.3-10.07,2.12,2.28,8.92,3.23,13.74,2.55,.59,1,3.8,7.73,5.78,9.21,2.18,1.64,11.88,1.06,12.55,7.67Z"></path><path fill="#233862" d="M542.8,845.96c-2.91,16.82-9.78,44.82-24.18,53.74-9.68-18.52-20.95-40.67-24.82-47.72-12.32-22.48-6.38-37.6-6.38-37.6,0,0,34.36-3.56,43.78-12.2l3.39,5.48s7.45,34.55,7.09,34.71c.37,1.18,.74,2.37,1.12,3.59Z"></path><path fill="#2b478b" d="M519.44,816.98l.11-6.53c-12.41,1.64-42.8-15.55-42.8-15.55,0,0-12.99,9.05-14.76,34.91-.87,12.62-6.36,66-6.96,81.94-.22,5.78-.29,9.9-.32,11.55,0,0,0,.01,0,.02,0,.5-.23,.95-.53,1.34-2.57,3.42-4.8,7.05-6.73,10.81-18.94,36.94-9.04,87.15-9.04,87.15l4.4-1.17s16.02-52.04,26.48-74.55c1.78-3.82,3.39-6.79,4.74-8.51,3.94-5.01,8.09-13.52,12.18-23.76,7.73-19.36,15.24-44.92,20.6-64.7,.38,.07,12.63-32.94,12.63-32.94Z"></path><path fill="#ffb27d" d="M592.08,773.38c-20.29-4.88-7.33-34.78-6.15-34.25,2.81-.6,8.99-5.78,14.51-15.88l.75,.68,12.46,11.46s-1.64,4.44-5.3,8.82c-2.48,2.97-8.66,5.82-8.4,6.97,1,.83-2.45,23.51-7.86,22.21Z"></path><path fill="#9db0f4" d="M604.9,751.18s3.57,7.38,5.47,13.78c1.9,6.39,6.67,26.73,6.67,26.73,0,0-9.82,11.75-23.49,11.07,0,0-7.35-12.06-4.76-22.95,2.59-10.89,16.11-28.62,16.11-28.62Z"></path><path fill="#ed985f" d="M613.65,735.39s-.99,3.9-5.31,8.82c-6.4-8.88-7.76-15.07-7.16-20.28l12.47,11.46Z"></path><path fill="#ffb27d" d="M614,741.12s-18.82-10.98-12.12-23.15c6.7-12.18,8.78-21.8,21.08-15.3,12.3,6.49,12.05,12.54,10.76,17.17-1.29,4.64-14.66,23.83-19.73,21.28Z"></path><path fill="#233862" d="M636.9,712.74c-.86-5.41-3.48-5.92-5.31-5.56-6.95-12.05-18.3-7.35-18.3-7.35-6.06,7.98-14.83,9.34-14.83,9.34,0,0,2.18,4.26,11.18,6.9,2.75,.8,5.87,.32,8.88-.74-6.24,3.65-12.77,5.04-12.77,5.04,11.86,1.14,23.14-10.22,24.31-11.44,.55,1.76,1.51,5.45,.93,8.14-.78,3.66-3.88,10.3-1.99,11.15,0,0,9.2-7.37,7.91-15.48Z"></path><path fill="#233862" d="M464.9,1024.01h-33.31s-.8-5.32,.94-9.36c1.67-3.87,4.28-5.64,3.65-10.32,2.12,2.28,5.57,4.84,10.38,4.16,.59,1,3.81,6.37,5.78,7.85,2.18,1.64,11.88,1.06,12.55,7.67Z"></path><path fill="#aec3ff" d="M594.47,797.08c-4.29,1.57-10.3,2.43-16.45,3.13-8.76,1-17.81,1.69-22.54,3.67-.93,.38-3.62,1.57-6.32,3.62h0s-.07,.05-.19,.15c-.89,.68-1.79,1.47-2.61,2.36-1.26,1.35-2.35,2.94-3.06,4.75-1.74,4.5,.56,16.97,2.04,23.79,.59,2.74-.64,5.58-3.03,6.87-3.33,1.81-6.6,3.48-9.82,5-.17,.08-.34,.16-.51,.24,.03-.69,.04-1.38,.04-2.05,0-4.71-.56-8.62-.56-8.62-.79,4.75-3.77,9.88-6.56,13.82-44.71,18.81-75.94,10.63-75.43,1.26,1.76-32.53,22.69-60.19,22.69-60.19,39.02-47.57,117.96-60.09,117.96-60.09,0,0,3.78-.48,8.34,5.27,6.56,8.28,6.89,10.44,6.89,10.44,0,0,1.73,41.96-10.88,46.58Z"></path><path fill="#9db0f4" d="M578.02,800.21c-8.76,1-17.8,1.69-22.54,3.67-1.94-30.33,11.72-53.14,11.72-53.14,0,0,8.91,37.99,10.83,49.47Z"></path><path fill="#9db0f4" d="M545.34,838.56c.59,2.74-.64,5.58-3.03,6.87-3.33,1.81-6.6,3.48-9.82,5-.17-.58-.33-1.18-.46-1.82-.51-2.37-.74-5.22-.56-8.62,.74-14.4,10.1-25.3,14.89-29.98-1.26,1.35-2.35,2.94-3.06,4.75-1.74,4.5,.56,16.97,2.04,23.79Z"></path><path fill="#9db0f4" d="M590.12,734.8s3.44-4.55,5.76-4.41c0,0,9.39,13.79,9.47,20.11,0,0-11.72-16.35-15.23-15.71Z"></path><path fill="#ed985f" d="M680.25,868.21s-4.99,.09-6.07-.07c-1.06-.16-2.47-.64-3.9-.69-1.4-.05-2.68,.42-4,.7-.2,.04-.39,.06-.59,.06h-8.28s-.83-.42-1.74-1.95c-.39-.66-.45-2.24-1.34-2.77-5.02-2.93,8.34-1.27,8.34-1.27,0,0,8.38-.16,9.16,.45,1.38,1.08,8.75,5.13,8.43,5.54Z"></path><path fill="#ed985f" d="M657.4,868.21s5.09,1.54,6.47,2.53l1.46,.97s.84-.99-.48-2.09c-.7-.58-2.64-2.27-2.7-4.21-.06-1.94-5.81-.25-4.74,2.81Z"></path><path fill="#fff" d="M737.39,1018.41h0c-11.98,0-21.68-10.18-21.68-22.73v-143.57h43.37v143.57c0,12.55-9.71,22.73-21.68,22.73Z"></path><path fill="#f77d48" d="M737.39,1011.82h0c-8.9,0-16.11-7.56-16.11-16.89v-51.06h32.22v51.06c0,9.33-7.21,16.89-16.11,16.89Z"></path><path fill="#fff" d="M639.31,910.35h0c-11.03-4.88-16.2-18.22-11.55-29.78l53.25-132.27,39.96,17.68-53.25,132.27c-4.66,11.57-17.38,16.99-28.41,12.1Z"></path><path fill="#8c9df4" d="M643.28,904.95l-3.06-1.35c-7.35-3.25-10.8-12.14-7.7-19.85l38.42-95.42,34.62,.88-43.35,107.68c-3.1,7.71-11.58,11.32-18.94,8.07Z"></path><path fill="#ffb27d" d="M635.23,883.84s3.64,3.39,6.4,4.1c2.76,.71,5.91,9.01,6.41,10.2,.5,1.18-2.64-.53-3.89-2.55-1.26-2.02-2.12-2.81-2.48-2.37-.37,.44,.22,5.97,2.31,9.04,2.09,3.07,3.35,5.8,1.84,5.62-1.51-.18-10.47-2.46-12.31-8.17-1.84-5.71-.49-5.91-4.73-11.78-4.24-5.87,6.45-4.1,6.45-4.1Z"></path><path fill="#ffb27d" d="M587.21,744.87s-21.95,2.27-23.71,17.23c-1.76,14.95,21.05,75.86,24.31,81.38,5.95,10.04,40.96,44.46,40.96,44.46l6.45-4.1s-24.84-44.08-28.68-48.2c-6.04-6.48-11.9-85.58-19.33-90.76Z"></path><path fill="#aec3ff" d="M598.46,773.44s2.25-38.56-25.9-29.23c-28.15,9.32,4.37,75.64,4.37,75.64,0,0,16.52-.85,22.38-15.97l-.85-30.44Z"></path><g><rect fill="#2b478b" height="6.39" width="134.1" y="996.52" x="644.06"></rect><rect fill="#2b478b" height="22.12" width="9.22" y="1001.71" x="644.06"></rect><rect fill="#2b478b" height="27.32" width="10.5" y="996.52" x="767.66"></rect></g><rect fill="#fff" height="5.69" width="47.09" y="849.52" x="713.2"></rect><polygon fill="#fff" points="721.61 769.4 678.22 750.21 680.33 744.97 723.72 764.16 721.61 769.4"></polygon></g><g><path fill="#2b478b" d="M905.92,802.85l-42.22,208.52-6.27-1.39c-.07-.02,.51-20.83,.51-20.83l38.16-188.48,9.81,2.18Z"></path><polygon fill="#0b0755" points="858.8 1010.28 858.25 1024.22 862.48 1011.1 858.8 1010.28"></polygon><path fill="#2b478b" d="M913.28,804.49l-42.22,208.52,6.27,1.39c.07,.02,7.6-19.26,7.6-19.26l38.16-188.48-9.81-2.18Z"></path><polygon fill="#2b478b" points="907.91 793 915.27 794.64 920.65 768.07 913.29 766.44 907.91 793"></polygon><path fill="#f77d48" d="M896.11,800.67l2.54,14.9-5.29,26.13,16.35,3.64,5.29-26.13,8.09-12.54c1.58-7.8-3.18-15.47-10.62-17.13h-.02c-7.44-1.66-14.76,3.33-16.34,11.13Z"></path><path fill="#2b478b" d="M913.36,804.07c.43-2.13-.87-4.22-2.9-4.67-2.03-.45-4.03,.91-4.46,3.04-.43,2.13,.87,4.22,2.9,4.67,2.03,.45,4.03-.91,4.46-3.04Z"></path><polygon fill="#0b0755" points="875.97 1014.1 871.06 1027.07 872.29 1013.29 875.97 1014.1"></polygon><path fill="#f77d48" d="M883.03,992.57c.73-3.63-1.48-7.19-4.94-7.96-3.46-.77-6.86,1.55-7.6,5.18-.74,3.63,1.48,7.19,4.94,7.96,3.46,.77,6.86-1.55,7.6-5.18Z"></path></g><g><g><path fill="#8c9df4" d="M1300.68,664.74c-.25,6.66-2.3,1.48-6.81,9.91-.19,.39,4.84,5.82,4.59,6.21-1,3.78-2.9,7.89-5.1,11.99-3.63,6.78-8.06,13.5-10.45,18.53-3.59-1.12-6.73-2.44-9.47-3.89-9.03-4.75-13.73-10.78-15.8-14.64,5.42-11.54,11.92-24.22,18.27-38.73,.68-1.62,1.36-3.18,2.04-4.66,.06-.13,.12-.32,.24-.45,.37-.71,.68-1.36,.99-1.95,0-.06,.06-.13,.12-.19,1.42-2.85,2.91-5.11,4.26-6.6,0,0,3.28-2.72,4.76-2.08,0,0,2.91,1.56,5.87,5.25,.37,.32,.62,.71,.87,1.1,1.79,2.39,3.52,5.57,4.57,9.58,.8,3.04,1.24,6.54,1.05,10.62Z"></path><path fill="#ffb27d" d="M1293.88,1008.76l8.16,3.19s35.45-51.54,39.82-96.89c.78-8.1,.52-15.94-1.17-23.19,0,0,.35-2.07,.95-5.74,.28-1.71,.63-3.77,1.02-6.13,1.15-6.92,2.74-16.4,4.55-27.18,4.17-24.82,9.58-56.55,13.77-79.87l-2.2-.74-23.8-8.05-4.92-16.37-17.72-4.89s-3.96,8.12-7.5,46.46c-.65,5.03-1.25,10.58-1.69,16.59-1.38,18.36-1.48,41.13,1.69,67.16,.81,6.66,1.84,13.54,3.11,20.61,.93,5.18,1.07,12.24,.68,20.36-1.79,37.07-14.77,94.68-14.77,94.68Z"></path><path fill="#ffb27d" d="M1320.09,753.18l.89-8.01c14.92,4.16,54.79-11.61,54.79-11.61,0,0,14.46,13.32,12.56,45.25-.93,15.59-2.62,81.81-4.39,101.41-.64,7.1-1.2,12.16-1.43,14.18,0,.01,0,.01,0,.02-.07,.62,.14,1.2,.43,1.74,2.6,4.63,4.76,9.45,6.52,14.38,17.35,48.46-2.67,108.14-2.67,108.14l-5.19-2.19s-11.39-66.41-20.65-95.75c-1.57-4.98-3.08-8.89-4.46-11.22-4.02-6.81-7.76-17.94-11.15-31.17-6.41-25.02-11.56-57.56-15-82.69-.47,.02-10.26-42.47-10.26-42.47Z"></path><path fill="#304b77" d="M1356.6,1023.13h41.11s.99-6.57-1.16-11.55c-2.06-4.78-5.28-6.96-4.51-12.74-2.61,2.82-6.87,5.98-12.81,5.14-.73,1.24-4.7,7.86-7.13,9.69-2.69,2.02-14.67,1.3-15.49,9.46Z"></path><path fill="#304b77" d="M1268.33,1023.13h41.11s1.54-6.87-1.16-11.55c-2.39-4.14-1.47-6.5,.3-9.92-1.86,.8-4.27,1.53-6.92,1.37-2.05-.12-4.21-1.1-6.11-2.25-1.77,2.11-9.34,11.11-11.71,12.9-2.69,2.02-14.67,1.3-15.49,9.46Z"></path><path fill="#2b478b" d="M1366.49,712.88s25.46,29.72,25.97,74.58c.52,44.86,0,98.67,0,98.67,0,0-27.27,13.56-93.99,4.98l16.48-162.83,51.55-15.4Z"></path><path fill="#2c3a64" d="M1307.25,546.96c.04-1.17,.9-13.73,19.16-14.39,0,0-8.98,1.12-10.53,5.26,0,0,6.11-5.11,11.09-3.47,4.98,1.64,7.9,10.79,7.93,13.79,.03,3.01-2.74,12.7-5.9,13.52-1.2,.31-2.57,.23-3.83,0,.84,1.38,1.66,2.89,2.45,4.59,7.28,15.68-.23,30.99-6.39,29.3-3.96-1.09-5.07,5.99-5.07,5.99l-38.43-32.61s14.11-30.62,29.51-22Z"></path><path fill="#ffb27d" d="M1291.58,656.06c4.68,2.28,10.34,3.83,17.18,4.22,25.65,1.47,31.48-22.1,32.54-37.75-3.7-1.4-6.94-1.27-8.8-1.17-.69,.04-1.4,.09-2.1,.16-2.55,.23-5.03-.91-6.6-3.03-2.93-3.94-6.35-10.93-8.62-20.66l-1.11,.54-18.51,9.12s1.97,6.31,3.42,12.36c.63,2.61,1.15,5.18,1.39,7.16,.22,1.88-.79,3.68-2.45,4.42h0s0,0,0,.02c-.19,.5-4.21,11.25-6.33,24.59Z"></path><path fill="#8c9df4" d="M1376.73,727.47c-.07,3.38-7.31,6.45-17,8.58-5.4,1.18-11.56,2.08-17.65,2.56-15.16,1.21-29.93-.1-31.67-5.63,0,0-23.79-37.71-30.29-52.39-.23-.54,5.22-6.34,5.03-6.87-5.12-14.24,4.68-28.57-1.93-33.07,0,0,3.7-4.68,14.69-9.19v.02c-.18,.67-1.24,10.76,.58,14.49,5.27,10.81,21.53,4.92,26.11-2.29,4.27-6.71,7.95-15.73,7.91-20.42,0-1.17-.02-1.88-.02-1.88,0,0,12.24-1.73,19.12,1.18,0,0-2.71,6.19-3.71,13.01-.09,.65-.18,1.3-.24,1.95-.13,1.38-.17,2.76-.09,4.09,.09,1.78,.97,3.35,2.36,4.89,1.27,1.41,2.98,2.8,4.93,4.29,1.28,.97,2.64,1.98,4.05,3.07,.12,8.03-.42,21.25,1,35.35,.08,.78,.19,1.54,.35,2.3,.53,2.74,1.53,5.35,2.93,7.73,.71,1.21,1.52,2.36,2.43,3.42,2.31,2.71,4.56,5.16,6.47,7.56,4.06,5.12,6.55,10.08,4.63,17.25Z"></path><path fill="#ed985f" d="M1295.57,607.51s1.97,6.31,3.42,12.36c10.82-3.16,14.11-15.09,15.09-21.48l-18.51,9.12Z"></path><path fill="#ffb27d" d="M1293.29,614.19s25.89-6.28,21.91-23.12c-3.98-16.84-3.32-28.99-20.01-25.69-16.7,3.3-18.38,10.55-18.35,16.51,.02,5.96,9.62,33.5,16.46,32.3Z"></path><path fill="#2c3a64" d="M1275.37,572.33c2.78-6.1,6.06-5.78,8.11-4.7,12.16-11.8,24.09-2.16,24.09-2.16,4.59,11.63,14.54,16.38,14.54,16.38,0,0-3.98,4.27-15.5,4.18-3.52-.03-7.06-1.72-10.28-4.06,6.21,6.56,13.5,10.55,13.5,10.55-14.43-2.89-24.1-20.41-25.09-22.26-1.22,1.89-3.56,5.92-3.76,9.32-.27,4.62,1.25,13.6-1.28,13.94,0,0-8.51-12.04-4.33-21.19Z"></path><g><path fill="#f77d48" d="M1229.47,597.97l-146,423.95,293.12-189.72-147.11-234.23Zm-52.21,302.49l65.98-191.58,58.27,102.41-124.25,89.17Z"></path><g><g><polygon fill="#060633" points="1344.11 823.27 1345.41 822.43 1356.16 839.54 1354.86 840.38 1344.11 823.27"></polygon><g><polygon fill="#060633" points="1340.89 835.27 1342.19 834.43 1348.51 844.49 1347.21 845.33 1340.89 835.27"></polygon><polygon fill="#060633" points="1334.46 839.43 1335.76 838.59 1342.08 848.65 1340.78 849.49 1334.46 839.43"></polygon><polygon fill="#060633" points="1328.36 843.38 1329.66 842.54 1335.98 852.6 1334.68 853.44 1328.36 843.38"></polygon><polygon fill="#060633" points="1322.72 847.03 1324.02 846.19 1330.34 856.25 1329.04 857.09 1322.72 847.03"></polygon><polygon fill="#060633" points="1316.43 851.1 1317.73 850.26 1324.05 860.32 1322.75 861.17 1316.43 851.1"></polygon></g><polygon fill="#060633" points="1305.71 848.13 1307.01 847.29 1317.76 864.4 1316.46 865.24 1305.71 848.13"></polygon><g><polygon fill="#060633" points="1302.49 860.12 1303.79 859.28 1310.11 869.35 1308.81 870.19 1302.49 860.12"></polygon><polygon fill="#060633" points="1296.06 864.28 1297.36 863.44 1303.68 873.51 1302.38 874.35 1296.06 864.28"></polygon><polygon fill="#060633" points="1289.96 868.23 1291.26 867.39 1297.58 877.46 1296.28 878.3 1289.96 868.23"></polygon><polygon fill="#060633" points="1284.32 871.89 1285.62 871.04 1291.94 881.11 1290.64 881.95 1284.32 871.89"></polygon><polygon fill="#060633" points="1278.02 875.96 1279.33 875.11 1285.65 885.18 1284.34 886.02 1278.02 875.96"></polygon></g></g><g><polygon fill="#060633" points="1264.89 874.55 1266.19 873.7 1276.94 890.81 1275.64 891.66 1264.89 874.55"></polygon><g><polygon fill="#060633" points="1261.67 886.54 1262.97 885.7 1269.29 895.76 1267.99 896.61 1261.67 886.54"></polygon><polygon fill="#060633" points="1255.24 890.7 1256.54 889.86 1262.87 899.92 1261.56 900.77 1255.24 890.7"></polygon><polygon fill="#060633" points="1249.14 894.65 1250.44 893.81 1256.76 903.87 1255.46 904.72 1249.14 894.65"></polygon><polygon fill="#060633" points="1243.5 898.3 1244.8 897.46 1251.12 907.53 1249.82 908.37 1243.5 898.3"></polygon><polygon fill="#060633" points="1237.21 902.38 1238.51 901.53 1244.83 911.6 1243.53 912.44 1237.21 902.38"></polygon></g><polygon fill="#060633" points="1226.49 899.4 1227.79 898.56 1238.54 915.67 1237.24 916.51 1226.49 899.4"></polygon><g><polygon fill="#060633" points="1223.27 911.4 1224.57 910.55 1230.89 920.62 1229.59 921.46 1223.27 911.4"></polygon><polygon fill="#060633" points="1216.84 915.56 1218.14 914.72 1224.46 924.78 1223.16 925.62 1216.84 915.56"></polygon><polygon fill="#060633" points="1210.74 919.51 1212.04 918.66 1218.36 928.73 1217.06 929.57 1210.74 919.51"></polygon><polygon fill="#060633" points="1205.1 923.16 1206.4 922.32 1212.72 932.38 1211.42 933.22 1205.1 923.16"></polygon><polygon fill="#060633" points="1198.8 927.23 1200.11 926.39 1206.43 936.45 1205.13 937.3 1198.8 927.23"></polygon></g></g><g><polygon fill="#060633" points="1186.38 925.36 1187.68 924.52 1198.43 941.63 1197.13 942.47 1186.38 925.36"></polygon><g><polygon fill="#060633" points="1183.16 937.36 1184.46 936.52 1190.78 946.58 1189.48 947.42 1183.16 937.36"></polygon><polygon fill="#060633" points="1176.73 941.52 1178.03 940.68 1184.35 950.74 1183.05 951.58 1176.73 941.52"></polygon><polygon fill="#060633" points="1170.63 945.47 1171.93 944.63 1178.25 954.69 1176.95 955.53 1170.63 945.47"></polygon><polygon fill="#060633" points="1164.99 949.12 1166.29 948.28 1172.61 958.34 1171.31 959.18 1164.99 949.12"></polygon><polygon fill="#060633" points="1158.69 953.19 1160 952.35 1166.32 962.41 1165.02 963.26 1158.69 953.19"></polygon></g><polygon fill="#060633" points="1147.98 950.22 1149.28 949.38 1160.02 966.49 1158.72 967.33 1147.98 950.22"></polygon><g><polygon fill="#060633" points="1144.75 962.21 1146.06 961.37 1152.38 971.44 1151.07 972.28 1144.75 962.21"></polygon><polygon fill="#060633" points="1138.33 966.37 1139.63 965.53 1145.95 975.6 1144.65 976.44 1138.33 966.37"></polygon><polygon fill="#060633" points="1132.22 970.32 1133.53 969.48 1139.85 979.55 1138.55 980.39 1132.22 970.32"></polygon><polygon fill="#060633" points="1126.58 973.97 1127.88 973.13 1134.21 983.2 1132.9 984.04 1126.58 973.97"></polygon><polygon fill="#060633" points="1120.29 978.05 1121.59 977.2 1127.91 987.27 1126.61 988.11 1120.29 978.05"></polygon></g></g><polygon fill="#060633" points="1107.16 976.64 1108.46 975.79 1119.21 992.9 1117.91 993.75 1107.16 976.64"></polygon></g></g><path fill="#ffb27d" d="M1214.38,638.09s-5.08,1.31-6.37,7.16c-1.29,5.85,2.6,11.16,6.19,10.02,3.24-1.03,5.75-15.43,.17-17.18Z"></path><path fill="#6980e2" d="M1373.45,707.4l-1.35,2.81-12.36,25.83c-5.4,1.18-11.56,2.08-17.65,2.56,15.83-14.9,9.64-55,9.64-55h2l6.54,7.9,13.18,15.9Z"></path><path fill="#ffb27d" d="M1381.76,700.11c4.48,18.11-18.59,68.79-18.59,68.79l-8.97-10.32s3.08-24.75,5.52-32.83c1.42-4.65,.59-12.38,.37-14.45-.34-3.2,21.06-13.69,21.67-11.19Z"></path><path fill="#ffb27d" d="M1355.47,751.18s-3.32,22-6.19,23.84c-2.87,1.84-8.71,8.28-10.02,11.9,0,0-.12,1.53,1.23,1.69,1.35,.16,4.77-4.04,6.9-2.9,.15,.82,1.67,5.53,1.2,8.82-.35,2.47-1.71,5.63-1.59,7.67,.12,2.04,11.15,.3,13.58-5.87,1.96-4.98-1.08-11.17,.41-17.39,1.31-5.46,5.5-26.14,5.5-26.14l-11.02-1.62Z"></path><path fill="#8c9df4" d="M1351.63,622.55s9.64,2.38,16.86,15.41c7.22,13.03,19.33,60.05,15.21,81.13,0,0-7.19,7.3-25.38,1.62,0,0-5.04-31.35-7.62-44.05-2.58-12.7-13.4-40.8-13.4-40.8l14.33-13.31Z"></path></g><polygon fill="#f77d48" points="1343.25 779.13 1347.38 785.72 1343.63 790.49 1335.8 791 1335.07 783.12 1343.25 779.13"></polygon></g><rect fill="#233862" ry="2.02" rx="2.02" height="5.15" width="1917.49" y="1022.85" x="2.51"></rect></g></g></g></svg>