<svg viewBox="0 0 1620 1028" xmlns="http://www.w3.org/2000/svg"><g id="a"></g><g id="b"><g id="c"><g><path fill="#ebf3fa" d="M139.47,1019.59S-25.95,852.94,6.2,578.53C39.49,294.4,214.52,143.23,442.86,200.61c186.64,46.9,306.88,16.82,499.89-117.24,316.5-219.83,724.45,18.16,617.72,444.1-51.65,206.12,165.11,307.97-16.33,492.56l-1404.68-.44Z"></path><path fill="#d2e3fc" d="M420.51,782.52s60.7,15.73,57.63,29.51c-3.07,13.78-66.62-23.56-66.62-23.56,0,0-46.86,51.79-53.38,78.19,0,0,68.43-11.96,62.72,.46-5.72,12.42-76.46,28.96-76.46,28.96,0,0-32.17,61.23-3.94,88.15,28.23,26.92,49.89,17.87,55.17,9.06,5.28-8.81,25.75-72.19,31.83-67.16,6.08,5.03,2.4,53.03-11.52,73.72,0,0,61.12,.6,70-35.15,8.88-35.74-4.78-55.2,1.03-77.17,5.81-21.96,15.66-35.15,16.73-22.13,1.07,13.02-14.12,47.45-8.06,70.69,6.06,23.25,8.68,40.9,24.69,11.68,16-29.22,31.9-88.22,15.87-109.86-.7-.94-1.37-1.84-2-2.71,1.41,1.53,2,2.71,2,2.71,4.76-4.47,20.98-6.51,33.2-7.43,2.02,.01,4.88-.14,8.82-.53h0c1.75-.08,3.18-.13,4.17-.16,26.56,.41,63.91,26.52,63.91,26.52l3.77-6.06c-34.59-35.42-76.06-25.59-76.06-25.59-31.6,3.96-53.85-8.39-53.85-8.39,0,0-7.24-75.65-54.61-66.33,0,0-30.87,11.05-45.07,32.56Z"></path><path fill="#afcdfb" d="M1220.84,145.11c-16.17-73.79-116.93-50.73-116.93-50.73,0,0-68.41,129.13-88.32,132.21-19.9,3.07,41.05-124.52,41.05-124.52-38.56-4.61-136.83,53.8-136.83,53.8,0,0,6.22,150.65-13.68,147.58-19.9-3.07,0-133.74,0-133.74-37.32,13.84-72.15,67.64-72.15,67.64-43.54,87.62,49.76,152.19,49.76,152.19,0,0,1.24,52.27-24.88,112.22h0s-5.89,11.07-11.89,29.89h10.17c.83-3.37,1.75-6.63,2.76-9.76,0-.02,0-.04,.02-.06,.01-.05,.03-.09,.04-.14,.7-1.94,1.7-4.71,2.95-8.08h0s0-.02,0-.03c3.11-7.52,5.21-13.07,6.54-17.08,0-.01,0-.02,0-.04,9.31-23.6,22.73-54.36,31.68-60.81,0,0-1.13-1.96-2.18-5.77,.69,1.84,1.42,3.76,2.18,5.77,17.41,46.12,104.49,53.8,153,41.51,48.51-12.3,27.37-29.21,1.24-56.65-26.12-27.44-80.85-20.21-97.02-30.97-16.17-10.76,7.46-21.52,39.81-18.45,32.34,3.07,48.51,43.04,100.76,49.19,52.24,6.15,92.05-115.3,92.05-115.3-36.07,13.84-100.76-10.76-103.24-26.13-2.49-15.37,93.29-13.84,108.22-18.45,14.93-4.61,41.05-41.51,24.88-115.3Z"></path><path fill="#afcdfb" d="M254.85,150.54c22.27-44.06,84.13-4.54,84.13-4.54,0,0,23.93,100.63,36.38,107.48,12.45,6.84-6.86-90.98-6.86-90.98,25.81,6.38,80.42,68.29,80.42,68.29,0,0-28.05,96.47-14.61,99.31,13.43,2.84,21.31-86.99,21.31-86.99,22.07,18.08,36.15,61.55,36.15,61.55,14.36,67.59-56.61,86.88-56.61,86.88,0,0-9.14,33.69-1.7,79.04h0s2.07,8.64,2.97,22.33l-6.62-2.48c0-2.4-.08-4.74-.24-7.02,0-.02,0-.03,0-.04,0-.03,0-.07,0-.1-.14-1.43-.35-3.47-.63-5.97h0s0-.02,0-.02c-.82-5.65-1.3-9.77-1.53-12.7,0,0,0-.02,0-.03-2.3-17.62-6.12-40.89-10.92-47.26,0,0,1.04-1,2.33-3.22-.74,1.03-1.52,2.1-2.33,3.22-18.67,25.76-76.53,9.57-106.12-10.23-29.59-19.8-13.15-25.66,8.22-37.15,21.36-11.49,55.81,6.53,68.04,3.46,12.23-3.06-1.43-15.81-22.95-21.68-21.52-5.87-38.41,16.19-73.37,7.48-34.96-8.71-41.5-97.39-41.5-97.39,21.26,17.78,67.25,17.52,71.31,8.12,4.07-9.39-58.47-31.7-67.45-38.33-8.97-6.63-20.09-36.98,2.19-81.04Z"></path><path fill="#dfebfd" d="M777.95,145.26c-15.59-32.09-60.56-4.6-60.56-4.6,0,0-18.27,72.11-27.32,76.84-9.04,4.73,5.88-65.42,5.88-65.42-18.66,4.19-58.64,47.92-58.64,47.92,0,0,19.21,69.93,9.5,71.77-9.71,1.84-14.45-62.99-14.45-62.99-16.08,12.67-26.67,43.76-26.67,43.76-11.04,48.46,39.88,63.47,39.88,63.47,0,0,6.23,24.41,.41,56.96h0s-1.58,6.19-2.37,16.04l4.79-1.68c.03-1.73,.11-3.41,.25-5.05,0-.01,0-.02,0-.03,0-.02,0-.05,0-.07,.12-1.03,.29-2.5,.52-4.29h0v-.02c.65-4.05,1.04-7.02,1.23-9.13,0,0,0-.01,0-.02,1.84-12.65,4.83-29.35,8.35-33.87,0,0-.74-.74-1.65-2.36,.53,.75,1.07,1.54,1.65,2.36,13.19,18.85,55.03,8.1,76.55-5.7,21.52-13.8,9.73-18.27-5.53-26.89-15.27-8.62-40.27,3.82-49.05,1.42-8.78-2.4,1.19-11.37,16.76-15.26,15.57-3.89,27.5,12.27,52.77,6.55,25.27-5.72,30.9-69.49,30.9-69.49-15.5,12.47-48.62,11.56-51.45,4.73-2.83-6.83,42.45-21.91,48.98-26.55,6.53-4.64,14.85-26.32-.74-58.41Z"></path><path fill="#95c38b" d="M18.81,993.42c-.5,.17-1.14,.35-1.93,.52,.65-.19,1.28-.36,1.93-.52Z"></path><g><g><path fill="#d86713" d="M654.39,548.53l-30.59,449.56s-3.21,27.25,13.2,27.3c26.97,.08,134.23,0,134.23,0,0,0-20.3-5.67-20.05-18.44,.29-15.04,35.76-462.68,35.76-462.68l-132.54,4.25Z"></path><path fill="#f99746" d="M779.93,1017.24c-5.3,.02-107.75,.42-134.02,0-11.45-.18-13.45-12.58-13.55-20.6-.05-3.85,.35-6.69,.35-6.69l.8-11.68,2.03-29.78,1.79-26.31,2.3-33.81,1.94-28.54,21.74-319.45,132.54-4.25s-14.94,187.33-25.5,323.7c-1.18,15.19-2.3,29.76-3.34,43.36-.34,4.34-.66,8.59-.97,12.72-.98,12.9-1.88,24.75-2.65,35.21-.41,5.51-.79,10.64-1.13,15.33-1.35,18.39-2.14,30.13-2.15,32.37,0,1.3,.08,2.51,.26,3.64,2.18,14.33,17.59,14.8,19.58,14.8Z"></path><polygon fill="#f99746" points="332.51 303.89 407.03 673.83 417.23 724.49 451.94 896.8 1096.77 896.8 968.84 303.89 332.51 303.89"></polygon><polygon fill="#f99746" points="332.51 303.89 322.18 308.15 438.21 909.67 451.94 896.8 332.51 303.89"></polygon><polygon fill="#d86713" points="438.21 909.67 1079.07 909.67 1096.77 896.8 451.94 896.8 438.21 909.67"></polygon><rect fill="#f1a34f" transform="translate(1465.28 2042.98) rotate(180)" height="8.15" width="138.76" y="1017.42" x="663.26"></rect><polygon fill="#f1a34f" points="1065.53 787.55 960.9 311.73 334.09 311.73 332.51 303.89 968.84 303.89 1073.12 786.49 1065.53 787.55"></polygon><polygon fill="#d86713" points="766.75 909.67 766.03 915.9 635.54 948.48 637.33 922.16 638.18 909.67 766.75 909.67"></polygon><path opacity=".4" fill="#d86713" d="M779.93,1017.24c-5.3,.02-107.75,.42-134.02,0-11.45-.18-13.45-12.58-13.55-20.6l129.88-30.2c-1.35,18.39-2.14,30.13-2.15,32.37,0,1.3,.08,2.51,.26,3.64,2.18,14.33,17.59,14.8,19.58,14.8Z"></path><polygon fill="#ed7d2b" points="735.21 776.77 451.94 896.8 417.23 724.49 735.21 776.77"></polygon><polygon fill="#699dee" points="332.51 303.89 968.84 303.89 1072.09 780.4 428.5 780.4 332.51 303.89"></polygon></g><ellipse fill="#d86713" transform="translate(-260.5 355.46) rotate(-22.23)" ry="21.83" rx="16.6" cy="840.64" cx="774.33"></ellipse><polygon fill="#e4edf9" points="1042.08 759.75 446.28 759.75 378.8 427.57 373.63 402.09 369.22 380.37 358.87 329.42 946.08 329.42 957.44 380.37 962.29 402.09 967.97 427.57 1042.08 759.75"></polygon><polygon fill="#afcdfb" points="957.44 380.37 369.22 380.37 358.87 329.42 946.08 329.42 957.44 380.37"></polygon><g><path fill="#e9f3fe" d="M383.16,352.44c-.71-3.52,1.02-6.37,3.87-6.37s5.73,2.85,6.44,6.37-1.02,6.37-3.87,6.37-5.73-2.85-6.44-6.37Z"></path><path fill="#e9f3fe" d="M400.28,352.44c-.71-3.52,1.02-6.37,3.87-6.37s5.73,2.85,6.44,6.37c.71,3.52-1.02,6.37-3.87,6.37s-5.73-2.85-6.44-6.37Z"></path><path fill="#e9f3fe" d="M418.72,352.44c-.71-3.52,1.02-6.37,3.87-6.37s5.73,2.85,6.44,6.37c.71,3.52-1.02,6.37-3.87,6.37s-5.73-2.85-6.44-6.37Z"></path></g><polygon fill="#cae0ff" points="910.83 730.28 469.5 730.28 402.34 404.56 837.44 404.56 910.83 730.28"></polygon><polygon fill="#d2e3fc" points="967.9 480.35 867.88 480.35 849.59 404.56 950.83 404.56 967.9 480.35"></polygon><polygon fill="#1c468a" points="698.05 436.28 640.82 436.28 638.46 425.38 695.69 425.38 698.05 436.28"></polygon><polygon fill="#78acea" points="799.52 436.28 705.89 436.28 703.54 425.38 797.16 425.38 799.52 436.28"></polygon><polygon fill="#78acea" points="707.67 465.66 606.17 465.66 603.82 454.76 705.31 454.76 707.67 465.66"></polygon><polygon fill="#f1a34f" points="769.41 465.66 716.8 465.66 714.44 454.76 767.05 454.76 769.41 465.66"></polygon><polygon fill="#699dee" points="715.32 516.25 658.09 516.25 655.73 505.34 712.96 505.34 715.32 516.25"></polygon><polygon fill="#78acea" points="816.79 516.25 723.16 516.25 720.81 505.34 814.43 505.34 816.79 516.25"></polygon><polygon fill="#fff" points="724.94 545.63 623.44 545.63 621.09 534.72 722.58 534.72 724.94 545.63"></polygon><polygon fill="#fff" points="786.68 545.63 734.07 545.63 731.71 534.72 784.32 534.72 786.68 545.63"></polygon><polygon fill="#1c468a" points="663.48 591.11 469.85 591.11 467.5 580.2 661.13 580.2 663.48 591.11"></polygon><polygon fill="#699dee" points="733.09 591.11 675.86 591.11 673.5 580.2 730.73 580.2 733.09 591.11"></polygon><polygon fill="#78acea" points="834.56 591.11 740.93 591.11 738.58 580.2 832.2 580.2 834.56 591.11"></polygon><polygon fill="#fff" points="533.43 620.49 476.2 620.49 473.84 609.58 531.08 609.58 533.43 620.49"></polygon><polygon fill="#f1a34f" points="742.71 620.49 641.21 620.49 638.86 609.58 740.35 609.58 742.71 620.49"></polygon><polygon fill="#78acea" points="634.9 620.49 541.27 620.49 538.92 609.58 632.55 609.58 634.9 620.49"></polygon><polygon fill="#78acea" points="804.45 620.49 751.84 620.49 749.48 609.58 802.09 609.58 804.45 620.49"></polygon><polygon fill="#1c468a" points="685.46 672.22 491.84 672.22 489.48 661.32 683.11 661.32 685.46 672.22"></polygon><polygon fill="#699dee" points="755.07 672.22 697.84 672.22 695.49 661.32 752.72 661.32 755.07 672.22"></polygon><polygon fill="#fff" points="555.41 701.6 498.18 701.6 495.83 690.7 553.06 690.7 555.41 701.6"></polygon><polygon fill="#f1a34f" points="764.69 701.6 663.19 701.6 660.84 690.7 762.33 690.7 764.69 701.6"></polygon><polygon fill="#78acea" points="656.88 701.6 563.25 701.6 560.9 690.7 654.53 690.7 656.88 701.6"></polygon><polygon fill="#78acea" points="826.43 701.6 773.82 701.6 771.47 690.7 824.07 690.7 826.43 701.6"></polygon><g><polygon fill="#78acea" points="918.1 503.8 874.09 503.96 873.11 499.02 917.13 498.86 918.1 503.8"></polygon><polygon fill="#78acea" points="941.32 503.71 924.77 503.77 923.79 498.83 940.34 498.77 941.32 503.71"></polygon><polygon fill="#78acea" points="974.87 503.58 945.62 503.69 944.64 498.75 973.89 498.64 974.87 503.58"></polygon><polygon fill="#78acea" points="900.68 516.36 876.55 516.46 875.57 511.52 899.71 511.42 900.68 516.36"></polygon><polygon fill="#78acea" points="935.87 516.23 904.7 516.35 903.73 511.41 934.9 511.29 935.87 516.23"></polygon><polygon fill="#78acea" points="977.33 516.07 941.62 516.21 940.64 511.27 976.36 511.13 977.33 516.07"></polygon></g><g><polygon fill="#78acea" points="923.37 530.49 879.35 530.66 878.38 525.71 922.39 525.55 923.37 530.49"></polygon><polygon fill="#78acea" points="946.58 530.4 930.03 530.46 929.06 525.52 945.61 525.46 946.58 530.4"></polygon><polygon fill="#78acea" points="980.13 530.27 950.88 530.38 949.91 525.44 979.16 525.33 980.13 530.27"></polygon><polygon fill="#78acea" points="905.95 543.06 881.81 543.15 880.84 538.21 904.97 538.12 905.95 543.06"></polygon><polygon fill="#78acea" points="941.13 542.92 909.97 543.04 908.99 538.1 940.16 537.98 941.13 542.92"></polygon><polygon fill="#78acea" points="982.6 542.76 946.88 542.9 945.91 537.96 981.62 537.82 982.6 542.76"></polygon></g><g><polygon fill="#fff" points="888.85 415.08 862.34 415.18 861.75 412.21 888.26 412.11 888.85 415.08"></polygon><polygon fill="#fff" points="902.83 415.03 892.86 415.07 892.27 412.09 902.24 412.05 902.83 415.03"></polygon><polygon fill="#fff" points="923.03 414.95 905.42 415.02 904.83 412.04 922.44 411.98 923.03 414.95"></polygon><polygon fill="#fff" points="878.36 422.65 863.82 422.7 863.24 419.73 877.77 419.67 878.36 422.65"></polygon><polygon fill="#fff" points="899.55 422.57 880.78 422.64 880.19 419.66 898.96 419.59 899.55 422.57"></polygon><polygon fill="#fff" points="924.52 422.47 903.01 422.56 902.42 419.58 923.93 419.5 924.52 422.47"></polygon></g><g><polygon fill="#fff" points="892.02 431.15 865.51 431.26 864.92 428.28 891.43 428.18 892.02 431.15"></polygon><polygon fill="#fff" points="906 431.1 896.03 431.14 895.44 428.16 905.41 428.13 906 431.1"></polygon><polygon fill="#fff" points="926.2 431.02 908.59 431.09 908 428.12 925.62 428.05 926.2 431.02"></polygon><polygon fill="#fff" points="881.53 438.72 866.99 438.78 866.41 435.8 880.94 435.75 881.53 438.72"></polygon><polygon fill="#fff" points="902.72 438.64 883.95 438.71 883.36 435.74 902.13 435.67 902.72 438.64"></polygon><polygon fill="#fff" points="927.69 438.55 906.18 438.63 905.59 435.65 927.1 435.57 927.69 438.55"></polygon></g><g><polygon fill="#78acea" points="932.36 576.09 888.34 576.26 887.37 571.32 931.39 571.15 932.36 576.09"></polygon><polygon fill="#78acea" points="955.58 576.01 939.03 576.07 938.05 571.13 954.6 571.06 955.58 576.01"></polygon><polygon fill="#78acea" points="989.13 575.88 959.87 575.99 958.9 571.05 988.15 570.94 989.13 575.88"></polygon><polygon fill="#78acea" points="914.94 588.66 890.81 588.75 889.83 583.81 913.97 583.72 914.94 588.66"></polygon><polygon fill="#78acea" points="950.13 588.53 918.96 588.65 917.99 583.71 949.15 583.59 950.13 588.53"></polygon><polygon fill="#78acea" points="991.59 588.37 955.88 588.51 954.9 583.57 990.62 583.43 991.59 588.37"></polygon></g><g><polygon fill="#78acea" points="941.18 620.79 897.16 620.96 896.19 616.02 940.2 615.85 941.18 620.79"></polygon><polygon fill="#78acea" points="964.39 620.7 947.84 620.77 946.87 615.83 963.42 615.76 964.39 620.7"></polygon><polygon fill="#78acea" points="997.94 620.58 968.69 620.69 967.72 615.75 996.97 615.63 997.94 620.58"></polygon><polygon fill="#78acea" points="923.76 633.36 899.62 633.45 898.65 628.51 922.78 628.42 923.76 633.36"></polygon><polygon fill="#78acea" points="958.94 633.23 927.78 633.35 926.81 628.4 957.97 628.29 958.94 633.23"></polygon><polygon fill="#78acea" points="1000.41 633.07 964.69 633.2 963.72 628.26 999.43 628.13 1000.41 633.07"></polygon></g><g><polygon fill="#78acea" points="949.12 661.06 905.1 661.23 904.13 656.29 948.15 656.12 949.12 661.06"></polygon><polygon fill="#78acea" points="972.34 660.97 955.79 661.04 954.81 656.1 971.36 656.03 972.34 660.97"></polygon><polygon fill="#78acea" points="1005.89 660.85 976.63 660.96 975.66 656.02 1004.91 655.91 1005.89 660.85"></polygon><polygon fill="#78acea" points="931.7 673.63 907.57 673.72 906.59 668.78 930.73 668.69 931.7 673.63"></polygon><polygon fill="#78acea" points="966.89 673.5 935.72 673.62 934.75 668.67 965.91 668.56 966.89 673.5"></polygon><polygon fill="#78acea" points="1008.35 673.34 972.63 673.47 971.66 668.53 1007.38 668.4 1008.35 673.34"></polygon></g><g><g><path fill="#a8d29f" d="M969.86,720.96c-7.07,0-14.51-7.11-16.57-15.85-2.06-8.74,2.01-15.85,9.08-15.85s14.51,7.11,16.57,15.85c2.07,8.74-2.01,15.85-9.08,15.85Zm-6.81-28.81c-5.78,0-9.11,5.81-7.43,12.96,1.69,7.15,7.77,12.96,13.55,12.96s9.11-5.81,7.42-12.96c-1.69-7.15-7.77-12.96-13.55-12.96Z"></path><path fill="#a8d29f" d="M967.76,713.17c-.49-.04-1-.3-1.44-.74l-7.2-7.12c-.97-.96-1.31-2.49-.74-3.41,.56-.92,1.8-.89,2.78,.08l5.09,5.03,2.61-7.45c.38-1.08,1.54-1.32,2.6-.54,1.06,.78,1.61,2.29,1.23,3.37l-3.43,9.79c-.2,.58-.65,.94-1.21,.99-.09,0-.19,0-.28,0Z"></path></g><g><path fill="#f1a34f" d="M1005.28,720.96c-7.07,0-14.51-7.11-16.57-15.85-2.06-8.74,2.01-15.85,9.08-15.85s14.51,7.11,16.57,15.85c2.06,8.74-2.01,15.85-9.08,15.85Zm-6.81-28.81c-5.78,0-9.11,5.81-7.43,12.96,1.69,7.15,7.77,12.96,13.55,12.96s9.11-5.81,7.42-12.96c-1.69-7.15-7.77-12.96-13.55-12.96Z"></path><g><path fill="#f1a34f" d="M1002.14,707.7h0c-1,0-2.05-1.01-2.34-2.24l-1.59-6.74c-.29-1.23,.29-2.24,1.28-2.24h0c1,0,2.05,1.01,2.34,2.24l1.59,6.74c.29,1.23-.29,2.24-1.28,2.24Z"></path><path fill="#f1a34f" d="M1003.59,712.99h-.39c-.89,0-1.83-.9-2.09-2h0c-.26-1.1,.26-2,1.15-2h.39c.89,0,1.83,.9,2.09,2h0c.26,1.1-.26,2-1.15,2Z"></path></g></g></g><g><g><path fill="#a8d29f" d="M930.4,473.05c-3.88,0-7.95-3.9-9.09-8.69-1.13-4.79,1.1-8.69,4.98-8.69s7.96,3.9,9.09,8.69c1.13,4.79-1.1,8.69-4.98,8.69Zm-3.73-15.8c-3.17,0-5,3.19-4.07,7.11,.93,3.92,4.26,7.11,7.43,7.11s5-3.19,4.07-7.11c-.92-3.92-4.26-7.11-7.43-7.11Z"></path><path fill="#a8d29f" d="M929.25,468.78c-.27-.02-.55-.17-.79-.4l-3.95-3.91c-.53-.53-.72-1.37-.41-1.87,.31-.5,.99-.49,1.52,.04l2.79,2.76,1.43-4.08c.21-.59,.85-.72,1.42-.3,.58,.43,.88,1.26,.68,1.85l-1.88,5.37c-.11,.32-.35,.52-.67,.54-.05,0-.1,0-.15,0Z"></path></g><g><path fill="#a8d29f" d="M910.27,473.05c-3.88,0-7.95-3.9-9.09-8.69-1.13-4.79,1.1-8.69,4.98-8.69s7.95,3.9,9.09,8.69c1.13,4.79-1.1,8.69-4.98,8.69Zm-3.73-15.8c-3.17,0-5,3.19-4.07,7.11,.93,3.92,4.26,7.11,7.43,7.11s5-3.19,4.07-7.11c-.93-3.92-4.26-7.11-7.43-7.11Z"></path><path fill="#a8d29f" d="M909.12,468.78c-.27-.02-.55-.17-.79-.4l-3.95-3.91c-.53-.53-.72-1.37-.41-1.87,.31-.5,.99-.49,1.52,.04l2.79,2.76,1.43-4.08c.21-.59,.85-.72,1.43-.3,.58,.43,.88,1.26,.68,1.85l-1.88,5.37c-.11,.32-.35,.52-.67,.54-.05,0-.1,0-.15,0Z"></path></g><g><path fill="#a8d29f" d="M889.42,473.05c-3.88,0-7.95-3.9-9.09-8.69-1.13-4.79,1.1-8.69,4.98-8.69s7.95,3.9,9.09,8.69c1.13,4.79-1.1,8.69-4.98,8.69Zm-3.73-15.8c-3.17,0-5,3.19-4.07,7.11,.93,3.92,4.26,7.11,7.43,7.11s5-3.19,4.07-7.11c-.93-3.92-4.26-7.11-7.43-7.11Z"></path><path fill="#a8d29f" d="M888.27,468.78c-.27-.02-.55-.17-.79-.4l-3.95-3.91c-.53-.53-.72-1.37-.41-1.87,.31-.5,.99-.49,1.52,.04l2.79,2.76,1.43-4.08c.21-.59,.84-.72,1.43-.3,.58,.43,.88,1.26,.68,1.85l-1.88,5.37c-.11,.32-.35,.52-.67,.54-.05,0-.1,0-.15,0Z"></path></g><g><path fill="#f1a34f" d="M949.81,473.05c-3.88,0-7.95-3.9-9.09-8.69-1.13-4.79,1.1-8.69,4.98-8.69s7.96,3.9,9.09,8.69c1.13,4.79-1.1,8.69-4.98,8.69Zm-3.73-15.8c-3.17,0-5,3.19-4.07,7.11,.93,3.92,4.26,7.11,7.43,7.11s5-3.19,4.07-7.11c-.92-3.92-4.26-7.11-7.43-7.11Z"></path><g><path fill="#f1a34f" d="M948.1,465.78h0c-.55,0-1.13-.55-1.29-1.23l-.87-3.69c-.16-.68,.16-1.23,.7-1.23h0c.55,0,1.13,.55,1.29,1.23l.87,3.69c.16,.68-.16,1.23-.7,1.23Z"></path><path fill="#f1a34f" d="M948.89,468.68h-.21c-.49,0-1-.49-1.15-1.1h0c-.14-.6,.14-1.1,.63-1.1h.21c.49,0,1,.49,1.15,1.1h0c.14,.6-.14,1.1-.63,1.1Z"></path></g></g></g></g><g><g><path fill="#e49963" d="M272.37,713.85s10.6,3.37,17.34,.86c6.74-2.51,18.34,1.61,20.21,4.65,1.87,3.04,1.18,4.24-2.15,5.29-3.33,1.05-15.14,7.27-22.91,3.67-7.76-3.6-17.89-3.73-17.89-3.73l5.39-10.74Z"></path><path fill="#4a75cb" d="M180.73,600.02s11.91,104.62,31.63,113.99c9.73,4.62,52.74,15.11,65.47,16.16,0,0,3.12-3.13,2.36-15.84,0,0-45.06-20.45-51.46-31.56-9.53-16.55,5.91-67.6-6.04-83.14-11.96-15.54-32.09-22.22-41.95,.4Z"></path></g><rect fill="#2b478b" transform="translate(380.98 1851.52) rotate(-180)" ry="8.24" rx="8.24" height="178.16" width="16.47" y="836.68" x="182.25"></rect><path fill="#2b478b" d="M139.66,1026.55c5.33-13.63,26.06-23.79,50.83-23.79s45.5,10.16,50.83,23.79h-101.67Z"></path><path fill="#2b478b" transform="translate(380.98 1953.49) rotate(-180)" d="M154.01,973.16h72.96c1.24,0,2.24,1,2.24,2.24v2.7c0,1.24-1,2.24-2.24,2.24h-72.96c-1.24,0-2.24-1-2.24-2.24v-2.7c0-1.24,1-2.24,2.24-2.24Z"></path><path fill="#163560" d="M184.75,820.44c3.47,7.28,7.49,14.11,11.64,20.57,12.8,19.97,26.74,36.44,29.17,52.01,.48,3.1,1.25,6.44,2.25,9.96,1.01,3.57,2.27,7.32,3.71,11.19,5.43,14.58,13.56,30.93,21.67,45.78,14.02,25.68,27.21,47.1,27.21,47.1l24.18-1.27c-.97-3-11.51-38.45-25.62-81.78-5.73-17.59-11.82-36.3-17.7-54.34-.78-2.41-1.57-4.81-2.34-7.19-1.8-5.52-3.57-10.96-5.29-16.25-13.25-40.68-23.8-73.08-23.8-73.08,0,0-52.95-24.79-58.45-8.73-4.53,13.24-.84,26.22,13.38,56.02Z"></path><path fill="#163560" d="M281.14,1001.63s1.24,24.66,5.1,25.01c.51,.05,19.58,.05,19.58,.05l24.34-.17s-.16-7.25-7.27-8.78c-7.11-1.53-19.02-7.71-23.33-19.33-4.53-12.23-18.41,3.23-18.41,3.23Z"></path><path fill="#163560" d="M225.15,931.18s-16.82,13.36-15.19,17.69c.22,.58,9.51,21.15,9.51,21.15l11.99,26.18s5.04-3.7,2.66-12.13c-2.39-8.42-3.83-24.29,2.28-34.6,6.43-10.85-11.25-18.29-11.25-18.29Z"></path><path fill="#1c468a" d="M248.83,762.12s65.53,50.43,72.95,84.81c7.42,34.38-88.41,107.73-88.41,107.73,0,0-10.51-11.46-12.36-19.86,0,0,43.31-64.13,52.71-78.51,5.77-8.83-85.32-30.56-96.45-51.96-11.13-21.39-7.14-39.39-7.14-39.39l78.7-2.81Z"></path><path fill="#ee9849" transform="translate(380.98 1700.01) rotate(180)" d="M125.31,827.08H255.67c4.29,0,7.78,3.48,7.78,7.78v30.29c0,4.29-3.48,7.78-7.78,7.78H125.31c-4.29,0-7.78-3.48-7.78-7.78v-30.29c0-4.29,3.48-7.78,7.78-7.78Z"></path><path fill="#e49963" d="M217.17,582.08c6.53,5,10.12,11.34,10.12,11.34-15.92,5.09-42.32-13.14-42.32-13.14,0,0,10.25-8.51,14.04-27.21,.19-.94,.37-1.91,.52-2.9,.5-3.15,.81-6.56,.86-10.24l7.31,8.1,12.16,13.47s-.28,5.59-1.8,15.2c-.26,1.68-.57,3.48-.92,5.39Z"></path><path fill="#739af0" d="M168.12,674.99c2.28,37.91-.72,95.56,1.87,105.55,2.23,8.61,27.67,3.49,37.83,.62,3.76-1.06,8.31-2.58,13.01-4.38,13.12-5.02,27.41-12.19,28.94-17.51,.06-.21,.11-.41,.14-.61,.14-.77,.11-1.5-.03-2.23-.51-2.71-2.48-5.65-2.71-12.36-.26-7.5-.22-16.33-.45-25.82-.01-1.07-.02-2.23-.12-3.3v-.39c0-.2-.01-.4-.02-.61-.22-10.59-.67-21.72-1.19-32.76-.33-6.93-.71-13.8-1.15-20.38-1.14-16.98-2.69-32.08-4.73-41.63-3.33-15.56-10.69-25.71-17.38-33.15l-4.84-5.13c-5.4,1.46-11.79,.49-17.56-2.89-6.25-3.67-8.41-6.3-9.5-5.31-14.44,13.76-24.82,55.94-22.13,102.28Z"></path><path fill="#4a75cb" d="M220.83,776.77c13.12-5.02,27.41-12.19,28.94-17.51,.06-.21,.11-.41,.14-.61,0-.74-.02-1.49-.03-2.23-.51-2.71-2.48-5.65-2.71-12.36-.26-7.5-.22-16.33-.45-25.82-.01-1.07-.02-2.23-.12-3.3v-.39c0-.2-.01-.4-.02-.61l-49.54-27.77s-2.85,49.35,23.78,90.59Z"></path><path fill="#d68d5d" d="M219.89,561.49s-.28,5.59-1.8,15.2c-11.88-4.74-17.26-18-19.06-23.62-.51-1.59-.73-2.57-.73-2.57,0,0,.46-.12,1.25-.33,1.67-.44,4.81-1.26,8.18-2.14l12.16,13.47Z"></path><path fill="#e49963" d="M224.7,561.35s-26.09,3.64-27.67-16.48c-1.58-20.12-6.02-33.19,10.58-36.37,16.59-3.17,20.44,4.11,22.29,10.67,1.85,6.56,1.56,40.71-5.19,42.18Z"></path><path fill="#2b478b" d="M197.13,546.26s1.65-26.7,25.4-29.47c16.27-1.89,7.2-19.2,5.46-21.96,0,0-12.46,2.11-25.24,4.72-26.81,5.48-8.26,42.55-5.63,46.7Z"></path><g><polygon fill="#4a75cb" points="323.43 740.07 325.71 740.99 345.14 667.08 342.86 666.16 323.43 740.07"></polygon><polygon fill="#4a75cb" points="259.83 734.37 325.8 736.11 325.71 740.99 259.74 739.24 259.83 734.37"></polygon></g><g><path fill="#e49963" d="M266.91,729.93s10.24,4.79,17.16,3.21c6.92-1.58,18.09,4.1,19.67,7.37,1.59,3.27,.8,4.38-2.61,4.97-3.41,.59-15.7,5.17-23.09,.53-7.39-4.64-17.44-6.15-17.44-6.15l6.32-9.94Z"></path><path fill="#739af0" d="M185.99,604.31s2.51,105.61,21.27,117.61c9.26,5.92,51.07,22.2,63.63,24.98,0,0,3.38-2.68,3.76-15.43,0,0-42.96-26.46-48.33-38.38-7.99-17.75,11.91-66.39,1.41-83.46-10.5-17.08-29.91-26.46-41.73-5.32Z"></path></g></g><g><path fill="#233862" d="M898.98,1023.29s.96-9.22,3.18-14.71c2.22-5.48,16.34-1.99,16.34-1.99,0,0,2.82,2.99,3.43,16.95l-22.95-.25Z"></path><path fill="#233862" d="M850.88,1023.16c3.32-2.5,1.43-21.17,1.43-21.17,0,0-15.46-15.29-17.59-3.58-2.13,11.7-14.69,16.96-21.84,18.39-4.94,.99-6.46,4.37-6.94,6.37h44.93Z"></path><path fill="#213f7a" d="M882.9,887.37c-.63,4.29-1.03,7.8-1.13,10.32-1.44,34.65-23.6,113.86-27.56,115.71-6.13,2.86-15.79-3.22-20.84-5.21-2.09-.83-3.51-3.44-3.04-6.08,10.97-62.35,15.01-152.13,16.48-205.29,.74-26.77,4.46-45.27,4.46-45.27,0,0,54.05-17.82,54.37,4.72,.28,19.95-17.9,98.19-22.72,131.1Z"></path><path fill="#233862" d="M882.9,887.37l-36.11-90.55c.74-26.77,4.46-45.27,4.46-45.27,0,0,54.05-17.82,54.37,4.72,.28,19.95-17.9,98.19-22.72,131.1Z"></path><path fill="#213f7a" d="M870.87,756.35l28.57,255.93s12.55,3.74,22.31,.75c0,0,8.37-136.11,7.67-169.02-.7-32.91,6-88.05-1.53-94.13-7.53-6.08-57.02,6.48-57.02,6.48Z"></path><path fill="#2b478b" d="M929.9,690.64l3.56,61.44c.14,2.31-1.06,4.42-2.86,5.06-3.99,1.43-8.58,2.42-17.44,4.69-8.32,2.14-19.52,4.03-33.28,4.13-21.89,.17-30.17-9.15-30.17-9.15-.94,.02,.5-5.64,1.8-32.56,.44-9.12,.86-20.67,1.17-35.28,.28-13.14,.46-28.76,.48-47.28,.02-22.28,27.93-46.26,28.45-46.26h0c0,3.22,4.09,9.14,10.39,9.65,7.48,.6,16.66-4,16.66-9.32,0-.05,13.52,26.73,18.32,55.27,.61,3.62,1.08,7.43,1.46,11.45,0,.06,.01,.12,.02,.18,.07,.73,.13,1.47,.2,2.22,.01,.13,.02,.26,.03,.39,.06,.68,.11,1.36,.16,2.05,.01,.19,.03,.4,.04,.59,.05,.63,.09,1.26,.13,1.89,0,.06,0,.12,.01,.17,.03,.47,.06,.95,.09,1.42,.02,.33,.04,.68,.06,1.01,.03,.56,.06,1.11,.09,1.68,.01,.28,.03,.56,.04,.85,.03,.53,.05,1.07,.08,1.61,.01,.24,.02,.48,.03,.72,.03,.78,.07,1.56,.1,2.35,0,.07,0,.13,0,.19,.03,.76,.06,1.52,.09,2.29,0,.19,.01,.38,.02,.57,.03,.72,.06,1.45,.08,2.18,0,.11,0,.22,.01,.32,.06,1.78,.12,3.6,.17,5.44,0,.05,0,.09,0,.14v-.14Z"></path><path fill="#2b478b" d="M881.59,595.45s-25.95-.27-32.2,10.55c-6.25,10.83-19.94,69.06-12.79,88.44,7.15,19.38,20.52-8.02,27.94-19.89,7.42-11.87,17.05-79.1,17.05-79.1Z"></path><path fill="#ffb27d" d="M881.33,590.55v3.32s-.72,10.37,9.62,11.88c10.33,1.52,18.16-4.04,17.88-12.04-.93-6.2-1.95-10.45-2.02-15.58-.03-1.9,.08-3.93,.37-6.21l-20.02-.49-5.9,1.19,.08,17.93Z"></path><path fill="#e2915a" d="M881.25,572.62l.08,17.93c2.13,1.22,4.53,1.97,7.22,1.97,9.2,0,15.15-8.34,18.26-14.39-.03-1.9,.08-3.93,.37-6.21l-20.02-.49-5.9,1.19Z"></path><path fill="#ffb27d" d="M908.7,567.94c-2.32,15.45-18.45,14.94-25.42,13.97-1.96-.27-3.2-.58-3.2-.58-2.21-.73-3.45-5.04-4.02-10.68-1.14-11.16,.3-27.54,1.83-31.74,2.3-6.31,6.62-13.12,22.86-8.2,16.25,4.92,10.93,17.43,7.95,37.22Z"></path><path fill="#233862" d="M855.05,638.85s-10.04,27.39-9.74,35.61c0,0,4.97-.21,9.74,1.55,7.85,2.89,0-37.15,0-37.15Z"></path><path fill="#233862" d="M872.9,524.22s7.15-.68,15.58-5.21c6.84-3.68,15.48,.37,18.28,2.2-.08-.56-.26-1.32-.68-2.08,0,0,1.26,1.1,1.44,2.64,.13,.12,.19,.2,.15,.23,0,0,1.43-.32,2.34,.19,0,0-.64-.11-.87,.4-.02,.05-.06,.1-.1,.14,10.68,6.38,11.66,27.23,8.23,32.05-4.13,5.81-9.09,18.88-9.09,18.88,0,0-1.81-3.09-1.06-8.2,.75-5.11-2.82-5.11-7.33-7.43-4.51-2.32-.75-8.82-4.7-12.77-3.95-3.95-18.41-1.63-18.23-4.64-5.37-2.42-3.98-15.71-3.98-16.39Z"></path><path fill="#233862" d="M911.97,690.16c-4.24,21.03-50.06,31.89-60.48,34.1,.44-9.12,.86-20.67,1.17-35.28l59.31,1.18Z"></path><path fill="#ffb27d" d="M901.91,697c.44,0,10.19-1.8,11.93-2.88,1.75-1.08,9.73-15.11,4.5-18.7-5.23-3.6-19.27,10.79-19.27,10.79l2.84,10.79Z"></path><path fill="#2b478b" d="M842.61,701.16s37.71,2.53,63.02-4.17c0,0,.64-9.04-7.31-13.05,0,0-39.44-10.33-48.92-7.45-9.48,2.88-6.78,24.67-6.78,24.67Z"></path><path fill="#2b478b" d="M929.21,664.59c-7.83,11.66-18.06,21.18-29.33,23.41h0c-.09-.18-3.41-6.41-2.79-15.57,.29-4.24,1.42-9.1,4.11-14.29,.83-1.59,1.56-3.46,2.22-5.52,6.16-19.42,5.24-56.85,5.24-56.85,0,0,26.15,3.38,34.3,17.77,4.99,8.81-1.37,32.61-13.74,51.04Z"></path><path fill="#e2915a" d="M883.28,581.91c-1.96-.27-3.2-.58-3.2-.58-2.21-.73-3.45-5.04-4.02-10.68,4.15,1.26,6.05,5.22,6.84,6.91,.36,.76,.43,2.46,.38,4.35Z"></path><path fill="#ffb27d" d="M872.74,590.65s-9.03-18.42-2.01-19.22c7.02-.8,9.85,5.07,10.86,7.23,1.01,2.16-.27,11.89-.27,11.89l-8.59,.1Z"></path><path fill="#2b478b" d="M907.17,671.82c-.28,2.33-.84,4.48-1.54,6.4-2.21,6.05-5.75,9.79-5.75,9.79h0c-23.46-13.09-28.2-58.02-29-82.71-.32-9.92,0-16.58,0-16.58,10.58-4.33,13.56,3.19,13.56,3.19,0,0,12.49,36.72,18.98,60.72,2.48,9.18,4.08,16.51,3.76,19.19Z"></path><path fill="#233862" d="M929.21,664.59c-7.83,11.66-18.06,21.18-29.33,23.41h0c-23.46-13.09-28.2-58.02-29-82.71,0,0,11.1,49.76,26.21,67.15,2.73,3.15,5.59,5.23,8.54,5.78,0,0,19.05-6.65,23.05-12.92,.29-.45,.46-.67,.54-.7Z"></path></g><path fill="#2e3552" d="M1619.78,1028H.22c-.12,0-.22-1.19-.22-2.66H0c0-1.46,.1-2.66,.22-2.66H1619.78c.12,0,.22,1.19,.22,2.66h0c0,1.46-.1,2.66-.22,2.66Z"></path><g><path fill="#f99746" d="M1316.04,981.16c4.57,21.13,38.37,33.57,75.35,40.86h137.97c33.26-20.12,33.21-44.12,35.88-110.39,5.51-136.88-52.75-202.96-78.73-192.05-1.08,.45-2.18,.95-3.3,1.51-7.55,3.75-16.01,10.38-24.23,26.16,0,0-25.82,53.19-47.07,84.92-6.84,10.21-13.21,18.21-18.08,21.48-.06,.04-.11,.08-.17,.11-.26,.17-.51,.32-.76,.46-11.26,6.37-27.13,19.72-41.63,36.57h0c-22.48,26.11-41.65,60.58-35.2,90.37Z"></path><path fill="#ed7d2b" d="M1351.25,890.79c19.34,7.35,118.91,42.87,142.34,5.2,16.97-27.28,6.4-97.15-2.97-142.36-3.84-18.53-23.01-22.74-31.4-6.85-.08,.16-.17,.31-.25,.47,0,0-25.82,53.19-47.07,84.92-6.15,10.02-12.21,17.75-18.08,21.48-.06,.04-.11,.08-.17,.11-.25,.17-.51,.32-.76,.46-11.26,6.37-27.13,19.72-41.63,36.57Z"></path><g><path fill="#f4a269" d="M1425.31,718.12s-6.9,12.62-10.83,39.14c-3.45,23.23-6.47,31.81-11.45,36.57-4.98,4.76-32.71,18.83-32.71,18.83l2.07,6s40.64-6.84,45.21-15.24c4.57-8.4,21.97-57.99,20.62-69.42-1.35-11.42-12.92-15.89-12.92-15.89Z"></path><g><path fill="#ffb27d" d="M1325.78,995.22c.37,4.9-5.15,6.09-11.54,6.48-6.39,.39-4.46,2.01-13.22,3.97-8.76,1.96-12.27-1-12.9-2.46-.56-1.3,3.51-3.33,7.85-5.62,.55-.29,1.09-.58,1.64-.88,4.88-2.65,7.62-8.07,11.43-13.09,3.61-4.75,7.03-19.98,7.03-19.98l11.9-3.14s-3.34,13.7-4.5,19.55c-.68,3.44,.32,7.29,1.22,10.21,.48,1.59,.97,3.22,1.1,4.95Z"></path><path fill="#c65447" d="M1314.24,1001.7c-6.39,.39-4.46,2.01-13.22,3.97-8.76,1.96-12.27-1-12.9-2.46-.56-1.3,3.51-3.33,7.85-5.62l.07,.09s6.16,2.58,13.27,.19c5.79-1.94,11.4-6.22,15.39-7.61,.48,1.59,.97,3.22,1.1,4.95,.37,4.9-5.15,6.09-11.54,6.48Z"></path></g><path fill="#163560" d="M1444.31,820.78s-79.1-7.36-93.99,4.26c-14.89,11.61-38.77,146.9-38.77,146.9,0,0,1.47,1.46,4.77,1.9,3.06,.41,9.8-1.81,9.8-1.81,0,0,34.32-60.53,36.74-75.78,2.42-15.25,1.83-28.86,7.33-29.22,5.5-.36,74.13,10.31,84.51-12.29,10.38-22.6,1.8-44.97,1.8-44.97l-12.19,11.02Z"></path><g><path fill="#ffb27d" d="M1356.05,1010.92c.37,4.9-5.15,6.09-11.54,6.48-6.39,.39-4.46,2.01-13.22,3.97-8.76,1.96-12.27-1-12.9-2.46-.56-1.3,3.51-3.33,7.85-5.62,.55-.29,1.09-.58,1.64-.88,4.88-2.65,7.62-8.07,11.43-13.09,3.61-4.75,7.03-19.98,7.03-19.98l11.9-3.14s-3.34,13.7-4.5,19.55c-.68,3.44,.32,7.29,1.22,10.21,.48,1.59,.97,3.22,1.1,4.95Z"></path><path fill="#c65447" d="M1344.5,1017.4c-6.39,.39-4.46,2.01-13.22,3.97-8.76,1.96-12.27-1-12.9-2.46-.56-1.3,3.51-3.33,7.85-5.62l.07,.09s6.16,2.58,13.27,.2c5.79-1.94,11.4-6.22,15.39-7.61,.48,1.59,.97,3.22,1.1,4.95,.37,4.9-5.15,6.09-11.54,6.48Z"></path></g><path fill="#1c468a" d="M1459.8,826.84s-70.26,4.11-84.78,16.43c-14.51,12.32-34.12,148.65-34.12,148.65,0,0,1.52,1.39,4.82,1.67,3.07,.26,9.74-2.29,9.74-2.29,0,0,32.39-62.13,34.32-77.49,1.94-15.35,.92-28.92,6.41-29.55,5.49-.63,74.4,6.74,84.06-16.35,9.66-23.08-20.46-41.08-20.46-41.08Z"></path><path fill="#b5453c" d="M1435.75,711.18c-1.36-2.96-2.99-8.27-4.17-17.89,.15,.95,2.16,13.04,6.33,19.63,16.27,11.37,48.44,51.15,48.28,59.2,0,0,9.34-22.93,9.51-23.08,0,0,17.77-32.12-6.19-47.7-12.18-7.92-12.73-19.33-12.78-29.27-.04-9.95-6.03-52.28-28.85-39.19,0,0-3.87-1.76-5.54-1.31,0,0,1.39,.21,2.14,1.05-2.73,.03-6.6,.59-9.72,3.14-8.26,6.74-13.03,61.49,.98,75.42Z"></path><path fill="#ffb27d" d="M1462.76,703.59s-6.54-.77-13.09,0c-4.45,.52-8.85,2.23-11.36,3.52-6.19,3.2-5.54,16.75,7.45,14.24,12.99-2.51,17.9-13.74,16.99-17.76Z"></path><path fill="#ffb27d" d="M1438.86,713.47c-.08,.05-1.85,11.66,6.65,11.19,5.59-.3,17.63-8.66,16.57-14.57-.51-2.81-4.73-10.1-5.58-26.74l-1.02,.34-17.1,5.67s.76,6.71,1.11,13.05c.3,5.33,.31,10.41-.65,11.06Z"></path><path fill="#f4a269" d="M1438.4,689.36s.76,6.71,1.11,13.05c9.68-1.14,14.21-12.49,15.98-18.72l-17.1,5.67Z"></path><path fill="#b5453c" d="M1457.16,681.22s4.55-10.34,5.31-18.92c.54-6.13-3.16-28.37-21.24-23.63,0,0-5.27,1.08-10.03,5.65-3.78,3.63-9.12,11.25-1.67,30.31l2.02,6.48,25.61,.11Z"></path><path fill="#ffb27d" d="M1435.48,695.64s22.96-1.42,22.02-19.08c-.94-17.66,1.4-29.74-13.3-29.57-14.7,.16-17.19,7.13-18.04,13.12-.85,5.99,3.32,35.45,9.32,35.54Z"></path><path fill="#b5453c" d="M1433.73,647.41s7.4,20.2,17.2,22.47c9.8,2.27,13.81-1.27,13.81-1.27,0,0-7.78-6.65-10-19.19,0,0-16.81-12.26-21.01-2.01Z"></path><path fill="#b5453c" d="M1435.38,648.97s-4.44,5.01-5.34,9.6c-.9,4.59-.92,13.89-3.12,13.75,0,0-5.49-13.69-.6-22.09,5.18-8.91,9.06-1.26,9.06-1.26Z"></path><path fill="#1c468a" d="M1412.51,822.25c1.86,2.75,7.66,3.59,13.86,4.85,4.88,1,10.01,2.24,13.65,4.89,8.28,6.01,35.32,26.3,43.25,25.38,3.07-.36,2.5-7.61,.64-17.23-2.93-15.19-9.06-36.29-9.06-45.46,0-5.01-1.35-16.85-3.15-30.4-.15-1.09-.3-2.19-.44-3.3-3.56-26.34-8.49-57.39-8.49-57.39,0,0-5.5,14.83-16.22,14.83s-8.22-11.31-8.22-11.31c0,0-9.78,1.42-12.09,4.5-2.31,3.08-8.17,16.37-9.33,19.99,0,0-.24,4.61,9,6.81,0,0-2.25,12.52-2.52,20.87-.2,6.17,3.4,25.47,4.44,37.47,.37,4.25,.42,7.59-.14,9.1-.71,1.94-3.03,3.87-5.66,5.77-5.22,3.76-11.72,7.38-9.51,10.64Z"></path><path fill="#163560" d="M1422.02,811.62c-5.93,12.5,16.09,16.26,19.73,18.9,8.28,6.01,33.59,27.78,41.52,26.86,3.07-.36,2.5-7.61,.64-17.23-2.93-15.19-9.06-36.29-9.06-45.46,0-5.01-1.35-16.85-3.15-30.4l-9.54-11.32s-10.22,32.66-19.97,38.01c-5.11,2.8-10.44,4.65-14.36,5.78,.37,4.25,.42,7.59-.14,9.1-.71,1.94-3.03,3.87-5.66,5.77Z"></path><path fill="#ffb27d" d="M1465.69,713.37s8.16-6.12,16.04,5.49c7.89,11.61-5.61,94.64-17.29,98.9-12.98,4.74-50.48-.76-50.48-.76l.72-7.24s39.92-9.46,41.58-12.1c1.66-2.64,5.28-82.96,9.43-84.3Z"></path><path fill="#1c468a" d="M1462.76,703.59s16.75,1.87,21.62,8.68c4.87,6.81,6.29,25.26,6.29,25.26,0,0-14.75,14.72-32.53,9.01l4.62-42.95Z"></path><g><rect fill="#9e332e" transform="translate(2797.95 1644.99) rotate(180)" height="3.23" width="22.13" y="820.88" x="1387.91"></rect><path fill="#9e332e" d="M1392.61,823.67c-.22-1.07-20.34-40.13-20.34-40.13h-44.78l22.46,39.08,42.66,1.05Z"></path><path fill="#b5453c" d="M1390.73,824.11c-.22-1.07-20.41-40.57-20.41-40.57h-42.83l21.37,40.57h41.87Z"></path><path fill="#9e332e" d="M1352.97,803.96c.44,1.58,1.84,2.86,3.12,2.86s1.96-1.28,1.52-2.86c-.44-1.58-1.84-2.87-3.12-2.87s-1.96,1.28-1.52,2.87Z"></path></g><path fill="#ffb27d" d="M1417.94,809.33s-13-3.11-14.47-2.33c-1.47,.78-9.64,9.85-8.81,11.66,.84,1.81,4.19,3.11,7.97,1.55,3.77-1.55,11.95-2.33,13.42-4.66,1.47-2.33,1.89-6.22,1.89-6.22Z"></path></g></g><g><polygon fill="#fafdff" points="1140.79 359.09 731.77 359.09 700.42 232.23 1109.45 232.23 1140.79 359.09"></polygon><g><path fill="#b7d5f9" d="M1093.88,275.12l3.75,15.17c1.65,6.68-1.42,12.14-6.82,12.14h-338.87c-5.4,0-11.17-5.46-12.82-12.14l-3.75-15.17c-1.65-6.68,1.42-12.14,6.82-12.14h338.87c5.4,0,11.17,5.46,12.82,12.14Z"></path><g><path fill="#699dee" d="M1026.02,278.29h-5.2l-.49-1.97h7.27l.42,1.7-1.93,11.08h-2.04l1.97-10.81Z"></path><path fill="#699dee" d="M1030.45,282.71c-.9-3.65,.17-6.61,2.89-6.61s5.21,2.92,6.12,6.61c.9,3.65-.17,6.61-2.89,6.61s-5.21-2.92-6.12-6.61Zm7.13,0c-.62-2.52-2.18-4.58-3.78-4.58s-2.12,2.01-1.48,4.58c.62,2.52,2.16,4.58,3.78,4.58s2.11-2.03,1.48-4.58Z"></path><path fill="#699dee" d="M1040.21,279.44c-.44-1.77,.18-3.27,1.64-3.27s2.79,1.48,3.23,3.27c.44,1.77-.18,3.27-1.64,3.27s-2.79-1.48-3.23-3.27Zm7.84-3.12h1.46l-4.41,12.78h-1.46l4.41-12.78Zm-4.28,3.12c-.25-1.02-.93-1.86-1.6-1.86s-.9,.84-.65,1.86c.26,1.04,.93,1.86,1.6,1.86s.9-.84,.65-1.86Zm4.3,6.54c-.44-1.77,.18-3.27,1.64-3.27s2.79,1.48,3.23,3.27c.44,1.77-.18,3.27-1.64,3.27s-2.79-1.48-3.23-3.27Zm3.56,0c-.25-1.02-.93-1.86-1.6-1.86s-.9,.84-.65,1.86c.26,1.04,.93,1.86,1.6,1.86s.9-.84,.65-1.86Z"></path></g><g><path fill="#f99746" d="M971.33,262.98l9.75,39.45h-229.14c-4.5,0-9.25-3.79-11.66-8.91-.49-1.03-.88-2.11-1.16-3.23l-3.75-15.17c-1.65-6.68,1.42-12.14,6.82-12.14h229.14Z"></path><path fill="#ed7d2b" d="M782.75,262.98l-9.66,39.45h-21.15c-4.5,0-9.25-3.79-11.66-8.91l7.47-30.54h35Z"></path><polygon fill="#ed7d2b" points="842.71 262.98 833.05 302.44 798.06 302.44 807.72 262.98 842.71 262.98"></polygon><polygon fill="#ed7d2b" points="902.69 262.98 893.03 302.44 858.03 302.44 867.68 262.98 902.69 262.98"></polygon><polygon fill="#ed7d2b" points="962.66 262.98 953 302.44 918 302.44 927.66 262.98 962.66 262.98"></polygon></g></g><g><polygon fill="#afcdfb" points="814.09 325.8 752.89 325.8 751.6 320.59 812.8 320.59 814.09 325.8"></polygon><polygon fill="#afcdfb" points="800.96 340.39 756.49 340.39 755.2 335.18 799.67 335.18 800.96 340.39"></polygon><polygon fill="#afcdfb" points="830.28 340.39 803.7 340.39 802.41 335.18 828.99 335.18 830.28 340.39"></polygon><polygon fill="#afcdfb" points="875.48 340.39 834.88 340.39 833.59 335.18 874.2 335.18 875.48 340.39"></polygon><polygon fill="#afcdfb" points="837.22 325.8 818.69 325.8 817.4 320.59 835.93 320.59 837.22 325.8"></polygon><polygon fill="#afcdfb" points="910.94 325.8 843.56 325.8 842.27 320.59 909.65 320.59 910.94 325.8"></polygon></g></g><g><polygon fill="#fafdff" points="588.7 550.56 300.96 550.56 256.24 369.55 543.98 369.55 588.7 550.56"></polygon><polygon fill="#4a75cb" points="548.09 460.06 296.85 460.06 277.84 383.13 529.08 383.13 548.09 460.06"></polygon><g><polygon fill="#cae0ff" points="338.16 398.76 295.6 398.76 294.59 394.66 337.15 394.66 338.16 398.76"></polygon><polygon fill="#cae0ff" points="383.68 398.76 348.29 398.76 347.27 394.66 382.67 394.66 383.68 398.76"></polygon><polygon fill="#cae0ff" points="466.06 398.76 392.9 398.76 391.89 394.66 465.05 394.66 466.06 398.76"></polygon><polygon fill="#cae0ff" points="341.79 413.47 299.23 413.47 298.22 409.36 340.78 409.36 341.79 413.47"></polygon><polygon fill="#cae0ff" points="387.32 413.47 351.92 413.47 350.91 409.36 386.3 409.36 387.32 413.47"></polygon><polygon fill="#cae0ff" points="429.12 413.47 393.72 413.47 392.71 409.36 428.1 409.36 429.12 413.47"></polygon><polygon fill="#cae0ff" points="513 415.18 439.84 415.18 438.83 411.07 511.98 411.07 513 415.18"></polygon></g><g><polygon fill="#cae0ff" points="346.4 432.11 303.84 432.11 302.83 428.01 345.39 428.01 346.4 432.11"></polygon><polygon fill="#cae0ff" points="391.92 432.11 356.53 432.11 355.51 428.01 390.91 428.01 391.92 432.11"></polygon><polygon fill="#cae0ff" points="474.3 432.11 401.14 432.11 400.13 428.01 473.29 428.01 474.3 432.11"></polygon><polygon fill="#cae0ff" points="350.03 446.81 307.47 446.81 306.46 442.71 349.02 442.71 350.03 446.81"></polygon><polygon fill="#cae0ff" points="395.55 446.81 360.16 446.81 359.15 442.71 394.54 442.71 395.55 446.81"></polygon><polygon fill="#cae0ff" points="437.36 446.81 401.96 446.81 400.95 442.71 436.34 442.71 437.36 446.81"></polygon><polygon fill="#cae0ff" points="521.24 448.52 448.08 448.52 447.07 444.42 520.22 444.42 521.24 448.52"></polygon></g><g><g><path fill="#a8d29f" d="M465.32,523.78c-9.75,0-20.11-9.8-23.09-21.86-2.98-12.05,2.53-21.86,12.29-21.86s20.11,9.8,23.09,21.86c2.98,12.05-2.53,21.86-12.29,21.86Zm-9.82-39.72c-7.97,0-12.48,8.01-10.04,17.87,2.43,9.85,10.9,17.87,18.87,17.87s12.48-8.01,10.04-17.87c-2.43-9.85-10.9-17.87-18.87-17.87Z"></path><path fill="#a8d29f" d="M462.31,513.04c-.67-.06-1.38-.42-2-1.02l-10.03-9.82c-1.36-1.33-1.84-3.43-1.08-4.7,.76-1.27,2.47-1.22,3.83,.1l7.09,6.94,3.48-10.27c.5-1.49,2.11-1.82,3.58-.74,1.47,1.08,2.25,3.16,1.75,4.65l-4.58,13.5c-.27,.8-.88,1.3-1.66,1.37-.13,0-.25,0-.38,0Z"></path></g><g><path fill="#a8d29f" d="M414.71,523.78c-9.75,0-20.11-9.8-23.09-21.86-2.98-12.05,2.53-21.86,12.29-21.86s20.11,9.8,23.09,21.86c2.98,12.05-2.53,21.86-12.29,21.86Zm-9.82-39.72c-7.97,0-12.48,8.01-10.04,17.87,2.43,9.85,10.9,17.87,18.87,17.87s12.48-8.01,10.04-17.87c-2.43-9.85-10.9-17.87-18.87-17.87Z"></path><path fill="#a8d29f" d="M411.7,513.04c-.67-.06-1.38-.42-2-1.02l-10.03-9.82c-1.36-1.33-1.84-3.43-1.08-4.7,.76-1.27,2.47-1.22,3.83,.1l7.09,6.94,3.48-10.27c.5-1.49,2.11-1.82,3.58-.74,1.47,1.08,2.25,3.16,1.75,4.65l-4.58,13.5c-.27,.8-.88,1.3-1.66,1.37-.13,0-.25,0-.38,0Z"></path></g><g><path fill="#a8d29f" d="M362.29,523.78c-9.75,0-20.11-9.8-23.09-21.86-2.98-12.05,2.53-21.86,12.29-21.86s20.11,9.8,23.09,21.86c2.98,12.05-2.53,21.86-12.29,21.86Zm-9.82-39.72c-7.97,0-12.48,8.01-10.04,17.87,2.43,9.85,10.9,17.87,18.87,17.87s12.48-8.01,10.04-17.87c-2.43-9.85-10.9-17.87-18.87-17.87Z"></path><path fill="#a8d29f" d="M359.28,513.04c-.67-.06-1.38-.42-2-1.02l-10.03-9.82c-1.36-1.33-1.84-3.43-1.08-4.7,.76-1.27,2.47-1.22,3.83,.1l7.09,6.94,3.48-10.27c.5-1.49,2.11-1.82,3.58-.74,1.47,1.08,2.25,3.16,1.75,4.65l-4.58,13.5c-.27,.8-.88,1.3-1.66,1.37-.13,0-.26,0-.38,0Z"></path></g><g><path fill="#f1a34f" d="M514.14,523.78c-9.75,0-20.11-9.8-23.09-21.86-2.98-12.05,2.53-21.86,12.29-21.86s20.11,9.8,23.09,21.86c2.98,12.05-2.53,21.86-12.29,21.86Zm-9.82-39.72c-7.97,0-12.48,8.01-10.04,17.87,2.43,9.85,10.9,17.87,18.87,17.87s12.48-8.01,10.04-17.87c-2.43-9.85-10.9-17.87-18.87-17.87Z"></path><g><path fill="#f1a34f" d="M509.62,505.5h0c-1.38,0-2.84-1.39-3.26-3.09l-2.29-9.28c-.42-1.7,.36-3.09,1.74-3.09h0c1.38,0,2.84,1.39,3.26,3.09l2.29,9.28c.42,1.7-.36,3.09-1.74,3.09Z"></path><path fill="#f1a34f" d="M511.69,512.79h-.54c-1.23,0-2.54-1.24-2.91-2.76h0c-.37-1.52,.32-2.76,1.55-2.76h.54c1.23,0,2.54,1.24,2.91,2.76h0c.37,1.52-.32,2.76-1.55,2.76Z"></path></g></g></g></g><g><path fill="#ed7d2b" d="M1201.75,514.52s36.39,46.63,38.11,64.18c1.72,17.55-17.43,44.95-17.43,44.95l-20.68-109.14Z"></path><path fill="#163560" d="M1185.31,997.81s-1.28,24.74-5.16,25.08c-.52,.05-19.64,0-19.64,0l-24.42-.24s.17-7.27,7.31-8.79c7.14-1.52,19.1-7.69,23.44-19.33,4.57-12.25,18.46,3.29,18.46,3.29Z"></path><path fill="#163560" d="M1239.69,997.95s-1.28,24.74-5.16,25.08c-.52,.05-19.64,0-19.64,0l-24.42-.24s.17-7.27,7.31-8.79c7.14-1.52,19.1-7.69,23.44-19.33,4.57-12.25,18.46,3.29,18.46,3.29Z"></path><path fill="#163560" d="M1158.73,731.86s6.3,50.49,29.96,140.16c23.67,89.67,26.84,128.48,26.84,128.48l25.56-.82s.39-97.93-10.51-143.01c-10.9-45.09-2.08-162.45-2.08-162.45l-69.77,37.64Z"></path><path fill="#1c468a" d="M1146.36,696.76s-1.04,76.06,9.45,169.48c10.48,93.42,6.8,133.06,6.8,133.06l25.5,1.12s15.41-93.39,11.12-140.14c-4.29-46.76,21.15-160.35,21.15-160.35l-74.03-3.16Z"></path><path fill="#ffb27d" d="M1196.04,518.9l-13.61,10.97-19.63-4.58c.28-1.96,1.59-10.08,2.78-17.43,.07-.43,.14-.87,.21-1.29,1.02-6.26,1.91-11.63,1.91-11.63l18.36-9.95,6.85-3.71c-.02,.13-.54,6.94-.61,7.94-1.31,17.66,3.75,29.67,3.75,29.67Z"></path><path fill="#ed7d2b" d="M1167.86,513.27c.38-.2,23.66-8.62,26.19-7.58,2.53,1.04,4.01,7.09,4.01,7.09l-38.08,10.53s3.01-7.52,7.88-10.04Z"></path><path fill="#f99746" d="M1230.17,706.38c-3.98,22.23-69.63,24.69-86.51,4.46-1.92-2.31-2-13.01-1.25-27.44,1.47-28.19,6.1-70.6,6.32-92.27,.11-10.46,1.29-21.17,2.85-30.88,3.33-20.71,8.39-36.95,8.39-36.95,0,0,32.08-12.72,38.08-10.53,28.88,10.57,36.1,171.38,32.12,193.61Z"></path><path fill="#ed7d2b" d="M1142.41,683.4c1.47-28.19,6.1-70.6,6.32-92.27,.11-10.46,1.29-21.17,2.85-30.88l19.29-4.15s18.69,95.23-28.47,127.3Z"></path><path fill="#ffb27d" d="M1152.93,644.12s1.31,3.89-1.46,6.49c-2.77,2.6-4.56,6.82-3.94,9.91,.63,3.09,6.67,8.14,8.77,7.33,2.1-.81,6.38-4.86,5.92-6.49-.46-1.63,2.9-14.28-2.21-19.17-5.11-4.89-7.09,1.93-7.09,1.93Z"></path><path fill="#f99746" d="M1174.72,517.63s-18.82,4.3-33.85,31.55c-15.04,27.26-24.93,47.52-22.19,57.37,2.74,9.85,27.85,44.03,32.19,44.04,4.34,.01,11.35-3.87,11.76-12.64,0,0-17.66-32.87-14.16-37.77,1.5-2.1,23.04-23.62,26.1-13.86,5.05,16.14,.16-68.69,.16-68.69Z"></path><path fill="#fca56b" d="M1190.91,489.53c-4.04,8.42-19.06,15.67-25.33,18.34,.07-.43,.14-.87,.21-1.29,1.02-6.26,1.91-11.63,1.91-11.63l18.36-9.95c4.05-.06,6.52,1.07,4.85,4.54Z"></path><path fill="#ffb27d" d="M1160.79,493.55s29.53,11.47,35.02-11.36c5.5-22.83,13.01-36.73-5.61-45.02-18.62-8.29-24.4-.93-27.73,6.14-3.33,7.07-9.22,46.67-1.68,50.24Z"></path><path fill="#163560" d="M1163.64,441.11s1.84,26.59,6.29,25.45c4.45-1.14,8.49-1.99,7.82,6.03-.67,8.01-6.85,17.25,6.86,18.71,13.71,1.45,33.5-42.2,29.75-50.48-10.83-23.9-66.37-28.87-50.72,.3Z"></path></g><g><g opacity=".5"><path fill="#afcdfb" d="M145.91,646.29v-6.48h5.4v6.48h-5.4Z"></path><path fill="#afcdfb" d="M145.91,633.19v-6.48h5.4v6.48h-5.4Z"></path><path fill="#afcdfb" d="M145.91,620.09v-6.48h5.4v6.48h-5.4Z"></path><path fill="#afcdfb" d="M145.91,606.99v-6.48h5.4v6.48h-5.4Z"></path><path fill="#afcdfb" d="M145.91,593.88v-6.48h5.4v6.48h-5.4Z"></path><path fill="#afcdfb" d="M145.91,580.78v-6.48h5.4v6.48h-5.4Z"></path><path fill="#afcdfb" d="M145.91,567.68v-6.48h5.4v6.48h-5.4Z"></path><path fill="#afcdfb" d="M145.91,554.57v-6.48h5.4v6.48h-5.4Z"></path><path fill="#afcdfb" d="M145.91,541.47v-6.48h5.4v6.48h-5.4Z"></path><path fill="#afcdfb" d="M145.91,528.37v-6.48h5.4v6.48h-5.4Z"></path><path fill="#afcdfb" d="M145.91,515.27v-6.48h5.4v6.48h-5.4Z"></path><path fill="#afcdfb" d="M145.91,502.16v-6.48h5.4v6.48h-5.4Z"></path><path fill="#afcdfb" d="M145.91,489.06v-6.48h5.4v6.48h-5.4Z"></path><path fill="#afcdfb" d="M145.91,475.96v-6.48h5.4v6.48h-5.4Z"></path><path fill="#afcdfb" d="M145.91,462.85v-6.48h5.4v6.48h-5.4Z"></path><path fill="#afcdfb" d="M145.91,449.75v-6.48h5.4v6.48h-5.4Z"></path><path fill="#afcdfb" d="M145.91,436.65v-6.48h5.4v6.48h-5.4Z"></path><path fill="#afcdfb" d="M145.91,423.55v-6.48h5.4v6.48h-5.4Z"></path></g><g opacity=".5"><path fill="#afcdfb" d="M129.4,567.68v-6.48h5.4v6.48h-5.4Z"></path><path fill="#afcdfb" d="M129.4,554.57v-6.48h5.4v6.48h-5.4Z"></path><path fill="#afcdfb" d="M129.4,541.47v-6.48h5.4v6.48h-5.4Z"></path><path fill="#afcdfb" d="M129.4,528.37v-6.48h5.4v6.48h-5.4Z"></path><path fill="#afcdfb" d="M129.4,515.27v-6.48h5.4v6.48h-5.4Z"></path><path fill="#afcdfb" d="M129.4,502.16v-6.48h5.4v6.48h-5.4Z"></path><path fill="#afcdfb" d="M129.4,489.06v-6.48h5.4v6.48h-5.4Z"></path><path fill="#afcdfb" d="M129.4,475.96v-6.48h5.4v6.48h-5.4Z"></path><path fill="#afcdfb" d="M129.4,462.85v-6.48h5.4v6.48h-5.4Z"></path><path fill="#afcdfb" d="M129.4,449.75v-6.48h5.4v6.48h-5.4Z"></path><path fill="#afcdfb" d="M129.4,436.65v-6.48h5.4v6.48h-5.4Z"></path><path fill="#afcdfb" d="M129.4,423.55v-6.48h5.4v6.48h-5.4Z"></path></g><g opacity=".5"><path fill="#afcdfb" d="M112.59,646.29v-6.48h5.4v6.48h-5.4Z"></path><path fill="#afcdfb" d="M112.59,633.19v-6.48h5.4v6.48h-5.4Z"></path><path fill="#afcdfb" d="M112.59,620.09v-6.48h5.4v6.48h-5.4Z"></path><path fill="#afcdfb" d="M112.59,606.99v-6.48h5.4v6.48h-5.4Z"></path><path fill="#afcdfb" d="M112.59,593.88v-6.48h5.4v6.48h-5.4Z"></path><path fill="#afcdfb" d="M112.59,580.78v-6.48h5.4v6.48h-5.4Z"></path><path fill="#afcdfb" d="M112.59,567.68v-6.48h5.4v6.48h-5.4Z"></path><path fill="#afcdfb" d="M112.59,554.57v-6.48h5.4v6.48h-5.4Z"></path><path fill="#afcdfb" d="M112.59,541.47v-6.48h5.4v6.48h-5.4Z"></path><path fill="#afcdfb" d="M112.59,528.37v-6.48h5.4v6.48h-5.4Z"></path><path fill="#afcdfb" d="M112.59,515.27v-6.48h5.4v6.48h-5.4Z"></path><path fill="#afcdfb" d="M112.59,502.16v-6.48h5.4v6.48h-5.4Z"></path><path fill="#afcdfb" d="M112.59,489.06v-6.48h5.4v6.48h-5.4Z"></path><path fill="#afcdfb" d="M112.59,475.96v-6.48h5.4v6.48h-5.4Z"></path><path fill="#afcdfb" d="M112.59,462.85v-6.48h5.4v6.48h-5.4Z"></path><path fill="#afcdfb" d="M112.59,449.75v-6.48h5.4v6.48h-5.4Z"></path><path fill="#afcdfb" d="M112.59,436.65v-6.48h5.4v6.48h-5.4Z"></path><path fill="#afcdfb" d="M112.59,423.55v-6.48h5.4v6.48h-5.4Z"></path></g><g opacity=".5"><path fill="#afcdfb" d="M98.42,672.5v-6.48h5.4v6.48h-5.4Z"></path><path fill="#afcdfb" d="M98.42,659.4v-6.48h5.4v6.48h-5.4Z"></path><path fill="#afcdfb" d="M98.42,646.29v-6.48h5.4v6.48h-5.4Z"></path><path fill="#afcdfb" d="M98.42,633.19v-6.48h5.4v6.48h-5.4Z"></path><path fill="#afcdfb" d="M98.42,620.09v-6.48h5.4v6.48h-5.4Z"></path><path fill="#afcdfb" d="M98.42,606.99v-6.48h5.4v6.48h-5.4Z"></path><path fill="#afcdfb" d="M98.42,593.88v-6.48h5.4v6.48h-5.4Z"></path><path fill="#afcdfb" d="M98.42,580.78v-6.48h5.4v6.48h-5.4Z"></path><path fill="#afcdfb" d="M98.42,567.68v-6.48h5.4v6.48h-5.4Z"></path><path fill="#afcdfb" d="M98.42,554.57v-6.48h5.4v6.48h-5.4Z"></path><path fill="#afcdfb" d="M98.42,541.47v-6.48h5.4v6.48h-5.4Z"></path><path fill="#afcdfb" d="M98.42,528.37v-6.48h5.4v6.48h-5.4Z"></path><path fill="#afcdfb" d="M98.42,515.27v-6.48h5.4v6.48h-5.4Z"></path><path fill="#afcdfb" d="M98.42,502.16v-6.48h5.4v6.48h-5.4Z"></path><path fill="#afcdfb" d="M98.42,489.06v-6.48h5.4v6.48h-5.4Z"></path><path fill="#afcdfb" d="M98.42,475.96v-6.48h5.4v6.48h-5.4Z"></path><path fill="#afcdfb" d="M98.42,462.85v-6.48h5.4v6.48h-5.4Z"></path><path fill="#afcdfb" d="M98.42,449.75v-6.48h5.4v6.48h-5.4Z"></path><path fill="#afcdfb" d="M98.42,436.65v-6.48h5.4v6.48h-5.4Z"></path><path fill="#afcdfb" d="M98.42,423.55v-6.48h5.4v6.48h-5.4Z"></path></g><g opacity=".5"><path fill="#afcdfb" d="M79.74,554.57v-6.48h5.4v6.48h-5.4Z"></path><path fill="#afcdfb" d="M79.74,541.47v-6.48h5.4v6.48h-5.4Z"></path><path fill="#afcdfb" d="M79.74,528.37v-6.48h5.4v6.48h-5.4Z"></path><path fill="#afcdfb" d="M79.74,515.27v-6.48h5.4v6.48h-5.4Z"></path><path fill="#afcdfb" d="M79.74,502.16v-6.48h5.4v6.48h-5.4Z"></path><path fill="#afcdfb" d="M79.74,489.06v-6.48h5.4v6.48h-5.4Z"></path><path fill="#afcdfb" d="M79.74,475.96v-6.48h5.4v6.48h-5.4Z"></path><path fill="#afcdfb" d="M79.74,462.85v-6.48h5.4v6.48h-5.4Z"></path><path fill="#afcdfb" d="M79.74,449.75v-6.48h5.4v6.48h-5.4Z"></path><path fill="#afcdfb" d="M79.74,436.65v-6.48h5.4v6.48h-5.4Z"></path><path fill="#afcdfb" d="M79.74,423.55v-6.48h5.4v6.48h-5.4Z"></path></g></g><g><g opacity=".5"><path fill="#afcdfb" d="M1298.71,487v6.48h-5.4v-6.48h5.4Z"></path><path fill="#afcdfb" d="M1298.71,500.1v6.48h-5.4v-6.48h5.4Z"></path><path fill="#afcdfb" d="M1298.71,513.2v6.48h-5.4v-6.48h5.4Z"></path><path fill="#afcdfb" d="M1298.71,526.3v6.48h-5.4v-6.48h5.4Z"></path><path fill="#afcdfb" d="M1298.71,539.41v6.48h-5.4v-6.48h5.4Z"></path><path fill="#afcdfb" d="M1298.71,552.51v6.48h-5.4v-6.48h5.4Z"></path><path fill="#afcdfb" d="M1298.71,565.61v6.48h-5.4v-6.48h5.4Z"></path><path fill="#afcdfb" d="M1298.71,578.71v6.48h-5.4v-6.48h5.4Z"></path><path fill="#afcdfb" d="M1298.71,591.82v6.48h-5.4v-6.48h5.4Z"></path><path fill="#afcdfb" d="M1298.71,604.92v6.48h-5.4v-6.48h5.4Z"></path><path fill="#afcdfb" d="M1298.71,618.02v6.48h-5.4v-6.48h5.4Z"></path><path fill="#afcdfb" d="M1298.71,631.13v6.48h-5.4v-6.48h5.4Z"></path><path fill="#afcdfb" d="M1298.71,644.23v6.48h-5.4v-6.48h5.4Z"></path><path fill="#afcdfb" d="M1298.71,657.33v6.48h-5.4v-6.48h5.4Z"></path><path fill="#afcdfb" d="M1298.71,670.43v6.48h-5.4v-6.48h5.4Z"></path><path fill="#afcdfb" d="M1298.71,683.54v6.48h-5.4v-6.48h5.4Z"></path><path fill="#afcdfb" d="M1298.71,696.64v6.48h-5.4v-6.48h5.4Z"></path><path fill="#afcdfb" d="M1298.71,709.74v6.48h-5.4v-6.48h5.4Z"></path></g><g opacity=".5"><path fill="#afcdfb" d="M1315.22,565.61v6.48h-5.4v-6.48h5.4Z"></path><path fill="#afcdfb" d="M1315.22,578.71v6.48h-5.4v-6.48h5.4Z"></path><path fill="#afcdfb" d="M1315.22,591.82v6.48h-5.4v-6.48h5.4Z"></path><path fill="#afcdfb" d="M1315.22,604.92v6.48h-5.4v-6.48h5.4Z"></path><path fill="#afcdfb" d="M1315.22,618.02v6.48h-5.4v-6.48h5.4Z"></path><path fill="#afcdfb" d="M1315.22,631.13v6.48h-5.4v-6.48h5.4Z"></path><path fill="#afcdfb" d="M1315.22,644.23v6.48h-5.4v-6.48h5.4Z"></path><path fill="#afcdfb" d="M1315.22,657.33v6.48h-5.4v-6.48h5.4Z"></path><path fill="#afcdfb" d="M1315.22,670.43v6.48h-5.4v-6.48h5.4Z"></path><path fill="#afcdfb" d="M1315.22,683.54v6.48h-5.4v-6.48h5.4Z"></path><path fill="#afcdfb" d="M1315.22,696.64v6.48h-5.4v-6.48h5.4Z"></path><path fill="#afcdfb" d="M1315.22,709.74v6.48h-5.4v-6.48h5.4Z"></path></g><g opacity=".5"><path fill="#afcdfb" d="M1332.04,487v6.48h-5.4v-6.48h5.4Z"></path><path fill="#afcdfb" d="M1332.04,500.1v6.48h-5.4v-6.48h5.4Z"></path><path fill="#afcdfb" d="M1332.04,513.2v6.48h-5.4v-6.48h5.4Z"></path><path fill="#afcdfb" d="M1332.04,526.3v6.48h-5.4v-6.48h5.4Z"></path><path fill="#afcdfb" d="M1332.04,539.41v6.48h-5.4v-6.48h5.4Z"></path><path fill="#afcdfb" d="M1332.04,552.51v6.48h-5.4v-6.48h5.4Z"></path><path fill="#afcdfb" d="M1332.04,565.61v6.48h-5.4v-6.48h5.4Z"></path><path fill="#afcdfb" d="M1332.04,578.71v6.48h-5.4v-6.48h5.4Z"></path><path fill="#afcdfb" d="M1332.04,591.82v6.48h-5.4v-6.48h5.4Z"></path><path fill="#afcdfb" d="M1332.04,604.92v6.48h-5.4v-6.48h5.4Z"></path><path fill="#afcdfb" d="M1332.04,618.02v6.48h-5.4v-6.48h5.4Z"></path><path fill="#afcdfb" d="M1332.04,631.13v6.48h-5.4v-6.48h5.4Z"></path><path fill="#afcdfb" d="M1332.04,644.23v6.48h-5.4v-6.48h5.4Z"></path><path fill="#afcdfb" d="M1332.04,657.33v6.48h-5.4v-6.48h5.4Z"></path><path fill="#afcdfb" d="M1332.04,670.43v6.48h-5.4v-6.48h5.4Z"></path><path fill="#afcdfb" d="M1332.04,683.54v6.48h-5.4v-6.48h5.4Z"></path><path fill="#afcdfb" d="M1332.04,696.64v6.48h-5.4v-6.48h5.4Z"></path><path fill="#afcdfb" d="M1332.04,709.74v6.48h-5.4v-6.48h5.4Z"></path></g><g opacity=".5"><path fill="#afcdfb" d="M1346.2,460.79v6.48h-5.4v-6.48h5.4Z"></path><path fill="#afcdfb" d="M1346.2,473.89v6.48h-5.4v-6.48h5.4Z"></path><path fill="#afcdfb" d="M1346.2,487v6.48h-5.4v-6.48h5.4Z"></path><path fill="#afcdfb" d="M1346.2,500.1v6.48h-5.4v-6.48h5.4Z"></path><path fill="#afcdfb" d="M1346.2,513.2v6.48h-5.4v-6.48h5.4Z"></path><path fill="#afcdfb" d="M1346.2,526.3v6.48h-5.4v-6.48h5.4Z"></path><path fill="#afcdfb" d="M1346.2,539.41v6.48h-5.4v-6.48h5.4Z"></path><path fill="#afcdfb" d="M1346.2,552.51v6.48h-5.4v-6.48h5.4Z"></path><path fill="#afcdfb" d="M1346.2,565.61v6.48h-5.4v-6.48h5.4Z"></path><path fill="#afcdfb" d="M1346.2,578.71v6.48h-5.4v-6.48h5.4Z"></path><path fill="#afcdfb" d="M1346.2,591.82v6.48h-5.4v-6.48h5.4Z"></path><path fill="#afcdfb" d="M1346.2,604.92v6.48h-5.4v-6.48h5.4Z"></path><path fill="#afcdfb" d="M1346.2,618.02v6.48h-5.4v-6.48h5.4Z"></path><path fill="#afcdfb" d="M1346.2,631.13v6.48h-5.4v-6.48h5.4Z"></path><path fill="#afcdfb" d="M1346.2,644.23v6.48h-5.4v-6.48h5.4Z"></path><path fill="#afcdfb" d="M1346.2,657.33v6.48h-5.4v-6.48h5.4Z"></path><path fill="#afcdfb" d="M1346.2,670.43v6.48h-5.4v-6.48h5.4Z"></path><path fill="#afcdfb" d="M1346.2,683.54v6.48h-5.4v-6.48h5.4Z"></path><path fill="#afcdfb" d="M1346.2,696.64v6.48h-5.4v-6.48h5.4Z"></path><path fill="#afcdfb" d="M1346.2,709.74v6.48h-5.4v-6.48h5.4Z"></path></g><g opacity=".5"><path fill="#afcdfb" d="M1364.89,578.71v6.48h-5.4v-6.48h5.4Z"></path><path fill="#afcdfb" d="M1364.89,591.82v6.48h-5.4v-6.48h5.4Z"></path><path fill="#afcdfb" d="M1364.89,604.92v6.48h-5.4v-6.48h5.4Z"></path><path fill="#afcdfb" d="M1364.89,618.02v6.48h-5.4v-6.48h5.4Z"></path><path fill="#afcdfb" d="M1364.89,631.13v6.48h-5.4v-6.48h5.4Z"></path><path fill="#afcdfb" d="M1364.89,644.23v6.48h-5.4v-6.48h5.4Z"></path><path fill="#afcdfb" d="M1364.89,657.33v6.48h-5.4v-6.48h5.4Z"></path><path fill="#afcdfb" d="M1364.89,670.43v6.48h-5.4v-6.48h5.4Z"></path><path fill="#afcdfb" d="M1364.89,683.54v6.48h-5.4v-6.48h5.4Z"></path><path fill="#afcdfb" d="M1364.89,696.64v6.48h-5.4v-6.48h5.4Z"></path><path fill="#afcdfb" d="M1364.89,709.74v6.48h-5.4v-6.48h5.4Z"></path></g></g></g></g></g></svg>