<svg viewBox="0 0 1620 1080" xmlns="http://www.w3.org/2000/svg"><g id="a"></g><g id="b"><g id="c"><g><path fill="#e8f2fa" d="M119.88,1077.95s-218.98-241.59,9.38-451.92c253.8-233.76,14-495.3,266.89-588.41,356.6-131.3,420.51,128.39,819.86,64.02,333.47-53.76,326.38,366.27,227.83,516.16-81.71,124.28,233.21,185.88,72.02,459.59l-1395.98,.56Z"></path><g><g opacity=".3"><path fill="#a9c2ff" d="M948.3,432s34.59-143.87,167.1-162.87c0,0,25.79-3.36,35.24,20.79,9.45,24.15-42.02,25.6-73.5,36.19-31.48,10.59-104.24,53.98-128.84,105.89Z"></path></g><g opacity=".3"><path fill="#a9c2ff" d="M944.37,405.33s-17.84-118.02,77.82-162.43c0,0,18.73-8.38,33.41,7.99,14.68,16.38-24.3,29.08-45.15,44.29-20.85,15.2-63.22,64.84-66.07,110.15Z"></path></g></g><path fill="#c8dffd" d="M407,362.17c16.23-39.47,94.64-21.88,94.64-21.88,0,0,47.91,73.87,63.47,76.54,15.56,2.67-26.54-70-26.54-70,30.64-.6,105.43,36.16,105.43,36.16,0,0-11.99,81.91,3.86,81.22,15.85-.69,6.29-72.99,6.29-72.99,28.79,9.4,53.75,40.5,53.75,40.5,30.23,49.99-46.41,80.59-46.41,80.59,0,0-3.44,28.46,14.36,62.48h0s4.13,6.33,7.98,16.9l-8.03-.51c-.5-1.88-1.07-3.71-1.72-5.46,0-.01,0-.02-.01-.03,0-.03-.02-.05-.03-.08-.46-1.1-1.12-2.65-1.95-4.55h0s0-.01,0-.02c-2.1-4.26-3.49-7.39-4.35-9.65,0,0,0-.01,0-.02-6.24-13.34-15.38-30.8-22.14-34.76,0,0,.98-1.01,1.99-3.04-.63,.97-1.3,1.98-1.99,3.04-15.91,24.31-84.97,24.18-122.67,15.06-37.7-9.12-20.22-17.3,1.68-30.98,21.9-13.68,64.75-7.02,78.01-12.09,13.26-5.07-4.88-12.12-30.54-12.04-25.66,.07-40.3,21.08-81.81,21.85-41.51,.76-67.21-67.5-67.21-67.5,27.81,9.34,80-.87,82.69-9.14,2.69-8.27-72.96-12.18-84.52-15.44-11.56-3.26-30.44-24.69-14.21-64.16Z"></path><path fill="#a8ccff" d="M286.82,982.56c-28.43-42.38,49.6-88.22,49.6-88.22,0,0,112.95,20.17,127.59,10.45,14.63-9.72-92.63-33.37-92.63-33.37,22.76-23.61,117.85-52.07,117.85-52.07,0,0,75.55,71.57,86.94,59.07,11.38-12.5-70.68-60.46-70.68-60.46,31.7-14.58,82.9-9.71,82.9-9.71,74.76,15.3,47.91,96.58,47.91,96.58,0,0,26.81,24.32,75.57,36.84h0s9.7,1.71,23.56,6.87l-6.65,5.68c-2.33-1.06-4.65-2.02-6.96-2.87-.01-.01-.03-.01-.04-.01-.03-.01-.07-.02-.1-.04-1.48-.49-3.6-1.18-6.19-2h0s0,0-.01,0c-6-1.66-10.31-3-13.3-4.07,0,0-.02,0-.03-.01-18.56-5.47-43.58-11.88-52.84-9.8,0,0-.3-1.51-1.62-3.82,.52,1.22,1.06,2.49,1.62,3.82,12.99,30.57-39.85,82.66-78.05,104.19-38.2,21.53-33.32,2.08-30.75-24.92,2.57-26.99,42.16-54.28,47.04-68.17,4.88-13.89-16.25-5.56-35.76,13.89-19.51,19.45-8.96,46.54-39.85,78.49-30.89,31.95-121.09-.72-121.09-.72,30.89-13.89,60.16-61.12,53.66-69.46-6.5-8.34-68.28,45.83-80.47,52.08-12.19,6.25-48.76,4.16-77.19-38.23Z"></path><g opacity=".5"><path fill="#a8ccff" d="M1375.49,417.4c-5.51-43.93-91.1-42.06-91.1-42.06,0,0-70.15,66.03-86.9,65.56-16.75-.48,47.08-66.47,47.08-66.47-31.33-6.95-118.61,15.37-118.61,15.37,0,0-10.85,86.68-26.95,82.7-16.1-3.99,14.19-76.33,14.19-76.33-32.26,3.71-66.71,30.52-66.71,30.52-45.22,45.13,24.91,92.44,24.91,92.44,0,0-4.52,29.97-32.43,61.26h0s-6.04,5.66-12.98,15.72l8.39,1.14c1.04-1.83,2.14-3.59,3.31-5.26,0-.01,.01-.02,.02-.03,.02-.02,.03-.05,.05-.07,.78-1.03,1.9-2.5,3.29-4.28h0s0-.01,0-.02c3.36-3.94,5.68-6.88,7.21-9.02,0,0,0-.01,.01-.02,10.19-12.43,24.52-28.48,32.59-31.16,0,0-.72-1.24-1.19-3.53,.38,1.13,.77,2.3,1.19,3.53,9.48,28.27,80.5,42.42,121.84,40.84,41.33-1.58,25.68-13.6,7.04-32.19-18.64-18.59-64.57-20.6-76.77-28.55-12.2-7.95,8.44-11.45,34.8-6.07,26.36,5.38,35.46,30,77.92,39.37,42.45,9.37,88.18-55.49,88.18-55.49-31.23,3.85-81.99-17.44-82.42-26.49-.42-9.05,78.44,2.56,91.25,1.6,12.81-.96,38.27-19.09,32.76-63.02Z"></path></g><g opacity=".2"><path fill="#a8ccff" d="M1420.44,951.77c56.69-39.77-12.49-125.14-12.49-125.14,0,0-146.25-19.79-158.62-37.15-12.37-17.36,128.91-3.95,128.91-3.95-14.72-37.19-113.62-108.37-113.62-108.37,0,0-128.78,56.43-135.77,37-6.99-19.43,117.01-45,117.01-45-30.25-29.84-94.27-43.93-94.27-43.93-97.84-10.76-108.95,97.19-108.95,97.19,0,0-45.12,18.73-110.28,14.76h0s-12.55-1.73-31.93-.93l4.95,9.4c3.35-.37,6.65-.62,9.88-.73,.02,0,.04,0,.06,0,.05,0,.09,0,.14,0,2.04,0,4.94-.01,8.5,0h.01s.01,0,.02,0c8.09,.34,13.97,.41,18.13,.29,.01,0,.03,0,.04,0,25.18,.67,58.62,2.72,68.61,8.82,0,0,1.16-1.7,3.99-3.95-1.27,1.26-2.6,2.57-3.99,3.95-31.88,31.61,3.75,114.68,38.1,155.38,34.35,40.7,38.86,15.47,50.17-17.91,11.31-33.38-21.64-81.53-20.09-100.1,1.55-18.57,22.46-.34,35.5,30.59,13.04,30.93-14.06,59.32,5.97,109.68,20.03,50.36,145.64,46.29,145.64,46.29-29.65-28.69-39.59-96.75-27.35-104.22,12.24-7.47,57.48,81.58,68.77,93.82,11.29,12.25,56.28,23.98,112.97-15.79Z"></path></g><g id="d"><path fill="#ffae73" d="M548.95,653.36c-2.69,6.19-7.36,13.37-12.25,15.15-5.55,2.02-7.87,4.88-7.87,4.88l-4.48-2.22-5.35-2.66s.13-.51,.39-1.34c.26-.82,.66-1.97,1.2-3.24,0,0,1.64-1.8,.64-4.07-1.01-2.26-.8-5.76,.91-7.9,1.72-2.13,3.37-7.39,4.41-7.23,2.5,.37-1.23,7.59-.16,8.93,.97,1.21,2.18,.8,2.4,.7,.01,0,.03-.01,.04-.02,7.02-2.64,15.54-16.87,19.31-14.95,1.41,.72,1.95,11.33,.81,13.97Z"></path><g><path fill="#25468f" d="M524.66,661.98l8.8,5.29c.62,.37,1.49,.24,1.92-.29l22.54-27.41c.44-.53,.29-1.27-.34-1.64l-8.8-5.29c-.62-.37-1.49-.24-1.92,.29l-22.54,27.41c-.44,.53-.29,1.27,.34,1.64Z"></path><path fill="#1e3865" d="M532.71,666.81l5.16,3.1c.47,.28,1.13,.19,1.46-.22l22.92-27.87c.33-.4,.22-.97-.26-1.25l-5.16-3.1c-.47-.28-1.13-.19-1.46,.22l-22.92,27.87c-.33,.4-.22,.97,.26,1.25Z"></path></g><path fill="#8eaff1" d="M398.45,622.64s44.77,66.75,61.01,79.03l59.55-37.95s8.64,2.27,12.42,9.68c0,0-36.16,62.98-71.76,65.65-35.6,2.67-85.57-75.49-85.57-75.49l24.36-40.92Z"></path><g><path fill="#1e3865" d="M297.15,1076.61h-25.87c-3.26-1.51-6.16-4.97-7.07-10.13-1.26-7.12-10.6-11.01-12.62-16.83-2.02-5.82,8.33-14.02,8.33-14.02l1.73-1.91,1.8-1.98,17.17,3.46s.43,3.5,.68,7.95c.19,3.21,.29,6.92,.08,10.18-.51,7.77,2.54,16.13,10.62,17.65,5.97,1.12,5.7,4.14,5.16,5.65Z"></path><path fill="#1e3865" d="M447.26,1076.61h-59.15c-2.85-2.97-1.8-13.92-1.37-17.49,.09-.72,.15-1.14,.15-1.14,0,0,20.2-13.81,22.97-3.24,.08,.33,.19,.66,.3,.98,3.49,9.89,19.17,14.39,28.23,15.64,5.89,.82,8.06,3.43,8.87,5.26Z"></path><path fill="#ff912b" d="M435.99,794.36s-3.07,32.71-6.67,72.03c-4.9,53.42-10.79,119.03-11.37,131.46-1.01,21.58-5.05,56.11-5.05,56.11,0,0-9.59,8.2-28.78,4.75,0,0-17.1-49.29-21.98-101.43-.08-.85-.15-1.72-.23-2.58-4.54-53.09-11.61-164.87-11.61-164.87l85.7,4.53Z"></path><path fill="#fc7600" d="M435.99,794.36s-3.07,32.71-6.67,72.03l-67.19,90.88c-.08-.85-.15-1.72-.23-2.58-4.54-53.09-11.61-164.87-11.61-164.87l85.7,4.53Z"></path><path fill="#ff912b" d="M421.98,798.25s-55.28,118.47-91.63,174.15c-36.35,55.68-47.71,71.21-47.71,71.21,0,0-20.83-7.12-22.72-11.98,0,0,13.9-107.48,38.24-133.69,13.76-14.81,29.91-59.24,30.67-74.77,.76-15.54,4.92-46.29,4.92-46.29l88.23,21.36Z"></path></g><path fill="#ffae73" d="M408.22,625.54c-21.6,5.83-58.98-9.9-58.98-9.9,0,0,19.92-12.78,18.87-39.35l16.7,11.51,11.35,7.82s-.05,4.61-1.29,12.68c-.33,2.12,2.48,6.81,4.91,9.44,6.55,7.1,8.44,7.8,8.44,7.8Z"></path><path fill="#f9924f" d="M396.16,595.61s-.05,4.61-1.29,12.68c-12.57-1.84-26.83-19.22-26.83-19.22,6.4-1.58,12.01-1.86,16.77-1.28l11.35,7.82Z"></path><path fill="#ffae73" d="M402.77,595.18s-35.68,5.07-39.03-13.98c-3.35-19.05-10.21-31.22,12.43-35.26,22.64-4.04,28.36,2.66,31.28,8.78,2.93,6.12,4.52,38.65-4.68,40.46Z"></path><path fill="#a9c2ff" d="M438.37,797.09c-.65,.46-1.41,.74-2.27,.74-8.11-.09-31.77,3.76-51.79,2-16.87-1.38-31.81-5.66-47.85-11.8-2.13-.82-7.03-3.05-6.92-5.09,.07-2.23,.33-5.46,.66-9.53,1.14-14.15,3.11-38.5,1.18-66.58-.35-5.23-.53-10.42-.55-15.52-.17-38.06,8.66-71.54,26.4-82.87,1.52-.93,10.82,2.96,19.37,6.56,7.9,3.33,15.79,3.7,23.26,2.41l7.46,5.64c9.09,7.21,19.04,17.02,23.37,31.9,3.68,12.67,5.84,35.51,7.03,59.19,.54,10.73,.98,21.55,1.09,31.82v.37c.1,1.02,.1,2.13,.1,3.15,.44,26.36,0,47.25-.54,47.63Z"></path><path fill="#8eaff1" d="M330.2,773.4c1.14-14.15,3.11-38.5,1.18-66.58-.35-5.23-.53-10.42-.55-15.52,7.39-15.33,13.43-26.44,13.43-26.44h18.63s13.66,79.74-32.69,108.54Z"></path><g><path fill="#1e3865" d="M234.78,863.78l79.45,9.68c10.34,1.26,20-4.94,21.48-13.78l4.91-29.43c1.47-8.84-5.78-17.1-16.12-18.36l-79.45-9.68c-10.34-1.26-20,4.94-21.48,13.78l-4.91,29.43c-1.47,8.84,5.78,17.1,16.12,18.36Z"></path><path fill="#25468f" d="M328.97,820.66h0c-2.23-4.78-7.05-8.55-13.16-9.83h0s0,0-.01,0c-.6-.12-1.21-.23-1.83-.3l-15.82-1.92,1.06-6.35c.24-1.42-.19-2.83-1.2-3.98-1.01-1.15-2.48-1.9-4.14-2.1l-4.13-.5-16.61-2.02-2.99-.36c-3.43-.42-6.63,1.63-7.11,4.56l-1.06,6.35-27.31-3.33c-10.38-1.26-20.08,4.96-21.56,13.83l-4.96,29.77c-1.48,8.87,5.8,17.16,16.18,18.43l79.3,9.66c1.4,.17,2.78,.2,4.14,.11h.01c2.17-.14,4.26-.6,6.19-1.34,5.83-2.2,10.26-6.85,11.22-12.61l4.96-29.77c.48-2.9,.03-5.74-1.16-8.29Zm-62.06-22.35c.15-.89,.96-1.56,1.95-1.7,.23-.03,.46-.04,.71,0l3.53,.43,13.07,1.6,7.13,.87c1.28,.16,2.18,1.18,1.99,2.27l-1.06,6.35-28.38-3.46,1.06-6.35Z"></path></g><path fill="#ffae73" d="M295.19,776.14s-4.17,4.75-4.34,6.65c-1.12,12.87,5.76,14.65-12.05,21.79,0,0-7.6,2.48-7.73-2.57-.13-5.04,5.28-5.13,4.29-12.19-1.14-8.15-1.02-8.22,5.23-12.48l4.14-5.85,10.46,4.64Z"></path><path fill="#a9c2ff" d="M284.58,779.79c6.71,1.12,13.98,.66,13.98,.66,0,0,19.91-52.59,22.48-57.39,2.56-4.8,59.15-61.66,59.15-61.66l-23.57-50.43s-61.21,87.4-67.42,99.68c-10.27,20.29-13.83,65.79-13.83,65.79,0,0,3.95,2.47,9.22,3.35Z"></path><path fill="#25468f" d="M363.7,579.37s3.66-.52,3.07-4.83c-.59-4.31-.58-9.95,3.52-8.9,4.1,1.05,4.3,3.86,5.99,2.22,1.69-1.64,1.72-8.54,13.92-9.02,12.2-.48,17.16,3.15,22.83,1.02,5.67-2.13,5.97-9.47,5.97-9.47,0,0-1.61,2.62-4.05,3.46,0,0,9.47-11.07-1.49-18.66-10.96-7.59-22.13-2.62-28.48-2.29-13.97,.72-23,1.44-27.57,9.29-4.56,7.85-2.68,29.65,6.29,37.2Z"></path><path fill="#ffae73" d="M288.61,781.8s4.02,3.58,4.27,5.07c.81,4.78,2.68,6.85,1.75,7.37-1.95,1.08-4.52-2.46-5.75-5.63-1.23-3.18-.27-6.8-.27-6.8Z"></path></g><g><path fill="#6274ec" d="M656.53,361.77h358.16c32.49,0,58.87,26.38,58.87,58.87V1012.29c0,32.49-26.38,58.87-58.87,58.87h-358.16c-32.49,0-58.87-26.38-58.87-58.87V420.63c0-32.49,26.38-58.87,58.87-58.87Z"></path><path fill="#25468f" d="M1029.45,1075.89h-387.68c-27.38,0-49.65-19.04-49.65-42.44V399.48c0-23.4,22.27-42.44,49.65-42.44h387.68c27.37,0,49.65,19.04,49.65,42.44v633.97c0,23.4-22.27,42.44-49.65,42.44ZM641.78,366.5c-21.27,0-38.57,14.79-38.57,32.98v633.97c0,18.18,17.3,32.98,38.57,32.98h387.68c21.27,0,38.57-14.79,38.57-32.98V399.48c0-18.18-17.3-32.98-38.57-32.98h-387.68Z"></path></g><g><g><g opacity=".9"><rect fill="#fff" height="267.58" width="313.01" y="548.44" x="679.11"></rect></g><rect fill="#25468f" height="10.63" width="12.44" y="787.93" x="710.49"></rect><rect fill="#25468f" height="10.63" width="12.44" y="787.93" x="722.93"></rect><rect fill="#25468f" height="10.63" width="12.44" y="787.93" x="735.36"></rect><rect fill="#25468f" height="10.63" width="12.44" y="787.93" x="747.8"></rect><rect fill="#25468f" height="10.63" width="12.44" y="787.93" x="760.24"></rect><rect fill="#25468f" height="10.63" width="12.44" y="787.93" x="785.12"></rect><rect fill="#25468f" height="10.63" width="12.44" y="787.93" x="797.56"></rect><rect fill="#25468f" height="10.63" width="12.44" y="787.93" x="834.88"></rect><rect fill="#25468f" height="10.63" width="13.18" y="787.93" x="859.76"></rect><rect fill="#25468f" height="10.63" width="12.44" y="787.93" x="872.93"></rect><rect fill="#25468f" height="10.63" width="12.44" y="787.93" x="897.81"></rect><rect fill="#25468f" height="10.63" width="12.44" y="787.93" x="910.25"></rect><rect fill="#25468f" height="10.63" width="12.44" y="787.93" x="922.69"></rect><rect fill="#25468f" height="10.63" width="12.44" y="787.93" x="935.13"></rect><rect fill="#25468f" height="10.63" width="12.44" y="787.93" x="947.57"></rect><rect fill="#25468f" height="10.63" width="13.17" y="787.93" x="960.01"></rect><rect fill="#25468f" height="10.63" width="12.44" y="787.93" x="698.05"></rect><rect fill="#25468f" height="10.63" width="12.44" y="777.3" x="760.24"></rect><rect fill="#25468f" height="10.63" width="12.44" y="777.3" x="797.56"></rect><rect fill="#25468f" height="10.63" width="12.44" y="777.3" x="822.44"></rect><rect fill="#25468f" height="10.63" width="12.44" y="777.3" x="834.88"></rect><rect fill="#25468f" height="10.63" width="12.44" y="777.3" x="847.32"></rect><rect fill="#25468f" height="10.63" width="13.18" y="777.3" x="859.76"></rect><rect fill="#25468f" height="10.63" width="12.44" y="777.3" x="897.81"></rect><rect fill="#25468f" height="10.63" width="13.17" y="777.3" x="960.01"></rect><rect fill="#25468f" height="10.63" width="12.44" y="777.3" x="698.05"></rect><rect fill="#25468f" height="10.63" width="12.44" y="766.67" x="722.93"></rect><rect fill="#25468f" height="10.63" width="12.44" y="766.67" x="735.36"></rect><rect fill="#25468f" height="10.63" width="12.44" y="766.67" x="760.24"></rect><rect fill="#25468f" height="10.63" width="12.44" y="766.67" x="785.12"></rect><rect fill="#25468f" height="10.63" width="12.44" y="766.67" x="797.56"></rect><rect fill="#25468f" height="10.63" width="12.44" y="766.67" x="810"></rect><rect fill="#25468f" height="10.63" width="12.44" y="766.67" x="834.88"></rect><rect fill="#25468f" height="10.63" width="12.44" y="766.67" x="847.32"></rect><rect fill="#25468f" height="10.63" width="13.18" y="766.67" x="859.76"></rect><rect fill="#25468f" height="10.63" width="12.44" y="766.67" x="872.93"></rect><rect fill="#25468f" height="10.63" width="12.44" y="766.67" x="897.81"></rect><rect fill="#25468f" height="10.63" width="12.44" y="766.67" x="922.69"></rect><rect fill="#25468f" height="10.63" width="12.44" y="766.67" x="935.13"></rect><rect fill="#25468f" height="10.63" width="13.17" y="766.67" x="960.01"></rect><rect fill="#25468f" height="10.63" width="12.44" y="766.67" x="698.05"></rect><rect fill="#25468f" height="10.63" width="12.44" y="756.03" x="722.93"></rect><rect fill="#25468f" height="10.63" width="12.44" y="756.03" x="735.36"></rect><rect fill="#25468f" height="10.63" width="12.44" y="756.03" x="760.24"></rect><rect fill="#25468f" height="10.63" width="12.44" y="756.03" x="785.12"></rect><rect fill="#25468f" height="10.63" width="12.44" y="756.03" x="810"></rect><rect fill="#25468f" height="10.63" width="12.44" y="756.03" x="834.88"></rect><rect fill="#25468f" height="10.63" width="12.44" y="756.03" x="897.81"></rect><rect fill="#25468f" height="10.63" width="12.44" y="756.03" x="922.69"></rect><rect fill="#25468f" height="10.63" width="12.44" y="756.03" x="935.13"></rect><rect fill="#25468f" height="10.63" width="13.17" y="756.03" x="960.01"></rect><rect fill="#25468f" height="10.63" width="12.44" y="756.03" x="698.05"></rect><rect fill="#25468f" height="10.63" width="12.44" y="745.4" x="760.24"></rect><rect fill="#25468f" height="10.63" width="12.44" y="745.4" x="785.12"></rect><rect fill="#25468f" height="10.63" width="12.44" y="745.4" x="797.56"></rect><rect fill="#25468f" height="10.63" width="12.44" y="745.4" x="810"></rect><rect fill="#25468f" height="10.63" width="12.44" y="745.4" x="834.88"></rect><rect fill="#25468f" height="10.63" width="12.44" y="745.4" x="847.32"></rect><rect fill="#25468f" height="10.63" width="12.44" y="745.4" x="872.93"></rect><rect fill="#25468f" height="10.63" width="12.44" y="745.4" x="897.81"></rect><rect fill="#25468f" height="10.63" width="13.17" y="745.4" x="960.01"></rect><rect fill="#25468f" height="10.63" width="12.44" y="745.4" x="698.05"></rect><rect fill="#25468f" height="10.63" width="12.44" y="734.76" x="710.49"></rect><rect fill="#25468f" height="10.63" width="12.44" y="734.76" x="722.93"></rect><rect fill="#25468f" height="10.63" width="12.44" y="734.76" x="735.36"></rect><rect fill="#25468f" height="10.63" width="12.44" y="734.76" x="747.8"></rect><rect fill="#25468f" height="10.63" width="12.44" y="734.76" x="760.24"></rect><rect fill="#25468f" height="10.63" width="12.44" y="734.76" x="785.12"></rect><rect fill="#25468f" height="10.63" width="12.44" y="734.76" x="810"></rect><rect fill="#25468f" height="10.63" width="12.44" y="734.76" x="822.44"></rect><rect fill="#25468f" height="10.63" width="12.44" y="734.76" x="847.32"></rect><rect fill="#25468f" height="10.63" width="12.44" y="734.76" x="897.81"></rect><rect fill="#25468f" height="10.63" width="12.44" y="734.76" x="910.25"></rect><rect fill="#25468f" height="10.63" width="12.44" y="734.76" x="922.69"></rect><rect fill="#25468f" height="10.63" width="12.44" y="734.76" x="935.13"></rect><rect fill="#25468f" height="10.63" width="12.44" y="734.76" x="947.57"></rect><rect fill="#25468f" height="10.63" width="13.17" y="734.76" x="960.01"></rect><rect fill="#25468f" height="10.63" width="12.44" y="734.76" x="698.05"></rect><rect fill="#25468f" height="10.63" width="12.44" y="724.13" x="822.44"></rect><rect fill="#25468f" height="10.63" width="12.44" y="724.13" x="834.88"></rect><rect fill="#25468f" height="10.63" width="12.44" y="724.13" x="847.32"></rect><rect fill="#25468f" height="10.63" width="12.44" y="724.13" x="872.93"></rect><rect fill="#25468f" height="10.63" width="12.44" y="713.5" x="710.49"></rect><rect fill="#25468f" height="10.63" width="12.44" y="713.5" x="722.93"></rect><rect fill="#25468f" height="10.63" width="12.44" y="713.5" x="735.36"></rect><rect fill="#25468f" height="10.63" width="12.44" y="713.5" x="747.8"></rect><rect fill="#25468f" height="10.63" width="12.44" y="713.5" x="785.12"></rect><rect fill="#25468f" height="10.63" width="12.44" y="713.5" x="797.56"></rect><rect fill="#25468f" height="10.63" width="12.44" y="713.5" x="810"></rect><rect fill="#25468f" height="10.63" width="12.44" y="713.5" x="834.88"></rect><rect fill="#25468f" height="10.63" width="12.44" y="713.5" x="847.32"></rect><rect fill="#25468f" height="10.63" width="13.18" y="713.5" x="859.76"></rect><rect fill="#25468f" height="10.63" width="12.44" y="713.5" x="872.93"></rect><rect fill="#25468f" height="10.63" width="12.44" y="713.5" x="885.37"></rect><rect fill="#25468f" height="10.63" width="12.44" y="713.5" x="897.81"></rect><rect fill="#25468f" height="10.63" width="12.44" y="713.5" x="910.25"></rect><rect fill="#25468f" height="10.63" width="12.44" y="713.5" x="922.69"></rect><rect fill="#25468f" height="10.63" width="12.44" y="713.5" x="947.57"></rect><rect fill="#25468f" height="10.63" width="13.17" y="713.5" x="960.01"></rect><rect fill="#25468f" height="10.63" width="12.44" y="702.86" x="722.93"></rect><rect fill="#25468f" height="10.63" width="12.44" y="702.86" x="735.36"></rect><rect fill="#25468f" height="10.63" width="12.44" y="702.86" x="772.68"></rect><rect fill="#25468f" height="10.63" width="12.44" y="702.86" x="785.12"></rect><rect fill="#25468f" height="10.63" width="12.44" y="702.86" x="810"></rect><rect fill="#25468f" height="10.63" width="12.44" y="702.86" x="847.32"></rect><rect fill="#25468f" height="10.63" width="12.44" y="702.86" x="872.93"></rect><rect fill="#25468f" height="10.63" width="12.44" y="702.86" x="885.37"></rect><rect fill="#25468f" height="10.63" width="12.44" y="702.86" x="910.25"></rect><rect fill="#25468f" height="10.63" width="12.44" y="702.86" x="922.69"></rect><rect fill="#25468f" height="10.63" width="12.44" y="692.23" x="710.49"></rect><rect fill="#25468f" height="10.63" width="12.44" y="692.23" x="735.36"></rect><rect fill="#25468f" height="10.63" width="12.44" y="692.23" x="747.8"></rect><rect fill="#25468f" height="10.63" width="12.44" y="692.23" x="760.24"></rect><rect fill="#25468f" height="10.63" width="12.44" y="692.23" x="772.68"></rect><rect fill="#25468f" height="10.63" width="12.44" y="692.23" x="797.56"></rect><rect fill="#25468f" height="10.63" width="12.44" y="692.23" x="810"></rect><rect fill="#25468f" height="10.63" width="12.44" y="692.23" x="822.44"></rect><rect fill="#25468f" height="10.63" width="12.44" y="692.23" x="834.88"></rect><rect fill="#25468f" height="10.63" width="12.44" y="692.23" x="847.32"></rect><rect fill="#25468f" height="10.63" width="13.18" y="692.23" x="859.76"></rect><rect fill="#25468f" height="10.63" width="12.44" y="692.23" x="922.69"></rect><rect fill="#25468f" height="10.63" width="12.44" y="692.23" x="935.13"></rect><rect fill="#25468f" height="10.63" width="13.17" y="692.23" x="960.01"></rect><rect fill="#25468f" height="10.63" width="12.44" y="692.23" x="698.05"></rect><rect fill="#25468f" height="10.63" width="12.44" y="681.6" x="710.49"></rect><rect fill="#25468f" height="10.63" width="12.44" y="681.6" x="722.93"></rect><rect fill="#25468f" height="10.63" width="12.44" y="681.6" x="735.36"></rect><rect fill="#25468f" height="10.63" width="12.44" y="681.6" x="785.12"></rect><rect fill="#25468f" height="10.63" width="12.44" y="681.6" x="797.56"></rect><rect fill="#25468f" height="10.63" width="12.44" y="681.6" x="847.32"></rect><rect fill="#25468f" height="10.63" width="12.44" y="681.6" x="885.37"></rect><rect fill="#25468f" height="10.63" width="12.44" y="681.6" x="897.81"></rect><rect fill="#25468f" height="10.63" width="12.44" y="681.6" x="922.69"></rect><rect fill="#25468f" height="10.63" width="12.44" y="681.6" x="935.13"></rect><rect fill="#25468f" height="10.63" width="12.44" y="681.6" x="947.57"></rect><rect fill="#25468f" height="10.63" width="13.17" y="681.6" x="960.01"></rect><rect fill="#25468f" height="10.63" width="12.44" y="681.6" x="698.05"></rect><rect fill="#25468f" height="10.63" width="12.44" y="670.96" x="735.36"></rect><rect fill="#25468f" height="10.63" width="12.44" y="670.96" x="747.8"></rect><rect fill="#25468f" height="10.63" width="12.44" y="670.96" x="760.24"></rect><rect fill="#25468f" height="10.63" width="12.44" y="670.96" x="772.68"></rect><rect fill="#25468f" height="10.63" width="12.44" y="670.96" x="785.12"></rect><rect fill="#25468f" height="10.63" width="12.44" y="670.96" x="797.56"></rect><rect fill="#25468f" height="10.63" width="12.44" y="670.96" x="834.88"></rect><rect fill="#25468f" height="10.63" width="12.44" y="670.96" x="872.93"></rect><rect fill="#25468f" height="10.63" width="12.44" y="670.96" x="885.37"></rect><rect fill="#25468f" height="10.63" width="12.44" y="670.96" x="935.13"></rect><rect fill="#25468f" height="10.63" width="12.44" y="670.96" x="698.05"></rect><rect fill="#25468f" height="10.63" width="12.44" y="660.33" x="710.49"></rect><rect fill="#25468f" height="10.63" width="12.44" y="660.33" x="722.93"></rect><rect fill="#25468f" height="10.63" width="12.44" y="660.33" x="735.36"></rect><rect fill="#25468f" height="10.63" width="12.44" y="660.33" x="747.8"></rect><rect fill="#25468f" height="10.63" width="12.44" y="660.33" x="772.68"></rect><rect fill="#25468f" height="10.63" width="12.44" y="660.33" x="797.56"></rect><rect fill="#25468f" height="10.63" width="12.44" y="660.33" x="810"></rect><rect fill="#25468f" height="10.63" width="12.44" y="660.33" x="834.88"></rect><rect fill="#25468f" height="10.63" width="12.44" y="660.33" x="847.32"></rect><rect fill="#25468f" height="10.63" width="13.18" y="660.33" x="859.76"></rect><rect fill="#25468f" height="10.63" width="12.44" y="660.33" x="872.93"></rect><rect fill="#25468f" height="10.63" width="12.44" y="660.33" x="897.81"></rect><rect fill="#25468f" height="10.63" width="12.44" y="660.33" x="910.25"></rect><rect fill="#25468f" height="10.63" width="12.44" y="660.33" x="922.69"></rect><rect fill="#25468f" height="10.63" width="12.44" y="660.33" x="935.13"></rect><rect fill="#25468f" height="10.63" width="13.17" y="660.33" x="960.01"></rect><rect fill="#25468f" height="10.63" width="12.44" y="649.69" x="710.49"></rect><rect fill="#25468f" height="10.63" width="12.44" y="649.69" x="735.36"></rect><rect fill="#25468f" height="10.63" width="12.44" y="649.69" x="760.24"></rect><rect fill="#25468f" height="10.63" width="12.44" y="649.69" x="772.68"></rect><rect fill="#25468f" height="10.63" width="12.44" y="649.69" x="810"></rect><rect fill="#25468f" height="10.63" width="12.44" y="649.69" x="822.44"></rect><rect fill="#25468f" height="10.63" width="12.44" y="649.69" x="834.88"></rect><rect fill="#25468f" height="10.63" width="13.18" y="649.69" x="859.76"></rect><rect fill="#25468f" height="10.63" width="12.44" y="649.69" x="872.93"></rect><rect fill="#25468f" height="10.63" width="12.44" y="649.69" x="885.37"></rect><rect fill="#25468f" height="10.63" width="12.44" y="649.69" x="910.25"></rect><rect fill="#25468f" height="10.63" width="12.44" y="649.69" x="935.13"></rect><rect fill="#25468f" height="10.63" width="12.44" y="649.69" x="947.57"></rect><rect fill="#25468f" height="10.63" width="13.17" y="649.69" x="960.01"></rect><rect fill="#25468f" height="10.63" width="12.44" y="649.69" x="698.05"></rect><rect fill="#25468f" height="10.63" width="12.44" y="639.06" x="710.49"></rect><rect fill="#25468f" height="10.63" width="12.44" y="639.06" x="760.24"></rect><rect fill="#25468f" height="10.63" width="12.44" y="639.06" x="772.68"></rect><rect fill="#25468f" height="10.63" width="12.44" y="639.06" x="797.56"></rect><rect fill="#25468f" height="10.63" width="12.44" y="639.06" x="810"></rect><rect fill="#25468f" height="10.63" width="12.44" y="639.06" x="834.88"></rect><rect fill="#25468f" height="10.63" width="12.44" y="639.06" x="847.32"></rect><rect fill="#25468f" height="10.63" width="12.44" y="639.06" x="872.93"></rect><rect fill="#25468f" height="10.63" width="12.44" y="639.06" x="885.37"></rect><rect fill="#25468f" height="10.63" width="12.44" y="639.06" x="897.81"></rect><rect fill="#25468f" height="10.63" width="12.44" y="639.06" x="910.25"></rect><rect fill="#25468f" height="10.63" width="12.44" y="639.06" x="922.69"></rect><rect fill="#25468f" height="10.63" width="12.44" y="639.06" x="935.13"></rect><rect fill="#25468f" height="10.63" width="12.44" y="639.06" x="698.05"></rect><rect fill="#25468f" height="10.63" width="12.44" y="628.43" x="797.56"></rect><rect fill="#25468f" height="10.63" width="12.44" y="628.43" x="822.44"></rect><rect fill="#25468f" height="10.63" width="12.44" y="628.43" x="834.88"></rect><rect fill="#25468f" height="10.63" width="13.18" y="628.43" x="859.76"></rect><rect fill="#25468f" height="10.63" width="12.44" y="628.43" x="872.93"></rect><rect fill="#25468f" height="10.63" width="12.44" y="628.43" x="885.37"></rect><rect fill="#25468f" height="10.63" width="12.44" y="617.79" x="710.49"></rect><rect fill="#25468f" height="10.63" width="12.44" y="617.79" x="722.93"></rect><rect fill="#25468f" height="10.63" width="12.44" y="617.79" x="735.36"></rect><rect fill="#25468f" height="10.63" width="12.44" y="617.79" x="747.8"></rect><rect fill="#25468f" height="10.63" width="12.44" y="617.79" x="760.24"></rect><rect fill="#25468f" height="10.63" width="12.44" y="617.79" x="785.12"></rect><rect fill="#25468f" height="10.63" width="12.44" y="617.79" x="797.56"></rect><rect fill="#25468f" height="10.63" width="12.44" y="617.79" x="834.88"></rect><rect fill="#25468f" height="10.63" width="12.44" y="617.79" x="885.37"></rect><rect fill="#25468f" height="10.63" width="12.44" y="617.79" x="897.81"></rect><rect fill="#25468f" height="10.63" width="12.44" y="617.79" x="922.69"></rect><rect fill="#25468f" height="10.63" width="13.17" y="617.79" x="960.01"></rect><rect fill="#25468f" height="10.63" width="12.44" y="617.79" x="698.05"></rect><rect fill="#25468f" height="10.63" width="12.44" y="607.16" x="760.24"></rect><rect fill="#25468f" height="10.63" width="13.18" y="607.16" x="859.76"></rect><rect fill="#25468f" height="10.63" width="12.44" y="607.16" x="872.93"></rect><rect fill="#25468f" height="10.63" width="12.44" y="607.16" x="897.81"></rect><rect fill="#25468f" height="10.63" width="12.44" y="607.16" x="910.25"></rect><rect fill="#25468f" height="10.63" width="12.44" y="607.16" x="935.13"></rect><rect fill="#25468f" height="10.63" width="12.44" y="607.16" x="947.57"></rect><rect fill="#25468f" height="10.63" width="13.17" y="607.16" x="960.01"></rect><rect fill="#25468f" height="10.63" width="12.44" y="607.16" x="698.05"></rect><rect fill="#25468f" height="10.63" width="12.44" y="596.53" x="722.93"></rect><rect fill="#25468f" height="10.63" width="12.44" y="596.53" x="735.36"></rect><rect fill="#25468f" height="10.63" width="12.44" y="596.53" x="760.24"></rect><rect fill="#25468f" height="10.63" width="12.44" y="596.53" x="785.12"></rect><rect fill="#25468f" height="10.63" width="12.44" y="596.53" x="797.56"></rect><rect fill="#25468f" height="10.63" width="12.44" y="596.53" x="822.44"></rect><rect fill="#25468f" height="10.63" width="12.44" y="596.53" x="834.88"></rect><rect fill="#25468f" height="10.63" width="13.18" y="596.53" x="859.76"></rect><rect fill="#25468f" height="10.63" width="12.44" y="596.53" x="910.25"></rect><rect fill="#25468f" height="10.63" width="12.44" y="596.53" x="922.69"></rect><rect fill="#25468f" height="10.63" width="12.44" y="596.53" x="935.13"></rect><rect fill="#25468f" height="10.63" width="12.44" y="596.53" x="698.05"></rect><rect fill="#25468f" height="10.63" width="12.44" y="585.89" x="722.93"></rect><rect fill="#25468f" height="10.63" width="12.44" y="585.89" x="735.36"></rect><rect fill="#25468f" height="10.63" width="12.44" y="585.89" x="760.24"></rect><rect fill="#25468f" height="10.63" width="12.44" y="585.89" x="785.12"></rect><rect fill="#25468f" height="10.63" width="12.44" y="585.89" x="810"></rect><rect fill="#25468f" height="10.63" width="12.44" y="585.89" x="822.44"></rect><rect fill="#25468f" height="10.63" width="12.44" y="585.89" x="834.88"></rect><rect fill="#25468f" height="10.63" width="12.44" y="585.89" x="847.32"></rect><rect fill="#25468f" height="10.63" width="13.18" y="585.89" x="859.76"></rect><rect fill="#25468f" height="10.63" width="12.44" y="585.89" x="885.37"></rect><rect fill="#25468f" height="10.63" width="12.44" y="585.89" x="897.81"></rect><rect fill="#25468f" height="10.63" width="12.44" y="585.89" x="910.25"></rect><rect fill="#25468f" height="10.63" width="12.44" y="585.89" x="935.13"></rect><rect fill="#25468f" height="10.63" width="12.44" y="585.89" x="947.57"></rect><rect fill="#25468f" height="10.63" width="13.17" y="585.89" x="960.01"></rect><rect fill="#25468f" height="10.63" width="12.44" y="585.89" x="698.05"></rect><rect fill="#25468f" height="10.63" width="12.44" y="575.26" x="760.24"></rect><rect fill="#25468f" height="10.63" width="12.44" y="575.26" x="810"></rect><rect fill="#25468f" height="10.63" width="12.44" y="575.26" x="822.44"></rect><rect fill="#25468f" height="10.63" width="12.44" y="575.26" x="847.32"></rect><rect fill="#25468f" height="10.63" width="13.18" y="575.26" x="859.76"></rect><rect fill="#25468f" height="10.63" width="12.44" y="575.26" x="872.93"></rect><rect fill="#25468f" height="10.63" width="12.44" y="575.26" x="885.37"></rect><rect fill="#25468f" height="10.63" width="12.44" y="575.26" x="947.57"></rect><rect fill="#25468f" height="10.63" width="12.44" y="575.26" x="698.05"></rect><rect fill="#25468f" height="10.63" width="12.44" y="564.62" x="710.49"></rect><rect fill="#25468f" height="10.63" width="12.44" y="564.62" x="722.93"></rect><rect fill="#25468f" height="10.63" width="12.44" y="564.62" x="735.36"></rect><rect fill="#25468f" height="10.63" width="12.44" y="564.62" x="747.8"></rect><rect fill="#25468f" height="10.63" width="12.44" y="564.62" x="760.24"></rect><rect fill="#25468f" height="10.63" width="12.44" y="564.62" x="785.12"></rect><rect fill="#25468f" height="10.63" width="12.44" y="564.62" x="797.56"></rect><rect fill="#25468f" height="10.63" width="13.18" y="564.62" x="859.76"></rect><rect fill="#25468f" height="10.63" width="12.44" y="564.62" x="885.37"></rect><rect fill="#25468f" height="10.63" width="12.44" y="564.62" x="910.25"></rect><rect fill="#25468f" height="10.63" width="12.44" y="564.62" x="922.69"></rect><rect fill="#25468f" height="10.63" width="13.17" y="564.62" x="960.01"></rect><rect fill="#25468f" height="10.63" width="12.44" y="564.62" x="698.05"></rect></g><g opacity=".8"><path fill="#fff" d="M656.47,585.57c-2.44,0-4.42-1.69-4.42-3.78v-51.57c0-2.09,1.98-3.78,4.42-3.78h60.87c2.44,0,4.42,1.69,4.42,3.78s-1.98,3.78-4.42,3.78h-56.45v47.79c0,2.09-1.98,3.78-4.42,3.78Z"></path><path fill="#fff" d="M1014.76,585.8c-2.44,0-4.42-1.69-4.42-3.78v-48.26h-55.91c-2.44,0-4.42-1.69-4.42-3.78s1.98-3.78,4.42-3.78h60.33c2.44,0,4.42,1.69,4.42,3.78v52.04c0,2.09-1.98,3.78-4.42,3.78Z"></path></g><g opacity=".8"><path fill="#fff" d="M1014.76,844.97h-60.87c-2.44,0-4.42-1.69-4.42-3.78s1.98-3.78,4.42-3.78h56.45v-47.79c0-2.09,1.98-3.78,4.42-3.78s4.42,1.69,4.42,3.78v51.57c0,2.09-1.98,3.78-4.42,3.78Z"></path><path fill="#fff" d="M716.8,845.2h-60.33c-2.44,0-4.42-1.69-4.42-3.78v-52.04c0-2.09,1.98-3.78,4.42-3.78s4.42,1.69,4.42,3.78v48.25h55.91c2.44,0,4.42,1.69,4.42,3.78s-1.98,3.78-4.42,3.78Z"></path></g></g><g><g><path fill="#fff" d="M992.12,916.72v7.23c0,3.94-3.77,7.17-8.39,7.17h-296.23c-4.61,0-8.39-3.23-8.39-7.17v-7.23c0-3.94,3.77-7.17,8.39-7.17h296.23c4.61,0,8.39,3.23,8.39,7.17Z"></path><g><path fill="#fc7600" d="M897.81,909.56v21.57h-210.31c-4.61,0-8.39-3.23-8.39-7.17v-7.23c0-3.94,3.77-7.17,8.39-7.17h210.31Z"></path><g><polygon fill="#ff912b" points="853.99 909.56 830.72 931.12 787.18 931.12 810.45 909.56 853.99 909.56"></polygon><polygon fill="#ff912b" points="897.81 909.56 897.81 931.12 857.46 931.12 880.73 909.56 897.81 909.56"></polygon><polygon fill="#ff912b" points="783.89 909.56 760.62 931.12 717.08 931.12 740.35 909.56 783.89 909.56"></polygon><path fill="#ff912b" d="M713.79,909.56l-23.27,21.57h-3.19c-4.61,0-8.39-3.23-8.39-7.17v-7.23c0-3.94,3.77-7.17,8.39-7.17h26.46Z"></path></g></g></g><g><path fill="#fff" d="M803.51,897.25l1.65-1.68c1.5,1.11,3,1.74,4.94,1.74,1.7,0,2.77-.67,2.77-1.72,0-.96-.63-1.47-3.53-2.06-3.33-.67-5.21-1.51-5.21-4.01,0-2.29,2.24-3.88,5.34-3.88,2.28,0,4.09,.59,5.68,1.68l-1.48,1.78c-1.41-.9-2.82-1.38-4.25-1.38-1.61,0-2.55,.71-2.55,1.62,0,1.03,.72,1.49,3.71,2.1,3.31,.69,5.03,1.7,5.03,3.96,0,2.5-2.3,3.99-5.59,3.99-2.39,0-4.65-.71-6.53-2.14Z"></path><path fill="#fff" d="M818.18,892.51c0-3.8,3.33-6.92,8.07-6.92,2.88,0,4.63,.86,6.12,2.08l-1.77,1.74c-1.25-.99-2.59-1.66-4.38-1.66-3,0-5.16,2.1-5.16,4.76s2.17,4.76,5.16,4.76c1.92,0,3.15-.67,4.49-1.74l1.77,1.53c-1.63,1.45-3.42,2.37-6.35,2.37-4.56,0-7.96-3.04-7.96-6.92Z"></path><path fill="#fff" d="M840.91,885.72h2.55l6.89,13.47h-2.91l-1.59-3.23h-7.4l-1.61,3.23h-2.82l6.89-13.47Zm3.93,8.16l-2.7-5.35-2.68,5.35h5.39Z"></path><path fill="#fff" d="M853.03,885.82h2.55l8.38,9.25v-9.25h2.7v13.38h-2.3l-8.63-9.52v9.52h-2.7v-13.38Z"></path></g></g><g id="e"><path fill="#1e3865" d="M1070.32,791.8c14.43-3.6,30.73,.53,40.92,9.99,25.19,23.39,6.62,41.42,19.23,57.8,7.62,9.89,14.02,27.22-9.59,37.47-10.91,4.74-43.42,29.51-50.08,30.09-67.46,5.92-68.67-52.58-45.93-69.54,31.96-23.83,2.76-55.16,45.46-65.8Z"></path><path fill="#f99352" d="M1105.58,882.24s61.57,25.5,73.1,25.07c11.53-.43,83.62-22.13,83.62-22.13l-1.81,10.45s-54.84,26.96-74.01,28.49c-18.88,1.51-83.42-14.48-89.65-17.86-6.23-3.38-9.35-20.6,8.76-24.02Z"></path><path fill="#ffae73" d="M1112.35,906.29c-5.58,3.31-12.58,6.04-21.36,7.77-32.92,6.5-45.54-17.28-50.28-33.61,4.49-2.2,8.71-2.68,11.15-2.93,2.38-.24,4.88-.4,6.96-.49,3.7-2.42,9.21-12.33,10.42-27.71l1.55,.36,25.95,6.07s-1.19,7.05-1.77,13.72c-.45,5.22-.52,10.2,.63,11.42,2.02,.38,3.24,.62,3.24,.62,0,0,0,0,.01,.02,.35,.49,7.88,11.07,13.49,24.77Z"></path><path fill="#f99352" d="M1096.75,855.76s-1.19,7.05-1.77,13.72c-14.7-1.26-21.52-13.22-24.18-19.79l25.95,6.07Z"></path><path fill="#ffae73" d="M1101.14,862.37s-34.89-1.65-33.36-20.21c1.53-18.56-1.94-31.27,20.41-31.01,22.34,.27,26.08,7.61,27.33,13.91,1.25,6.3-5.26,37.25-14.38,37.3Z"></path><path fill="#1e3865" d="M1115.34,814.69c-4.92-5.91-9.09-4.94-11.51-3.4-18.3-10.12-31.68,2.36-31.68,2.36-3.45,13.17-15.32,20.11-15.32,20.11,0,0,6.18,4.23,20.98,1.42,18.94-3.59,25.44-17.63,26.32-19.78,1.99,1.76,4.56,2.89,6.53,6.71,2.34,4.54,3.81,7.18,3.86,14.65,0,0,8.2-13.21,.82-22.08Z"></path><path fill="#ff912b" d="M1030.78,966.94c-3.15-13.77-13.42-68.79-3.15-86.49,3.69-6.36,18.17-6.93,34.05-6.38,4.94,2.73,23.78,13.04,31.52,11.75,.08-.01,.23-.04,.43-.09,3.64-.78,5.02-2.97,1.98-4.85,0,0,6.98,.42,16.75,1.99,5.52,.89,20.67,8.84,20.67,8.84,0,0-6.87,9.14-17.93,13.13,1.88,14.37-.92,20.71-18.36,53.91-14.74,28.06,1.99,53.32,1.99,53.32,0,0-86.76,59.63-87.24,29.27-.36-22.86,23.32-56.82,19.29-74.42Z"></path><path fill="#8eaff1" d="M1103.03,1076.93c4.72-.46,8.97-2.66,11.6-6.04,.42-.54,.87-1.11,1.34-1.73,9.88-12.78,13.72-51.92,35.93-93.62,5.41-10.15,24.83-11.98,30.13-23.45,0,0,13.03-37.19-24.95-38.29-37.98-1.1-101.73,103.49-102.74,114.46-.98,10.63-25.11,55.79,48.68,48.67Z"></path><path fill="#042646" d="M1254.01,1076.72h-54.06s-2.02-7.57,1.53-12.72c3.14-4.56,1.94-7.15-.39-10.92,2.45,.88,5.62,1.68,9.11,1.51,2.69-.14,5.54-1.21,8.04-2.48,2.33,2.33,12.29,12.24,15.4,14.2,3.53,2.23,19.29,1.43,20.38,10.41Z"></path><path fill="#8eaff1" d="M1183.28,924.55c3.26,20.86,15.97,86.72,38.39,118.84,7.23,10.36-18.22,16.16-18.35,16.13-3.41-.76-9.1-5.41-11.72-7.43-18.21-14.03-55.17-53.75-55.17-85.59,0-15.53-.32-45.18,12.89-52.72,8.13-4.64,32.66,2.47,33.96,10.76Z"></path><path fill="#fc7600" d="M1032.9,906.27s10.97,19.08,62.19,32.56c51.21,13.48,21.92-20.39,21.92-20.39l-71.6-21.39-12.51,9.22Z"></path><path fill="#a9c2ff" d="M1076.63,1076.98s2.74-3.51,4.48-8.73c2.91-8.72,3.94-15.06,9.52-28.64,5.86-14.26,12.82-31.8,21.51-50.05,2.68-5.63,5.53-11.33,8.56-17.03,5.41-10.15,20.3-8.75,25.59-20.22,0,0,20.66-39.78-17.32-40.88-37.98-1.1-110.16,106.42-114.31,116.84-4.54,11.4-20.86,59.64,61.96,48.72Z"></path><path fill="#0b3563" d="M1214.32,1076.72h-54.06s-2.02-7.57,1.53-12.72c3.14-4.56,1.94-7.15-.39-10.92,2.45,.88,5.62,1.68,9.11,1.51,2.69-.14,5.54-1.21,8.04-2.48,2.33,2.33,12.29,12.24,15.4,14.2,3.53,2.23,19.29,1.43,20.38,10.41Z"></path><g opacity=".5"><path fill="#8eaff1" d="M1090.63,1039.61c5.86-14.26,12.82-31.8,21.51-50.05-2.27-13.83-7.17-25.92-15.4-30.8,0,0-19.98,52.91-6.11,80.84Z"></path></g><path fill="#a9c2ff" d="M1151.72,923.07c3.26,20.86,7.84,88.2,30.27,120.32,7.23,10.36-18.22,16.16-18.35,16.13-3.41-.76-9.1-5.41-11.72-7.43-18.21-14.03-55.17-53.75-55.17-85.59,0-15.53,21.31-43.93,34.52-51.47,8.13-4.64,19.16-.25,20.45,8.04Z"></path><g><path fill="#e96328" d="M1268.75,858.29l-55.37-5.03c-1.61-.15-3.14,.65-3.72,1.95l-19.81,44.5c-.87,1.95,.76,4.06,3.2,4.14l54.94,1.89c1.49,.05,2.86-.7,3.44-1.87l20.24-41.37c.92-1.89-.54-4-2.92-4.22Z"></path><path fill="#ff7b35" d="M1273.56,858.72l-55.37-5.03c-1.61-.15-3.14,.65-3.72,1.95l-19.81,44.5c-.87,1.95,.76,4.05,3.2,4.14l54.94,1.89c1.49,.05,2.86-.7,3.44-1.87l20.24-41.37c.92-1.89-.54-4-2.92-4.22Z"></path><path fill="#e8f2fa" d="M1242.87,879.5c.68-1.59-.28-2.88-2.14-2.88s-3.91,1.29-4.59,2.88c-.68,1.59,.28,2.88,2.14,2.88s3.91-1.29,4.59-2.88Z"></path><path fill="#e8f2fa" d="M1271.9,862.93c.33-.78-.14-1.41-1.05-1.41s-1.92,.63-2.25,1.41c-.33,.78,.14,1.41,1.05,1.41s1.92-.63,2.25-1.41Z"></path></g><path fill="#ffae73" d="M1040.71,880.45s76.74,24.16,88.26,23.66c7.45-.32,69.4-18.93,69.4-18.93l5.56,8.99s-60.29,33.13-76.87,32.96c-32.72-.32-87.94-17.49-94.17-20.87-6.23-3.38-10.29-22.4,7.82-25.81Z"></path><path fill="#ffae73" d="M1198.38,885.18s5.56-7.32,11.1-7.53c5.54-.22,15.1,3.23,18.37,3.77,3.27,.54,12.58,3.12,9.82,6.99-2.77,3.87-15.6,4.73-21.14,3.87-5.54-.86-12.58,1.89-12.58,1.89l-5.56-8.99Z"></path><path fill="#ffae73" d="M1207.97,877.87s8.81-3.45,11.32-4.1c2.52-.65,2.01,.01,1.26,2.05-.75,2.04-5.28,3.98-5.28,4.63s-7.3-2.58-7.3-2.58Z"></path><path fill="#ffae73" d="M1267.86,881.31s-3.51-9.89-7.37-6.79c-4.02,3.23-1.58,6.47-1.09,10.6,.94,7.89,2.81,7.55,3.99,7.19s5.78-7.03,4.47-11Z"></path><path fill="#ffae73" d="M1268.07,882.81s1.77,8.42-7.58,12.82l2.77-5.8,4.81-7.02Z"></path><path fill="#fff" d="M1107.67,851.7s-3.3-1.12-12.58-.47c0,0,.49,3.1,7.34,3.4,3.88,.17,5.24-2.93,5.24-2.93Z"></path><path fill="#ff912b" d="M1080.25,892.37s-6.86,18.57-30.43,22.8c0,0-38.92-10.25-19.54-32.92,0,0,19.16-12.17,49.98,10.12Z"></path><path fill="#ffae73" d="M1268.07,884s1.62-4.63,1.71-5.44c.09-.8-.02-1.21-.86-.64s-2.11,2.05-1.73,3.46c.38,1.41,.87,2.63,.87,2.63Z"></path></g><g><g><path fill="#ffc194" d="M762.42,467.2c-1.57,1.53-1.77,3.25-.99,5.08,0,0,0,.02,.01,.03,1.43,3.39,6.17,7.17,11.67,10.94,.7,.49,1.33,.93,1.87,1.33,.14,.11,.29,.21,.42,.32,.11,.08,.22,.17,.32,.25,5.13,4.04,3.2,4.97,12.41,13.17,10.51,9.34,17.74,9.51,19.8,8.66,1.74-.73-1.8-5.68-5.72-11.25-.19-.27-.38-.54-.57-.81-.52-.74-1.04-1.49-1.56-2.24-4.59-6.7-3.41-9.85-2.32-19.83,.88-8.11,14.76-45.3,14.76-45.3l-20.13-2.96s-6.06,29.61-12.74,34.17c-3.57,2.43-7.57,2.46-11,4.26-.24,.13-.48,.25-.71,.39-1.95,1.11-3.94,2.25-5.51,3.78Z"></path><path fill="#1e3865" d="M762.42,467.2c-1.57,1.53-1.77,3.25-.99,5.08,0,0,0,.02,.01,.03,1.76,3.38,6.37,7.14,11.69,10.91,.69,.49,1.31,.95,1.85,1.37,.14,.11,.29,.21,.42,.32,.11,.08,.22,.17,.32,.25,5.13,4.04,3.2,4.97,12.41,13.17,10.51,9.34,17.74,9.51,19.8,8.66,1.74-.73-1.8-5.68-5.72-11.25-2.05-.64-11.55-3.94-18.73-11.8-6.33-6.9-10.55-15.77-14.85-20.9-.24,.13-.48,.25-.71,.39-1.95,1.11-3.94,2.25-5.51,3.78Z"></path><path fill="#ffc194" d="M924.77,456.45c1.24,5.31,10.1,4.43,20,2.36,9.9-2.07,7.55,.39,21.63-.94,14.09-1.33,18.35-5.82,18.78-7.61,.38-1.59-6.58-2.15-14.04-2.88-.94-.09-1.88-.19-2.82-.29-8.43-.9-14.6-5.55-22.26-9.37-7.25-3.62-18.07-18.35-18.07-18.35l-19.32,1.31s10.14,13.16,14.06,18.89c2.31,3.37,2.18,7.82,1.9,11.25-.15,1.87-.29,3.78,.15,5.65Z"></path><path fill="#1e3865" d="M944.77,458.81c9.9-2.07,7.55,.39,21.63-.94,14.09-1.33,18.35-5.82,18.78-7.61,.38-1.59-6.58-2.15-14.04-2.88l-.07,.12s-8.45,5.12-20.17,5.36c-9.56,.2-19.68-2.14-26.28-2.05-.15,1.87-.29,3.78,.15,5.65,1.24,5.31,10.1,4.43,20,2.36Z"></path><path fill="#fc7600" d="M850.74,350.85l-18.06,41.54-23.58,54.24s-6.4,.53-12.53-.98c-5.64-1.39-12.11-5.04-12.11-5.04,0,0,6.55-58.24,18.76-91.67,3.13-8.58,6.64-15.52,10.51-19.43,18.93-19.13,37.01,21.34,37.01,21.34Z"></path><path fill="#ff912b" d="M832.38,284.88c-11.27-3.11-42.42,.55-74.64,5.8-2.91,.47-5.86-.65-7.39-2.82l-4.53-6.39-73.22-4.89s-18.9,36.71-10.86,67.24c1.97,7.48,12.67,17.17,29.03,18.04,45.86,2.44,76.8-11.18,124.4-25.48,8.28-2.49,12.05,13.24,20.66,28.69,8.61,15.45,80.9,68.42,80.9,68.42,0,0,11.11,.09,15.7-1.38,4.94-1.58,6.74-3.64,6.74-3.64,0,0-80.11-136.25-106.79-143.61Z"></path><path fill="#1e3865" d="M742.93,99.22c-9.38-4.21-23.65-4.78-25.97-5.05-27.74-3.19-44.44,31.28-45.42,41.72-1.81,19.25-13.72,22.18-30.49,34.24-33.62,24.17-23.76,52.26-5.38,62.69,11.03,6.26,30.47,0,30.47,0,.27,.16,53.17-25.28,79.24-37.55,39.09-4.75,21.45-85.32-2.45-96.05Z"></path><path fill="#ffae73" d="M723.53,184.83c.11,.06-12.83,3.84-21.48,.56-8.14-3.08-14.31-14.53-14.19-14.53,3.7-.15,7.77-2.91,10.9-21.08l1.58,.48,26.52,8.16s-1.92,7.27-3.16,14.2c-1.05,5.81-1.61,11.38-.16,12.21Z"></path><path fill="#f9924f" d="M726.85,158.43s-1.33,5.16-2.79,12.22c-15.23-2.34-21.58-13.34-23.72-20.38l26.52,8.16Z"></path><path fill="#ffae73" d="M730.8,165.64s-36.28-4.16-32.9-23.44c3.38-19.27,.97-32.79,24.28-30.95,23.31,1.84,26.51,9.77,27.21,16.44,.7,6.67-9.07,38.53-18.59,37.94Z"></path><path fill="#1e3865" d="M748.07,117.14s-23.22,17.11-39.02,18.49c-15.8,1.38-21.78-2.96-21.78-2.96,0,0,9.31-6.61,14.91-17.27,1.65-3.14,5.14-5.3,9.16-5.6,11.28-.83,32.66-1.21,36.73,7.34Z"></path><path fill="#1e3865" d="M733.55,115.6s7.77,6.42,10.22,11.18c2.36,4.6,3.07,15.59,1.19,19.96,0,0,12.11-20.12,5.25-29.9-7.27-10.37-16.66-1.24-16.66-1.24Z"></path><path fill="#a9c2ff" d="M754.08,230.52c2.78,55.98-1.62,52.89-8.33,55.62-2.31,.94-7.38,2.29-14.54,2.69-22.52,1.28-62.1-1.89-63.61-5.45-5.19-12.31-1.53-16.13-5.86-34.98-.45-2-1.01-4.17-1.67-6.54-3.61-12.94-7.13-17.35,5.69-38.14,11.62-18.84,23.7-34.12,24.79-33.57,30.67,15.56,33.14,2.48,33.14,2.48,0,0,28.87,27.29,30.39,57.89Z"></path><path fill="#ff912b" d="M832.68,392.39l-23.58,54.24s-6.4,.53-12.53-.98c-5.64-1.39-12.11-5.04-12.11-5.04,0,0,6.55-58.24,18.76-91.67l29.46,43.45Z"></path><path fill="#a9c2ff" d="M723.69,172.62s31.56,4.57,35.26,16.19c3.71,11.62,25.51,79.9,25.51,79.9,0,0-16.04,2.46-23.45-3.87-7.41-6.34-25.79-58.78-25.79-58.78l-11.53-33.44Z"></path><path fill="#8eaff1" d="M731.21,288.83c-22.52,1.28-62.1-1.89-63.61-5.45-5.19-12.31-1.53-16.13-5.86-34.98l10.86-26.14s-1.8,29.11,8.25,36.77c10.03,7.66,41.12,14.78,46.01,21.18,2.35,3.07,3.9,6.15,4.36,8.62Z"></path><path fill="#ffae73" d="M705.4,276.58s22.22-4.23,25.8-2.54c3.58,1.69,12.35,7.82,13.44,9.96,1.1,2.14-7.98-1.62-10.93-2.3-1.91-.44-6.95,1.06-9.44,1.77-10.49,2.99-16.91,1.45-16.91,1.45l-1.96-8.34Z"></path><path fill="#a9c2ff" d="M690.53,170.13s-29.83,1.57-40.16,13.88c-14.54,17.33-43.37,91.2-26.85,101.05,18.61,11.09,84.71,2.9,84.71,2.9,0,0,2.2-8.79-.86-13.04s-52.79-11.12-55.09-13.08c-2.3-1.96,28.69-38.26,28.69-44.15s9.55-47.57,9.55-47.57Z"></path><path fill="#ffae73" d="M732.28,279.32s4.66,5.13,6.18,5.75c1.53,.61,2.51,.46,2.51,.46l-3.14-4.83-5.56-1.38Z"></path><path fill="#ffae73" d="M731.21,274.04l13.53,5.62s-.58,.81-2.24,.74c-1.67-.07-5.87-1.38-5.87-1.38l-5.42-4.98Z"></path></g><g><g><polygon fill="#25468f" points="738.46 292.93 845.52 292.93 877.72 224.47 770.83 224.47 738.46 292.93"></polygon><polygon fill="#25468f" points="846.77 290.27 705.4 290.27 705.4 292.93 845.52 292.93 846.77 290.27"></polygon></g><path fill="#e8f2fa" d="M818.49,258.7c.81-2.41-.82-4.36-3.64-4.36s-5.75,1.95-6.56,4.36c-.81,2.41,.82,4.36,3.64,4.36s5.75-1.95,6.56-4.36Z"></path></g></g><rect fill="#2d3554" ry="1.7" rx="1.7" height="4.11" width="1620" y="1075.89" x="0"></rect></g></g></g></svg>