<svg viewBox="0 0 1620 1028" xmlns="http://www.w3.org/2000/svg"><g id="a"></g><g id="b"><g id="c"><g><path fill="#e8f2fa" d="M115.25,1025.39s-200.33-189.29-72.75-411.89c127.58-222.59,298.77-110.58,290.58-369.71C324.89-15.33,727-37.47,854.96,37.71c127.96,75.18,139.24,123.59,403.47,93.73,264.23-29.86,387.11,190.7,300.27,343.73-101.43,178.75,204.1,196.07-28.05,550.66l-1415.4-.44Z"></path><g opacity=".4"><path fill="#d3e4ff" d="M1499.58,360.03c0,11.46-1.15,22.69-3.37,33.59-5.32,26.16-16.73,50.41-32.88,71.54-37.52,49.12-100.6,81.35-172.09,81.35-85.04,0-158.19-45.6-190.56-110.98-4.27-8.61-7.84-17.57-10.61-26.82-4.69-15.52-7.18-31.84-7.18-48.68,0-13.62,1.63-26.9,4.73-39.68,.03-.15,.07-.29,.1-.44,8.66-35.35,28.52-66.93,56.08-91.64,7.82-7.01,16.25-13.47,25.24-19.3,4.28-2.78,8.7-5.42,13.22-7.91,31.7-17.46,69.02-27.53,108.98-27.53,5.3,0,10.55,.18,15.75,.53,7.34,.48,14.56,1.31,21.66,2.47,29.89,4.85,57.54,15.4,81.53,30.36h.01c14.94,9.31,28.46,20.33,40.19,32.74,6.16,6.52,11.84,13.42,16.96,20.67,3.19,4.51,6.17,9.14,8.94,13.91,6.64,11.44,11.98,23.58,15.88,36.26,4.84,15.78,7.43,32.4,7.43,49.55Z"></path><g><path fill="#a9c2ff" d="M1220.45,276.56c-8.31,11.79,3.47,32.25-21.47,26.67-24.94-5.58-40.19-8.06-41.57,4.33-1.39,12.41,18.71,12.41,18.71,25.43s-9.01,17.33-22.86,11.14c-13.86-6.19-17.84-15.18-33.95-9.6-16.11,5.58-25.46,1.86-29.1-9.3-.64-1.96-1.54-3.55-2.59-4.88,.03-.15,.07-.29,.1-.44,8.66-35.35,28.52-66.93,56.08-91.64,7.82-7.01,16.25-13.47,25.24-19.3,4.28-2.78,8.7-5.42,13.22-7.91,6.5,.21,14.26,2.42,20.88,9.75,14.55,16.13,24.25,8.06,20.79,26.67-3.47,18.6,2.08,21.09,13.85,20.46,11.77-.62,25.64-.62,27.02,7.44,1.38,8.06-36.03-.62-44.35,11.16Z"></path><path fill="#a9c2ff" d="M1306.71,388.18s-18.36,5.27-23.21-6.2c-4.85-11.47,.69-13.95-15.59-17.36-16.28-3.41-17.67-13.33-28.06-12.09-10.39,1.24-5.2,4.96-17.32,13.02-12.12,8.06-23.21,4.34-22.86,19.22,.35,14.88,18.36,17.21,22,26.98,3.64,9.77-2.6,13.95,5.2,21.39,7.79,7.44,22.34,4.19,15.59,14.42-6.76,10.23-17.15,18.14-11.95,33.95,5.2,15.81,1.56,16.74,10.39,27.91,8.83,11.16,25.98,14.88,28.58,7.44,2.6-7.44-11.95-17.21-7.28-24.65,4.68-7.44,12.47-2.33,15.59-13.49,3.12-11.16,15.76-11.16,16.8-18.91,1.04-7.75-15.24-19.53-9.01-24.5,6.24-4.96,18.71,8.99,28.41-3.41,9.7-12.4,3.12-22.33,13.16-34.11,10.05-11.78-13.51-16.43-20.44-9.61Z"></path><path fill="#a9c2ff" d="M1499.58,360.03c0,11.46-1.15,22.69-3.37,33.59-5.32,26.16-16.73,50.41-32.88,71.54-5.51,1.62-11.13,1.58-16.66-.4-25.98-9.3-6.76-34.42,3.64-46.98,10.39-12.56-16.11-6.98-35.34-18.6-19.23-11.63,2.08-42.79-17.67-37.67-19.75,5.12-43.65,11.63-55.08-5.58-11.43-17.21,10.39-20,.52-34.42-9.87-14.42,5.72-22.79,25.46-24.19,19.75-1.4,17.15-13.95,41.57-15.81,24.42-1.86,23.9,26.05,50.93,24.19,27.02-1.86,25.81,3.72,25.81,3.72,1.94-.05,3.83,.32,5.64,1.06,4.84,15.78,7.43,32.4,7.43,49.55Z"></path><path fill="#a9c2ff" d="M1476.27,274.22c-22.47,9.79-31.49-16.83-50.7-8.83-19.36,8.06-15.97-7.44-31.21-17.37-15.25-9.92-45.73,8.06-44.35-7.44,1.38-15.5,24.25-11.16,29.1-23.56,4.85-12.4,27.02-9.3,27.02-9.3,1.26-.43,2.61-.71,4.03-.82,0,0,0,0,.01,0,14.94,9.31,28.46,20.33,40.19,32.74,6.16,6.52,11.84,13.42,16.96,20.67,3.19,4.51,6.17,9.14,8.94,13.91Z"></path><path fill="#a9c2ff" d="M1286.97,220.74s11.78-15.21-6.93-19.7c-18.71-4.49-18.36,1.39-32.91,0-14.55-1.39-20.27,8.69-9.35,19.7,10.91,11.01,19.75,32.13,29.62,20.87,9.87-11.26,7.97-19.79,19.57-20.87Z"></path></g></g><path fill="#a9c2ff" d="M1365.97,331.74V912.21c0,10.15-8.19,18.39-18.29,18.39H411.99c-10.1,0-18.29-8.24-18.29-18.39V331.74c0-10.16,8.19-18.39,18.29-18.39h935.69c10.1,0,18.29,8.23,18.29,18.39Z"></path><g><path fill="#6b98f6" d="M1365.97,329.72v43.83H393.7v-43.83c0-9.05,8.19-16.37,18.29-16.37h935.69c10.1,0,18.29,7.32,18.29,16.37Z"></path><g><path fill="#dceaff" d="M423.44,343.45c0-4.21,3.81-7.62,8.51-7.62s8.51,3.41,8.51,7.62-3.81,7.62-8.51,7.62-8.51-3.41-8.51-7.62Z"></path><path fill="#dceaff" d="M456.99,343.45c0-4.21,3.81-7.62,8.51-7.62s8.51,3.41,8.51,7.62-3.81,7.62-8.51,7.62-8.51-3.41-8.51-7.62Z"></path><path fill="#dceaff" d="M491.39,343.45c0-4.21,3.81-7.62,8.51-7.62s8.51,3.41,8.51,7.62-3.81,7.62-8.51,7.62-8.51-3.41-8.51-7.62Z"></path></g></g><rect opacity=".5" fill="#e8f2fa" height="91.78" width="102.55" y="749.89" x="916.85"></rect><g><polygon fill="#6b98f6" points="924.55 831.19 954.84 782.32 977.11 809.51 988.23 798.62 1011.8 831.19 924.55 831.19"></polygon><path fill="#6b98f6" d="M969.27,775.3c0-3.87,3.51-7.02,7.84-7.02s7.84,3.14,7.84,7.02-3.51,7.02-7.84,7.02-7.84-3.14-7.84-7.02Z"></path></g><rect opacity=".5" fill="#e8f2fa" height="132.64" width="255.67" y="581.88" x="916.85"></rect><polygon fill="#6b98f6" points="1015.83 614.22 1015.83 682.18 1073.54 648.2 1015.83 614.22"></polygon><path fill="#e8f2fa" d="M1289.5,483.84c0,14.97-6.68,28.57-17.45,38.44-10.76,9.87-25.61,15.99-41.94,15.99H538.23c-35.31,0-64.21-24.49-64.21-54.43,0-14.97,7.22-28.57,18.86-38.44,11.63-9.87,27.69-15.99,45.34-15.99h691.88c32.67,0,59.39,24.49,59.39,54.42Z"></path><path fill="#ff912b" d="M1289.5,483.13c0,14.97-6.68,28.57-17.45,38.44-10.76,9.87-25.61,15.99-41.94,15.99h-125.2v-108.85h125.2c32.67,0,59.39,24.49,59.39,54.42Z"></path><g><path fill="#fff" d="M1210.26,502.91c-1.54,0-3.09-.1-4.64-.31-8.19-1.09-15.41-4.98-20.33-10.93-10.17-12.29-7.27-29.7,6.47-38.8h0c13.73-9.1,33.18-6.5,43.35,5.79,10.17,12.29,7.27,29.7-6.47,38.8-5.39,3.57-11.79,5.45-18.37,5.45Zm-15.47-46.36c-11.47,7.6-13.9,22.14-5.4,32.41,4.11,4.97,10.15,8.22,16.98,9.13,6.83,.91,13.66-.61,19.22-4.29,11.47-7.6,13.9-22.14,5.4-32.41-8.49-10.27-24.74-12.44-36.21-4.84h0Z"></path><polygon fill="#fff" points="1154.86 514.67 1151.83 511 1185.82 488.48 1188.85 492.15 1154.86 514.67"></polygon><path fill="#fff" d="M1141.53,520.66h0c-1.5-1.81-1.07-4.36,.95-5.71l20.02-13.26c2.02-1.34,4.88-.96,6.37,.85h0c1.5,1.81,1.07,4.36-.95,5.71l-20.02,13.26c-2.02,1.34-4.88,.96-6.37-.85Z"></path></g><g><g><path fill="#ffae73" d="M678.66,408.12c-1.31,1.34-1.47,2.84-.83,4.43,0,0,0,.02,.01,.02,1.19,2.96,5.14,6.26,9.72,9.56,.59,.42,1.11,.81,1.56,1.17,.12,.09,.24,.19,.35,.28,.09,.07,.18,.15,.27,.22,4.27,3.53,2.67,4.34,10.35,11.5,8.76,8.16,14.79,8.31,16.5,7.57,1.45-.63-1.5-4.96-4.76-9.82-.16-.23-.31-.47-.48-.71-.43-.65-.87-1.3-1.3-1.95-3.83-5.85-2.84-8.6-1.93-17.31,.74-7.08,12.32-39.54,12.32-39.54l-16.79-2.59s-5.07,25.85-10.64,29.83c-2.98,2.12-6.31,2.15-9.18,3.72-.2,.11-.4,.22-.6,.34-1.63,.96-3.28,1.96-4.59,3.3Z"></path><path fill="#1e3865" d="M678.66,408.12c-1.31,1.34-1.47,2.84-.83,4.43,0,0,0,.02,.01,.02,1.46,2.95,5.31,6.24,9.74,9.52,.58,.43,1.09,.83,1.54,1.2,.12,.09,.24,.19,.35,.28,.09,.07,.18,.15,.27,.22,4.27,3.53,2.67,4.34,10.35,11.5,8.76,8.16,14.79,8.31,16.5,7.57,1.45-.63-1.5-4.96-4.76-9.82-1.71-.56-9.63-3.44-15.61-10.3-5.08-5.81-8.53-13.21-11.99-17.75-.38-.06-.61-.1-.99-.17-1.63,.96-3.28,1.96-4.59,3.3Z"></path><path fill="#ffae73" d="M814.03,398.78c1.03,4.64,8.42,3.87,16.67,2.06,8.25-1.8,6.29,.34,18.04-.82,11.75-1.16,15.3-5.08,15.66-6.64,.32-1.39-5.48-1.88-11.71-2.52-.78-.08-1.57-.17-2.36-.25-7.03-.79-12.17-4.85-18.55-8.19-6.05-3.16-15.06-16.03-15.06-16.03l-16.11,1.14s8.45,11.49,11.71,16.49c1.92,2.94,1.82,6.82,1.58,9.82-.13,1.63-.24,3.3,.12,4.93Z"></path><path fill="#1e3865" d="M830.7,400.84c8.25-1.8,6.29,.34,18.04-.82,11.75-1.16,15.3-5.08,15.66-6.64,.32-1.39-5.48-1.88-11.71-2.52l-.06,.11s-7.05,4.47-16.82,4.67c-7.97,.17-16.41-1.88-21.91-1.8-.13,1.63-.24,3.3,.12,4.93,1.03,4.64,8.42,3.87,16.67,2.06Z"></path><path fill="#ff8a3a" d="M752.34,306.58l-15.07,36.26-19.68,47.34s-5.33,.46-10.44-.86c-4.7-1.22-10.1-4.4-10.1-4.4,0,0,5.48-50.84,15.67-80.02,2.61-7.49,5.54-13.55,8.77-16.96,15.79-16.69,30.85,18.64,30.85,18.64Z"></path><path fill="#ffa051" d="M737.05,248.98c-8.57-2.48-30.93-.05-55.19,3.87-6.7,1.08-13.46-1.66-16.99-6.87h0l-61.04-4.29s-20.16,39.98-9.14,65.46c1.62,3.74,5.18,6.08,10.67,6.16h0s36.89,.06,48.68,.06c30.36,0,64.25-18.66,68.64-19.44,7.18-1.28,10.04,11.56,17.21,25.05,7.17,13.49,67.43,59.75,67.43,59.75,0,0,9.26,.09,13.09-1.2,4.12-1.38,5.62-3.17,5.62-3.17,0,0-66.74-118.96-88.99-125.39Z"></path><path fill="#1e3865" d="M658.45,85.54c-4.53-2.42-8.95-2.79-11.66-2.72-1.88,.05-3.77-.06-5.63-.31-23.3-3.06-37.34,27.22-38.16,36.37-1.52,16.8-11.45,19.36-25.43,29.88-28.04,21.09-19.83,45.61-4.5,54.73,9.19,5.47,25.4,0,25.4,0,.23,.14,44.34-22.05,66.08-32.76,32.59-4.14,6.99-78.22-6.09-85.2Z"></path><path fill="#ffae73" d="M646.33,161.62c.1,.06-10.7,3.35-17.91,.49-6.79-2.69-11.93-12.68-11.82-12.69,3.09-.13,6.48-2.54,9.1-18.4l1.31,.42,22.11,7.13s-1.6,6.35-2.64,12.39c-.87,5.08-1.35,9.94-.14,10.66Z"></path><path fill="#f9924f" d="M649.11,138.57s-.88,3.43-2.17,9.83c-12.7-2.05-18.15-10.81-19.93-16.95l22.11,7.13Z"></path><path fill="#ffae73" d="M652.4,144.87s-30.25-3.64-27.42-20.47c2.82-16.82,.82-28.63,20.25-27.01,19.43,1.61,22.1,8.54,22.68,14.36,.58,5.82-7.57,33.63-15.51,33.12Z"></path><path fill="#1e3865" d="M666.81,102.53s-19.37,14.93-32.54,16.13c-13.17,1.2-18.16-2.59-18.16-2.59,0,0,7.77-5.77,12.44-15.08,1.38-2.74,4.29-4.63,7.64-4.88,9.41-.72,27.23-1.05,30.62,6.42Z"></path><path fill="#1e3865" d="M654.71,101.19s6.48,5.61,8.51,9.77c1.97,4.01,2.55,13.61,.98,17.42,0,0,10.1-17.56,4.39-26.1-6.06-9.05-13.89-1.09-13.89-1.09Z"></path><path fill="#a8ccff" d="M671.78,201.51c-.94,54.8-.27,43.35-6.97,48.55-1.61,1.25-6.15,2-12.12,2.35-18.78,1.11-51.78-1.67-53.03-4.78-4.33-10.75-1.27-14.08-4.87-30.54-.38-1.75-.84-3.64-1.39-5.71-3.01-11.3-5.94-15.15,4.76-33.3,9.7-16.44,19.77-29.78,20.68-29.3,25.57,13.59,27.63,2.18,27.63,2.18,0,0,25.78,23.81,25.32,50.54Z"></path><path fill="#ffa051" d="M737.27,342.84l-19.68,47.34s-5.33,.46-10.44-.86c-4.7-1.22-10.1-4.4-10.1-4.4,0,0,5.48-50.84,15.67-80.02l24.54,37.94Z"></path><path fill="#a8ccff" d="M646.47,150.96s26.31,4,29.4,14.14c3.09,10.14,13.23,71.69,13.23,71.69,0,0-7.42,6.48-13.6,.95-6.18-5.53-19.42-57.59-19.42-57.59l-9.6-29.19Z"></path><path fill="#8eb2f3" d="M652.69,252.41c-18.78,1.11-51.78-1.67-53.03-4.78-4.33-10.75-1.27-14.08-4.87-30.54l9.06-22.82s-1.51,25.42,6.86,32.1c8.36,6.69,34.28,12.92,38.35,18.5,1.96,2.68,3.25,5.37,3.63,7.53Z"></path><path fill="#ffae73" d="M631.19,241.71s18.52-3.69,21.51-2.21c2.99,1.47,10.29,6.83,11.2,8.7,.91,1.86-6.65-1.42-9.11-2.01-1.59-.38-5.79,.92-7.87,1.54-8.74,2.61-14.1,1.26-14.1,1.26l-1.63-7.28Z"></path><path fill="#a8ccff" d="M618.82,148.78s-24.87,1.36-33.49,12.11c-12.13,15.13-36.19,79.6-22.42,88.2,15.51,9.69,70.62,2.56,70.62,2.56,0,0,1.84-7.67-.71-11.38-2.55-3.71-44.01-9.72-45.92-11.43-1.91-1.71,23.93-33.39,23.94-38.53,0-5.14,7.98-41.52,7.98-41.52Z"></path><path fill="#ffae73" d="M653.59,244.11s3.88,4.48,5.15,5.02c1.27,.54,2.09,.4,2.09,.4l-2.61-4.21-4.63-1.21Z"></path><path fill="#ffae73" d="M652.7,239.5l11.28,4.91s-.48,.7-1.87,.65c-1.39-.06-4.89-1.21-4.89-1.21l-4.52-4.35Z"></path></g><g><polygon fill="#1e3865" points="749.05 251.05 631.18 251.02 631.18 253.35 748 253.38 749.05 251.05"></polygon><polygon fill="#1e3865" points="658.74 253.36 748 253.38 774.88 193.63 685.76 193.6 658.74 253.36"></polygon><path fill="#fff" d="M725.48,223.49c.67-2.1-.68-3.8-3.03-3.8-2.35,0-4.8,1.7-5.47,3.8-.67,2.1,.68,3.8,3.03,3.8,2.35,0,4.8-1.7,5.47-3.8Z"></path></g></g><rect fill="#ff912b" ry="5.23" rx="5.23" height="13.16" width="173.31" y="594.28" x="497.26"></rect><g><path fill="#6b98f6" d="M581.8,652.69h-79.52c-2.77,0-5.02-2.01-5.02-4.49h0c0-2.48,2.25-4.49,5.02-4.49h79.52c2.77,0,5.02,2.01,5.02,4.49h0c0,2.48-2.25,4.49-5.02,4.49Z"></path><g><rect fill="#6b98f6" ry="3.57" rx="3.57" height="8.98" width="150.09" y="624.88" x="497.26"></rect><path fill="#6b98f6" d="M664.6,624.88h133.02c1.97,0,3.57,1.6,3.57,3.57v1.84c0,1.97-1.6,3.57-3.57,3.57h-133.02c-1.97,0-3.57-1.6-3.57-3.57v-1.84c0-1.97,1.6-3.57,3.57-3.57Z"></path><path fill="#6b98f6" d="M680.98,652.69h-79.52c-2.77,0-5.02-2.01-5.02-4.49h0c0-2.48,2.25-4.49,5.02-4.49h79.52c2.77,0,5.02,2.01,5.02,4.49h0c0,2.48-2.25,4.49-5.02,4.49Z"></path></g></g><rect fill="#ff912b" ry="5.23" rx="5.23" height="13.16" width="173.31" y="594.28" x="693.51"></rect><rect fill="#ff912b" ry="5.23" rx="5.23" height="13.16" width="173.31" y="829.92" x="497.26"></rect><g><path fill="#6b98f6" d="M581.8,888.33h-79.52c-2.77,0-5.02-2.01-5.02-4.49h0c0-2.48,2.25-4.49,5.02-4.49h79.52c2.77,0,5.02,2.01,5.02,4.49h0c0,2.48-2.25,4.49-5.02,4.49Z"></path><g><rect fill="#6b98f6" ry="3.57" rx="3.57" height="8.98" width="150.09" y="860.52" x="497.26"></rect><path fill="#6b98f6" d="M664.6,860.52h133.02c1.97,0,3.57,1.6,3.57,3.57v1.84c0,1.97-1.6,3.57-3.57,3.57h-133.02c-1.97,0-3.57-1.6-3.57-3.57v-1.84c0-1.97,1.6-3.57,3.57-3.57Z"></path><path fill="#6b98f6" d="M680.98,888.33h-79.52c-2.77,0-5.02-2.01-5.02-4.49h0c0-2.48,2.25-4.49,5.02-4.49h79.52c2.77,0,5.02,2.01,5.02,4.49h0c0,2.48-2.25,4.49-5.02,4.49Z"></path></g></g><rect fill="#ff912b" ry="5.23" rx="5.23" height="13.16" width="173.31" y="829.92" x="693.51"></rect><rect fill="#ff912b" ry="5.23" rx="5.23" height="13.16" width="173.31" y="712.1" x="497.26"></rect><g><path fill="#6b98f6" d="M581.8,770.51h-79.52c-2.77,0-5.02-2.01-5.02-4.49h0c0-2.48,2.25-4.49,5.02-4.49h79.52c2.77,0,5.02,2.01,5.02,4.49h0c0,2.48-2.25,4.49-5.02,4.49Z"></path><g><rect fill="#6b98f6" ry="3.57" rx="3.57" height="8.98" width="150.09" y="742.7" x="497.26"></rect><path fill="#6b98f6" d="M664.6,742.7h133.02c1.97,0,3.57,1.6,3.57,3.57v1.84c0,1.97-1.6,3.57-3.57,3.57h-133.02c-1.97,0-3.57-1.6-3.57-3.57v-1.84c0-1.97,1.6-3.57,3.57-3.57Z"></path><path fill="#6b98f6" d="M680.98,770.51h-79.52c-2.77,0-5.02-2.01-5.02-4.49h0c0-2.48,2.25-4.49,5.02-4.49h79.52c2.77,0,5.02,2.01,5.02,4.49h0c0,2.48-2.25,4.49-5.02,4.49Z"></path></g></g><rect fill="#ff912b" ry="5.23" rx="5.23" height="13.16" width="173.31" y="712.1" x="693.51"></rect><g><path fill="#ffae73" d="M408.13,661.89s1.82-3.66,2.99-5.39c1.18-1.73,6.21-6.81,7.06-5.66,.86,1.15,4.28,8.88,2.46,11.05-1.82,2.17,.12,5.93-8.93,8.22l-3.59-8.22Z"></path><path fill="#8eb2f3" d="M307.6,638.79s46.31,34.6,64.36,31.39c14.12-2.5,35.79-9.15,35.79-9.15l4.33,9.92s-19.43,23.59-39.69,23.75c-31.67,.24-55.07-12.27-55.07-12.27l-9.72-43.64Z"></path><path fill="#074a92" d="M226.39,1003.71s1.34,19.41,5.54,19.69c.56,.04,21.28,.04,21.28,.04l26.45-.14s-.17-5.7-7.9-6.91c-7.73-1.21-20.67-6.07-25.36-15.22-4.93-9.62-20.01,2.54-20.01,2.54Z"></path><path fill="#ffa051" d="M224.87,1005.06s8.04,2.41,14.32,2.41c7,0,13.37-1.71,13.37-1.71,0,0,1.51-13.1,9.84-41.97,4.37-15.13,10.6-34.59,19.48-58.77,24.53-66.82,32-105.91,32.68-109.61,.04-.19,.05-.29,.05-.29l-.08-.03-75.43-29.64s9.32,92.09-2.57,127.44c-1.67,4.94-3.09,10.7-4.32,16.93-7.51,38.4-7.34,95.24-7.34,95.24Z"></path><path fill="#ff8a3a" d="M262.39,963.78c4.37-15.13,10.6-34.59,19.48-58.77,24.53-66.82,32-105.91,32.68-109.61,0-.11-.01-.21-.03-.32l-75.43-29.64s9.32,92.09-2.57,127.44c-1.67,4.94,25.87,70.9,25.87,70.9Z"></path><path fill="#074a92" d="M285.3,1003.71s1.34,19.41,5.54,19.69c.56,.04,21.28,.04,21.28,.04l26.45-.14s-.17-5.7-7.9-6.91c-7.73-1.21-20.67-6.07-25.36-15.22-4.93-9.62-20.01,2.54-20.01,2.54Z"></path><path fill="#ffa051" d="M328.07,767.61s.98,59.68-10.56,132.95c-11.54,73.27-7.63,104.37-7.63,104.37,0,0-7.93,2.3-11.12,2.53-8.15,.59-16.5-1.71-16.5-1.71,0,0-16.51-73.3-11.78-109.97,4.73-36.67-22.61-125.85-22.61-125.85l80.2-2.33Z"></path><path fill="#ffae73" d="M274.58,627.96l14.72,8.64,13.41-3.39c2.45-3.13,3.1-9.16,3.14-14.39,.04-5.19-.53-9.58-.53-9.58l-19.86-7.85-7.41-2.92c.02,.1,.58,5.45,.66,6.23,1.38,13.86-4.12,23.27-4.12,23.27Z"></path><path fill="#a8ccff" d="M328.41,784.2c-18.33,15.84-87.68,13.17-91.96-4.28-4.27-17.45,4.66-148.54,35.97-156.78,6.5-1.71,41.23,8.34,41.23,8.34,0,0,5.45,12.76,9.02,29.01,.69,3.16,2.72,36.66,4.23,68,.71,14.66,1.3,28.85,1.61,39.24,.28,9.73,.29,16.12-.1,16.47Z"></path><path fill="#ffa05e" d="M280.19,604.93c4.03,6.1,18.17,11.44,25.66,13.88,.04-5.19-.53-9.58-.53-9.58l-19.86-7.85c-4.39-.05-7.07,.83-5.27,3.55Z"></path><path fill="#ffae73" d="M312.82,608.15s-32.01,8.94-37.92-8.99c-5.91-17.93-14.02-28.85,6.16-35.31,20.19-6.46,26.43-.68,30.03,4.88,3.6,5.55,9.9,36.64,1.73,39.42Z"></path><path fill="#0b3563" d="M309.84,567s-2.04,20.86-6.86,19.95c-4.82-.91-10.13-2.84-9.42,3.45,.71,6.29-4.69,17.07-11.64,17.04-14.91-.05-31.1-34.29-27.02-40.78,11.77-18.73,71.96-22.51,54.94,.34Z"></path><path fill="#8eb2f3" d="M305.13,623.6c-.41-.16-23.83-9.56-26.57-8.75-2.74,.81-6.15,8.3-6.15,8.3l41.23,8.34s-3.25-5.91-8.51-7.89Z"></path><g><path fill="#0b4d87" d="M450.9,725.13l-131.25,110.61c-2.57,2.17-5.82,2.86-7.21,1.53l-4.43-4.21c-1.39-1.32-.43-4.18,2.15-6.35l131.25-110.61c2.57-2.17,5.82-2.86,7.21-1.54l4.43,4.21c1.39,1.32,.43,4.18-2.15,6.35Z"></path><path fill="#6b98f6" d="M377.24,787.2l-57.6,48.54c-2.57,2.17-5.82,2.86-7.21,1.53l-4.43-4.21c-1.39-1.32-.43-4.18,2.15-6.35l57.6-48.54,9.49,9.03Z"></path><path fill="#0b4d87" d="M420.73,683.36c5.04,14.86,14.37,28.78,27.92,40.19,41.38,34.84,106.49,33.06,145.42-3.97,38.42-36.55,36.99-93.77-2.83-128.76-.53-.47-1.07-.94-1.62-1.39-41.37-34.84-106.48-33.08-145.4,3.96-26.19,24.91-33.87,59.43-23.49,89.96Zm29.4-84.98c22.65-21.56,54.94-30.15,85.25-25.45,17.67,2.74,34.65,9.98,48.68,21.79,38.11,32.09,39.94,85.76,4.08,119.88-13.2,12.56-29.66,20.71-47.1,24.41-29.94,6.34-62.75-.46-86.83-20.75-38.11-32.09-39.95-85.76-4.08-119.88Z"></path><g opacity=".5"><path fill="#accefc" d="M588.15,714.61c-13.2,12.56-29.67,20.71-47.1,24.41-29.94,6.34-62.75-.47-86.84-20.75-38.11-32.09-39.94-85.77-4.08-119.88,22.66-21.55,54.94-30.14,85.25-25.45,17.67,2.73,34.66,9.98,48.68,21.79,38.11,32.09,39.94,85.77,4.08,119.88Z"></path></g></g><path fill="#8eb2f3" d="M328.51,767.73c-72.32-46.13-66.31-107.68-66.31-107.68,26.43,13.34,52.66,42.85,64.7,68.44,.71,14.66,1.3,28.85,1.61,39.24Z"></path><g><path fill="#ffae73" d="M399.89,746.73c5.1-1.05,8.52-4.5,9.24-5.11,0,0,2.17,.13-.36,4.29-.21,.35-.68,1.24-1.04,1.87-.15,.26,.06,.56,.38,.58,2.94,.2,5.9-.84,11.57,.22,.78,.15,1.01,1.82,.98,2.54-.05,1.21,.05,2.57-1.52,4.42-.91,1.08-3.46,2.24-9.14,4.28-2.16,.78-8.35,.19-14.14-1.59l-4.63-1.92,1.44-7.7,1.16,.22c1.85,.35,4.13-1.67,6.06-2.09Z"></path><path fill="#a8ccff" d="M284.65,631.49s-64.98,11.07,19.12,95.3c13.45,13.47,86.12,31.01,86.12,31.01,0,0,7.37-5.61,3.65-10.16,0,0-50.03-32.52-61.04-37.69-4.95-2.33-19.22-51.91-27.29-63.85-8.07-11.94-20.55-14.62-20.55-14.62Z"></path></g><path fill="#ffae73" d="M409.89,662.91s2.13-3.64,2.54-5.55c.41-1.92,3.09-7.51,4.19-8.5,.44-.39,1.9,.12,2.07,1.81,.07,.74-.33,2.08-1.04,3.68-1.16,2.6-.97,6.13-1.38,7.31-1.01,2.93-6.38,1.25-6.38,1.25Z"></path></g><g><polygon fill="#1e3865" points="1278.73 551.89 1241.94 559.55 1223.75 589.18 1209.86 521.66 1278.73 551.89"></polygon><polygon fill="#1e3865" points="1263.43 580.81 1258.07 584.44 1234.57 556.69 1239.93 553.05 1263.43 580.81"></polygon></g><g><g><g><path fill="#73b471" d="M1157.43,863.97s15.21-15.98,.85-26.07c0,0-10.48-5.64-19.01-5.16,0,0,12.15,18.11,8.25,19.93-3.9,1.82-11.92-21.05-11.92-21.05,0,0-23.82-2-31.47,1.32,0,0,20.41,14.85,16.12,15.75-4.28,.9-26.32-13.67-26.32-13.67,0,0-22.15,3.44-20.93,15.54,1.22,12.1,8.87,15.81,12.23,15.48,3.36-.33,22.97-7.1,23.4-4.64,.44,2.46-11.35,10.54-19.63,10.94,0,0,15.68,15.38,26.05,10.9,10.37-4.48,11.23-11.54,17.69-14.2,6.46-2.66,11.99-2.67,9.33,.03-2.66,2.71-14.37,5.36-18.05,11.23-3.68,5.87-6.99,9.83,3.75,8.36,10.74-1.48,28.18-8.56,28.92-16.62l.74-8.06Z"></path><g><path fill="#73b471" d="M1083.89,850.85s60.19-2.25,73.53,13.12c0,0,2.97,7.87,12.04,15.02l1.42,3.44s-10.47-9.81-14.2-10.4c0,0,5.77-19.11-72.8-21.18Z"></path><path fill="#73b471" d="M1169.47,878.99s12.95,8.52,13.9,23.79l-2.34,.19s-4.18-15.79-11.66-21.95c-7.48-6.16,.1-2.04,.1-2.04Z"></path></g></g><g><path fill="#9bd399" d="M1238.13,821.81s-24.33-12.1-13.05-28.66c0,0,9.03-10.17,18.74-12.81,0,0-5.09,24.65,.09,25.21,5.18,.57,3.46-27.83,3.46-27.83,0,0,25.54-11.09,35.58-10.24,0,0-15.78,24.1-10.6,23.51,5.18-.59,22.9-24.99,22.9-24.99,0,0,26.21-4.42,30.47,9.48,4.26,13.9-2.52,20.87-6.4,21.75-3.88,.88-28.82,.66-28.16,3.56,.66,2.9,17.51,7.49,26.89,4.85,0,0-10.28,22.92-23.88,21.8-13.6-1.12-17.84-8.64-26.26-9.2-8.42-.56-14.57,1.49-10.35,3.51,4.22,2.02,18.46,.61,25.28,5.77,6.82,5.15,12.33,8.33-.29,10.68-12.62,2.35-35.29,.97-39.85-7.71l-4.56-8.68Z"></path><g><path fill="#73b471" d="M1313.75,779.86s-67.93,19.9-75.62,41.95c0,0,.36,9.85-6.4,21.18l.02,4.35s7.07-14.8,10.95-16.84c0,0-15.29-19.09,71.06-50.63Z"></path><path fill="#73b471" d="M1231.73,842.98s-10.44,14.28-4.4,31.62l2.7-.66s-2.69-19.1,2.77-28.73c5.45-9.63-1.07-2.23-1.07-2.23Z"></path></g></g><g><path fill="#9bd399" d="M1199.44,805.13s31.95-16.14,16.94-37.87c0,0-12-13.34-24.82-16.74,0,0,6.94,32.45,.12,33.24-6.83,.78-4.83-36.66-4.83-36.66,0,0-33.77-14.42-47-13.24,0,0,21.03,31.65,14.19,30.9-6.83-.75-30.42-32.77-30.42-32.77,0,0-34.59-5.63-40.08,12.72-5.48,18.35,3.51,27.5,8.64,28.63,5.13,1.13,37.99,.66,37.15,4.48-.84,3.82-23.01,10-35.4,6.6,0,0,13.77,30.14,31.69,28.56,17.92-1.58,23.43-11.53,34.53-12.32,11.09-.79,19.21,1.86,13.67,4.55-5.54,2.69-24.33,.95-33.27,7.79-8.94,6.85-16.18,11.07,.48,14.08,16.66,3.01,46.53,1.01,52.46-10.46l5.94-11.48Z"></path><g><path fill="#73b471" d="M1099.37,750.4s89.73,25.72,100.07,54.73c0,0-.38,12.99,8.63,27.86l.02,5.73s-9.46-19.46-14.59-22.12c0,0,19.97-25.27-94.14-66.21Z"></path><path fill="#73b471" d="M1208.07,832.99s13.89,18.75,6.09,41.64l-3.56-.84s3.36-25.2-3.91-37.85c-7.28-12.65,1.38-2.95,1.38-2.95Z"></path></g></g></g><g><path fill="#ffa051" d="M1455.73,1024.89h-328.08c-45.74-46.83-33.66-110.1,27.05-163.46,7.63-6.71,22.28-11.47,38.07-14.83,29.1-6.19,62.11-7.61,62.37-7.73,.1-.03,17.44-12.62,27.88-23.93,32.43-35.13,60.01-32.12,60.01-32.12,33.05-5.76,61.24-7.45,82.14,2.97t0,.01c19.36,9.66,32.47,29.72,37.37,66.58,.93,6.97,1.57,14.54,1.9,22.76,1.2,29.91,7.79,56.52,11.7,79.05,0,0,0,0,0,0,5.67,32.64,9.67,57.46-20.41,70.69Z"></path><path fill="#ff8a3a" d="M1408.79,823.37c-20.05,9.78-22.27,41.99-53.66,50.3-31.39,8.32-84.67,7.56-114.89,36.9-29.16,28.31-61.31-43.71-47.47-63.97,29.1-6.19,62.11-7.61,62.37-7.73,.1-.03,17.44-12.62,27.88-23.93,32.43-35.13,60.01-32.12,60.01-32.12,33.05-5.76,61.24-7.45,82.14,2.97t0,.01c23.02,21.29,3.67,27.79-16.38,37.57Z"></path><g><path fill="#fddbba" d="M1191.73,962.63s5.78,13.71,4.58,18.81c-1.2,5.09,.8,14.96-1.51,19.38-2.31,4.42-6.45,10.85-2.45,12.46,1.52,.61,19.1-11.67,20.09-15.29,1-3.61,1.74-14.27,5.1-20.06,3.35-5.79,.51-10.45-4.37-12.56-4.88-2.11-11.72-13.74-11.72-13.74l-9.71,10.99Z"></path><path fill="#1e3865" d="M1285.69,832.63s-95.99-5.3-108.36,6.09c-13.03,12.01,8.2,130.11,8.2,130.11,0,0,26.03,.67,28.08-5.5,0,0-4.89-57.18-.82-67.07,4.06-9.89,1.49-23.58,1.49-23.58,0,0,50.93,6.81,67.09,3.34,16.15-3.47,4.33-43.39,4.33-43.39Z"></path><path fill="#ffae73" d="M1308.95,769.57c0,.07-14.15,29.55-21.05,32.69-6.9,3.14-31.88,28.85-37.24,28.41-5.36-.45,5.53,5.25,5.53,5.25,0,0,44.41-19.39,46.95-20.52,2.54-1.13,15.91-20.83,17.74-30.83,1.83-10-11.93-15-11.93-15Z"></path><path fill="#fddbba" d="M1174.01,985.26s-5.47,13.81-10.06,17.01c-4.59,3.2-10.17,11.89-15.13,13.93-4.95,2.04-12.75,4.56-10.86,8.11,.72,1.34,23,2.11,26.37-.07,3.37-2.18,11.62-9.89,18.35-12.38,6.74-2.49,7.92-7.69,5.71-12.12-2.21-4.43,.95-17.26,.95-17.26l-15.34,2.79Z"></path><path fill="#0b3563" d="M1337.86,756.47c-2.05-2.12,49.93,3.11,56.85,26.88,0,0,39.93-28.17,3.3-51.91-12.68-8.22-13.96-16.99-15.8-25.02-1.84-8.03-14.49-31.1-36.44-19.64,0,0-10.03,.04-16.37,4.97-14.43,11.2-30.17,82.34,8.46,64.72Z"></path><path fill="#214d9a" d="M1327.74,836.8s-104.36,9.53-113.53,19.07c-9.17,9.54-45.17,133.54-45.17,133.54,0,0,10.65,5.31,20.33,.34,0,0,27.6-42.07,39.81-55.28,12.21-13.21,16.77-53.98,18.78-54.39,2.02-.42,67.42,8.15,89.94-7.33,22.52-15.48-10.16-35.94-10.16-35.94Z"></path><path fill="#fddbba" d="M1385.83,752.02s-24.9-9.95-56.46-5.38c-6.45,.93-12.26,2.83-16.87,9.63-6.51,9.61-9.56,14.77-9.56,14.77,0,0,.63,4.45,9.53,7.99-2.42,7.97,2.22,21.88-2.05,27.28-4.27,5.4-30.79,18.79-32.1,26.24-2.4,13.68,45.34,38.46,59.57,35.81,40.96-7.63,68.74-105.87,47.94-116.34Z"></path><path fill="#0b3563" d="M1371.73,723.84s4.91-8.64,5.55-15.74c.46-5.06-4.32-23.28-24.76-18.87,0,0-5.96,1.04-11.26,4.94-4.21,3.1-10.08,9.52-1.12,25.01l2.46,5.28,29.13-.63Z"></path><g><path fill="#ffae73" d="M1343.72,753c-2.07,1.95-1.25,8.44,8.42,7.95,6.35-.32,19.96-7.35,18.68-12.21-.61-2.31-5.49-8.26-6.64-21.96l-1.15,.29-19.38,4.88s.94,5.52,1.41,10.74c.4,4.39-.48,9.5-1.34,10.31Z"></path><path fill="#ff9d5d" d="M1343.64,731.95s.94,5.52,1.41,10.74c11-1.06,16.03-10.47,17.97-15.62l-19.38,4.88Z"></path><path fill="#ffae73" d="M1343.23,739.97s25.36-5.72,21.14-19.8c-4.22-14.08-3.79-24.31-20.17-21.25-16.37,3.06-17.9,9.18-17.76,14.19,.13,5.01,10.08,27.99,16.79,26.86Z"></path><path fill="#0b3563" d="M1332.6,701.35s8.52,14.52,24.59,16.08c9.4,.91,11.98,6.46,11.98,6.46,0,0-2.83-15.85-7.56-25.55,0,0-26.17-6.11-29.02,3.01Z"></path><path fill="#0b3563" d="M1335.51,703.27s-5.55,5.08-7.27,8.65c-2.54,5.3,2.42,16.46,4.46,18.86,0,0-11.81-17.92-7.87-25.68,4.18-8.23,10.67-1.83,10.67-1.83Z"></path></g><path fill="#ffae73" d="M1258.2,834.04s-5.05,4.79-5.66,5.05c-3.34,1.4-7.56,.59-9.6,1.05-2.04,.46-1.69-.68-.18-1.6,1.5-.92,5.2-.56,3.69-.9-1.51-.34-9.68-1.7-12.75-.96-4.87,1.17-8.71-.2-9.01-.65-.3-.44,11.11-5.44,14.37-5.28,3.26,.17,12.64-.24,12.64-.24l6.51,3.53Z"></path><path fill="#ffae73" d="M1394.41,760.84s31.48,63.6,22.74,72.94c-8.68,9.27-69.25-1.99-69.25-1.99l1.87-5.91s44.54-2.44,47.72-3.24c4.56-1.16-22.57-45.76-22.57-45.76l19.5-16.04Z"></path><path fill="#fddbba" d="M1382.67,750.97c.76,.02,10.16,2.78,16.92,14.74,6.64,11.75,9.06,17.46,9.06,17.46,0,0-29.42,20.42-41.13,12.91-11.71-7.51,4.36-45.36,15.15-45.11Z"></path><path fill="#ffae73" d="M1354.96,825.59s-5.06-2.94-7.1-4.54c-2.05-1.6-13.89-2.91-13.89-1.84,0,1.07,6.9,2.53,7.66,3.6,.75,1.07,4.97,5.49,8.56,5.48,3.6,0,4.77-2.7,4.77-2.7Z"></path><g><path fill="#104995" d="M1341.15,835.15l-13.58-1.73c-2.03-.26-4.08-1.77-4.59-3.39l-7.5-23.72c-.51-1.61,.72-2.71,2.75-2.45l13.58,1.73c2.03,.26,4.08,1.77,4.59,3.39l7.5,23.72c.51,1.61-.72,2.71-2.75,2.45Z"></path><path fill="#1e3865" d="M1338.32,834.79l-13.58-1.73c-2.03-.26-4.08-1.77-4.59-3.39l-7.5-23.72c-.51-1.61,.72-2.71,2.75-2.45l13.58,1.73c2.03,.26,4.08,1.77,4.59,3.39l7.5,23.72c.51,1.61-.72,2.71-2.75,2.45Z"></path><path fill="#104995" d="M1314.97,806.53c-.21-.67,.3-1.13,1.14-1.02,.84,.11,1.7,.74,1.91,1.41,.21,.67-.3,1.13-1.14,1.02-.84-.11-1.7-.74-1.91-1.41Z"></path></g><path fill="#ffae73" d="M1347.9,831.79s-9.18,.12-11.49-.37c-2.3-.49-8.19-7.02-6.62-8.66,.99-1.03,6.48,.82,9.09,.81,2.61,0,9.41-3.39,14.05,3.53,.52,.78-5.04,4.69-5.04,4.69Z"></path></g><path fill="#ffa051" d="M1387.31,847.43s-9.89,8.29-51.26,9.48c-41.37,1.19-95.31,42.11-95.81,53.67-.5,11.55,83.3,29.11,84.6,27.45,1.3-1.65,53.14-41.52,53.14-41.52l9.33-49.08Z"></path><path fill="#ff8a3a" d="M1476.14,954.19c-46.03-51.42-140.58,18.68-165.05,16.7-22.5-1.82,43.87-72.11,126.17-82.56,33.27-4.23,25.3-35,25.28-35.95,.93,6.97,1.57,14.54,1.9,22.76,1.2,29.91,7.79,56.52,11.7,79.05Z"></path></g></g><path fill="#2d3554" d="M1596.4,1028l-1569.25-.48c-1.05,0-1.91-.77-1.91-1.71v-.88c0-.94,.86-1.71,1.91-1.71l1569.25,.48c1.05,0,1.91,.77,1.91,1.71v.88c0,.94-.86,1.71-1.91,1.71Z"></path><g><polygon fill="#8eb2f3" points="948.17 246.14 1037.8 262.74 980.33 222.78 976.46 234.34 954.22 236.68 948.17 246.14"></polygon><polygon fill="#fddbba" points="1037.8 262.74 964.96 223.81 891.43 216.37 1037.8 262.74"></polygon><polygon fill="#fddbba" points="980.33 222.78 1037.8 262.74 995.33 202.93 980.33 222.78"></polygon></g><g><polygon fill="#8eb2f3" points="384.93 471.92 295.29 488.52 352.76 448.56 356.63 460.12 378.87 462.46 384.93 471.92"></polygon><polygon fill="#fddbba" points="295.29 488.52 368.13 449.59 441.66 442.15 295.29 488.52"></polygon><polygon fill="#fddbba" points="352.76 448.56 295.29 488.52 337.76 428.71 352.76 448.56"></polygon></g><g><path fill="#6b98f6" d="M598.39,495.24h6.03v6.15h-6.03v-6.15Z"></path><path fill="#6b98f6" d="M610.58,495.24h6.03v6.15h-6.03v-6.15Z"></path><path fill="#6b98f6" d="M622.78,495.24h6.03v6.15h-6.03v-6.15Z"></path><path fill="#6b98f6" d="M634.97,495.24h6.03v6.15h-6.03v-6.15Z"></path><g><path fill="#6b98f6" d="M527.11,487.05v9.35c0,2.1-.34,3.27-1.52,3.98-1.14,.75-2.77,.94-5.12,.9-.15-1.16-.64-3.04-1.21-4.28,1.29,.04,2.54,.04,3,.04s.61-.15,.61-.64v-7.88l-3.37,1.16-1.1-4.28c1.29-.3,2.81-.75,4.47-1.28v-6.61h-4.06v-4.13h4.06v-7.06h4.25v7.06h3.3v4.13h-3.3v5.22l3-.98,.72,3.94-3.72,1.35Zm25.33,.68c-1.4,3.38-3.53,5.97-6.26,8,2.46,.83,5.16,1.5,8.08,1.91-.87,.86-2.01,2.52-2.58,3.57-3.49-.64-6.75-1.65-9.67-3.04-3.3,1.54-7.09,2.55-11.18,3.23-.3-1.05-1.18-2.67-1.86-3.57,3.22-.41,6.29-1.05,9.02-2.03-2.01-1.46-3.75-3.12-5.12-5.03l1.02-.41h-2.16v-3.68h8.19v-2.78h-8.08v-13.67h.04c2.08-.71,4.4-1.88,5.76-2.93l2.27,2.22v-3.23h3.98v14.12h4.51v-2.37h-3.3v-3.15h3.3v-2.37h-3.41v-3.53h7.43v14.91h-8.53v2.78h5.16l.76-.15,2.62,1.2Zm-12.51-7.32v-9.72c-1.33,.64-2.73,1.2-4.17,1.65v2.55h2.88v3.15h-2.88v2.37h4.17Zm-2.58,9.95c1.21,1.35,2.84,2.52,4.7,3.53,1.71-.98,3.15-2.14,4.25-3.53h-8.95Z"></path><path fill="#6b98f6" d="M569.42,494.56c-2.46,2.33-6.18,4.77-9.14,6.31-.8-.83-2.39-2.29-3.37-3,3-1.24,6.41-3.12,8.42-4.99l4.09,1.69Zm7.66-2.93v5.18c0,2.03-.42,3.12-2.05,3.75-1.59,.64-3.72,.68-6.45,.68-.23-1.24-.95-2.97-1.55-4.09,1.97,.07,4.25,.11,4.89,.07,.64-.04,.8-.15,.8-.56v-4.73c-9.82,.68-11.49,.9-12.74,1.31-.15-.71-.68-2.63-1.06-3.6,1.44-.19,2.92-.68,5.12-1.54,.87-.34,2.54-.98,4.55-1.88-4.28,.3-5.23,.45-5.84,.68-.15-.75-.76-2.55-1.14-3.57,.87-.11,1.71-.49,2.84-1.09,.87-.45,3.37-1.69,5.65-3.23h-8.61v4.05h-4.28v-7.77h14.6v-2.25h-13.76v-3.83h13.76v-2.93h4.78v2.93h13.72v3.83h-13.72v2.25h14.6v7.77h-4.47v-4.05h-12.21l.83,.71c-1.97,1.35-4.28,2.59-6.63,3.72l6.22-.23c2.01-1.05,3.94-2.14,5.61-3.27l3.11,2.59c-4.17,2.44-8.76,4.58-13.31,6.38l11.79-.64c-.76-.71-1.52-1.39-2.2-1.99l3.18-1.95c2.58,2.18,5.99,5.29,7.66,7.4l-3.41,2.22c-.57-.83-1.44-1.76-2.43-2.82l-7.85,.49Zm5.04,1.01c2.88,1.5,7.01,3.91,9.21,5.59l-3.72,2.52c-1.9-1.65-5.91-4.24-8.95-5.93l3.45-2.18Z"></path></g></g><g><path fill="#d3e4ff" d="M930.14,702.56c0-2.27,2.05-4.11,4.59-4.11s4.59,1.84,4.59,4.11-2.05,4.11-4.59,4.11-4.59-1.84-4.59-4.11Z"></path><path fill="#d3e4ff" d="M1143.5,703.67h-207.54c-.68,0-1.24-.5-1.24-1.11h0c0-.61,.55-1.11,1.24-1.11h207.54c.68,0,1.24,.5,1.24,1.11h0c0,.61-.55,1.11-1.24,1.11Z"></path></g></g></g></g></svg>