<svg viewBox="0 0 1620 1028" xmlns="http://www.w3.org/2000/svg"><g id="a"></g><g id="b"><g id="c"><g><path fill="#e8f2fa" d="M1525.93,1026.28c-92.59,0-1441.43,.34-1442.21-2.12l-.13-.31s-.13-.3-.13-.45c-.52-1.23-207.83-345.64,114.46-585.4,126.1-93.81-7.89-155.74,92.38-260.18,115.24-120.01,241.01,12.75,369.16-41.67,22.64-9.61,45.36-25.07,68.11-48.8,12.8-13.34,26.83-25.01,41.85-35.09,2.3-1.55,4.63-3.06,6.98-4.54,8.99-5.63,18.32-10.72,27.93-15.3,6.45-3.07,13.02-5.91,19.72-8.52h0c10.63-4.15,21.54-7.72,32.69-10.75,15.83-4.3,32.13-7.49,48.75-9.66,7.25-.95,14.56-1.69,21.92-2.26,143.19-10.87,304.32,50.27,387.48,139.62,16.74,17.99,92.87,111.1,32.86,239.06-37.89,80.79,120.84,157.96,177.25,250.22,143.41,234.57,2.23,393.06,.93,396.12Z"></path><g><path fill="#73b471" d="M404.7,872.39s8.15-53.34-26.59-59.29c0,0-23.51-.49-37.19,10.46,0,0,39.69,26.45,35.14,35.03-4.55,8.58-42.45-33.31-42.45-33.31,0,0-41.79,23.07-50.96,39.34,0,0,49.93,9.62,43.76,16.58-6.16,6.97-58.5-.14-58.5-.14,0,0-33.17,33.31-18.14,58.95,15.03,25.64,31.76,25.1,36.99,20.48,5.23-4.62,30.6-42.43,33.97-37.43,3.37,5-7.58,36.7-20.92,47.16,0,0,42.62,16.26,55.06-5.75,12.45-22.01,6.3-38.8,14.19-52.23,7.9-13.43,17.08-19.85,15.56-10.71-1.52,9.13-18.16,28.61-17.98,46,.18,17.39-1.07,30.08,15.22,14.35,16.29-15.72,37.7-51.74,30.27-70.62l-7.43-18.88Z"></path><g><path fill="#73b471" d="M268.21,928.08s97.77-74.63,136.49-55.69c0,0,13.4,14.18,36.18,19.68l6.06,6.04s-27.96-9.85-34.81-6.84c0,0-10.92-49.4-143.92,36.81Z"></path><path fill="#73b471" d="M440.88,892.07s30.7,4.07,48.7,37.14l-3.69,3.15s-23.92-30.48-42.99-35.6c-19.07-5.12-2.02-4.69-2.02-4.69Z"></path></g></g><path opacity=".5" fill="#a9c2ff" d="M439.18,304.12s-2.39,68.1-12.9,66.79c-10.51-1.32,7.21-75.65,7.21-75.65,0,0-44.79-43.25-65.02-46.48,0,0,18.97,72.45,9.06,68.06-9.92-4.39-32.57-78.67-32.57-78.67,0,0-49.48-25.95-64.89,8.57-15.41,34.53-5.57,56.7,1.65,61.14,7.21,4.44,56.51,17.4,53.75,24.72-2.76,7.32-38.32,10.33-55.5-1.75,0,0,8.71,66.35,36.11,70.77,27.4,4.42,39.55-13.23,56.44-10.13,16.89,3.1,27.98,11.86,18.65,14.92-9.33,3.06-36.72-8.4-52.77,1.56-16.05,9.96-28.53,15.37-4.82,28.47,23.71,13.09,69.13,21.73,82.51,1.2,.58-.89,1.14-1.75,1.67-2.57-.91,1.75-1.67,2.57-1.67,2.57,3.97,4.5,7.89,21.79,10.39,34.91,.29,2.2,.84,5.27,1.71,9.49h0c.32,1.88,.57,3.42,.74,4.5,3.68,28.86-9.78,73.15-9.78,73.15l4.99,3.2c20.66-42.66,7.28-86.19,7.28-86.19-7.62-33.68-1.94-59.6-1.94-59.6,0,0,54.09-18.87,40.2-68.87,0,0-12.68-31.86-30.5-44.12Z"></path><path opacity=".5" fill="#85abf9" d="M1303.73,664.63s-80.15,38.34-73.29,55.83c6.85,17.5,86.75-50.46,86.75-50.46,0,0,74.17,55.66,88.18,89,0,0-96.07,3.62-85.85,18.54,10.22,14.93,110.34,16.75,110.34,16.75,0,0,55.86,72.45,22.35,116.42-33.5,43.98-64.93,38.1-73.86,27.87-8.93-10.23-49.17-88.9-56.53-80.45-7.36,8.44,6.91,71.4,29.96,95.01,0,0-83.63,18.27-102.67-26.85-19.04-45.12-4.07-74.98-16.26-102.61-12.19-27.63-28.22-42.39-27.18-24.72,1.04,17.66,28.48,59.23,24.65,91.96-3.84,32.74-4.03,57.02-31.58,22.64-27.55-34.38-60.69-108.52-42.88-141.96,.78-1.46,1.52-2.85,2.23-4.18-1.64,2.45-2.23,4.18-2.23,4.18-7.37-4.6-29.99-2.69-46.92-.42-2.77,.6-6.72,1.21-12.19,1.82h0c-2.41,.39-4.38,.74-5.74,.98-36.31,8.15-82.47,53.64-82.47,53.64l-6.33-7.01c40.58-57.13,99.29-55.87,99.29-55.87,44.06-3.75,72.17-26.58,72.17-26.58,0,0-4.63-102.95,62.06-104.06,0,0,44.43,5.91,68.02,30.53Z"></path><path fill="#6d76ff" d="M440.88,1022.97h627.47l57.01-825.83-662.85,.73c-5.75,0-31.43-.73-32.86,27.51l-25.79,734.96c-1,34.1,15.87,62.63,37.02,62.63Z"></path><g opacity=".5"><path opacity=".5" fill="#a9c2ff" d="M897.7,256.95s11.68-117.69,61.82-187.92c6.66-9.33,19.42-3.39,19.2,8.91,0,.2,0,.41-.01,.62-.65,20.99-56.79,109.55-81.01,178.39Z"></path><path opacity=".5" fill="#a9c2ff" d="M891.61,290.64s49.96-147.1,135.31-212.16c5.2-3.97,12.25-2.53,15.74,3.58,2.27,3.98,3.29,10.19,.74,19.89-6.8,25.87-101.98,112.96-151.79,188.68Z"></path></g><g><path fill="#9bd399" d="M385.44,747.79s61.54-41.45,32.82-97.69c0,0-22.97-34.54-47.59-43.42,0,0,13.13,83.88,0,85.85-13.13,1.97-9.03-94.73-9.03-94.73,0,0-64.82-37.5-90.25-34.54,0,0,40.2,81.91,27.08,79.93-13.13-1.97-58.25-84.87-58.25-84.87,0,0-66.46-14.8-77.13,32.56-10.67,47.37,6.56,71.05,16.41,74.01,9.85,2.96,73.02,1.97,71.38,11.84s-44.31,25.66-68.1,16.78c0,0,26.26,77.96,60.72,74.01,34.46-3.95,45.13-29.6,66.46-31.58,21.33-1.97,36.92,4.93,26.26,11.84-10.67,6.91-46.77,2.26-64,19.88-17.23,17.62-31.18,28.47,.82,36.37,32,7.89,89.43,2.96,100.92-26.64l11.49-29.6Z"></path><g><path fill="#73b471" d="M193.45,605.69s172.3,67.1,191.99,142.1c0,0-.82,33.55,16.41,72.04v14.8s-18.05-50.33-27.9-57.23c0,0,38.56-65.13-180.51-171.71Z"></path><path fill="#73b471" d="M401.85,819.83s26.57,48.53,11.42,107.61l-6.84-2.21s6.64-65.07-7.27-97.79c-13.9-32.72,2.68-7.6,2.68-7.6Z"></path></g></g><path fill="#c8daff" d="M1239.05,1022.47l-666.22,.74c-12.44,0-23.45-13.75-25.69-32.1l-75.34-617.12-4.6-37.66-11.86-97.16c-2.68-21.91,8.08-41.27,22.93-41.3l666.22-.73c12.44-.01,23.45,13.74,25.69,32.1l13.07,107.09,4.5,36.87,74.22,607.96c2.68,21.91-8.08,41.28-22.93,41.3Z"></path><path fill="#6b98f6" d="M1183.27,336.33H467.2l-11.86-97.16c-2.68-21.91,8.08-41.27,22.93-41.3l666.22-.73c12.44-.01,23.45,13.74,25.69,32.1l13.07,107.09Z"></path><path opacity=".3" fill="#6b98f6" d="M697.27,894.55h-73.27c-6.14,0-11.89-5.99-12.85-13.37l-11.39-88.13c-.95-7.38,3.25-13.37,9.39-13.37h73.27c6.14,0,11.89,5.99,12.85,13.37l11.39,88.13c.95,7.38-3.25,13.37-9.39,13.37Z"></path><path opacity=".3" fill="#6b98f6" d="M820.15,894.55h-73.27c-6.14,0-11.89-5.99-12.85-13.37l-11.39-88.13c-.95-7.38,3.25-13.37,9.39-13.37h73.27c6.14,0,11.89,5.99,12.85,13.37l11.39,88.13c.95,7.38-3.25,13.37-9.39,13.37Z"></path><path opacity=".3" fill="#6b98f6" d="M676.19,729.12h-73.27c-6.14,0-11.89-5.99-12.85-13.37l-11.39-88.13c-.95-7.38,3.25-13.37,9.39-13.37h73.27c6.14,0,11.89,5.99,12.85,13.37l11.39,88.13c.95,7.38-3.25,13.37-9.39,13.37Z"></path><polygon fill="#ff7536" points="641.3 652.7 663.59 656.28 650.57 674.4 658.11 699.83 636.86 687.93 619.22 700.07 619.11 674.59 600.68 656.66 621.86 652.81 628.1 629.6 641.3 652.7"></polygon><path opacity=".3" fill="#6b98f6" d="M1146.62,568.42h-73.27c-6.14,0-11.89-5.99-12.85-13.37l-11.39-88.13c-.95-7.38,3.25-13.37,9.39-13.37h73.27c6.14,0,11.89,5.99,12.85,13.37l11.39,88.13c.95,7.38-3.25,13.37-9.39,13.37Z"></path><polygon fill="#6d76ff" points="622.16 868.62 638.98 816.93 661.13 845.66 668.4 834.15 692.42 868.56 622.16 868.62"></polygon><path fill="#6d76ff" d="M649.51,809.5c-.6-4.1,1.74-7.42,5.23-7.42,3.49,0,6.8,3.31,7.4,7.41,.6,4.1-1.74,7.42-5.23,7.42-3.49,0-6.8-3.31-7.4-7.41Z"></path><path opacity=".3" fill="#6b98f6" d="M943.02,894.55h-73.27c-6.14,0-11.89-5.99-12.85-13.37l-11.39-88.13c-.95-7.38,3.25-13.37,9.39-13.37h73.27c6.14,0,11.89,5.99,12.85,13.37l11.39,88.13c.95,7.38-3.25,13.37-9.39,13.37Z"></path><g><polygon fill="#6d76ff" points="868.32 868.62 885.15 816.93 907.29 845.66 914.56 834.15 938.59 868.56 868.32 868.62"></polygon><path fill="#6d76ff" d="M895.68,809.5c-.6-4.1,1.74-7.42,5.23-7.42,3.49,0,6.8,3.31,7.4,7.41,.6,4.1-1.74,7.42-5.23,7.42-3.49,0-6.8-3.31-7.4-7.41Z"></path></g><path opacity=".3" fill="#6b98f6" d="M1044.82,729.12h-73.27c-6.14,0-11.89-5.99-12.85-13.37l-11.39-88.13c-.95-7.38,3.25-13.37,9.39-13.37h73.27c6.14,0,11.89,5.99,12.85,13.37l11.39,88.13c.95,7.38-3.25,13.37-9.39,13.37Z"></path><g><polygon fill="#6d76ff" points="966.76 698.1 983.58 646.41 1005.73 675.14 1013 663.63 1037.02 698.04 966.76 698.1"></polygon><path fill="#6d76ff" d="M994.12,638.98c-.6-4.1,1.74-7.42,5.23-7.42,3.49,0,6.8,3.31,7.4,7.41,.6,4.1-1.74,7.42-5.23,7.42-3.49,0-6.8-3.31-7.4-7.41Z"></path></g><path opacity=".3" fill="#6b98f6" d="M777.99,568.42h-73.27c-6.14,0-11.89-5.99-12.85-13.37l-11.39-88.13c-.95-7.38,3.25-13.37,9.39-13.37h73.27c6.14,0,11.89,5.99,12.85,13.37l11.39,88.13c.95,7.38-3.25,13.37-9.39,13.37Z"></path><polygon fill="#ff7536" points="710.45 476.94 720.44 545.04 759.5 510.95 710.45 476.94"></polygon><path fill="#ff7536" d="M921.94,729.12h-73.27c-6.14,0-11.89-5.99-12.85-13.37l-11.39-88.13c-.95-7.38,3.25-13.37,9.39-13.37h73.27c6.14,0,11.89,5.99,12.85,13.37l11.39,88.13c.95,7.38-3.25,13.37-9.39,13.37Z"></path><polygon fill="#ffe4bc" points="856.81 637.63 866.79 705.73 905.86 671.64 856.81 637.63"></polygon><path opacity=".3" fill="#6b98f6" d="M1167.69,729.12h-73.27c-6.14,0-11.89-5.99-12.85-13.37l-11.39-88.13c-.95-7.38,3.25-13.37,9.39-13.37h73.27c6.14,0,11.89,5.99,12.85,13.37l11.39,88.13c.95,7.38-3.25,13.37-9.39,13.37Z"></path><path opacity=".3" fill="#6b98f6" d="M1065.9,894.55h-73.27c-6.14,0-11.89-5.99-12.85-13.37l-11.39-88.13c-.95-7.38,3.25-13.37,9.39-13.37h73.27c6.14,0,11.89,5.99,12.85,13.37l11.39,88.13c.95,7.38-3.25,13.37-9.39,13.37Z"></path><path opacity=".3" fill="#6b98f6" d="M900.87,568.42h-73.27c-6.14,0-11.89-5.99-12.85-13.37l-11.39-88.13c-.95-7.38,3.25-13.37,9.39-13.37h73.27c6.14,0,11.89,5.99,12.85,13.37l11.39,88.13c.95,7.38-3.25,13.37-9.39,13.37Z"></path><g><path fill="#6d76ff" d="M879.24,495.12l-48.79,.05c-.96,0-1.78-.83-1.95-1.97h0c-.21-1.46,.72-2.79,1.95-2.79l48.79-.05c.96,0,1.78,.83,1.95,1.97h0c.21,1.46-.72,2.79-1.95,2.79Z"></path><path fill="#6d76ff" d="M881.21,508.54l-48.79,.05c-.96,0-1.78-.83-1.95-1.97h0c-.21-1.46,.72-2.79,1.95-2.79l48.79-.05c.96,0,1.78,.83,1.95,1.97h0c.21,1.46-.72,2.79-1.95,2.79Z"></path><path fill="#6d76ff" d="M883.18,521.97l-48.79,.05c-.96,0-1.78-.83-1.95-1.97h0c-.21-1.46,.72-2.79,1.95-2.79l48.79-.05c.96,0,1.78,.83,1.95,1.97h0c.21,1.46-.72,2.79-1.95,2.79Z"></path></g><g><path fill="#6d76ff" d="M1146.06,655.81l-48.79,.05c-.96,0-1.78-.83-1.95-1.97h0c-.21-1.46,.72-2.79,1.95-2.79l48.79-.05c.96,0,1.78,.83,1.95,1.97h0c.21,1.46-.72,2.79-1.95,2.79Z"></path><path fill="#6d76ff" d="M1148.03,669.23l-48.79,.05c-.96,0-1.78-.83-1.95-1.97h0c-.21-1.46,.72-2.79,1.95-2.79l48.79-.05c.96,0,1.78,.83,1.95,1.97h0c.21,1.46-.72,2.79-1.95,2.79Z"></path><path fill="#6d76ff" d="M1150,682.66l-48.79,.05c-.96,0-1.78-.83-1.95-1.97h0c-.21-1.46,.72-2.79,1.95-2.79l48.79-.05c.96,0,1.78,.83,1.95,1.97h0c.21,1.46-.72,2.79-1.95,2.79Z"></path></g><g><path fill="#6d76ff" d="M798.52,826.05l-48.79,.05c-.96,0-1.78-.83-1.95-1.97h0c-.21-1.46,.72-2.79,1.95-2.79l48.79-.05c.96,0,1.78,.83,1.95,1.97h0c.21,1.46-.72,2.79-1.95,2.79Z"></path><path fill="#6d76ff" d="M800.48,839.47l-48.79,.05c-.96,0-1.78-.83-1.95-1.97h0c-.21-1.46,.72-2.79,1.95-2.79l48.79-.05c.96,0,1.78,.83,1.95,1.97h0c.21,1.46-.72,2.79-1.95,2.79Z"></path><path fill="#6d76ff" d="M802.45,852.9l-48.79,.05c-.96,0-1.78-.83-1.95-1.97h0c-.21-1.46,.72-2.79,1.95-2.79l48.79-.05c.96,0,1.78,.83,1.95,1.97h0c.21,1.46-.72,2.79-1.95,2.79Z"></path></g><g><path fill="#6d76ff" d="M1044.27,826.05l-48.79,.05c-.96,0-1.78-.83-1.95-1.97h0c-.21-1.46,.72-2.79,1.95-2.79l48.79-.05c.96,0,1.78,.83,1.95,1.97h0c.21,1.46-.72,2.79-1.95,2.79Z"></path><path fill="#6d76ff" d="M1046.23,839.47l-48.79,.05c-.96,0-1.78-.83-1.95-1.97h0c-.21-1.46,.72-2.79,1.95-2.79l48.79-.05c.96,0,1.78,.83,1.95,1.97h0c.21,1.46-.72,2.79-1.95,2.79Z"></path><path fill="#6d76ff" d="M1048.2,852.9l-48.79,.05c-.96,0-1.78-.83-1.95-1.97h0c-.21-1.46,.72-2.79,1.95-2.79l48.79-.05c.96,0,1.78,.83,1.95,1.97h0c.21,1.46-.72,2.79-1.95,2.79Z"></path></g><path opacity=".3" fill="#6b98f6" d="M799.07,729.12h-73.27c-6.14,0-11.89-5.99-12.85-13.37l-11.39-88.13c-.95-7.38,3.25-13.37,9.39-13.37h73.27c6.14,0,11.89,5.99,12.85,13.37l11.39,88.13c.95,7.38-3.25,13.37-9.39,13.37Z"></path><path fill="#ff7536" d="M756.9,704.83c-.07,0-.13,0-.2,0-1.37-.08-2.83-1.05-3.71-2.46-7.83-12.53-17.29-24.25-28.1-34.85-1.63-1.6-2.1-3.92-1.06-5.18,1.05-1.26,3.22-.99,4.85,.61,9.2,9.01,17.47,18.8,24.67,29.18,4-22.98,13.24-43.58,26.95-59.93,1.05-1.25,3.23-.98,4.85,.63,1.63,1.6,2.1,3.92,1.04,5.18-14.58,17.4-23.91,39.79-26.96,64.74-.16,1.28-1.07,2.08-2.33,2.09Z"></path><path fill="#ff912b" d="M629.1,410.16h-72.79c-4.47,0-8.78-4.3-9.64-9.6h0c-.86-5.3,2.07-9.59,6.53-9.59h72.79c4.47,0,8.78,4.3,9.64,9.59h0c.86,5.3-2.07,9.6-6.53,9.6Z"></path><path fill="#ff912b" d="M748.36,410.16h-72.79c-4.47,0-8.78-4.3-9.64-9.6h0c-.86-5.3,2.07-9.59,6.53-9.59h72.79c4.47,0,8.78,4.3,9.64,9.59h0c.86,5.3-2.07,9.6-6.53,9.6Z"></path><path fill="#ff912b" d="M877.6,410.16h-72.79c-4.47,0-8.78-4.3-9.64-9.6h0c-.86-5.3,2.07-9.59,6.53-9.59h72.79c4.47,0,8.78,4.3,9.64,9.59h0c.86,5.3-2.07,9.6-6.53,9.6Z"></path><path fill="#ff912b" d="M1001.46,410.16h-72.79c-4.47,0-8.78-4.3-9.64-9.6h0c-.86-5.3,2.07-9.59,6.53-9.59h72.79c4.47,0,8.78,4.3,9.64,9.59h0c.86,5.3-2.07,9.6-6.53,9.6Z"></path><path fill="#ff912b" d="M1125.44,410.16h-72.79c-4.47,0-8.78-4.3-9.64-9.6h0c-.86-5.3,2.07-9.59,6.53-9.59h72.79c4.47,0,8.78,4.3,9.64,9.59h0c.86,5.3-2.07,9.6-6.53,9.6Z"></path><path fill="#ff7536" d="M1023.74,568.42h-73.27c-6.14,0-11.89-5.99-12.85-13.37l-11.39-88.13c-.95-7.38,3.25-13.37,9.39-13.37h73.27c6.14,0,11.89,5.99,12.85,13.37l11.39,88.13c.95,7.38-3.25,13.37-9.39,13.37Z"></path><path fill="#ffe4bc" d="M981.57,544.58c-.07,0-.13,0-.2,0-1.37-.08-2.83-1.05-3.71-2.46-7.83-12.52-17.29-24.25-28.1-34.85-1.63-1.6-2.1-3.92-1.06-5.18,1.05-1.26,3.22-.99,4.85,.61,9.2,9.01,17.47,18.8,24.67,29.18,4-22.98,13.24-43.58,26.94-59.93,1.05-1.25,3.23-.98,4.85,.63,1.63,1.6,2.09,3.92,1.04,5.18-14.58,17.4-23.91,39.79-26.96,64.74-.16,1.28-1.07,2.08-2.33,2.09Z"></path><g><g><path fill="#ffae73" d="M1350.37,630.4s5.12,18.97,4.68,23.31c-.44,4.34-3.66,19.16-5.95,22.96-2.3,3.79-3.43-15.45-5.25-18.35-1.82-2.9-.37,7.25-1.65,8.19-1.28,.94-3.95-7.46-5.1-10.42-1.15-2.96,2.81-13.89,2.82-21.51,.01-7.62,10.45-4.17,10.45-4.17Z"></path><path fill="#1e3865" d="M1229.93,479.72c-1.42-21.75,18.23-36.66,33.74-25.35,.32,.23,.63,.47,.95,.71,23.22,17.98,73.33,101.87,76.78,110.27,3.45,8.4,13.63,75.26,13.63,75.26,0,0-12.58,5.53-18.46-.21,0,0-20.4-63.4-23.42-66.57-3.02-3.17-81.6-56.2-82.26-76.08-.18-5.26-.53-11.58-.95-18.03Z"></path></g><g><polygon fill="#ff912b" points="1160.13 429.2 1166.49 451.19 1040.92 503.77 1034.56 481.78 1160.13 429.2"></polygon><polygon fill="#fddbba" points="1008.55 505 1040.92 503.77 1034.56 481.78 1008.55 505"></polygon><path fill="#fddbba" d="M1177.21,431.69l1.23,4.25c1.46,5.04-.76,10.56-4.95,12.31l-7,2.93-6.37-21.99,7.44-3.12c3.95-1.65,8.27,.86,9.64,5.61Z"></path></g><g><path fill="#173054" d="M1370.16,970.74s9.36,10.28,7.54,17.58c-1.83,7.3-10.28,12.17-11.42,21.1-1.14,8.93-5.71,13.79-9.82,13.79h-19.6s-3.03-6.28,4.28-8.17c7.31-1.89,10.06-12.38,9.61-22.12-.46-9.74,.69-22.72,.69-22.72l15.53-4.33,3.2,4.87Z"></path><path fill="#173054" d="M1255.29,997.32s1.68,23.39-2.43,25.82l-52.61-.13s0-7.3,8.45-8.92c8.45-1.62,23.29-7.57,25.81-20.82,2.51-13.25,20.78,4.06,20.78,4.06Z"></path><path fill="#ff912b" d="M1210.87,666.93s2.77,41,6.04,90.28c4.43,66.95,9.76,149.18,10.29,164.76,.91,27.05,4.57,70.32,4.57,70.32,0,0,8.67,10.28,26.03,5.95,0,0,15.47-61.77,19.89-127.13,.07-1.07,.14-2.15,.21-3.23,4.11-66.53,10.5-206.63,10.5-206.63l-77.53,5.68Z"></path><path fill="#f70" d="M1210.87,666.93s2.77,41,6.04,90.28l60.78,113.9c.07-1.07,.14-2.15,.21-3.23,4.11-66.53,10.5-206.63,10.5-206.63l-77.53,5.68Z"></path><path fill="#ff912b" d="M1223.54,671.8s50.01,148.48,82.9,218.26c32.89,69.78,43.16,89.25,43.16,89.25,0,0,18.84-8.92,20.55-15.01,0,0-12.58-134.71-34.6-167.55-12.44-18.56-27.06-74.24-27.75-93.71-.69-19.47-4.45-58.01-4.45-58.01l-79.82,26.77Z"></path></g><path fill="#ffae73" d="M1266.67,449.07s-33.51,20.44-53.14,13.62c0,0,11.54-10.28,11.29-25.24-.14-8.06-1.03-12.51-1.03-12.51l12.85-12.66,12.18-12.11c-.43,33.25,17.84,48.9,17.84,48.9Z"></path><path fill="#25468f" d="M1299.95,656.77c-13.53,9.85-26.34,17.25-41.33,21.41-17.68,5.04-39.41,3.56-46.68,4.89-.75,.12-1.45-.11-2.12-.65-.57-.35-3.78-26.29-6.99-59.03-.14-1.32-.29-2.65-.35-3.98l-.05-.44c-1.25-12.8-2.34-26.24-3.3-39.72-.77-10.48-1.41-20.86-1.86-30.6-.56-12.19-.79-23.38-.56-32.59,.1-4.21,.31-7.99,.62-11.28,1.92-19.12,9.5-32.79,16.64-42.96l5.92-8.11c6.87,.52,13.88-1.04,20.5-6.29,7.24-5.73,15.04-11.89,16.52-10.86,11.09,7.3,20.12,26.21,26.57,51.19,3.7,14.38,6.54,30.69,8.35,47.96,.58,5.36,1.08,10.86,1.46,16.34,.07,1.01,.14,2.03,.2,3.02,.87,14.97,2.29,29,3.87,41.53,2.12,16.9,4.53,31.06,6.24,41.03,.86,5.08,1.51,9,1.9,11.81,.35,2.45-3.74,5.97-5.56,7.33Z"></path><path fill="#f99352" d="M1249.26,412.87s-8.24,18.95-24.44,24.58c-.86-9.05-1.03-12.51-1.03-12.51l12.85-12.66,12.62,.59Z"></path><path fill="#ffae73" d="M1217.83,424.54s32.38,5.58,35.02-18.36c2.64-23.94,8.59-39.34-11.97-43.91-20.56-4.57-25.59,3.94-28.11,11.68-2.52,7.74-3.29,48.52,5.07,50.59Z"></path><path fill="#2a3967" d="M1263.8,358.86c.29-.41,.96-.75,2.46-.89,0,0-1.22-.88-2.83-.89-.36-2.51-1.54-6.93-5.16-7.93,0,0,1.95,1.19,2.25,3.86-4.25-5.05-13.25-8.59-37.95-5.65-32.55,3.87-21.39,28.72-17.12,31.61,4.27,2.89,14.76-5.57,22.63-5,7.88,.56,9.6,14.19,12.29,16,2.7,1.81,1.59-1.48,5.17-3.53,3.58-2.05,4.04,5.14,3.07,9.84s4.1,10.75,4.1,10.75l4.9-6.61c4.9-6.61,9.17-34.22,6.8-40.02-.21-.51-.42-1.03-.63-1.55Z"></path><path fill="#1e3865" d="M1253.52,518.2s-27.3,24.98-56.24,30.46c-.56-12.19-.79-23.38-.56-32.59l56.8,2.13Z"></path><g><path fill="#ffae73" d="M1085.85,485.96c-.43-.56-6-22.94-15.62-21.31-6.28,1.07-16.55,5.44-13.82,15.39,1.07,3.91,20.21,17.39,20.21,17.39l9.23-11.48Z"></path><path fill="#25468f" d="M1256.9,469.92c15.57,11.2,14.3,39.1-2.34,47.76-.34,.18-.68,.35-1.03,.52-25.63,12.37-111.51,12.94-119.21,11.46-7.69-1.48-58.91-30.21-58.91-30.21,0,0,3.53-15.54,10.83-17.98,0,0,54.8,16.7,58.69,15.58,3.89-1.12,85.34-47.48,99.2-36.63,3.67,2.87,8.15,6.18,12.77,9.51Z"></path></g></g><g><path fill="#ffae73" d="M515.79,541.29s3.01-5.98,4.85-9.28c1.84-3.31,5.51-7.43,6.45-6.37,.94,1.06-2.82,5.44-2.65,6.9,.17,1.46,6.46-3.45,7.14-4.55,1.36-2.21,4.97-4.6,5.41-1.82,.44,2.78-2.24,11.54-3.45,14.06-1.21,2.52-6.29,6.5-9.1,7.69-2.81,1.19-7.62,3.98-7.62,3.98l-1.03-10.61Z"></path><path fill="#0b3563" d="M369.7,490.05c-2.08-4.82,45.33-22.18,46.08,25.39,0,0,88.81-2.63,46.41-62.16-14.68-20.61-13.17-37.65-12.73-53.52,.45-15.87-9.14-61.98-42.02-57.33,0,0-8.61-4.21-19.35,2.49-24.43,15.25-79.17,162.67-18.39,145.13Z"></path><path fill="#ff912b" d="M431.29,546.66s3.14,7.48,8.84,16.08c6.87,10.35,17.46,22.3,30.76,24.66,6.35,1.13,12.56-.52,18.27-3.57,.02,0,.02,0,.02,0,16.15-8.62,28.3-28.45,28.3-28.45,2.85-9.34-1.14-15.18-1.14-15.18,0,0-33.29,8.33-36.39,6.47-3.11-1.87-21.23-64.65-25.54-72.54-4.32-7.89-19.02-11.99-19.02-11.99l-4.11,84.52Z"></path><path fill="#fc7600" d="M440.13,562.74c6.87,10.35,17.46,22.3,30.76,24.66,6.35,1.13,12.56-.52,18.27-3.57-.63,.1-16.76,2.5-23.19-11.34-6.56-14.11-13.65-36.53-23.39-29.06-4.2,3.22-4.02,11.24-2.45,19.3Z"></path><path fill="#0d57aa" d="M309.61,970.08s-9.95,10.92-8.01,18.68c1.94,7.76,10.92,12.94,12.14,22.42,1.21,9.49,6.07,14.66,10.44,14.66h20.83s3.22-6.67-4.55-8.69c-7.77-2.01-10.7-13.16-10.21-23.51,.49-10.35-.73-24.15-.73-24.15l-16.51-4.6-3.4,5.17Z"></path><path fill="#0d57aa" d="M393.84,974.72s-3.58,46.27,.79,48.86l55.91-.14s0-7.76-8.98-9.49c-8.98-1.72-24.76-8.05-27.43-22.13-2.67-14.08-20.29-17.1-20.29-17.1Z"></path><path fill="#ffae73" d="M354,642.73c11.51-31.04,18.55-39.94,17.2-49.58-1-7.17,3.05-133.67,3.05-133.67,1.37-.51,4.1-.96,5.6-1.36,4.72-1.26,8.63-5.25,10.25-10.72,1.96-6.6,3.52-16.34,3.48-28.54l1.47,.35,24.78,5.9s-.56,9.38-.58,18.22c0,.07,0,.15,0,.22-.03,7.67,4.16,14.45,10.29,16.58,3.13,1.09,5.85,2.02,5.85,2.02,0,0,9.1,31.25,10.84,63.35,1.74,32.1-16.55,46.05,.14,110.2,17.04,65.52-98.73,24.2-92.37,7.05Z"></path><path fill="#f48f4e" d="M419.83,425.11s-.56,9.38-.58,18.22c-13.87-.47-21.2-15.69-24.2-24.12l24.78,5.9Z"></path><path fill="#ffae73" d="M424.46,433.47s-32.81,.65-32.83-23.93c-.02-24.58-4.27-41.05,16.68-42.51,20.95-1.46,25.03,7.92,26.69,16.12,1.67,8.2-2,49.51-10.54,50.32Z"></path><path fill="#0b3563" d="M423.25,366.43s-8.98,28.84-22.77,33.1c-13.79,4.26-19.77-.18-19.77-.18,0,0,10.58-10.1,12.77-27.74,0,0,22.99-18.91,29.77-5.18Z"></path><path fill="#0b3563" d="M421.02,368.77s6.66,3,9.4,8.84c2.68,5.71,4.97,13.28,4.44,22.57,0,0,6.77-19.6-.84-30.69-8.07-11.76-13-.72-13-.72Z"></path><path fill="#e8f2fa" d="M417.33,418.22s2.26,3.58,6.79,3.33c3.65-.21,5.06-4.01,5.06-4.01,0,0-6.7-1.94-11.85,.69Z"></path><path fill="#ff912b" d="M350.83,515.44s-.83,14.13,0,31.08c.55,11.24,10.01,26.29,11.35,30.02,3.37,9.34,7.16,10.86,7.16,10.86l29.36,8.65,10.32,3.04,32.55-11.69s14.83-49.77,8.87-77.79c-5.95-28.02-15.05-47.48-15.05-47.48,0,0-26.56,31.28-61.15-2.65l-23.41,55.96Z"></path><path fill="#0b3563" d="M439.5,594.96s16.12,60.35,17.16,80.9c1.04,20.55-30.82,291.89-32.1,301.36-1.21,8.92-10.42,14.61-10.42,14.61,0,0-4.24,3.01-10.29,.95-8.39-2.85-11.04-6.26-11.04-6.26,0,0-12.55-193.52-4.78-262.65,7.77-69.13,7.86-128.91,7.86-128.91h43.62Z"></path><path fill="#0d458e" d="M371.2,593.16s-24.59,39.68-26.88,66.51c-2.29,26.82-3.6,121.05-8.48,147.2-4.88,26.15-22.83,76.48-22.83,158.04,0,0,1.87,4.67,7.62,7.17,1.84,.8,4.31,1.57,6.71,2.23,4.75,1.31,9.62-1.48,11.79-6.73,12.13-29.38,50.78-124.13,52.76-143.8,1.4-13.92,13.6-106.04,40.22-160.09,6.39-12.98-3.92-64.59-3.92-64.59l-56.98-5.94Z"></path><path fill="#fff" d="M418.05,418.88s.57,2.9,6.56,2.45c0,0,5.03-.37,4.88-3.56,0,0-4.88-2.26-11.44,1.11Z"></path><path fill="#1e3865" d="M442.08,585.64s-6.47,6.16-19.33,6.47c-15.36,.37-53.41-4.71-53.41-4.71,0,0-1.69,5.68-1.62,11.68,0,0,46.47,14.1,73.4,2.06,0,0,3.47-7.86,.96-15.5Z"></path><path fill="#fff" d="M419.43,598.49c0-5.26,3.14-9.54,7.01-9.54s7.01,4.28,7.01,9.54-3.14,9.54-7.01,9.54-7.01-4.28-7.01-9.54Zm2.32,0c0,3.72,2.1,6.74,4.68,6.74s4.69-3.03,4.69-6.74-2.1-6.75-4.69-6.75-4.68,3.03-4.68,6.75Z"></path><polygon fill="#ff7536" points="319.31 596.56 366.92 646.42 423.68 568.03 376.06 518.17 319.31 596.56"></polygon><path fill="#ffae73" d="M380.08,596.74s18.51,3.42,18.46,8.4c-.05,4.98-3.83,13.99-7.57,14.7-4.75,.9-14.2-13.84-14.2-13.84l3.31-9.26Z"></path><path fill="#ffae73" d="M380.47,597.92s6.2-2.72,10.75-1.6c4.55,1.13,8.76,.3,7.72,2.29-1.03,1.99-7.19,1.25-8.17,2.03-.98,.78-.99,.29-.99,.29l-9.32-3.01Z"></path><path fill="#ff912b" d="M374.25,459.48s-23.29,1.96-32.22,28.07c-8.93,26.1-25.87,69.93-25.87,77.31s9.46,30.1,60.28,43.17c0,0,5.26-6.65,4.94-11.91,0,0-31.72-32.77-31.64-36.6,.16-7.25,5.2-16.81,33.05-50.32,7.57-9.11-8.55-49.72-8.55-49.72Z"></path><g><path fill="#ff7536" d="M629.73,561.34l-73.31,28.73c-6.14,2.41-12.95-1.55-15.21-8.84l-26.92-86.98c-2.26-7.29,.9-15.15,7.04-17.56l73.31-28.73c6.14-2.41,12.95,1.55,15.21,8.84l26.92,86.98c2.26,7.29-.89,15.15-7.04,17.56Z"></path><g><polygon fill="#ffe4bc" points="549.33 561.59 557.05 501.35 584.27 522.47 589.51 507.68 619.61 533.96 549.33 561.59"></polygon><path fill="#ffe4bc" d="M566.28,489.51c-1.32-4.01,.43-8.38,3.92-9.75,3.49-1.37,7.39,.77,8.71,4.79,1.32,4.02-.43,8.38-3.92,9.75-3.49,1.37-7.39-.77-8.71-4.79Z"></path></g></g><path fill="#ffae73" d="M520.64,532.01s3-5.34,6.45-6.37c3.45-1.03,6.87-2.79,6.87-2.79,1.46,1.89-4.67,5.36-4.74,8.55-.07,3.19,.9,8.42-3.04,9.03-3.93,.61-5.54-8.43-5.54-8.43Z"></path></g><rect fill="#1e3865" ry="2.58" rx="2.58" height="5.17" width="1620" y="1022.83"></rect><g><polygon fill="#95c2fa" points="693.09 288.11 789.33 308.96 726.73 253.5 722.95 270.23 699.27 274.32 693.09 288.11"></polygon><polygon fill="#fff" points="789.33 308.96 710.34 255.49 631.58 247.25 789.33 308.96"></polygon><polygon fill="#fff" points="726.73 253.5 789.33 308.96 742.13 224.52 726.73 253.5"></polygon></g><g><polygon fill="#95c2fa" points="160.09 883.39 82.46 900.21 132.96 855.48 136.01 868.97 155.11 872.27 160.09 883.39"></polygon><polygon fill="#fff" points="82.46 900.21 146.18 857.08 209.71 850.43 82.46 900.21"></polygon><polygon fill="#fff" points="132.96 855.48 82.46 900.21 120.54 832.1 132.96 855.48"></polygon></g><path fill="#ff7b35" d="M470.45,991.18c0,1.3,.06,2.59,.2,3.85,.41,4.04,1.45,7.84,2.99,11.27,1.21,2.67,2.73,5.1,4.51,7.23,4.76,5.72,11.33,9.26,18.59,9.26h369.65c14.51,0,26.29-14.15,26.29-31.61,0-8.73-2.94-16.64-7.7-22.35-4.76-5.73-11.33-9.26-18.59-9.26H496.73c-14.52,0-26.28,14.15-26.28,31.62Z"></path><path fill="#ff7b35" d="M498.64,953.84h126.74c2.22,0,4.03-2.18,4.03-4.85h0c0-2.67-1.82-4.85-4.03-4.85h-126.74c-2.22,0-4.03,2.18-4.03,4.85h0c0,2.67,1.82,4.85,4.03,4.85Z"></path><rect fill="#fb5910" transform="translate(1025.02 1913.41) rotate(180)" height="5.72" width="13.74" y="953.84" x="505.64"></rect><path fill="#fb5910" d="M473.63,1006.3c1.21,2.67,2.73,5.1,4.51,7.23,4.76,5.72,11.33,9.26,18.59,9.26h78.3v-16.49h-101.39Z"></path><path fill="#ff912b" d="M941.59,981.92v18.52c0,2.03-.23,4-.65,5.87-2.14,9.5-9.35,16.49-17.93,16.49h-385.05c-8.58,0-15.8-6.99-17.93-16.49-.42-1.87-.65-3.84-.65-5.87v-18.52c0-12.35,8.31-22.35,18.58-22.35h385.05c10.27,0,18.58,10.01,18.58,22.35Z"></path><path fill="#fd801a" d="M940.95,1006.3c-2.14,9.5-9.35,16.49-17.93,16.49h-385.05c-8.58,0-15.8-6.99-17.93-16.49h420.92Z"></path><g><path fill="#6d76ff" d="M903.35,991.29c0,9.82,2.97,18.6,7.65,24.41,.11,.13,.21,.26,.31,.39,3.62,4.33,8.2,6.93,13.19,6.93,7.79,0,27.12-14.14,39.09-23.54,5.97-4.68,10.11-8.18,10.11-8.18,0,0-4.14-3.5-10.11-8.18-11.97-9.4-31.29-23.55-39.09-23.55-2.26,0-4.43,.53-6.47,1.51-3.44,1.66-6.5,4.61-8.91,8.46-2.66,4.23-4.56,9.56-5.35,15.47,0,.07-.02,.14-.02,.21-.26,1.96-.39,4-.39,6.09Z"></path><path opacity=".7" fill="#6b98f6" d="M903.35,991.29c0,9.82,2.97,18.6,7.65,24.41l59.26-24.52-66.52-5.98c-.26,1.96-.39,4-.39,6.09Z"></path><path fill="#a5c2f2" d="M909.12,969.53l59.12,19.42-50.21-27.88c-3.44,1.66-6.5,4.61-8.91,8.46Z"></path><path fill="#ff912b" d="M959.73,991.29c0,3.78,1.61,6.99,3.86,8.18,5.97-4.68,10.11-8.18,10.11-8.18,0,0-4.14-3.5-10.11-8.18-2.25,1.18-3.86,4.4-3.86,8.18Z"></path></g><path fill="#25468f" d="M1008.55,505l6.09-5.44s1.96,2.11,2.1,5.44h-8.2Z"></path><g><path fill="#eef4ff" d="M920.01,274.68c-.92,7.65-3.21,13.87-6.88,19.05,7.1,4.19,15.22,7.21,24.34,9-1.2,1.39-2.49,4.16-3.07,5.91-9.69-2.16-18.1-5.59-25.42-10.21-5.1,4.81-11.93,8.37-20.61,10.88-1.15-1.48-3.97-4.43-5.74-5.85,8.49-2.13,15.16-5.21,20.04-9.55-6.61-5.2-12.3-11.53-17.42-18.97l-9.1,.07-1.64-6.15,24.45-.19c-1.22-2.16-3.28-5.12-5.24-7.44l6.84-2.01c2.16,2.43,4.8,5.8,6.07,7.97l-4.6,1.47,25.2-.19,1.64,6.15-8.87,.07Zm-27.64,.21c3.97,5.54,8.76,10.44,14.34,14.59,2.92-4.06,4.83-8.9,5.53-14.74l-19.87,.15Z"></path><path fill="#eef4ff" d="M948.64,261.51c-.56,3.77-1.44,7.66-2.67,11.32l9.6,36.01-6.55,.05-7.1-26.64c-.81,1.33-1.61,2.67-2.46,3.84-1.06-1.58-3.88-4.96-5.46-6.54,3.83-4.8,6.75-12.36,7.58-19.9l7.06,1.86Zm42.99,29.29l-14.83,.11,4.74,17.79-6.95,.05-4.74-17.79-15.64,.12-1.64-6.15,15.64-.12-2.43-9.11-7.07,.05c-.35,2.6-.99,4.99-1.77,6.86-1.5-.84-4.91-2.3-6.77-2.97,2.03-4.16,2.61-10.9,2.22-17.37l7,1.22c.09,2.07,.04,4.09-.06,6.1l4.81-.04-2.55-9.59,6.95-.05,2.55,9.59,12.11-.09,1.64,6.15-12.11,.09,2.43,9.11,14.83-.11,1.64,6.15Z"></path><path fill="#eef4ff" d="M1035.49,261.6l12.27,46.02-7.3,.06-.87-3.28-26.83,.2,.87,3.28-6.95,.05-12.27-46.02,41.08-.31Zm-32.49,6.4l1.62,6.09,26.83-.2-1.62-6.09-26.83,.2Zm3.2,12.02l1.67,6.25,26.83-.2-1.67-6.25-26.83,.2Zm31.74,18.23l-1.67-6.25-26.83,.2,1.67,6.25,26.83-.2Z"></path><path fill="#eef4ff" d="M1102.83,287.14c-2.64,2.51-5.92,5.04-8.7,7.02,4.62,2.73,9.93,4.81,15.66,6.04-1.21,1.34-2.55,3.94-3.15,5.59-8.2-2.22-15.34-6.15-21.39-11.41l2.02,7.57c.8,3.02,.42,4.4-1.73,5.27-2.11,.81-5.26,.94-9.61,.98-.86-1.69-2.49-3.91-3.77-5.44,2.76,.13,6.12,.11,6.98,.05,.93,0,1.22-.22,1.02-.96l-1.04-3.92c-5.75,2.59-11.67,5.24-16.4,7.29l-5.28-5.64c5-1.74,12.74-4.71,20.07-7.69l-2.22-8.31-21.55,.16-1.45-5.46,36.44-.28-.59-2.86-31.23,.24-1.5-5.61,31.58-.24-.65-2.86-33.6,.25-1.52-5.72,34.53-.26,1.2-.28,5.63,.23c1.35,5.51,2.57,11.6,3.44,17.06l7.07-.05,1.45,5.46-8.4,.06,6.68,3.72Zm-32.63,7.41c-2.64-2.05-8.03-4.87-12.19-6.75l3.56-3.85c3.99,1.67,9.49,4.23,12.41,6.28l-3.78,4.33Zm12.45-9.91c1.77,2.06,3.74,4,6.01,5.79,2.52-2.09,5.35-4.76,7.07-7.01l-13.38,.1,.3,1.11Z"></path></g></g></g></g></svg>