<svg viewBox="0 0 1620 1028" xmlns="http://www.w3.org/2000/svg"><g id="a"></g><g id="b"><g id="c"><g><path fill="#ebf3fa" d="M108.28,1025.55s-187.52-243.82-31.71-507.78c138.24-234.21,299.42-218.2,417.67-123.16,50.36,40.48,195.57,4.99,319.16-233.33,168.54-325,752.77-127.89,646.25,372.13-51.55,241.97,156.89,250.77,50.68,492.64l-1402.04-.51Z"></path><g><polygon fill="#dfebfd" points="259.79 695.26 381.93 855.97 249.23 1003.88 127.09 843.17 259.79 695.26"></polygon><polygon fill="#bed7fb" points="259.79 695.26 284.39 727.63 151.69 875.54 127.09 843.17 259.79 695.26"></polygon></g><g><polygon fill="#9ec3f6" points="647.36 62.18 738.36 77.9 677.97 28.06 674.9 44.03 652.77 48.89 647.36 62.18"></polygon><polygon fill="#cde0fb" points="738.36 77.9 662.63 30.62 588.42 26.1 738.36 77.9"></polygon><polygon fill="#cde0fb" points="677.97 28.06 738.36 77.9 691.61 0 677.97 28.06"></polygon></g><g><path fill="#fff" d="M1156.21,279.58l-22.89,19.89-23.01-19.68c5.1-8.69,13.52-14.43,23.01-14.43s17.79,5.6,22.89,14.22Z"></path><path fill="#fff" d="M1133.32,216.89c-23.01,0-43.35,13.86-55.68,35.04l14.53,12.35c9.13-15.65,24.19-25.85,41.15-25.85s31.78,10.05,40.91,25.49l14.47-12.57c-12.39-20.9-32.61-34.47-55.38-34.47Z"></path><path fill="#fff" d="M1133.32,124.76c-48.68,0-91.73,29.3-117.82,74.11l14.53,12.35c22.89-39.21,60.66-64.92,103.29-64.92s79.81,25.28,102.76,63.98l14.41-12.57c-26.15-44.16-68.9-72.96-117.17-72.96Z"></path><path fill="#fff" d="M1133.32,175.17c-34.63,0-65.35,20.75-84.02,52.56l14.53,12.35c15.48-26.21,40.85-43.37,69.5-43.37s53.6,16.88,69.14,42.73l14.41-12.5c-18.74-31.38-49.22-51.77-83.55-51.77Z"></path></g><path fill="#adcbf9" d="M658.55,400.27l-20.98-.58c6.74,10.58,8.26,20.33,4.06,28.58-4.2,8.42-14.24,15.33-29.24,20.58,11.35-36.58,17.06-75.15,17.06-114.73,0-85.59-27.5-169.37-79.4-232.04C499.82,41.24,431.91,5.92,358.44,5.92c-41.26,0-81.12,11.07-117.37,32.24l-.04,.02c-11.66-4.31-23.01-7.84-33.96-10.53-55.29-13.59-94.53-4.2-110.47,26.44-15.17,29.14-6.91,73.01,23.19,124.18v.02c-6.74,15.05-13.21,32.89-17.97,49.99-56.55,4.08-86.83,16.14-97.83,37.97-12.8,25.41,4.68,59.52,60.61,92.68,7.71,4.58,15.96,9.08,24.63,13.58,6.7,71.3,33.52,140.41,77.54,193.71,24.91,30.08,53.87,53.74,86.14,70.32,98.85,50.49,216.69,26.85,297.15-70.32,24.22-29.33,43.41-63.49,56.97-101.31,27.59-6.92,45.75-17.75,52.98-32.08,5.02-9.91,4.4-20.91-1.44-32.58Zm-64.74,53.74c-18.37,4-41.28,6.33-68.04,6.67-41.53,.61-89.22-3.36-139.49-11.38,4.23-11.15,8.38-22.61,12.42-34.33,15.6,6.32,30.73,11.32,45.17,14.87,16.54,4.07,31.63,6.07,45.1,6.07,31.58,0,54.2-11.04,65.37-32.52,1.84-3.54,3.34-7.29,4.49-11.25h-16.1c-.27,.59-.55,1.18-.85,1.75-8.3,15.95-26.85,24.2-52.89,24.19-12.45,0-26.63-1.88-42.22-5.71-13.58-3.34-27.83-8.02-42.51-13.93,3.88-11.74,7.64-23.71,11.28-35.86,9.81-32.76,18.21-65.24,25.01-96.43,55.07,9.83,112.6,10.13,167.86,5.08,3.5,20.53,5.26,41.54,5.26,62.88,0,41.58-6.67,81.9-19.88,119.89Zm-335.36,162.7c-7.83-3.44-11.8-17.05-13.76-27.86-3.09-17.08-3.65-41.08-1.62-69.39,1.03-14.32,2.68-29.54,4.91-45.47,32.09,10.36,63.87,23.68,94.81,39.73-6.97,14.55-14.02,28.05-21.06,40.28-13.43,23.31-26.56,41.29-37.97,52-7.22,6.78-17.48,14.14-25.3,10.7Zm91.43-118.22c-32.39-16.9-65.69-30.87-99.32-41.65,1.19-7.39,2.49-14.91,3.9-22.55,9.35,2.57,18.84,5.07,28.44,7.47,28.1,6.96,56.14,12.87,83.58,17.65-5.44,13.62-10.98,26.67-16.6,39.08Zm-60.79-69.06c-10.86-2.71-21.56-5.53-32.08-8.47,4.95-24.95,11.03-50.96,18.13-77.46,36.91,27.48,74.44,49.83,109.98,65.69-4.46,12.89-9.04,25.46-13.72,37.62-26.99-4.69-54.61-10.51-82.32-17.39ZM198.95,92.67c20.52,50.9,60.05,92.84,102.6,120.66-10.31,27.2-20.12,56.23-29.15,86.37-1.68,5.62-3.32,11.23-4.92,16.83-53.92-42.5-99.57-91.27-129.52-138.47v-.02c15.79-32.65,36.38-61.48,60.99-85.36Zm230.55-47.1c7.83,3.44,11.8,17.05,13.76,27.86,3.09,17.08,3.65,41.08,1.62,69.39-2.23,30.99-7.35,66.19-14.98,103.67-37.5-7.81-74.97-20.69-109.47-40.97,14.7-37.13,30.25-70.25,45.8-97.24,13.43-23.31,26.56-41.29,37.97-52,5.96-5.59,13.97-11.57,20.99-11.57,1.49,0,2.94,.27,4.32,.87Zm-3.17,217.8c-6.62,30.16-14.77,61.57-24.27,93.28-3.66,12.22-7.45,24.26-11.35,36.05-35.68-15.86-73.55-38.55-110.78-66.58,1.92-6.81,3.91-13.65,5.96-20.5,8.82-29.46,18.4-57.82,28.44-84.38,35.14,20.62,73.21,33.94,112,42.12Zm112.57-147.88c33.11,40.09,55.07,88.25,66.18,138.6-58.84,5.21-112.76,3.58-160.96-4.87,7.65-37.85,12.8-73.45,15.06-104.89,2.49-34.73,2.19-75.86-9.44-99,33.68,15.67,63.77,39.32,89.16,70.17ZM358.44,24.92c17.68,0,35.08,2.15,52.08,6.43-20.05,10.57-40.53,39.99-56.07,66.97-15.91,27.61-31.79,61.41-46.79,99.23-40.49-26.64-78.73-67.48-97.01-115.6,42.68-36.76,94.01-57.04,147.79-57.04ZM109.05,63.61c8.3-15.95,26.85-24.19,52.89-24.19,12.45,0,26.63,1.88,42.22,5.71,5.92,1.45,11.96,3.16,18.1,5.12h.02c-37.18,26.04-69.93,63.73-94.31,110.97v.02c-23.02-41.38-29.94-76.46-18.92-97.64Zm21.25,131.53v-.02c31.54,47.73,78.02,96.52,132.32,138.84-7.7,28.38-14.27,56.27-19.57,83-45.02-13.19-97.36-31.85-138.69-53.02-3.43-41.5,.3-83.52,10.6-123.14,3.99-15.37,9.29-31.21,15.34-45.66Zm-53.18,153.97c-48.78-28.83-71.07-56.66-61.1-76.4,8.05-16,37.36-26.83,82.22-30.83-9.04,36.96-12.19,75.39-10.32,113.4-3.72-2-7.29-4.08-10.8-6.17Zm163.36,81.24c-1.39,7.52-2.67,14.92-3.85,22.21-3.13-.92-6.26-1.82-9.4-2.68-52.95-14.6-92.69-17.57-111.11-18.07-4.56-16.64-7.92-33.67-10.04-51.04,36.08,16.81,76.68,32.92,134.4,49.58Zm-119.02,19.1c19.64,.96,56.07,4.56,102.59,17.38,3.33,.92,6.66,1.88,9.98,2.86-2.39,16.91-4.16,33.07-5.25,48.26-2.07,28.78-2.21,61.96,4.42,85.66-20.17-13.75-38.68-30.77-55.28-50.88-24.75-29.97-43.8-65.07-56.45-103.29Zm159.57,179.39c18.89-11.99,37.86-39.52,52.47-64.88,7.54-13.08,15.07-27.56,22.5-43.19,42.87,23.51,84.1,52.4,122.82,86.05-63.83,41.31-135.71,45.98-197.8,22.03Zm257.88-76.1c-14.11,17.14-29.65,32.03-46.43,44.57-40.68-36-84.14-66.82-129.42-91.77,6.23-13.81,12.36-28.4,18.35-43.63,41.45,6.65,81.29,10.64,117.67,11.68,9.49,.33,18.71,.33,27.66,.25,23.19-.33,43.83-2,61.51-5-12.38,31.08-28.96,59.24-49.33,83.9Z"></path><g><g><path fill="#d86713" d="M533.12,451.49l-37.48,539.65s-3.93,32.71,16.17,32.77c33.04,.1,164.43,0,164.43,0,0,0-24.86-6.81-24.56-22.13,.36-18.06,43.8-555.39,43.8-555.39l-162.36,5.11Z"></path><path fill="#f99746" d="M686.9,1014.12c-6.5,.02-132,.5-164.17,0-14.02-.21-16.48-15.1-16.6-24.73-.06-4.62,.43-8.03,.43-8.03l.97-14.03,2.48-35.75,2.19-31.58,2.82-40.59,2.37-34.26,26.63-383.46,162.36-5.1s-18.3,224.87-31.24,388.56c-1.45,18.24-2.82,35.73-4.09,52.05-.41,5.21-.81,10.31-1.19,15.27-1.2,15.49-2.3,29.71-3.25,42.27-.5,6.62-.97,12.77-1.39,18.4-1.65,22.07-2.62,36.17-2.63,38.85,0,1.56,.1,3.02,.32,4.37,2.66,17.2,21.54,17.76,23.98,17.76Z"></path><polygon fill="#f99746" points="138.81 157.83 230.1 601.9 242.6 662.71 285.12 869.54 1075.03 869.54 918.32 157.83 138.81 157.83"></polygon><polygon fill="#ee9849" points="138.81 157.83 126.16 162.94 268.3 884.99 285.12 869.55 138.81 157.83"></polygon><polygon fill="#d86713" points="268.3 884.99 1053.35 884.99 1075.03 869.55 285.12 869.55 268.3 884.99"></polygon><rect fill="#f1a34f" transform="translate(1257.94 2038.44) rotate(180)" height="9.78" width="169.98" y="1014.33" x="543.98"></rect><polygon fill="#f1a34f" points="1036.76 738.4 908.59 167.24 137.55 167.24 137.55 157.83 918.32 157.83 1046.06 737.13 1036.76 738.4"></polygon><polygon fill="#d86713" points="670.75 884.99 669.87 892.47 510.02 931.58 512.21 899.99 513.26 884.99 670.75 884.99"></polygon><path opacity=".4" fill="#d86713" d="M686.9,1014.12c-6.5,.02-132,.5-164.17,0-14.02-.21-16.48-15.1-16.6-24.73l159.1-36.25c-1.65,22.07-2.62,36.17-2.63,38.85,0,1.56,.1,3.02,.32,4.37,2.66,17.2,21.54,17.76,23.98,17.76Z"></path><polygon opacity=".4" fill="#d86713" points="632.11 725.47 285.12 869.55 242.6 662.71 632.11 725.47"></polygon><polygon fill="#699dee" points="138.81 157.83 918.32 157.83 1044.79 729.82 252.38 729.82 138.81 157.83"></polygon></g><path fill="#d86713" d="M701.01,802.13c-2.25-14.03-13.47-25.4-25.05-25.4s-19.15,11.37-16.9,25.4c2.25,14.03,13.47,25.4,25.05,25.4s19.15-11.37,16.9-25.4Z"></path><polygon fill="#e9f3fe" points="1008.03 705.04 278.17 705.04 195.52 306.29 189.19 275.71 183.78 249.63 179.45 228.75 171.1 188.47 890.44 188.47 890.94 190.69 899.6 228.75 904.35 249.63 910.29 275.71 917.26 306.29 1008.03 705.04"></polygon><polygon fill="#e9f3fe" points="1008.03 706.4 278.17 706.4 195.52 307.65 189.19 277.08 183.78 250.99 179.45 230.11 171.1 189.83 890.44 189.83 890.94 192.05 899.6 230.11 904.35 250.99 910.29 277.08 917.26 307.65 1008.03 706.4"></polygon><polygon fill="#afcdfb" points="899.6 228.75 179.45 228.75 171.1 188.47 890.16 188.47 890.94 190.69 899.6 228.75"></polygon><g><path fill="#e9f3fe" d="M191.11,208.61c-.87-4.22,1.25-7.65,4.74-7.65s7.02,3.42,7.89,7.65c.87,4.22-1.25,7.65-4.74,7.65s-7.02-3.42-7.89-7.65Z"></path><ellipse fill="#e9f3fe" transform="translate(-72.51 127.43) rotate(-28.09)" ry="8.05" rx="5.99" cy="208.61" cx="218.4"></ellipse><path fill="#e9f3fe" d="M234.67,208.61c-.87-4.22,1.25-7.65,4.74-7.65s7.02,3.42,7.89,7.65c.87,4.22-1.25,7.65-4.74,7.65s-7.02-3.42-7.89-7.65Z"></path></g><g><path fill="#2b478b" d="M505.53,706.4h-72.17c-.69-6.83-1.3-14.05-1.85-21.58-.97-13.51-1.71-28.04-2.26-43.16-.13-3.49-.25-7.01-.35-10.55-.14-4.51-.26-9.07-.36-13.65-.18-7.78-.31-15.66-.42-23.58,0,0,0-.02,0-.03-.13-10.1-.19-20.27-.21-30.39h0c0-2.54,0-5.06,0-7.59h0c0-2.38,0-4.74,.01-7.11,.06-21.8,.33-43.19,.72-63.07,.83-43.99,2.18-80.66,2.89-98.28h0c.29-7.24,.48-11.26,.48-11.26,0,0,.01,0,.02,0,.16,.03,1.26,.27,2.98,.78,1.26,.37,2.87,.88,4.69,1.56h0c1.65,.6,3.46,1.35,5.38,2.22,0,0,.01,0,.02,0,3.25,1.52,6.75,3.45,10.05,5.88,.05,.03,.1,.06,.15,.09,5.39,4.05,10.26,9.42,12.48,16.51,1.91,6.02,6.36,38.4,11.75,81.39,.15,1.23,.3,2.46,.46,3.71,2.85,22.83,5.93,48.45,9.02,74.61,3.28,27.72,6.55,56.04,9.56,82.27,2.57,22.5,4.96,43.47,6.96,61.21Z"></path><path fill="#233862" d="M485.32,706.4h-84c-1.61-8.39-3.12-16.49-4.46-24.08-3.69-20.93-6.12-38.08-5.99-47.29,.06-4.32,1.41-7.7,3.72-10.3,1.58-1.78,3.62-3.2,6.02-4.3,7.09-3.26,17.27-3.79,27.93-2.97,3.62,.27,7.29,.7,10.92,1.23,19.97,2.93,38.5,8.92,38.5,8.92,0,0,1.24,6.07,2.7,16.68,1.1,7.96,2.33,18.48,3.24,30.91,.53,7.22,.96,15.09,1.19,23.47,.07,2.52,.14,5.1,.23,7.73Z"></path><path fill="#c65447" d="M446.53,635.15l-.84,7.35-4.07,35.69-.69,6.09-2.52,22.12h-87.54c-.68-14.62-1.31-28.87-1.43-41.29-.01-1.38-.02-2.73-.02-4.05,0-18.7,1.36-32.57,5.79-36.07,5.02-3.97,21.66-2.88,39.39-.25,1.77,.26,3.55,.54,5.33,.83,10.33,1.68,20.67,3.76,28.98,5.55,4.31,.93,8.08,1.78,11.01,2.46,4.14,.96,6.61,1.58,6.61,1.58Z"></path><path fill="#fff" d="M349.42,394.56s48.09-37.66,82.59-18.4c5.5,3.07,11.77,11.63,16.26,17.62,12.47,16.64,36.83,280.95,36.83,280.95,0,0-69.16,28.37-135.68-9.63V394.56Z"></path><path fill="#2b478b" d="M434.74,375.2s48.69,24.16,55.28,42.73,28.03,132.58,28.03,145.95-37.32,2.99-43.33-18.57c-4.99-17.91-21.82-72.91-30.69-107.71l-9.3-62.4Z"></path><g><path fill="#ffb27d" d="M424.63,393.61c-10.63,2.52-26.24-.17-37.67-9.29,5.16-14.93,7.28-26.71,8.03-34.34,.04-.41,.08-.8,.11-1.18,.34-3.95,.29-6.64,.13-7.87h27.48s7.51,4.16,7.51,7.03c0,1.54,.01,3.01,.03,4.41,.06,3.83,.18,7.17,.35,10.04,.52,9.34,1.41,13.74,1.41,13.74,0,0,3.36,14.91-7.38,17.46Z"></path><path fill="#e2915a" d="M430.6,362.42c-20.82,4.87-32.9-8.91-35.61-12.44-.38-.51-.58-.81-.58-.81,.22-.13,.45-.25,.69-.37,7.75-3.8,25.34-.78,35.16,3.58,.06,3.83,.18,7.17,.35,10.04Z"></path><path fill="#ffb27d" d="M388.19,335.47c3.72,24.25,29.55,23.45,40.72,21.93,3.14-.42,5.12-.91,5.12-.91,3.54-1.15,5.52-7.9,6.44-16.76,1.82-17.52-.48-43.23-2.92-49.81-3.68-9.9-10.61-20.6-36.62-12.88-26.02,7.73-17.5,27.36-12.73,58.42Z"></path><path fill="#233862" d="M438.51,276.4c-3.56-5.96-11.1-13.25-17.94-17.73-14.71-9.64-33.54,.3-33.62,.35-21.25,11.31-26.8,31-15.53,61.67,11.91,32.43,23.26,28.78,23.26,28.78,0,0-2.41-1.81-2.19-11.92,.01-.57,.03-1.05,.05-1.47,.11-2.07-.49-4.15-1.77-5.53-2.64-2.85-3.93-11.48-1.72-13.88,2.67-2.9,6.41,.62,7.61,3.33,1.05,1.91,2.92,2.58,4.66,1.25,6.61-5.06,2.32-15.19,8.64-21.39,6.32-6.2,19.14-.99,28.63-5.93,12.41-5.6,2.6-13.03-.08-17.52Z"></path></g><path fill="#2b478b" d="M441.92,706.4h-104.72c.75-26.3,1.71-57.69,2.72-89.48,.26-8.24,.53-16.52,.79-24.73,.12-3.48,.23-6.94,.34-10.4,2.31-70.6,4.61-134.34,5.09-137.78,1.1-7.77,2.14-14.39,3.26-20.13,3.29-16.72,7.38-25.89,16.29-33.78,.87-.8,8-5.15,14.28-8.94,5.13-3.08,9.7-5.78,9.84-5.86h0c1.04,.6,2.18,2.35,3.39,4.95,1.21,2.6,2.48,6.05,3.78,10.09,4.79,14.89,9.95,37.67,13.55,54.69,0,.02,.01,.04,.01,.05,0,.02,0,.02,0,.03h0c2.31,11,3.97,19.55,4.45,22.01,.8,4.14,1.86,12.16,3.11,23.02v.03c1.69,14.81,3.71,34.91,5.85,57.72h0c.22,2.35,.44,4.72,.66,7.11,.25,2.73,.51,5.5,.77,8.29h0c.08,.91,.16,1.81,.24,2.7h0c.82,9.04,1.65,18.35,2.48,27.84,0,0,0,.02,0,.03,.7,7.81,10.49,13.47,11.17,21.43,.05,.58,.1,1.75,.16,3.38,.13,3.37,.28,8.7,.46,14.88,.08,2.75,.16,5.67,.25,8.64,.38,13.24,.86,27.74,1.39,34.71,.03,.33,.05,.75,.07,1.26,.06,1.39,.11,3.44,.16,6.02,.09,5.47,.13,13.29,.14,22.2Z"></path><path fill="#233862" d="M370.49,472.47c-.03,.16-1.67,71.39,42.57,80.04,44.24,8.65,14.85,10.94,14.85,10.94,0,0-83.24-4.28-84.61-6.95-1.37-2.66,27.19-84.03,27.19-84.03Z"></path><path fill="#233862" d="M407.87,583.09s-.83,.71-2.42,1.96c-.03,.01-.06,.04-.08,.06-6.75,5.22-26.78,19.44-55.95,28.98-3.06,1-6.23,1.96-9.49,2.83,.26-8.24,.53-16.51,.79-24.72-3.85-.37-7.54-.96-10.96-1.84,.12-1.08,.24-2.17,.35-3.25,3.71-1.84,7.4-3.62,10.95-5.3,2.9-1.37,5.7-2.68,8.35-3.89,11.98-5.51,20.86-9.24,20.86-9.24l35.46,13.6,2.13,.82Z"></path><path fill="#2b478b" d="M417.26,581.9s-4.56,1.38-11.81,3.15c-.03,0-.05,0-.08,.02-13.38,3.25-35.87,7.82-55.95,7.57-2.96-.04-5.87-.18-8.69-.45-3.85-.37-7.54-.96-10.96-1.84-7.34-1.88-13.49-5.05-17.51-10.02-29.88-36.86,16.31-169.14,26.02-182.01,11.34-15.03,32.03-20.3,43.45-22.11,.48-.07,.93-.15,1.38-.21,4.02-.58,6.6-.7,6.74-.71h0s-.9,3.49-2.4,9.4c-.58,2.29-1.26,4.94-2,7.91-7.02,27.83-20.56,82.53-26.53,113.38-2.19,11.29-3.36,19.38-2.82,21.8,2.33,10.53,26.47,15.95,41.77,18.35,6.38,1,11.22,1.47,12.3,1.57,.08,0,.15,0,.23,.02l.88,4.39,2.12,10.54,2.08,10.35,1.79,8.89Z"></path><polygon fill="#f99746" points="500.59 645.3 397.97 640.07 418.79 485.19 521.41 490.43 500.59 645.3"></polygon><path fill="#ffb27d" d="M410.39,547.73s19.98-1.69,20.98,3.95c2.34,13.14-17.17,23.94-23.49,23.2-6.32-.74-2.08-28.03,2.52-27.15Z"></path><path fill="#ffb27d" d="M515.8,521.88s-19.11-7.24-21.16-2.03c-4.78,12.13,12.14,28.1,18.43,29.15,6.29,1.05,7.38-26.69,2.74-27.12Z"></path><path fill="#233862" d="M391.91,367.52s-8.4,4.85-12.62,12.17c0,0,31.41,66.05,31.27,65.43-.14-.62-10.62-69.14-18.66-77.6Z"></path><path fill="#233862" d="M431.04,368.45c2.77,1.26,8.07,7.85,9.27,11.49l3.73,57.66s-7.97-42.32-12.03-61.45c-1.03-4.86-.84-6.34-.97-7.7Z"></path><path fill="#c65447" d="M452.81,486.93s.81-4.3,5.48-3.8c4.67,.5,30.91,2.06,30.91,2.06,0,0,5.06-.1,4.59,3.83l-40.99-2.09Z"></path><path fill="#fff" d="M422.71,340.94s3.41,3.76,8.9,2.6c3.26-.69,5.08-5.82,5.08-5.82,0,0-6.26-1.36-13.99,3.23Z"></path></g><g><g><polygon fill="#fff" points="908.98 389.13 833.17 389.47 808.59 275.51 884.4 275.17 908.98 389.13"></polygon><g><polygon fill="#adcbf9" points="865.59 290.14 833.81 290.29 833.45 288.6 865.23 288.46 865.59 290.14"></polygon><polygon fill="#adcbf9" points="870.67 294.83 830.76 295.01 830.4 293.32 870.31 293.14 870.67 294.83"></polygon><g><polygon fill="#adcbf9" points="881.64 318.02 829.81 318.25 829.45 316.57 881.28 316.34 881.64 318.02"></polygon><polygon fill="#adcbf9" points="882.84 323.58 831.01 323.81 830.64 322.12 882.48 321.89 882.84 323.58"></polygon><polygon fill="#adcbf9" points="884.04 329.14 832.21 329.37 831.84 327.68 883.68 327.45 884.04 329.14"></polygon><polygon fill="#adcbf9" points="885.24 334.69 833.4 334.92 833.04 333.24 884.87 333.01 885.24 334.69"></polygon><polygon fill="#adcbf9" points="886.44 340.25 834.6 340.48 834.24 338.79 886.07 338.56 886.44 340.25"></polygon></g><g><polygon fill="#adcbf9" points="889.35 353.77 837.52 354 837.16 352.32 888.99 352.08 889.35 353.77"></polygon><polygon fill="#adcbf9" points="890.55 359.33 838.72 359.56 838.35 357.87 890.19 357.64 890.55 359.33"></polygon><polygon fill="#adcbf9" points="891.75 364.88 839.92 365.12 839.55 363.43 891.39 363.2 891.75 364.88"></polygon><polygon fill="#adcbf9" points="892.95 370.44 841.12 370.67 840.75 368.99 892.58 368.75 892.95 370.44"></polygon><polygon fill="#adcbf9" points="894.15 376 842.31 376.23 841.95 374.54 893.78 374.31 894.15 376"></polygon></g></g></g><g><polygon fill="#fff" points="939.52 530.75 863.72 531.09 839.14 417.12 914.94 416.78 939.52 530.75"></polygon><g><polygon fill="#adcbf9" points="896.14 431.76 864.36 431.9 863.99 430.21 895.78 430.07 896.14 431.76"></polygon><polygon fill="#adcbf9" points="901.21 436.44 861.31 436.62 860.95 434.93 900.85 434.76 901.21 436.44"></polygon><g><polygon fill="#adcbf9" points="912.19 459.64 860.35 459.87 859.99 458.18 911.82 457.95 912.19 459.64"></polygon><polygon fill="#adcbf9" points="913.39 465.19 861.55 465.42 861.19 463.74 913.02 463.51 913.39 465.19"></polygon><polygon fill="#adcbf9" points="914.58 470.75 862.75 470.98 862.39 469.3 914.22 469.06 914.58 470.75"></polygon><polygon fill="#adcbf9" points="915.78 476.31 863.95 476.54 863.59 474.85 915.42 474.62 915.78 476.31"></polygon><polygon fill="#adcbf9" points="916.98 481.86 865.15 482.09 864.78 480.41 916.62 480.18 916.98 481.86"></polygon></g><g><polygon fill="#adcbf9" points="919.9 495.39 868.06 495.62 867.7 493.93 919.53 493.7 919.9 495.39"></polygon><polygon fill="#adcbf9" points="921.1 500.94 869.26 501.17 868.9 499.49 920.73 499.26 921.1 500.94"></polygon><polygon fill="#adcbf9" points="922.29 506.5 870.46 506.73 870.1 505.04 921.93 504.81 922.29 506.5"></polygon><polygon fill="#adcbf9" points="923.49 512.06 871.66 512.29 871.3 510.6 923.13 510.37 923.49 512.06"></polygon><polygon fill="#adcbf9" points="924.69 517.61 872.86 517.84 872.5 516.16 924.33 515.93 924.69 517.61"></polygon></g></g></g><g><polygon fill="#fff" points="970.27 673.32 894.47 673.65 869.89 559.69 945.69 559.35 970.27 673.32"></polygon><g><polygon fill="#adcbf9" points="926.89 574.32 895.11 574.47 894.74 572.78 926.53 572.64 926.89 574.32"></polygon><polygon fill="#adcbf9" points="931.97 579.01 892.06 579.19 891.7 577.5 931.6 577.32 931.97 579.01"></polygon><g><polygon fill="#adcbf9" points="942.94 602.2 891.1 602.43 890.74 600.75 942.57 600.52 942.94 602.2"></polygon><polygon fill="#adcbf9" points="944.14 607.76 892.3 607.99 891.94 606.3 943.77 606.07 944.14 607.76"></polygon><polygon fill="#adcbf9" points="945.33 613.32 893.5 613.55 893.14 611.86 944.97 611.63 945.33 613.32"></polygon><polygon fill="#adcbf9" points="946.53 618.87 894.7 619.1 894.34 617.42 946.17 617.19 946.53 618.87"></polygon><polygon fill="#adcbf9" points="947.73 624.43 895.9 624.66 895.53 622.97 947.37 622.74 947.73 624.43"></polygon></g><g><polygon fill="#adcbf9" points="950.65 637.95 898.82 638.18 898.45 636.5 950.28 636.27 950.65 637.95"></polygon><polygon fill="#adcbf9" points="951.85 643.51 900.01 643.74 899.65 642.05 951.48 641.82 951.85 643.51"></polygon><polygon fill="#adcbf9" points="953.05 649.07 901.21 649.3 900.85 647.61 952.68 647.38 953.05 649.07"></polygon><polygon fill="#adcbf9" points="954.24 654.62 902.41 654.85 902.05 653.17 953.88 652.94 954.24 654.62"></polygon><polygon fill="#adcbf9" points="955.44 660.18 903.61 660.41 903.25 658.72 955.08 658.49 955.44 660.18"></polygon></g></g></g><g><g><polygon fill="#fff" points="870.6 674.28 605.48 675.46 529.18 321.7 563.71 276.66 784.63 275.68 870.6 674.28"></polygon><polygon fill="#adcbf9" points="711.6 335.46 618.16 335.88 617.09 330.92 710.53 330.5 711.6 335.46"></polygon><polygon fill="#adcbf9" points="726.51 349.23 609.2 349.76 608.14 344.8 725.44 344.28 726.51 349.23"></polygon><g><polygon fill="#adcbf9" points="758.77 417.42 606.4 418.1 605.33 413.14 757.7 412.46 758.77 417.42"></polygon><polygon fill="#adcbf9" points="762.29 433.75 609.92 434.43 608.85 429.47 761.22 428.79 762.29 433.75"></polygon><polygon fill="#adcbf9" points="765.82 450.09 613.44 450.77 612.37 445.81 764.75 445.13 765.82 450.09"></polygon><polygon fill="#adcbf9" points="769.34 466.42 616.97 467.1 615.9 462.14 768.27 461.46 769.34 466.42"></polygon><polygon fill="#adcbf9" points="772.86 482.76 620.49 483.44 619.42 478.48 771.79 477.8 772.86 482.76"></polygon></g><g><polygon fill="#adcbf9" points="781.44 522.51 629.06 523.19 627.99 518.23 780.37 517.55 781.44 522.51"></polygon><polygon fill="#adcbf9" points="784.96 538.84 632.59 539.52 631.52 534.57 783.89 533.89 784.96 538.84"></polygon><polygon fill="#adcbf9" points="788.48 555.18 636.11 555.86 635.04 550.9 787.41 550.22 788.48 555.18"></polygon><polygon fill="#adcbf9" points="792.01 571.51 639.63 572.19 638.56 567.24 790.94 566.56 792.01 571.51"></polygon><polygon fill="#adcbf9" points="795.53 587.85 643.16 588.53 642.09 583.57 794.46 582.89 795.53 587.85"></polygon></g></g><polygon fill="#adcbf9" points="529.18 321.7 573.39 321.5 563.71 276.66 529.18 321.7"></polygon></g></g></g><g><g><g><path fill="#fcecdb" d="M951.91,859.4h209.09c20.93,0,37.92,16.99,37.92,37.92v15.63c0,21.4-17.37,38.77-38.77,38.77h-208.23v-92.31h0Z"></path><path fill="#699dee" d="M1383.14,897.39v13.89c0,7.42-1.65,14.37-4.53,20.34-5.79,12.02-16.55,20.1-28.87,20.1h-404.44c-2.68,0-4.84-2.63-4.84-5.86v-2.08c0-3.24,2.17-5.86,4.84-5.86h246.55c1.32-1.95,2.48-4.05,3.46-6.3,2.31-5.27,3.61-11.27,3.61-17.65v-17.65c0-3.25-.35-6.4-1-9.39-1.1-5.08-3.08-9.73-5.72-13.71h-246.9c-2.68,0-4.84-2.63-4.84-5.87v-2.07c0-3.24,2.17-5.87,4.84-5.87h406.48c14.32,0,26.41,11.63,30.16,27.52,.79,3.33,1.21,6.84,1.21,10.47Z"></path><path fill="#548ee2" d="M1381.93,886.92h-184.01c-1.1-5.08-3.08-9.73-5.72-13.71h-246.9c-2.68,0-4.84-2.63-4.84-5.87v-2.07c0-3.24,2.17-5.87,4.84-5.87h406.48c14.32,0,26.41,11.63,30.16,27.52Z"></path></g><polygon fill="#f4d2b8" points="951.91 905.56 981.86 907.11 951.91 908.05 951.91 905.56"></polygon><polygon fill="#f4d2b8" points="951.91 920.05 1023.16 921.6 951.91 922.53 951.91 920.05"></polygon></g><g><g><g><path fill="#2b478b" transform="translate(2205.95 1974.85) rotate(-180)" d="M972.81,951.53h229.58c16.98,0,30.76,13.78,30.76,30.76v12.15c0,15.94-12.94,28.89-28.89,28.89h-231.45v-71.8h0Z"></path><path fill="#fcecdb" transform="translate(2671.55 1974.85) rotate(180)" d="M1190.1,951.53h261.19c16.65,0,30.16,13.51,30.16,30.16v12.15c0,16.28-13.21,29.49-29.49,29.49h-261.86v-71.8h0Z"></path><path fill="#2b478b" d="M1172.64,1023.33h317.89c2.45,0,4.43-2.4,4.43-5.37h0c0-2.97-1.98-5.37-4.43-5.37h-317.89c-2.45,0-4.43,2.4-4.43,5.37h0c0,2.97,1.98,5.37,4.43,5.37Z"></path><path fill="#2b478b" d="M1172.64,962.26h317.89c2.45,0,4.43-2.4,4.43-5.37h0c0-2.97-1.98-5.37-4.43-5.37h-317.89c-2.45,0-4.43,2.4-4.43,5.37h0c0,2.97,1.98,5.37,4.43,5.37Z"></path></g><polygon fill="#f4d2b8" points="1481.45 987.43 1446.13 988.63 1481.45 989.36 1481.45 987.43"></polygon><polygon fill="#f4d2b8" points="1481.45 970.9 1397.41 972.11 1481.45 972.84 1481.45 970.9"></polygon></g><g><path fill="#699dee" d="M1398.28,971.87s3.6,3.09,4.79,8.16c.21,.89,.35,1.84,.37,2.84,.2,6.74,0,21.99,0,21.99l10.63-7.62,10.6,7.62v-20.67c0-3.91-.91-7.71-2.6-10.2-.82-1.21-1.81-2.11-2.94-2.11h-20.87Z"></path><path fill="#568cdb" d="M1398.28,971.87s3.6,3.09,4.79,8.16l21.31,.3s-.84-7.26-5.23-8.46h-20.87Z"></path></g></g><g><g><g><path fill="#fcecdb" transform="translate(2586.37 1613.7) rotate(180)" d="M1158.41,754.1h225.25c24.46,0,44.31,19.86,44.31,44.31v17.86c0,23.91-19.42,43.33-43.33,43.33h-226.23v-105.5h0Z"></path><path fill="#b5453c" d="M1163.93,795.03v22.7c.06,9.7,4.49,18.11,11,22.61,3.21,2.21,6.91,3.47,10.85,3.47h254.93c2.99,0,5.41,2.93,5.41,6.55v2.68c0,3.62-2.42,6.55-5.41,6.55h-440.4c-12.64,0-23.8-7.61-30.55-19.25-4.25-7.34-6.75-16.27-6.75-25.92v-17.91c0-6.61,1.25-12.87,3.48-18.44,5.66-14.19,17.66-23.97,31.54-23.97h442.68c2.99,0,5.41,2.93,5.41,6.55v2.68c0,3.62-2.42,6.55-5.41,6.55h-255.71c-6.11,0-11.64,3.15-15.51,8.19-3.42,4.47-5.53,10.41-5.57,16.96Z"></path></g><polygon fill="#f4d2b8" points="1427.97 806.85 1395.29 808.62 1427.97 809.69 1427.97 806.85"></polygon><polygon fill="#f4d2b8" points="1427.97 782.57 1350.22 784.34 1427.97 785.41 1427.97 782.57"></polygon></g><g><path fill="#f99746" d="M1351.02,783.99s5.13,3.34,6.83,8.84c.3,.96,.49,1.99,.53,3.08,.28,7.31,0,23.84,0,23.84l15.15-8.27,15.11,8.27v-22.41c0-4.24-1.3-8.36-3.7-11.06-1.17-1.31-2.58-2.29-4.18-2.29h-29.73Z"></path><path fill="#ed7d2b" d="M1351.02,783.99s5.13,3.34,6.83,8.84l30.36,.33s-1.19-7.87-7.46-9.17h-29.73Z"></path></g></g></g><g><path fill="#233862" d="M1197.3,714.99c13.44,28.32,30.34,39.25,30.34,39.25h70.31s-110.9-60.86-100.65-39.25Z"></path><g><path fill="#ffb27d" d="M1251.3,934.11c1.83,2.54,2.07,5.38,1.16,8.42,0,.01,0,.03-.02,.04-1.68,5.61-7.22,11.88-13.65,18.14-.82,.8-1.55,1.54-2.19,2.21-.17,.18-.33,.36-.49,.53-.13,.14-.25,.28-.38,.41-6,6.7-3.74,8.23-14.52,21.83-12.29,15.49-20.76,15.77-23.16,14.36-2.04-1.2,2.1-9.42,6.69-18.65,.22-.44,.44-.9,.67-1.35,.61-1.23,1.22-2.47,1.82-3.71,5.37-11.11,3.99-16.33,2.72-32.87-1.04-13.44-17.26-75.08-17.26-75.08l23.56-4.91s7.09,49.09,14.91,56.64c4.18,4.03,8.86,4.08,12.88,7.07,.28,.21,.56,.42,.84,.64,2.28,1.83,4.61,3.72,6.45,6.27Z"></path><path fill="#233862" d="M1251.3,934.11c1.83,2.54,2.07,5.38,1.16,8.42,0,.01,0,.03-.02,.04-2.05,5.61-7.45,11.84-13.67,18.08-.81,.82-1.53,1.57-2.17,2.27-.17,.18-.33,.36-.49,.53-.13,.14-.25,.28-.38,.41-6,6.7-3.74,8.23-14.52,21.83-12.29,15.49-20.76,15.77-23.16,14.36-2.04-1.2,2.1-9.42,6.69-18.65,2.39-1.06,13.51-6.53,21.91-19.55,7.4-11.44,12.34-26.14,17.38-34.65,.28,.21,.56,.42,.84,.64,2.28,1.83,4.61,3.72,6.45,6.27Z"></path><path fill="#ffb27d" d="M1061.34,916.29c-1.45,8.81-11.82,7.34-23.4,3.91-11.58-3.43-8.83,.65-25.31-1.56-16.48-2.21-21.48-9.65-21.98-12.62-.45-2.63,7.69-3.56,16.43-4.78,1.1-.15,2.2-.31,3.31-.48,9.86-1.5,17.08-9.21,26.04-15.54,8.49-6,21.15-30.42,21.15-30.42l22.6,2.17s-11.86,21.82-16.45,31.3c-2.7,5.58-2.56,12.96-2.22,18.65,.18,3.1,.34,6.26-.17,9.36Z"></path><path fill="#233862" d="M1037.94,920.2c-11.58-3.43-8.83,.65-25.31-1.56-16.48-2.21-21.48-9.65-21.98-12.62-.45-2.63,7.69-3.56,16.43-4.78l.08,.2s9.88,8.49,23.6,8.88c11.18,.33,23.03-3.55,30.75-3.4,.18,3.1,.34,6.26-.17,9.36-1.45,8.81-11.82,7.34-23.4,3.91Z"></path><path fill="#233862" d="M1147.96,741.26l21.13,68.86,27.59,89.91s7.49,.88,14.66-1.62c6.6-2.31,14.17-8.35,14.17-8.35,0,0-7.66-96.53-21.95-151.95-3.66-14.22-7.77-25.73-12.29-32.21-22.15-31.7-43.3,35.37-43.3,35.37Z"></path><path fill="#2b478b" d="M1169.44,631.91c13.84-5.41,53.33,1.54,92.99,10.94l8.3-16.59,85.67-8.1s28.27,75.92,12.79,124.29c-2.27,7.11-6.79,11.67-14.5,11.82,0,0-1.25,0-1.25,0,0,0-50.99-.04-67.54-.04-42.6,0-90.16-35.46-96.32-36.95-10.07-2.44-14.1,21.95-24.17,47.56-10.07,25.61-94.66,113.42-94.66,113.42,0,0-13,.16-18.37-2.28-5.78-2.62-7.89-6.03-7.89-6.03,0,0,93.73-225.84,124.95-238.03Z"></path><path fill="#233862" d="M1271.24,483.39c30.51,20.34,92.39,62.51,92.71,62.24,0,0,22.75,10.38,35.65,0,21.51-17.3,33.04-63.85-6.29-103.92-19.62-19.98-33.55-24.84-35.67-56.75-1.15-17.31-20.69-74.43-53.15-69.15-2.71,.44-19.41,1.39-30.38,8.36-27.96,17.78-48.6,151.34-2.87,159.21Z"></path><path fill="#ffb27d" d="M1296.81,466.08c-.13,.1,15.01,6.37,25.14,.94,9.53-5.1,16.74-24.08,16.6-24.09-4.33-.24-9.09-4.83-12.75-34.94l-1.84,.8-31.03,13.52s2.25,12.06,3.7,23.53c1.22,9.64,1.88,18.87,.19,20.23Z"></path><path fill="#ed975d" d="M1292.92,422.31s2.25,12.06,3.7,23.53c17.82-3.88,24.81-25.39,27.32-37.05l-31.03,13.52Z"></path><path fill="#ffb27d" d="M1288.3,434.28s42.45-6.9,38.49-38.85c-3.96-31.95-1.14-54.35-28.41-51.3-27.27,3.05-31.01,16.2-31.84,27.25-.82,11.05,10.61,63.87,21.75,62.89Z"></path><path fill="#233862" d="M1268.09,353.87s27.17,28.36,45.66,30.65c18.48,2.29,25.48-4.9,25.48-4.9,0,0-10.89-10.95-17.45-28.63-1.93-5.21-6.01-8.79-10.71-9.28-13.2-1.38-38.22-2.01-42.97,12.16Z"></path><path fill="#233862" d="M1285.08,351.33s-9.09,10.64-11.95,18.54c-2.76,7.62-3.59,25.84-1.39,33.08,0,0-14.16-33.35-6.14-49.56,8.5-17.18,19.49-2.06,19.49-2.06Z"></path><path fill="#fff" d="M1261.06,541.8c1.28,104.06,.35,82.31,9.75,92.19,2.26,2.38,8.63,3.79,17.01,4.46,26.35,2.12,72.66-3.14,74.43-9.04,6.08-20.4,1.79-26.74,6.86-57.98,.53-3.32,1.18-6.92,1.95-10.83,4.23-21.46,8.34-28.75-6.66-63.22-13.6-31.22-27.73-56.56-29-55.65-35.89,25.8-38.78,4.11-38.78,4.11,0,0-36.19,45.2-35.56,95.95Z"></path><path fill="#2b478b" d="M1169.09,810.12l27.59,89.91s7.49,.88,14.66-1.62c6.6-2.31,14.17-8.35,14.17-8.35,0,0-7.66-96.53-21.95-151.95l-34.47,72.02Z"></path><path fill="#fff" d="M1296.62,445.85s-36.93,7.58-41.26,26.83c-4.34,19.25-29.85,132.44-29.85,132.44,0,0,18.77,4.08,27.44-6.42,8.67-10.5,30.17-97.43,30.17-97.43l13.5-55.42Z"></path><path fill="#ebf3ff" d="M1287.83,638.46c26.35,2.12,72.66-3.14,74.43-9.04,6.08-20.4,1.79-26.74,6.86-57.98l-12.71-43.34s2.1,48.26-9.65,60.95c-11.74,12.69-48.12,24.5-53.83,35.11-2.76,5.09-4.57,10.19-5.1,14.29Z"></path><path fill="#ffb27d" d="M1318.02,618.16s-25.99-7.01-30.19-4.22c-4.19,2.79-14.45,12.97-15.73,16.51-1.28,3.54,9.34-2.69,12.79-3.81,2.24-.73,8.13,1.75,11.04,2.93,12.27,4.95,19.79,2.41,19.79,2.41l2.3-13.82Z"></path><path fill="#fff" d="M1335.42,441.71s34.9,2.6,46.99,23.01c17.01,28.73,50.75,151.16,31.41,167.49-21.78,18.39-99.11,4.81-99.11,4.81,0,0-2.57-14.57,1.01-21.61,3.58-7.05,61.77-18.43,64.45-21.68,2.69-3.25-33.57-63.42-33.57-73.18s-11.18-78.84-11.18-78.84Z"></path><path fill="#ffb27d" d="M1286.57,622.71s-5.45,8.51-7.23,9.52c-1.79,1.02-2.94,.76-2.94,.76l3.67-8,6.5-2.29Z"></path><path fill="#ffb27d" d="M1287.83,613.94l-15.84,9.31s.67,1.34,2.62,1.23c1.95-.11,6.87-2.29,6.87-2.29l6.34-8.25Z"></path></g><g><g><polygon fill="#f99746" points="1279.34 645.26 1154.08 645.26 1116.39 531.79 1241.46 531.79 1279.34 645.26"></polygon><polygon fill="#ed7d2b" points="1152.61 640.84 1318.02 640.84 1318.02 645.26 1154.08 645.26 1152.61 640.84"></polygon></g><path fill="#fff" d="M1185.7,588.53c-.94-3.99,.96-7.22,4.25-7.22s6.73,3.23,7.67,7.22c.94,3.99-.96,7.22-4.25,7.22s-6.73-3.23-7.67-7.22Z"></path></g></g><g><path fill="#afcdfb" d="M141.04,689.83l-2.67,2.24c-2.85,2.39-6.77,1.53-8.74-1.92l-15.51-27.11c-1.97-3.45-1.26-8.2,1.59-10.59l3.82-3.21c.56-.47,1.32-.3,1.71,.38,.39,.68,.25,1.6-.31,2.07l-3.82,3.21c-1.73,1.45-2.17,4.35-.96,6.45l15.51,27.11c1.2,2.1,3.59,2.62,5.32,1.17l2.67-2.24c1.73-1.45,2.17-4.35,.96-6.45l-10.3-17.99c-.39-.68-.25-1.6,.31-2.07,.56-.47,1.32-.3,1.71,.38l10.3,17.99c1.97,3.45,1.26,8.2-1.59,10.59Z"></path><path fill="#afcdfb" d="M158.05,716.56l-4.78,4.01c-4.44,3.73-10.74,2.07-14.03-3.69l-23.32-40.75c-.39-.68-.25-1.6,.31-2.07,.56-.47,1.32-.3,1.71,.38l23.32,40.75c2.52,4.41,7.28,5.73,10.61,2.94l4.78-4.01c3.33-2.79,3.98-8.65,1.45-13.06l-26.57-46.42c-2.52-4.41-7.28-5.73-10.61-2.94-.56,.47-1.32,.3-1.71-.38-.39-.68-.25-1.6,.31-2.07,4.44-3.73,10.74-2.07,14.03,3.69l26.57,46.42c3.3,5.76,2.37,13.48-2.07,17.21Z"></path></g><g><path fill="#afcdfb" d="M190.14,929.41l.58,5.74c.61,6.13-3,11.72-8.06,12.46l-39.78,5.85c-5.06,.74-9.68-3.64-10.29-9.77l-.82-8.22c-.12-1.2,.59-2.29,1.58-2.44,.99-.15,1.89,.71,2.01,1.91l.82,8.22c.37,3.73,3.18,6.4,6.26,5.94l39.78-5.85c3.08-.45,5.28-3.86,4.91-7.59l-.58-5.74c-.37-3.73-3.18-6.4-6.26-5.94l-26.4,3.88c-.99,.15-1.89-.71-2.01-1.91-.12-1.2,.59-2.29,1.58-2.44l26.4-3.88c5.06-.74,9.68,3.64,10.29,9.77Z"></path><path fill="#afcdfb" d="M230.53,920.96l1.03,10.29c.96,9.56-5.14,18.34-13.59,19.58l-59.8,8.79c-.99,.15-1.89-.71-2.01-1.91-.12-1.2,.59-2.29,1.58-2.44l59.8-8.79c6.47-.95,11.16-7.55,10.44-14.7l-1.03-10.29c-.72-7.16-6.57-12.21-13.04-11.25l-68.12,10.01c-6.47,.95-11.16,7.55-10.44,14.7,.12,1.2-.59,2.29-1.58,2.44-.99,.15-1.89-.71-2.01-1.91-.96-9.55,5.14-18.34,13.59-19.58l68.12-10.01c8.45-1.24,16.11,5.52,17.07,15.08Z"></path></g><ellipse fill="#f99746" ry="6.68" rx="5.51" cy="247.78" cx="873.43"></ellipse><rect fill="#2e3552" ry="2.15" rx="2.15" height="5.18" width="1611.5" y="1022.82" x="8.5"></rect></g></g></g></svg>