<svg viewBox="0 0 1920 1028" xmlns="http://www.w3.org/2000/svg"><g id="a"></g><g id="b"><g id="c"><g><path fill="#fff" d="M660.74,142.36c2.85-.1,5.81-.48,8.84-1.2,5.78-1.39,13.72-6.49,17.55-11.37,.41-.52,.81-1.05,1.2-1.57,23.56-32.29-1.56-76.16-39.46-67.55-4.95,1.14-11.32,4.86-15.68,8.99-1,.97-1.91,1.94-2.64,2.9-3.46,4.46-5.96,9.14-7.61,13.93-9.36,27.25,9.3,56.69,37.79,55.88Z"></path><path fill="#fff" d="M1504.65,1020.75l-.04,.04h11.61c-.06-.01-.13-.02-.19-.04h-11.39Z"></path><path fill="#fff" d="M315.49,1020.75v.04h86.14l-.02-.04h-86.12Z"></path><path fill="#fff" d="M1175.98,1020.75H457.79v.04h978.52l-.02-.04h-260.31Z"></path><path fill="#fff" d="M1466.76,1020.75l-.04,.04h7.47s-.01-.02-.02-.04h-7.42Z"></path><path fill="#fff" d="M568.68,105.36l.77-.27,15.44-5.14c1.65-.55,2.79-2.11,2.9-3.97v-.02c.28-4.45,.91-8.94,1.95-13.43,.55-2.39,1.21-4.72,1.95-7.02,.53-1.59,.17-3.35-.94-4.55l-11.26-12.08c-1.55-1.65-1.65-4.31-.25-6.07l11.3-14.41c.32-.41,.71-.73,1.11-.99,1.31-.8,3.01-.78,4.32,.16l9.92,7.18c1.22,.87,2.79,.97,4.08,.3,.34-.18,.66-.41,.96-.69,7.03-6.9,15.27-12.2,24.25-15.64,1.53-.56,2.55-2.09,2.67-3.79,.01-.24,0-.49-.02-.75l-1.52-15.32c-.22-2.22,1.15-4.26,3.19-4.75l.4-.1L656.68,.1c2.12-.47,4.2,.85,4.84,3.07l5.5,19.12c.47,1.59,1.73,2.76,3.26,3.03,1.95,.34,3.91,.77,5.86,1.29,3.63,.97,7.12,2.19,10.43,3.7,1.55,.71,3.33,.35,4.51-.94l13.77-14.78c1.46-1.59,3.83-1.7,5.44-.24l13.62,12.31c1.54,1.4,1.85,3.8,.74,5.6l-9.99,15.99c-1,1.53-.91,3.6,.2,5.12,4.71,6.38,8.45,13.56,11.1,21.26,.64,1.86,2.42,3.03,4.25,2.82l10.84-1.26c2.06-.22,3.99,1.24,4.44,3.43l3.72,18.56c.08,.38,.12,.75,.1,1.13-.06,1.79-1.18,3.4-2.83,3.93l-13.29,4.43-3.24,1.07c-.33,3.53-.91,7.11-1.72,10.65-1.1,4.77-2.59,9.34-4.42,13.63-.69,1.64-.4,3.56,.79,4.82l11.1,11.91c1.51,1.64,1.62,4.23,.23,5.98l-8.76,11.19-2.52,3.2c-1.37,1.75-3.76,2.13-5.51,.85l-12.45-8.96c-1.43-1.06-3.32-1.02-4.67,.11-4.09,3.3-8.49,6.13-13.12,8.41-.39,.23-.76,.4-1.16,.59-.14,.05-.26,.13-.38,.21-1.43,.86-2.22,2.56-2.04,4.32l1.86,18.92c.03,.21,.03,.43,.02,.64-.07,1.96-1.39,3.68-3.21,4.12l-17.21,4.01c-2.08,.48-4.15-.81-4.79-3.01l-5.73-19.95c-.47-1.7-1.87-2.88-3.51-3.03-3.6-.35-7.24-1-10.89-1.98-1.93-.51-3.83-1.11-5.68-1.78-1.51-.54-3.17-.12-4.29,1.09l-13.24,14.2c-1.45,1.57-3.8,1.69-5.4,.25l-13.46-12.2c-1.63-1.47-1.99-4.02-.79-5.95l7.9-12.66c1.06-1.7,.9-3.92-.36-5.43-5.04-5.86-9.17-12.54-12.3-19.76-.71-1.72-2.4-2.75-4.17-2.55l-15.87,1.81c-2.13,.24-4.08-1.29-4.55-3.53l-3.73-18.43c-.45-2.21,.77-4.43,2.76-5.07Zm1351.32,919.96c0,1.48-1.12,2.68-2.5,2.68H2.5c-1.37,0-2.5-1.21-2.5-2.68v-1.85c0-1.48,1.12-2.68,2.5-2.68H290.66l-.06-.04H77.95s-123.88-276.93-14.33-569.47c71.41-190.68,307.57-252.37,491.31-220.55,60.41,10.46,134.13,37.09,216.3,13.69v-10.47c0-27.22,20.61-49.37,45.95-49.37h60.53c14.64-12.66,29.46-27.43,44.43-44.64,174.02-200.05,671.57-199.67,752.73,125.04,36.33,3.44,70.87,20.27,74.28,80.59,2.29,40.49-15.63,66.91-66.3,71.66-2.89,25.62-7.75,52.53-14.74,80.77-65.9,266.01,251.89,223.37,198.91,522.74h-342.11c-.07,.01-.15,.02-.22,.04h392.82c1.37,0,2.5,1.21,2.5,2.68v1.85Z"></path><path fill="#ebf3fa" d="M1362.08,538.67c.03,.23,.06,.45,.08,.64,.03-.03,.05-.06,.08-.09l-.15-.55Z"></path><path fill="#ebf3fa" d="M1466.76,1020.75h7.42c-.13-.29-.2-.64-.21-1.04-.51-.11-1.03-.22-1.6-.29-3.33-.47-5.04,.8-5.6,1.33Z"></path><path fill="#ebf3fa" d="M284.19,1008.86c-1.2-8.49-10.06-13.13-11.98-20.07-1.91-6.94,7.91-16.72,7.91-16.72l1.64-2.27h0c-.81-.86-1.4-1.7-1.64-2.49,0,0,13.19-128.17,36.28-159.41,4.68-6.32,9.64-17.18,14.13-29.37l-5.03-.77c-1.28,.11-2.59,.07-3.92-.13l-75.24-11.52c-9.85-1.51-16.75-11.39-15.35-21.97l4.71-35.5c1.41-10.58,10.61-18,20.46-16.49l25.91,3.97,1-7.57c.46-3.5,3.49-5.94,6.75-5.44l2.84,.43,1.9,.29c.32-1.26,.45-2.8,.22-4.83-1-8.95-.98-9.73,3.66-13.76-2.25-1.1-3.66-2.21-3.66-2.21,0,0,3.38-54.25,13.13-78.45,3.76-9.33,28.69-55.02,46.3-86.95,2.74-10.59,6.31-19.57,10.71-26.3l-.04-.02s.05-.04,.13-.11c2.16-3.28,4.51-6.02,7.06-8.15,3.75-5.43,7.94-13.57,9.78-24.52-1.6-2.21-2.75-4.94-3.22-8.3-.12-.88-.25-1.74-.38-2.59-8.2-9.35-9.88-34.73-5.61-43.95,4.33-9.36,12.9-10.22,26.15-11.08,6.02-.39,16.62-6.32,27.02,2.73,10.4,9.05,1.42,22.25,1.42,22.25,2.31-.99,3.84-4.12,3.84-4.12,0,0-.28,8.75-5.67,11.3-1.32,.62-2.59,.83-3.94,.8,1.62,13.56,1.3,39.57-5.8,41.33,0,0-2.53,.45-6.27,.64-.01,.81-.14,6.16-1.22,15-.31,2.53-.7,5.36-1.19,8.44,1.49,.88,2.87,1.81,4.14,2.75,.59-.1,1.18-.21,1.77-.34l7.08,6.72c8.62,8.6,18.07,20.29,22.17,38.04,1.3,5.61,2.4,12.91,3.32,21.3,9.34,15.4,18.41,29.13,23.97,34.41l56.5-45.26s.54,.18,1.4,.59c.04-.11,.07-.22,.11-.33,0,0,1.56-2.15,.6-4.86-.95-2.7-.76-6.87,.87-9.42,1.63-2.54,3.2-8.81,4.18-8.62,2.38,.44-1.17,9.05-.15,10.65,.92,1.44,2.07,.95,2.28,.84,.01,0,.03-.01,.04-.02,.2-.09,.39-.2,.59-.32l16.51-25.23c.41-.63,1.24-.79,1.83-.34l8.35,6.3h0l4.19,3.16c.45,.34,.56,1.01,.24,1.49l-21.74,33.24c-.32,.48-.94,.6-1.39,.26l-1.78-1.34c-2.4,1.2-4.1,2.57-5.2,3.65,.31,.58,.6,1.2,.86,1.85,0,0-34.31,75.1-68.09,78.28-6.34,.6-13.16-2.2-20.06-7.14,.13,5.2,.23,10.34,.27,15.37v.44c.1,1.21,.1,2.54,.1,3.75,.41,31.43,0,56.35-.51,56.79-.62,.55-1.33,.88-2.15,.88-.13,0-.28,0-.42,0-.83,11.21-3.26,43.92-6.02,81.76-4.65,63.69-10.24,141.93-10.79,156.75-.96,25.74-4.79,66.91-4.79,66.91,0,0-.86,.93-2.59,2.09h0c3.32,11.8,18.19,17.16,26.78,18.65,5.43,.95,7.52,3.91,8.34,6.08h359.39c-25.34,0-45.95-22.15-45.95-49.37v-81.98c-7.82,25.64-28.64,54.91-46.02,70.74-25.77,23.48-24.21,5.09-25.13-20.03-.92-25.12,25.28-54.03,27.41-67.3,2.14-13.27-12.49-3.58-24.78,16.2-12.29,19.78-1.74,43.74-21.07,76.12-19.33,32.38-88.85,10.87-88.85,10.87,21.2-15.74,37.76-62.05,32.13-69.12-5.63-7.06-45.3,48.74-53.59,55.66-8.29,6.92-35.32,8.48-60.56-27.87-25.24-36.35,27.21-86.01,27.21-86.01,0,0,84.91,7.82,94.62-2.53,9.72-10.35-71.38-21.92-71.38-21.92,14.24-23.93,81-59.22,81-59.22,0,0,62.82,58.75,69.87,46.14,7.05-12.6-58.09-48.97-58.09-48.97,21.73-16.46,59.77-16.84,59.77-16.84,56.4,6.97,45.15,84.42,45.15,84.42,0,0,4.31,3.86,12.3,8.76v-120.94c-21.94,9.39-55.23,9.98-76.65,5.23-30.71-6.81-17.31-16.1-.75-31.19,16.56-15.08,51.21-11.05,61.45-16.96,10.25-5.91-4.71-11.85-25.19-10.19-20.48,1.66-30.75,23.65-63.83,26.99-33.08,3.34-58.2-63.55-58.2-63.55,22.83,7.65,63.8-5.83,65.39-14.29,1.59-8.46-59.06-7.7-68.51-10.25-9.45-2.55-25.96-22.88-15.67-63.49,10.29-40.6,74.07-27.82,74.07-27.82,0,0,43.23,71.14,55.83,72.85,12.6,1.71-25.91-68.58-25.91-68.58,18.81-1.93,60.03,16.76,77.97,25.45V244.42c-82.18,23.39-155.89-3.23-216.3-13.69-183.74-31.81-419.9,29.87-491.31,220.55-109.55,292.53,14.33,569.47,14.33,569.47h212.65c-2.97-1.89-5.57-5.94-6.41-11.89Zm255.4-728.63c37,0,77.26,10.3,80.75,71.98,2.24,39.68-17.44,64.1-74.14,64.1-19.12,0-33.98-3.24-45.36-9.02l-28.34,27.05,13.93-37.4c-12.34-12.32-17.53-29.71-18.29-49.72-1.74-46.38,34.44-66.99,71.44-66.99Z"></path><path fill="#ebf3fa" d="M1510.25,1019.42c-3.33-.47-5.04,.8-5.6,1.33h11.39c-2-.42-3.62-1.03-5.79-1.33Z"></path><path fill="#ebf3fa" d="M1161.12,163.68c2.9-4.26,5.95-8.28,9.15-12.2,2.25-2.68,2.85-6.49,1.56-9.82l-13.2-33.72c-1.82-4.61-.01-9.96,4.07-12.25l33.22-18.7c.95-.53,1.96-.83,2.94-.99,3.2-.44,6.53,1.08,8.43,4.07l14.24,22.85c1.77,2.78,4.8,4.34,7.85,4.13,.8-.07,1.61-.24,2.41-.54,19.13-7.55,39.43-10.88,59.79-9.88,3.45,.22,6.63-1.91,8.15-5.18,.21-.47,.39-.97,.53-1.49l8.54-31.65c1.23-4.59,5.48-7.44,9.89-6.64l.86,.16,36.18,6.81c4.55,.91,7.68,5.33,7.28,10.28l-3.52,42.64c-.26,3.55,1.35,6.96,4.17,8.83,3.61,2.37,7.15,4.92,10.63,7.65,6.46,5.07,12.45,10.52,17.87,16.39,2.55,2.75,6.34,3.58,9.63,2.06l38.4-17.3c4.08-1.89,8.86-.05,10.95,4.25l17.7,36.21c2,4.11,.8,9.13-2.75,11.72l-31.82,22.98c-3.14,2.16-4.52,6.34-3.45,10.31,4.51,16.73,6.52,34.21,5.95,51.75-.13,4.23,2.51,8.1,6.29,9.27l22.41,6.94c4.24,1.36,6.96,5.92,6.21,10.66l-6.61,39.98c-.13,.82-.33,1.59-.66,2.32-1.45,3.49-4.9,5.7-8.56,5.31l-29.65-2.79-7.23-.69c-3.32,6.71-7.15,13.3-11.44,19.6-5.77,8.49-12.17,16.25-19.01,23.14-2.6,2.64-3.48,6.7-2.06,10.24l13,33.22c1.75,4.55,.02,9.79-4.04,12.04l-25.77,14.55-7.39,4.15c-4.03,2.28-9.04,.95-11.56-3.11l-17.9-28.56c-2.04-3.33-5.82-4.91-9.33-3.85-10.58,2.98-21.43,4.76-32.31,5.25-.95,.12-1.82,.14-2.75,.16-.31-.01-.62,.04-.92,.09-3.48,.45-6.33,3.13-7.29,6.77l-10.57,39.07c-.09,.45-.28,.88-.44,1.28-1.62,3.82-5.53,6.07-9.46,5.36l-37.11-7.02c-.25-.05-.49-.11-.73-.18v230.92c9.78-12.15,24.16-20.78,45-16.13,0,0,34.21,12.54,49.24,34.35,0,0-68.85,11.93-66,25.56,2.86,13.63,75.83-19.23,75.83-19.23,0,0,50.43,53.22,56.63,79.37,0,0-76.36-15.55-70.47-3.1,5.89,12.45,84.65,32.6,84.65,32.6,0,0,33.53,61.61,.67,86.31-32.86,24.7-56.81,14.63-62.36,5.73-5.56-8.9-25.85-71.95-32.89-67.38-7.04,4.57-4.96,51.65,9.8,72.64,0,0-68.68-2.87-77.13-38.28-8.45-35.41,7.72-53.64,2.13-75.42-4.19-16.31-11.13-27.94-15.09-27.43v24.6c3.51,15.47,8.37,35.19,3.28,49.77-1.17,3.35-2.24,6.57-3.28,9.55v97.38c0,27.22-20.61,49.37-45.95,49.37h260.31c-.56-1.25,.11-3.75,.78-5.62,.48-1.35,1.53-2.37,2.82-2.77,3.2-1,9.5-1.88,15.28-7.5,3.25-3.15,15.69-11.6,15.69-11.6l.07-.02s.04,0,.06,0c1.4-11.76,2.83-28.89,2.67-48.74-.22-26.33-3.25-57.45-12.94-87.17-22.6-69.33-27.37-125.84-28.1-154.98-5.03-3.2-8.53-7.76-9.35-14.15-2.39-18.62,.99-45.9,4.18-71.07-3.46,7.01-7.55,10.65-12.38,8.73-23.94-9.48-47-53.49-47-53.49,0,0-8.54-9.97-10.57-17.34-.53-1.93-.46-4.02-.03-6.05,.25-1.67,1.07-14.04,1.77-20.56l-3.47-12.43c-.3-1.06,.27-2.18,1.25-2.5l12.77-4.11,3.48-1.12c.56-.18,1.14,.16,1.31,.76l10.34,37.06c.17,.6-.15,1.23-.71,1.41l-4.65,1.5c.03,2.86-3.82,11.47-3.82,11.8h0c-.02,3.07-.13,5.5-.14,5.91,6.29,9.88,34.58,28.86,34.58,28.86,.65-8.33,1.58-15.88,2.74-22.73,.44-2.6,.91-5.1,1.41-7.5-.08-.11-.12-.18-.12-.18,5.45-35.69,19.38-50.5,25.3-55.32,.29-.36,.57-.69,.85-.99,1.25-1.03,2.49-1.67,7.49-2.59,2.56-.47,6.1-1.01,11.12-1.72,0,0,1.08-.13,1.65-.17,.37-.04,.79-.08,1.26-.13,1.43-.81,1.81-7.22,1.79-13.98,0-3.21-.1-6.49-.21-9.29-3.09,.28-5.14,.25-5.14,.25-5.78-.49-9.39-17.12-10.69-30.57,0,0-6.96-18,.86-28.18,1.46-1.9,2.81-3.14,4.06-3.91,.36-.38,.71-.74,1.08-1.08,5.38-6.41,27.22-30.44,41.56-16.54,.37-1.39,5.07-17.05,27.81-11.85,0,0-11.39-1.54-14.51,3.17,0,0,9.02-4.44,14.68-.73,5.65,3.72,6.58,16.22,5.74,20.03-.84,3.81-7.09,15.13-11.22,15.13-1.57,0-3.24-.56-4.72-1.25,.63,2.01,1.2,4.2,1.68,6.6,4.39,22.19-9.35,39.06-16.45,34.89-4.55-2.67-8,5.89-8,5.89l-.03-.04c.67,16.23,4.81,26.83,7.89,29.48,1.11,.14,3.48,.45,6.46,.96v-.02s10.48,1.23,18.46,4.96c.06,.03,.13,.06,.19,.08,1.81,.81,3.37,1.72,4.53,2.72,.01,0,.02,.02,.04,.03h0c.6,.52,1.1,1.06,1.46,1.64,.18,.24,.34,.49,.46,.74,8.14,16.64,16.26,58.65,21.98,88.61-.95,.56-1.89,1.07-2.82,1.53,2.56,15.51,4.51,27.37,5.55,29.98,3.04,7.61,12.32,49.48,20.24,70.14,0,0,12.22,8.72,14.08,12.4,.61,1.21,1.49,3.48,2.4,5.98,3.14,3.62,6.93,7.95,6.93,7.95,0,0-2.38,1.16-3.94,.75,.51,1.53,.83,2.54,.83,2.54,0,0-3.11,.5-6.22-5.35-2.06-3.88-7.27-4.97-11.55-6.19,.68,3.28,1.3,7.26,.5,8.02-1.4,1.34-4.82-3.68-7.31-6.69-2.48-3-4.51-13.21-4.52-13.28-.81-1.68-1.33-2.88-1.33-2.88,0,0-33.4-59.54-36.44-75.03-.95-4.85-3.24-14.37-5.93-25.15-.06-.02-.13-.04-.19-.05,4.91,34.51,16.04,71.56,16.77,87.28,.11,2.3,0,4.13-.39,5.45-.49,1.66-1.42,2.99-2.93,3.95,.44,4.91,.73,10.05,.9,15.34,1.67,54.25-8.91,111.02-10.69,121.25,0,0,15.97,22.74,7.77,91.21-3.47,28.96-7.49,52.65-9.56,64.12,.1-.12,.16-.19,.16-.19,0,0,.94,.83,1.63,2.38,.56,1.22,.97,2.9,.65,4.98-.45,2.92,1,8.35,2.16,12.02,.7,2.22,1.3,3.8,1.3,3.8,0,0,.3,1.63-4.79,2.5h342.11c52.99-299.37-264.81-256.74-198.91-522.74,7-28.24,11.85-55.15,14.74-80.77-5.45,.51-11.26,.77-17.48,.77-21.61,0-38.4-3.66-51.26-10.19l-32.03,30.57,15.74-42.26c-13.94-13.93-19.82-33.57-20.67-56.19-1.97-52.42,38.92-75.71,80.74-75.71,5.63,0,11.32,.21,16.98,.75C1593.71-59.73,1096.16-60.1,922.14,139.95c-14.97,17.21-29.79,31.99-44.43,44.64h271.33c3.48-7.17,7.49-14.16,12.08-20.91Z"></path><path fill="#ebf3fa" d="M1508.75,993.26l.07-.02s.07,0,.12,.02c-1.68-11.5-3.75-27-5.48-43.81-.33-3.17-.67-6.37-1.02-9.55-.5,2.33-1.01,4.63-1.54,6.91-4.58,19.57-10.41,36.68-14.8,48.28,.11,.1,.96,.91,1.61,2.36,.56,1.22,.97,2.9,.65,4.98-.23,1.46,.03,3.55,.48,5.74,1.41-.87,2.84-1.95,4.23-3.31,3.25-3.15,15.69-11.6,15.69-11.6Z"></path><path fill="#ebf3fa" d="M1256.62,343.86c5.71,2.29,11.86,4.1,18.41,5.31,12.5,2.29,32.07-.93,43.31-7.26,1.21-.67,2.38-1.37,3.56-2.07,70.98-43.45,54.26-152.16-27.25-168.05-10.66-2.06-26.07-.21-37.82,4.16-2.71,1.06-5.25,2.18-7.4,3.45-10.2,5.82-18.69,12.93-25.55,20.96-2.76,3.24-5.25,6.63-7.48,10.14,3.52,6.98,5.53,14.97,5.53,23.46v84.12c8.8,10.97,20.42,19.99,34.69,25.78Z"></path><path fill="#ebf3fa" d="M298.04,696.57s-7.21,2.95-7.33-3.06c-.06-2.76,1-4.28,2.06-5.92l-.13-.02-3.35-.51c-.23-.03-.45-.03-.67,0-.94,.16-1.71,.96-1.85,2.02l-1,7.57,26.92,4.13,1-7.57c.17-1.3-.67-2.52-1.89-2.7l-3.88-.59c-1.66,1.99-4.64,4.02-9.88,6.66Z"></path><path fill="#ebf3fa" d="M771.23,855.86v-.22c-.25-.58-.63-1.37-1.19-2.31,.38,.81,.78,1.66,1.19,2.53Z"></path><path fill="#ebf3fa" d="M346.17,670.75c.07-2.66,.31-6.51,.62-11.36,1.02-16.01,2.76-42.97,1.37-74.3-5.52,7.34-9.45,12.81-10.06,14.26-2.43,5.73-21.33,68.44-21.33,68.44,0,0-2.73,.21-6.33,.04-.53,1.06-.93,2.07-.98,2.75-.03,.46-.06,.9-.07,1.33,.94,1.25,1.88,2.68,2,3.53,.77,5.7,2.54,8.16,1.66,8.78-1.01,.71-2.2-.24-3.26-1.86,.08,1.39,.09,2.62-.1,3.75l2.63,.4c1.57,.24,2.97,1.13,3.93,2.5,.96,1.37,1.36,3.06,1.14,4.75l-1,7.57,15.01,2.29c.59,.09,1.17,.21,1.74,.36,0,0,0,0,.01,0h0l8.23,1.26c1.7,.26,3.32,.78,4.82,1.5,.78-10.85,1.96-23.39,2.83-32.17-1.57-1.15-2.92-2.54-2.86-3.86Z"></path><path fill="#ebf3fa" d="M400.44,1000.08h0c-.81-.14-1.64-.29-2.49-.49,0,0-16.22-58.77-20.86-120.95-.07-1.02-.14-2.05-.22-3.07-.74-10.92-1.56-23.93-2.4-37.98-9.57,22.07-19.09,42.82-27.54,59.08-34.49,66.39-45.27,84.92-45.27,84.92,0,0-.47-.2-1.27-.56h0c.18,3.84,.27,8.26,.07,12.14-.48,9.26,2.41,19.24,10.07,21.04,5.47,1.29,5.42,4.7,4.94,6.54h86.12c-2.53-3.79-1.57-16.48-1.17-20.67Z"></path><path fill="#cde3fd" d="M1259.76,476.8c3.93,.71,7.83-1.55,9.46-5.36,.16-.4,.35-.83,.44-1.28l10.57-39.07c.97-3.64,3.81-6.32,7.29-6.77,.3-.05,.61-.1,.92-.09,.93-.02,1.8-.03,2.75-.16,10.88-.49,21.73-2.27,32.31-5.25,3.52-1.06,7.29,.52,9.33,3.85l17.9,28.56c2.52,4.06,7.53,5.39,11.56,3.11l7.39-4.15,25.77-14.55c4.06-2.25,5.79-7.49,4.04-12.04l-13-33.22c-1.42-3.54-.54-7.6,2.06-10.24,6.84-6.9,13.24-14.65,19.01-23.14,4.28-6.3,8.12-12.89,11.44-19.6l7.23,.69,29.65,2.79c3.67,.39,7.11-1.83,8.56-5.31,.33-.72,.53-1.49,.66-2.32l6.61-39.98c.74-4.74-1.97-9.3-6.21-10.66l-22.41-6.94c-3.78-1.17-6.42-5.04-6.29-9.27,.57-17.54-1.44-35.02-5.95-51.75-1.07-3.96,.31-8.14,3.45-10.31l31.82-22.98c3.54-2.6,4.74-7.61,2.75-11.72l-17.7-36.21c-2.09-4.3-6.86-6.14-10.95-4.25l-38.4,17.3c-3.29,1.52-7.09,.69-9.63-2.06-5.43-5.88-11.41-11.32-17.87-16.39-3.48-2.73-7.02-5.28-10.63-7.65-2.82-1.87-4.44-5.27-4.17-8.83l3.52-42.64c.4-4.95-2.73-9.37-7.28-10.28l-36.18-6.81-.86-.16c-4.41-.8-8.66,2.05-9.89,6.64l-8.54,31.65c-.14,.52-.32,1.02-.53,1.49-1.52,3.26-4.69,5.4-8.15,5.18-20.37-1-40.67,2.33-59.79,9.88-.8,.3-1.61,.47-2.41,.54-3.05,.21-6.08-1.36-7.85-4.13l-14.24-22.85c-1.9-2.99-5.23-4.51-8.43-4.07-.97,.16-1.99,.47-2.94,.99l-33.22,18.7c-4.09,2.29-5.89,7.64-4.07,12.25l13.2,33.72c1.29,3.33,.69,7.14-1.56,9.82-3.2,3.91-6.25,7.93-9.15,12.2-4.59,6.75-8.6,13.74-12.08,20.91h26.94c17.44,0,32.64,10.49,40.42,25.91,2.23-3.5,4.71-6.89,7.48-10.14,6.86-8.04,15.35-15.14,25.55-20.96,2.15-1.26,4.69-2.39,7.4-3.45,11.75-4.38,27.16-6.22,37.82-4.16,81.52,15.89,98.23,124.6,27.25,168.05-1.17,.7-2.35,1.4-3.56,2.07-11.25,6.33-30.82,9.54-43.31,7.26-6.55-1.21-12.7-3.02-18.41-5.31-14.27-5.8-25.9-14.81-34.69-25.78v151.53c.24,.07,.48,.13,.73,.18l37.11,7.02Z"></path><path fill="#2e3552" d="M1917.5,1020.79h-392.82c-.24,.04-.49,.08-.76,.11h-7.1c-.21-.03-.4-.08-.6-.11h-11.61s-.08,.08-.11,.11c-.05,.05-.07,.08-.07,.08h-30.16c-.04-.05-.05-.13-.08-.19h-7.47s-.08,.08-.11,.11c-.05,.05-.07,.08-.07,.08h-30.16c-.04-.05-.05-.13-.08-.19H457.8c.02,.05,.04,.1,.06,.16h-56.12s-.07-.1-.1-.16h-86.15c-.01,.05-.03,.11-.04,.16h-24.54c-.08-.05-.16-.1-.24-.16H2.5c-1.37,0-2.5,1.21-2.5,2.68v1.85c0,1.48,1.12,2.68,2.5,2.68H1917.5c1.37,0,2.5-1.21,2.5-2.68v-1.85c0-1.48-1.12-2.68-2.5-2.68Z"></path><path fill="#abc8f7" d="M770.04,853.33c.57,.94,.94,1.72,1.19,2.31v-17.11c-7.99-4.9-12.3-8.76-12.3-8.76,0,0,11.25-77.45-45.15-84.42,0,0-38.04,.39-59.77,16.84,0,0,65.14,36.37,58.09,48.97-7.05,12.6-69.87-46.14-69.87-46.14,0,0-66.76,35.29-81,59.22,0,0,81.1,11.56,71.38,21.92-9.72,10.35-94.62,2.53-94.62,2.53,0,0-52.45,49.67-27.21,86.01,25.24,36.35,52.27,34.79,60.56,27.87,8.29-6.92,47.96-62.73,53.59-55.66,5.63,7.06-10.93,53.38-32.13,69.12,0,0,69.52,21.51,88.85-10.87,19.33-32.38,8.78-56.35,21.07-76.12,12.29-19.78,26.91-29.47,24.78-16.2-2.14,13.27-28.33,42.18-27.41,67.3,.92,25.12-.64,43.5,25.13,20.03,17.38-15.83,38.19-45.1,46.02-70.74v-33.54c-.41-.87-.81-1.72-1.19-2.53Z"></path><path fill="#d5e5fb" d="M693.26,516.35s38.51,70.29,25.91,68.58c-12.6-1.71-55.83-72.85-55.83-72.85,0,0-63.78-12.78-74.07,27.82-10.29,40.6,6.23,60.93,15.67,63.49,9.45,2.55,70.09,1.79,68.51,10.25-1.59,8.46-42.56,21.94-65.39,14.29,0,0,25.12,66.88,58.2,63.55,33.08-3.34,43.35-25.32,63.83-26.99,20.48-1.66,35.44,4.28,25.19,10.19-10.25,5.91-44.89,1.88-61.45,16.96-16.56,15.08-29.96,24.37,.75,31.19,21.41,4.75,54.71,4.17,76.65-5.23v-175.8c-17.94-8.69-59.16-27.38-77.97-25.45Z"></path><path fill="#7ca8f4" d="M1221.92,814.7v59.31c1.04-2.97,2.12-6.2,3.28-9.55,5.08-14.58,.23-34.29-3.28-49.77Z"></path><path fill="#7ca8f4" d="M1237.02,817.53c5.59,21.78-10.58,40.01-2.13,75.42,8.45,35.41,77.13,38.28,77.13,38.28-14.76-20.99-16.84-68.07-9.8-72.64,7.04-4.57,27.33,58.48,32.89,67.38,5.56,8.9,29.5,18.96,62.36-5.73,32.86-24.7-.67-86.31-.67-86.31,0,0-78.76-20.15-84.65-32.6-5.89-12.45,70.47,3.1,70.47,3.1-6.2-26.15-56.63-79.37-56.63-79.37,0,0-72.97,32.86-75.83,19.23-2.86-13.63,66-25.56,66-25.56-15.03-21.81-49.24-34.35-49.24-34.35-20.84-4.65-35.22,3.98-45,16.13v89.58c3.96-.51,10.91,11.12,15.09,27.43Z"></path><path fill="#ffb27d" d="M536.86,538.29c1.1-1.08,2.8-2.45,5.2-3.65l-3.11-2.35h0l-7.64-5.77c-.59-.45-.73-1.33-.32-1.96l4.88-7.45c-.2,.12-.4,.22-.59,.32-.01,0-.03,.01-.04,.02-.21,.11-1.36,.61-2.28-.84-1.02-1.6,2.53-10.21,.15-10.65-.98-.19-2.55,6.08-4.18,8.62-1.63,2.55-1.82,6.72-.87,9.42,.95,2.7-.6,4.86-.6,4.86-.04,.11-.07,.22-.11,.33,2.25,1.08,6.71,3.77,9.53,9.11Z"></path><path fill="#2b478b" d="M531.3,526.52l7.64,5.77c-.45-.34-.55-1.01-.24-1.49l21.74-33.24c.32-.48,.94-.6,1.39-.26l.71,.53h0l-8.35-6.3c-.59-.45-1.41-.29-1.83,.34l-16.51,25.23-4.88,7.45c-.41,.63-.27,1.52,.32,1.96Z"></path><path fill="#233862" d="M560.44,497.56l-21.74,33.24c-.31,.48-.21,1.15,.24,1.49h0l3.11,2.35,1.78,1.34c.45,.34,1.07,.22,1.39-.26l21.74-33.24c.32-.48,.21-1.15-.24-1.49l-4.19-3.16-.71-.53c-.45-.34-1.07-.22-1.39,.26Z"></path><path fill="#233862" d="M449.57,611.27c6.9,4.94,13.72,7.74,20.06,7.14,33.78-3.18,68.09-78.28,68.09-78.28-.26-.65-.55-1.26-.86-1.85-2.81-5.34-7.27-8.03-9.53-9.11-.86-.41-1.4-.59-1.4-.59l-56.5,45.26c-5.56-5.28-14.64-19.01-23.97-34.41,1.57,14.19,2.64,31.54,3.35,49.28,.3,7.54,.57,15.11,.76,22.56Z"></path><path fill="#233862" d="M315.44,1020.94s.03-.1,.04-.16v-.04c.49-1.85,.54-5.26-4.93-6.54-7.66-1.8-10.55-11.78-10.07-21.04,.2-3.88,.11-8.31-.07-12.14h0c-3.68-1.67-14.39-6.75-18.64-11.24h0l-1.64,2.28s-9.82,9.78-7.91,16.72c1.92,6.95,10.78,11.58,11.98,20.07,.84,5.95,3.45,10,6.41,11.89l.06,.04c.08,.05,.16,.11,.24,.16h24.54Z"></path><path fill="#233862" d="M449.45,1014.67c-8.59-1.49-23.47-6.85-26.78-18.65h0c-3.61,2.43-11.02,5.9-22.22,4.05h0c-.4,4.2-1.37,16.89,1.17,20.68l.02,.04c.03,.05,.07,.11,.1,.16h56.12c-.02-.05-.04-.1-.06-.16v-.04c-.83-2.16-2.93-5.13-8.35-6.08Z"></path><path fill="#ffa25c" d="M397.95,999.59c.85,.19,1.68,.35,2.49,.48,11.2,1.85,18.61-1.61,22.22-4.05,1.72-1.16,2.59-2.09,2.59-2.09,0,0,3.84-41.17,4.79-66.91,.55-14.82,6.14-93.06,10.79-156.75l-63.75,108.37c4.63,62.18,20.86,120.95,20.86,120.95Z"></path><path fill="#ef8c48" d="M374.48,837.59c.84,14.05,1.65,27.06,2.4,37.98,.07,1.03,.14,2.05,.22,3.07l63.75-108.37c2.76-37.85,5.19-70.56,6.02-81.76-2.89,.02-7.57,.59-13.25,1.23-3.04,8.15-31.26,83.58-59.13,147.85Z"></path><path fill="#ffa25c" d="M346.94,896.67c8.45-16.26,17.97-37.01,27.54-59.08,27.87-64.27,56.09-139.71,59.13-147.85-10.16,1.14-23.5,2.48-35.47,1.16-16.01-1.65-30.18-6.75-45.4-14.08-.92-.45-2.39-1.24-3.71-2.21-.87,8.77-2.06,21.32-2.83,32.17,7.13,3.45,11.63,11.68,10.48,20.39l-4.65,35.1c-1.4,10.54-10.57,17.93-20.38,16.43l-1.11-.17c-4.48,12.19-9.45,23.04-14.13,29.37-23.1,31.24-36.28,159.41-36.28,159.41,.24,.79,.83,1.63,1.64,2.49,4.25,4.49,14.96,9.57,18.64,11.23,.8,.36,1.27,.56,1.27,.56,0,0,10.78-18.53,45.27-84.92Z"></path><path fill="#ffb27d" d="M364.86,471.27l.04,.02s.05-.09,.08-.13c-.07,.06-.13,.11-.13,.11Z"></path><path fill="#ffb27d" d="M390.82,470.49c6.87,3.64,13.74,4.31,20.29,3.21-1.27-.94-2.65-1.87-4.14-2.75,.49-3.09,.87-5.91,1.19-8.44-11.92-2.2-25.43-22.87-25.46-22.91-.3-.35-.59-.72-.87-1.1-1.85,10.95-6.03,19.09-9.78,24.52,.13-.11,.26-.24,.4-.35,1.44-1.11,10.26,3.53,18.37,7.83Z"></path><path fill="#ed975d" d="M382.7,439.6s13.54,20.71,25.46,22.91c1.08-8.85,1.21-14.19,1.22-15-7.57,.39-20.1-.28-26.68-7.91Z"></path><path fill="#ffb27d" d="M409.38,447.51c3.74-.19,6.27-.64,6.27-.64,7.1-1.76,7.42-27.77,5.8-41.33-4.16-.09-8.98-2.45-17.72-2.02-11.58,.57-11.61,8.81-13.2,10.76-1.6,1.95-1.79-1.39-5.68-2.64-3.89-1.25-3.9,5.47-3.34,10.61,.56,5.14-2.91,5.77-2.91,5.77-.12-.13-.24-.27-.35-.41,.13,.85,.26,1.72,.38,2.59,.47,3.36,1.61,6.08,3.22,8.3,.28,.38,.57,.75,.87,1.1,6.57,7.63,19.11,8.3,26.68,7.91Z"></path><path fill="#2b478b" d="M371.86,465.69l22.37,60.14s-6.51,8.22-15.1,19.18c1.61,28.2,.79,88.52-32.33,114.39-.31,4.85-.55,8.71-.62,11.36-.06,1.32,1.29,2.71,2.86,3.86,1.32,.97,2.79,1.77,3.71,2.21,15.22,7.33,29.39,12.42,45.4,14.08,11.97,1.32,25.31-.02,35.47-1.16,5.68-.64,10.36-1.21,13.25-1.23,.14,0,.28,0,.42,0,.82,0,1.54-.33,2.15-.88,.51-.44,.93-25.36,.51-56.79,0-1.21,0-2.54-.1-3.75v-.44c-.04-5.03-.14-10.17-.27-15.37-.19-7.46-.46-15.03-.76-22.56-.71-17.74-1.78-35.08-3.35-49.28-.93-8.39-2.02-15.69-3.32-21.3-4.1-17.75-13.55-29.44-22.17-38.04l-7.08-6.72c-.59,.13-1.18,.24-1.77,.34-6.55,1.1-13.42,.44-20.29-3.21-8.11-4.3-16.94-8.93-18.37-7.83-.14,.11-.27,.23-.4,.35-2.55,2.13-4.91,4.87-7.06,8.15-.03,.04-.05,.09-.08,.13-4.4,6.74-7.97,15.71-10.71,26.3,10.02-18.18,17.67-31.91,17.67-31.91Z"></path><path fill="#233862" d="M346.8,659.39c33.12-25.86,33.94-86.18,32.33-114.39-9.81,12.52-22.33,28.6-30.96,40.09,1.39,31.32-.35,58.28-1.37,74.3Z"></path><polygon fill="#233862" points="333.14 704.01 333.15 704.01 333.14 704.01 333.14 704.01"></polygon><path fill="#233862" d="M352.02,762.26l4.65-35.1c1.16-8.71-3.35-16.94-10.48-20.39-1.5-.73-3.11-1.24-4.82-1.5l-8.23-1.26c5.8,1.53,10.37,6.02,12.49,11.72h0c1.13,3.05,1.56,6.43,1.11,9.89l-4.71,35.5c-.91,6.87-5.11,12.41-10.64,15.04-1.83,.87-3.81,1.43-5.87,1.59h-.02l5.03,.77,1.11,.17c9.81,1.5,18.98-5.89,20.38-16.43Z"></path><path fill="#2b478b" d="M325.5,777.75h0c2.06-.17,4.04-.72,5.87-1.59,5.53-2.62,9.73-8.17,10.64-15.04l4.71-35.5c.46-3.46,.03-6.84-1.11-9.89h0c-2.12-5.7-6.69-10.2-12.49-11.72h0s0,0-.01,0c-.57-.15-1.15-.27-1.74-.36l-15.01-2.29,1-7.57c.23-1.69-.18-3.38-1.14-4.75-.96-1.37-2.36-2.26-3.93-2.5l-2.63-.4c-.23,1.34-.76,2.56-1.78,3.79l3.88,.59c1.22,.19,2.06,1.4,1.89,2.7l-1,7.57-26.92-4.13,1-7.57c.14-1.06,.91-1.86,1.85-2.02,.22-.04,.44-.04,.67,0l3.35,.51,.13,.02c.69-1.08,1.39-2.21,1.79-3.78l-1.9-.29-2.84-.43c-3.25-.5-6.29,1.94-6.75,5.44l-1,7.57-25.91-3.97c-9.85-1.51-19.05,5.91-20.46,16.49l-4.71,35.5c-1.4,10.58,5.5,20.47,15.35,21.97l75.24,11.52c1.33,.21,2.64,.24,3.92,.13h0Z"></path><path fill="#ffb27d" d="M290.7,693.51c.12,6.01,7.33,3.06,7.33,3.06,5.23-2.64,8.22-4.67,9.88-6.66,1.02-1.23,1.55-2.45,1.78-3.79,.2-1.13,.19-2.36,.1-3.75-.88-1.34-1.67-3.14-2.2-4.86-1.17-3.79-.25-8.11-.25-8.11,0,0,1.03,1.16,2.05,2.51,.02-.43,.04-.88,.07-1.33,.05-.69,.45-1.69,.98-2.75-2.13-.1-4.57-.34-6.93-.83-1.93-.4-3.67-1.09-5.08-1.78-4.64,4.03-4.66,4.82-3.66,13.76,.23,2.03,.1,3.57-.22,4.83-.4,1.57-1.09,2.71-1.79,3.78-1.06,1.65-2.11,3.16-2.06,5.92Z"></path><path fill="#2b478b" d="M310.45,667.83c3.61,.17,6.33-.04,6.33-.04,0,0,18.89-62.71,21.33-68.44,.62-1.46,4.55-6.92,10.06-14.26,8.63-11.49,21.15-27.57,30.96-40.09,8.59-10.96,15.1-19.18,15.1-19.18l-22.37-60.14s-7.65,13.72-17.67,31.91c-17.6,31.93-42.54,77.62-46.3,86.95-9.74,24.2-13.13,78.45-13.13,78.45,0,0,1.42,1.11,3.66,2.21,1.41,.69,3.15,1.38,5.08,1.78,2.36,.5,4.8,.73,6.93,.83Z"></path><path fill="#2b478b" d="M381.5,422.25c-.56-5.14-.55-11.86,3.34-10.61,3.89,1.25,4.08,4.6,5.68,2.64,1.6-1.95,1.63-10.19,13.2-10.76,8.74-.43,13.57,1.93,17.72,2.02,1.35,.03,2.62-.18,3.94-.8,5.38-2.54,5.67-11.3,5.67-11.3,0,0-1.53,3.13-3.84,4.12,0,0,8.98-13.2-1.42-22.25-10.4-9.05-21-3.13-27.02-2.73-13.26,.86-21.82,1.72-26.15,11.08-4.27,9.23-2.59,34.6,5.61,43.95,.12,.13,.23,.28,.35,.41,0,0,3.47-.62,2.91-5.77Z"></path><path fill="#ffb27d" d="M313.05,684.23c.89-.62-.88-3.08-1.66-8.78-.12-.85-1.05-2.28-2-3.53-1.02-1.36-2.05-2.51-2.05-2.51,0,0-.92,4.32,.25,8.11,.53,1.72,1.32,3.52,2.2,4.86,1.06,1.62,2.25,2.56,3.26,1.86Z"></path><path fill="#ffb27d" d="M1375.74,560.78h0c0-.32,3.85-8.92,3.82-11.79l-4.37,1.41c.47,3.11,.56,7.11,.55,10.38Z"></path><path fill="#233862" d="M1471.22,409.32c26.84-4.13,30.51,24.56,29.23,32.3-.23,1.38-.55,2.8-.94,4.21,2.14,2.66,3.78,4.07,3.78,4.07,0,0-1.79,1.19-5.67,1.67-2.81,7.41-6.44,13.58-6.44,13.58h0c-.3,.94-.68,1.83-1.11,2.66,0,1.72,.03,3.38,.1,4.98l.03,.04s3.45-8.56,8-5.89c7.1,4.17,20.84-12.7,16.45-34.89-.47-2.4-1.05-4.59-1.68-6.6-2.42-1.14-4.31-2.64-4.31-2.64l-13.5-21.75,.03-.11c-14.34-13.9-36.18,10.13-41.56,16.54,.84-.78,1.68-1.45,2.47-2.03,7.33-5.32,15.12-6.14,15.12-6.14Z"></path><path fill="#ffb27d" d="M1430.8,578.3c-8.96-2.77-15.52-11.63-16.47-12.96-.5,2.4-.97,4.9-1.41,7.5-1.16,6.84-2.09,14.4-2.74,22.73,0,0-28.29-18.97-34.58-28.86l-7.55,5.68s23.06,44.01,47,53.49c4.84,1.92,8.93-1.72,12.38-8.73,1.8-14.2,3.53-27.72,4.14-38.63-.26-.07-.51-.13-.77-.21Z"></path><path fill="#233862" d="M1508.65,422.81s1.89,1.5,4.31,2.64c1.48,.69,3.15,1.25,4.72,1.25,4.13,0,10.37-11.33,11.22-15.13,.84-3.81-.08-16.31-5.74-20.03-5.65-3.72-14.68,.73-14.68,.73,3.12-4.71,14.51-3.17,14.51-3.17-22.74-5.2-27.44,10.46-27.81,11.85l-.03,.11,13.5,21.75Z"></path><path fill="#ffb27d" d="M1460.98,504.38c-.93,1.78-13.34,21.98-12.37,27.17,1.01,5.44,45.04,.54,48.08-2.45,1.24-1.22,2.78-5.78,4.17-10.74l-3.48-16.17s.25,.03,.69,.08c-3.08-2.65-7.22-13.25-7.89-29.48-.07-1.61-.1-3.27-.1-4.98-.89,1.71-2.04,3.2-3.38,4.49-3.85,7.74-11.07,17.61-23.01,17.97,0-3.21-.1-6.49-.21-9.29h0c.11,2.8,.21,6.08,.21,9.29,.02,6.76-.36,13.17-1.79,13.98-.47,.05-.9,.09-1.26,.13,.22-.02,.36-.02,.35,0Z"></path><path fill="#e8945b" d="M1463.68,490.28c11.94-.36,19.17-10.22,23.01-17.97-6.38,6.2-16.95,8.1-23.22,8.68,.11,2.8,.21,6.08,.21,9.29Z"></path><path fill="#233862" d="M1459.84,419.21c.75-1.2,1.67-2.11,2.71-2.75,.46-.83,.96-1.24,1.43-.71,9.46-3.6,26.18,8.68,26.18,8.68,1.38,9.9,5.98,17.21,9.34,21.4,.39-1.41,.71-2.83,.94-4.21,1.28-7.74-2.39-36.44-29.23-32.3,0,0-7.79,.83-15.12,6.14-.79,.57-1.63,1.24-2.47,2.03-.36,.34-.72,.7-1.08,1.08,3.21-1.99,5.7-.82,7.29,.64Z"></path><path fill="#233862" d="M1497.63,451.57c-1.49,.18-3.29,.26-5.42,.13-.07,2.41-.13,4.93-.14,7.56,0,2.17-.32,4.13-.89,5.89h0s3.63-6.17,6.44-13.58Z"></path><path fill="#ffb27d" d="M1486.69,472.31c1.34-1.3,2.49-2.79,3.38-4.49,.44-.83,.81-1.72,1.11-2.66,.57-1.76,.88-3.72,.89-5.89,0-2.62,.06-5.15,.14-7.56-2.59-.16-5.65-.64-9.23-1.63-4.33-1.2-8.19-4.5-11.48-8.51,5.74,10.33,13.54,17.77,13.54,17.77-16.93-8.41-23.73-33.7-24.4-36.38-2.06,1.99-6.12,6.3-7.35,10.53-1.68,5.75-2.44,17.58-5.65,17.18h0c1.3,13.45,4.91,30.08,10.69,30.57,0,0,2.05,.04,5.14-.25h0c6.28-.58,16.84-2.47,23.22-8.68Zm-28.52-2.22s-5.17-.34-5.01-3.27c0,0,5.01-2.08,11.75,1.02,0,0-.58,2.66-6.74,2.25Z"></path><path fill="#233862" d="M1459.84,419.21c.51,.47,.92,.96,1.24,1.39,.36-1.37,.89-3.1,1.47-4.15-1.04,.65-1.96,1.55-2.71,2.75Z"></path><path fill="#233862" d="M1497.63,451.57c3.88-.48,5.67-1.67,5.67-1.67,0,0-1.64-1.41-3.78-4.07-3.37-4.19-7.96-11.5-9.34-21.4,0,0-16.72-12.28-26.18-8.68,.63,.7,1.22,3.05,1.65,8.24,.52,6.21,2.91,12.27,5.86,17.57,3.28,4.01,7.15,7.31,11.48,8.51,3.58,.99,6.65,1.47,9.23,1.63,2.13,.13,3.92,.05,5.42-.13Z"></path><path fill="#233862" d="M1453.28,433.48c1.24-4.23,5.29-8.54,7.35-10.53-.04-.15-.06-.23-.06-.23,0,0,.19-.93,.51-2.11-.32-.43-.73-.93-1.24-1.39-1.59-1.47-4.08-2.63-7.29-.64-1.25,.77-2.6,2.01-4.06,3.91-7.82,10.18-.86,28.17-.86,28.18h0c3.21,.4,3.97-11.43,5.65-17.18Z"></path><path fill="#2b478b" d="M1486.07,995.07l.02,.02c4.4-11.6,10.22-28.71,14.8-48.28,.53-2.28,1.05-4.58,1.54-6.91-3.28-29.81-7.53-59.12-12.28-68.71-14.26-28.77-21.71-112.09-25-161.98-11.63,.02-24.2-1.54-32.55-6.85,.74,29.14,5.51,85.65,28.1,154.98,9.68,29.71,12.72,60.83,12.94,87.17,.16,19.85-1.27,36.98-2.67,48.74,.38,.06,1.84,.72,7.17,5.56,2.93,2.65,7.91-3.74,7.91-3.74Z"></path><path fill="#ffb27d" d="M1522.12,606.72c2.69,10.78,4.98,20.3,5.93,25.15,3.04,15.49,36.44,75.03,36.44,75.03l10.12-3.26c-7.93-20.66-17.21-62.53-20.24-70.14-1.04-2.61-2.99-14.47-5.55-29.98-12.44,6.23-23.02,4.22-26.7,3.19Z"></path><path fill="#ffb27d" d="M1523.17,508.26c-.06-.03-.13-.06-.19-.08,1.74,.81,3.36,1.74,4.72,2.8-1.16-1-2.72-1.9-4.53-2.72Z"></path><path fill="#ffb27d" d="M1529.2,512.64c-.36-.57-.86-1.11-1.46-1.63,0,0-.03,.04-.08,.1,.63,.49,1.15,1,1.54,1.53Z"></path><path fill="#ffb27d" d="M1500.85,518.37c1.97-7.06,3.63-14.91,3.67-15.13-2.98-.51-5.35-.82-6.46-.96-.44-.05-.69-.08-.69-.08l3.48,16.17Z"></path><path fill="#2b478b" d="M1521.11,704.79c-6.85-.77-9.9-13.1-11.27-23.62-4.11,15.06-9.88,23.51-17.32,25.28-4.27,1.02-15.31,2.74-27.37,2.76,3.29,49.89,10.74,133.21,25,161.98,4.75,9.59,9,38.91,12.28,68.71,.35,3.19,.69,6.38,1.02,9.55,1.73,16.81,3.81,32.31,5.48,43.81,.46,.12,2.02,.93,7.11,5.55,2.62,2.37,6.89-2.51,7.75-3.55,2.07-11.47,6.09-35.16,9.56-64.12,8.2-68.47-7.77-91.21-7.77-91.21,1.77-10.23,12.36-67.01,10.69-121.25-.16-5.3-.46-10.43-.9-15.34-2.66,1.69-7.13,2.24-14.26,1.45Z"></path><path fill="#233862" d="M1463.99,415.75c-.48-.53-.97-.13-1.43,.71-.58,1.05-1.11,2.77-1.47,4.15-.31,1.19-.51,2.11-.51,2.11,0,0,.02,.08,.06,.23,.68,2.68,7.47,27.97,24.4,36.38,0,0-7.81-7.44-13.54-17.77-2.94-5.3-5.34-11.36-5.86-17.57-.43-5.18-1.02-7.53-1.65-8.24Z"></path><path fill="#ffa25c" d="M1492.53,706.45c7.45-1.77,13.21-10.22,17.32-25.28,1.36,10.52,4.42,22.86,11.27,23.62,7.14,.79,11.61,.24,14.26-1.45,1.51-.96,2.44-2.29,2.93-3.95,.39-1.31,.5-3.15,.39-5.45-7.53-2.7-17.19-9.89-28.79-26-30.72-42.65-2.61-92.78,1.16-93.71,3.77-.93,10.86,32.43,10.86,32.43,.06,.02,.13,.04,.19,.05,3.68,1.03,14.26,3.03,26.7-3.19,.93-.47,1.87-.97,2.82-1.53-5.71-29.96-13.84-71.97-21.98-88.61-.12-.25-.28-.5-.46-.74-.39-.53-.91-1.04-1.54-1.53,.05-.07,.08-.1,.08-.1h0s-.03-.02-.04-.03c-1.37-1.06-2.99-1.99-4.72-2.8-7.98-3.73-18.46-4.96-18.46-4.96v.02c-.05,.22-1.71,8.08-3.68,15.13-1.38,4.96-2.92,9.52-4.17,10.74-3.04,2.99-47.07,7.88-48.08,2.45-.97-5.19,11.45-25.39,12.37-27.17,.01-.02-.13-.02-.35,0-.57,.04-1.65,.17-1.65,.17-5.02,.71-8.56,1.25-11.12,1.72-5,.92-6.25,1.56-7.49,2.59-.28,.3-.56,.63-.85,.99,1.69-1.38,2.74-1.94,2.74-1.94,0,0,4.79,71.88-7.13,71.2-1.22-.07-2.4-.28-3.55-.58-.61,10.91-2.34,24.42-4.14,38.63-3.19,25.17-6.56,52.45-4.18,71.07,.82,6.4,4.32,10.95,9.35,14.15,8.34,5.3,20.92,6.87,32.55,6.85,12.06-.02,23.1-1.74,27.37-2.76Z"></path><path fill="#ffb27d" d="M1362.24,539.22s-.05,.06-.08,.09c.09,.73,.14,1.18,.14,1.18v-1.02l-.07-.25Z"></path><path fill="#ffb27d" d="M1375.74,560.78c.02-3.27-.08-7.27-.55-10.38l-6.45,2.08h0l-.41,.13c-1.07,1.51-1.9,2.54-1.9,2.54l-4.12-10.11v-4.55l-4.88,8.65s.02-.08,.03-.14c-.43,2.03-.5,4.12,.03,6.05,2.02,7.37,10.57,17.34,10.57,17.34l7.55-5.68c0-.41,.12-2.84,.14-5.92Z"></path><path fill="#2b478b" d="M1373.25,510.37l9.87,35.39c.3,1.06-.26,2.18-1.25,2.5l-13.13,4.23h0l6.45-2.08,4.37-1.41,4.65-1.5c.56-.18,.87-.81,.71-1.41l-10.34-37.06c-.17-.6-.75-.94-1.31-.76l-3.48,1.12,1.14-.37c.99-.32,2.03,.28,2.33,1.35Z"></path><path fill="#233862" d="M1360.01,524.59c.52,1.88,1.61,10.32,2.07,14.07l.15,.55,.07,.25v-.31s6.5-10.75,8.09-10.15c2.2,.83-5.39,13.64-5.87,14.45,.4-.67,6.06-10.12,6.97-9.38,2.15,1.75-1.27,8.15-4.67,13.06,0,0,6.08-5.98,6.28-4.91,.46,2.51-2.64,7.39-4.77,10.39l.41-.13,13.13-4.23c.99-.32,1.55-1.44,1.25-2.5l-9.87-35.39c-.3-1.06-1.34-1.66-2.33-1.35l-1.14,.37-12.77,4.11c-.99,.32-1.55,1.44-1.25,2.5l3.47,12.43c.3-2.83,.58-4.56,.78-3.84Z"></path><path fill="#233862" d="M1438.75,1019.68c.51,.74,24.61,.27,26-.82,1.25-.97,4.73-2.59,9.62-1.85,.17-.65,.38-1.3,.59-1.88,.48-1.35,1.53-2.37,2.82-2.77,2.42-.75,6.64-1.45,11.05-4.19-.45-2.19-.71-4.28-.48-5.74,.32-2.07-.09-3.75-.65-4.98-1.7,1.28-5.27,3.81-7.65,4.14-3.2,.45-9.2-8.34-9.2-8.34,0,0-12.44,8.44-15.69,11.6-5.77,5.62-12.08,6.5-15.28,7.5-1.3,.4-2.34,1.42-2.82,2.77,.92-.88,1.17,3.8,1.68,4.55Z"></path><path fill="#466aa5" d="M1480.05,1001.6c2.37-.33,5.95-2.86,7.65-4.14-.65-1.45-1.51-2.27-1.61-2.36l-.02-.02s-4.98,6.39-7.91,3.74c-5.34-4.84-6.8-5.5-7.17-5.56-.02,0-.04,0-.06,0l-.07,.02s5.99,8.79,9.2,8.34Z"></path><path fill="#466aa5" d="M1472.36,1019.42c.57,.08,1.09,.18,1.6,.29-.02-.79,.15-1.75,.41-2.7-4.89-.74-8.38,.88-9.62,1.85-1.39,1.09-25.49,1.56-26,.82-.51-.74-.76-5.42-1.68-4.55-.67,1.87-1.35,4.36-.78,5.62l.02,.04c.03,.06,.05,.14,.08,.19h30.16s.02-.03,.07-.08c.03-.03,.07-.07,.11-.11l.04-.04c.56-.53,2.27-1.8,5.6-1.33Z"></path><path fill="#233862" d="M1517.94,1001.6c-3.2,.45-9.19-8.34-9.19-8.34,0,0-12.44,8.44-15.69,11.6-1.4,1.36-2.83,2.44-4.23,3.31-4.41,2.74-8.62,3.43-11.05,4.19-1.3,.4-2.34,1.42-2.82,2.77,.92-.88,1.17,3.8,1.68,4.55,.51,.74,24.6,.27,26-.82,1.39-1.09,5.57-2.99,11.39-1.49,5.07,1.3,12.53-2.03,14.38-2.92-1.16-3.67-2.61-9.1-2.16-12.02,.32-2.07-.09-3.75-.65-4.98-1.7,1.28-5.27,3.81-7.65,4.14Z"></path><path fill="#466aa5" d="M1516.05,998.82c-5.09-4.62-6.65-5.43-7.11-5.55-.05-.01-.09-.02-.12-.02l-.07,.02s5.99,8.79,9.19,8.34c2.37-.33,5.95-2.86,7.65-4.14-.7-1.55-1.63-2.38-1.63-2.38,0,0-.06,.07-.16,.19-.86,1.04-5.13,5.92-7.75,3.55Z"></path><path fill="#466aa5" d="M1529.69,1018.25s-.59-1.58-1.3-3.8c-1.85,.89-9.31,4.22-14.38,2.92-5.82-1.5-10,.41-11.39,1.49-1.39,1.09-25.49,1.56-26,.82-.51-.74-.76-5.42-1.68-4.55-.21,.58-.42,1.23-.59,1.88-.26,.95-.43,1.91-.41,2.7,.01,.4,.08,.75,.21,1.04,0,.01,0,.02,.02,.04,.03,.06,.05,.14,.08,.19h30.16s.02-.03,.07-.08c.03-.03,.07-.07,.11-.11l.04-.04c.56-.53,2.27-1.8,5.6-1.33,2.16,.3,3.79,.92,5.79,1.33,.06,.01,.13,.02,.19,.04,.2,.04,.39,.08,.6,.11h7.1c.27-.04,.52-.07,.76-.11,.07-.01,.15-.02,.22-.04,5.09-.87,4.79-2.5,4.79-2.5Z"></path><path fill="#ef8c48" d="M1511.07,574.24c-3.77,.93-31.88,51.06-1.16,93.71,11.6,16.11,21.26,23.29,28.79,26-.73-15.72-11.86-52.77-16.77-87.28,0,0-7.09-33.36-10.86-32.43Z"></path><path fill="#ffa25c" d="M1430.8,578.3c.25,.08,.51,.15,.77,.21,1.15,.3,2.33,.51,3.55,.58,11.91,.68,7.13-71.2,7.13-71.2,0,0-1.04,.56-2.74,1.94-5.93,4.82-19.86,19.63-25.3,55.32,0,0,.04,.07,.12,.18,.95,1.34,7.51,10.2,16.47,12.96Z"></path><path fill="#ffb27d" d="M1373.1,542.23c-.2-1.08-6.28,4.91-6.28,4.91,3.4-4.91,6.82-11.31,4.67-13.06-.91-.74-6.57,8.72-6.97,9.38,.48-.81,8.07-13.62,5.87-14.45-1.59-.6-8.09,10.15-8.09,10.15v5.88l4.12,10.11s.83-1.03,1.9-2.54c2.13-2.99,5.24-7.88,4.77-10.39Z"></path><path fill="#ffb27d" d="M1362.31,540.49s-.05-.44-.14-1.18c-.02-.19-.05-.41-.08-.64-.47-3.76-1.55-12.19-2.07-14.07-.2-.72-.48,1.01-.78,3.84-.7,6.52-1.52,18.89-1.77,20.56,0,.06-.02,.11-.03,.14l4.88-8.65Z"></path><path fill="#fff" d="M1464.91,467.83c-6.74-3.1-11.75-1.02-11.75-1.02-.16,2.92,5.01,3.27,5.01,3.27,6.16,.41,6.74-2.25,6.74-2.25Z"></path><path fill="#ffb27d" d="M1565.82,709.78h0l10.28,7.43s.54,2.06,1.05,4.51c4.27,1.22,9.49,2.3,11.55,6.19,3.11,5.85,6.22,5.35,6.22,5.35,0,0-.32-1.01-.83-2.54-.43-.11-.8-.34-1.04-.75-1.09-1.89-6.07-12.76-6.07-12.76,.13,.2,1.97,2.34,4.11,4.81-.91-2.5-1.79-4.77-2.4-5.98-1.87-3.68-14.08-12.4-14.08-12.4l-10.12,3.26s.51,1.2,1.33,2.88Z"></path><path fill="#ffb27d" d="M1565.82,709.78h0c.01,.07,2.04,10.28,4.52,13.28,2.49,3.01,5.91,8.02,7.31,6.69,.8-.76,.18-4.75-.5-8.02-.51-2.46-1.05-4.51-1.05-4.51l-10.28-7.43Z"></path><path fill="#ffb27d" d="M1593.05,729.97c.24,.41,.61,.63,1.04,.75,1.56,.41,3.94-.75,3.94-.75,0,0-3.79-4.33-6.93-7.95-2.14-2.47-3.99-4.61-4.11-4.81,0,0,4.98,10.87,6.07,12.76Z"></path><path fill="#4c88f2" d="M1577.15,339.95c.85,22.62,6.72,42.26,20.67,56.19l-15.74,42.26,32.03-30.57c12.86,6.53,29.65,10.19,51.26,10.19,6.22,0,12.04-.26,17.48-.77,50.67-4.75,68.59-31.17,66.3-71.66-3.41-60.32-37.95-77.15-74.28-80.59-5.65-.54-11.35-.75-16.98-.75-41.81,0-82.71,23.29-80.74,75.71Zm32.7,1.14h57.9v4.86h-57.9v-4.86Zm0,18.42v-4.86h75.87v4.86h-75.87Zm106.71-13.56h-44.28v-4.86h44.28v4.86Zm-30.84-18.42v4.86h-75.87v-4.86h75.87Z"></path><rect fill="#fff" height="4.86" width="75.87" y="327.52" x="1609.86"></rect><rect fill="#fff" height="4.86" width="75.87" y="354.65" x="1609.86"></rect><rect fill="#fff" height="4.86" width="57.9" y="341.08" x="1609.86"></rect><rect fill="#fff" height="4.86" width="44.28" y="341.08" x="1672.29"></rect><path fill="#ffa25c" d="M486.44,396.95l-13.93,37.4,28.34-27.05c11.38,5.78,26.24,9.02,45.36,9.02,56.69,0,76.38-24.42,74.14-64.1-3.49-61.68-43.75-71.98-80.75-71.98s-73.19,20.61-71.44,66.99c.75,20.02,5.95,37.4,18.29,49.72Zm105.08-44.42h-39.18v-4.3h39.18v4.3Zm-94.43-16.3h67.14v4.3h-67.14v-4.3Zm0,12h51.24v4.3h-51.24v-4.3Zm0,12h67.14v4.3h-67.14v-4.3Z"></path><rect fill="#fff" height="4.3" width="67.14" y="336.23" x="497.09"></rect><rect fill="#fff" height="4.3" width="67.14" y="360.23" x="497.09"></rect><rect fill="#fff" height="4.3" width="51.24" y="348.23" x="497.09"></rect><rect fill="#fff" height="4.3" width="39.18" y="348.23" x="552.33"></rect><path fill="#dfedfb" d="M569.65,128.85c.47,2.24,2.42,3.77,4.55,3.53l15.87-1.81c1.76-.21,3.45,.83,4.17,2.55,3.13,7.22,7.27,13.9,12.3,19.76,1.26,1.51,1.42,3.73,.36,5.43l-7.9,12.66c-1.2,1.93-.84,4.48,.79,5.95l13.46,12.2c1.6,1.44,3.95,1.32,5.4-.25l13.24-14.2c1.12-1.21,2.78-1.62,4.29-1.09,1.86,.67,3.75,1.27,5.68,1.78,3.65,.97,7.29,1.62,10.89,1.98,1.64,.14,3.04,1.33,3.51,3.03l5.73,19.95c.65,2.2,2.71,3.49,4.79,3.01l17.21-4.01c1.82-.44,3.14-2.16,3.21-4.12,0-.2,.01-.42-.02-.64l-1.86-18.92c-.18-1.76,.61-3.46,2.04-4.32,.12-.08,.25-.16,.38-.21,.4-.19,.77-.36,1.16-.59,4.63-2.28,9.03-5.11,13.12-8.41,1.35-1.13,3.24-1.16,4.67-.11l12.45,8.96c1.76,1.28,4.15,.9,5.51-.85l2.52-3.2,8.76-11.19c1.39-1.75,1.27-4.34-.23-5.98l-11.1-11.91c-1.2-1.26-1.49-3.18-.79-4.82,1.82-4.28,3.32-8.86,4.42-13.63,.82-3.54,1.39-7.12,1.72-10.65l3.24-1.07,13.29-4.43c1.65-.53,2.78-2.14,2.83-3.93,.02-.38-.02-.75-.1-1.13l-3.72-18.56c-.46-2.19-2.38-3.65-4.44-3.43l-10.84,1.26c-1.83,.21-3.61-.96-4.25-2.82-2.64-7.7-6.39-14.88-11.1-21.26-1.12-1.51-1.21-3.58-.2-5.12l9.99-15.99c1.11-1.8,.8-4.2-.74-5.6l-13.62-12.31c-1.61-1.46-3.98-1.35-5.44,.24l-13.77,14.78c-1.18,1.28-2.95,1.64-4.51,.94-3.32-1.51-6.8-2.73-10.43-3.7-1.95-.52-3.91-.95-5.86-1.29-1.53-.27-2.79-1.44-3.26-3.03l-5.5-19.12c-.64-2.22-2.72-3.54-4.84-3.07l-16.78,3.93-.4,.1c-2.04,.49-3.41,2.53-3.19,4.75l1.52,15.32c.03,.25,.03,.5,.02,.75-.12,1.7-1.14,3.23-2.67,3.79-8.98,3.44-17.21,8.74-24.25,15.64-.3,.28-.62,.51-.96,.69-1.29,.67-2.85,.57-4.08-.3l-9.92-7.18c-1.31-.93-3-.96-4.32-.16-.39,.26-.78,.58-1.11,.99l-11.3,14.41c-1.39,1.77-1.29,4.43,.25,6.07l11.26,12.08c1.11,1.19,1.47,2.96,.94,4.55-.74,2.3-1.4,4.62-1.95,7.02-1.04,4.49-1.67,8.98-1.94,13.43v.02c-.12,1.86-1.25,3.42-2.91,3.97l-15.44,5.14-.77,.27c-1.99,.64-3.21,2.86-2.76,5.07l3.73,18.43Zm53.3-42.37c1.65-4.78,4.15-9.47,7.61-13.93,.72-.95,1.64-1.93,2.64-2.9,4.36-4.13,10.73-7.85,15.68-8.99,37.89-8.61,63.02,35.26,39.46,67.55-.39,.53-.79,1.05-1.2,1.57-3.82,4.88-11.77,9.99-17.55,11.37-3.04,.72-5.99,1.11-8.84,1.2-28.49,.81-47.15-28.63-37.79-55.88Z"></path><path fill="#ffa25c" d="M781.48,971.38c0,21.15,16.02,38.36,35.7,38.36h358.8c19.68,0,35.7-17.21,35.7-38.36V238.08c0,1.01-.03,2.05-.07,3.1v45.36h-430v-45.82c0-5.66,.24-10.99,.9-15.9-.67,2.93-1.03,5.99-1.03,9.13V971.38Zm81.01-53.77v-61.11h9.11v61.11h-9.11Zm25.91,0v-78.73h9.11v78.73h-9.11Zm35.01,0h-9.11v-62.44h9.11v62.44Zm25.91,0h-9.11v-90.73h9.11v90.73Zm25.91,0h-9.11v-109.27h9.11v109.27Zm25.91,0h-9.11v-92.41h9.11v92.41Zm25.91,0h-9.11v-65.33h9.11v65.33Zm25.91,0h-9.11v-45.36h9.11v45.36Zm25.91,0h-9.11v-57.91h9.11v57.91Zm25.91,0h-9.11v-78.73h9.11v78.73Zm25.91,0h-9.11v-65.33h9.11v65.33Zm-134.08-545.29c93.49,0,169.29,81.43,169.29,181.88s-75.79,181.88-169.29,181.88-169.29-81.43-169.29-181.88,75.79-181.88,169.29-181.88Z"></path><path fill="#ffa25c" d="M1211.67,233.96c0-2.74-.28-5.42-.79-8,.53,3.46,.79,7.27,.79,11.44v-3.44Z"></path><path fill="#ffa25c" d="M1182.42,196.24c-2.09-.41-4.25-.64-6.45-.64h-40.43l33.93,.31c4.59-.32,8.93-.23,12.95,.33Z"></path><path fill="#fff" d="M781.61,286.54h430v-45.36c.04-1.06,.06-2.09,.07-3.1v-.68c0-4.17-.26-7.98-.79-11.44-2.99-15.09-14.28-26.92-28.46-29.71-4.03-.56-8.37-.65-12.95-.33l-33.93-.31h-318.36c-16.76,0-30.85,12.47-34.67,29.22-.66,4.9-.9,10.23-.9,15.9v45.82Zm371.01-17.67l-8.27-6.28c1.83-2.77,4.86-4.6,8.27-4.6s6.4,1.79,8.23,4.53l-8.23,6.34Zm14.71-11.34c-3.28-4.92-8.65-8.13-14.71-8.13s-11.51,3.25-14.79,8.24l-5.22-3.94c4.43-6.76,11.75-11.18,20.02-11.18s15.45,4.33,19.91,10.99l-5.2,4.01Zm10.15-7.81c-5.58-8.24-14.64-13.63-24.85-13.63s-19.42,5.47-24.98,13.83l-5.22-3.94c6.71-10.15,17.76-16.76,30.21-16.76s23.3,6.5,30.04,16.51l-5.18,3.99Zm-24.85-36.57c17.35,0,32.72,9.18,42.12,23.27l-5.18,4.01c-8.25-12.34-21.74-20.41-36.94-20.41s-28.9,8.2-37.13,20.7l-5.22-3.94c9.38-14.29,24.85-23.64,42.36-23.64Z"></path><path fill="#ed7d2b" d="M996.58,736.09c93.49,0,169.29-81.43,169.29-181.88s-75.79-181.88-169.29-181.88-169.29,81.43-169.29,181.88,75.79,181.88,169.29,181.88Zm-40.14-206.11h22.77v-8.13h-22.77v-10.54h22.77v-8.12h-22.77v-11.05h22.77v-8.12h-22.77v-32.52c0-22.75,17.33-41.37,38.5-41.37h3.28c21.17,0,38.49,18.62,38.49,41.37v32.52h-21.14v8.12h21.14v11.05h-21.14v8.12h21.14v10.54h-21.14v8.13h21.14v28.55c0,22.75-17.32,41.37-38.49,41.37h-3.28c-21.17,0-38.5-18.62-38.5-41.37v-28.55Zm-29.23-50.15c0-3.62,2.73-6.56,6.11-6.56s6.11,2.94,6.11,6.56v76.16c0,33.86,25.64,61.41,57.16,61.41s57.16-27.55,57.16-61.41v-76.16c0-3.62,2.73-6.56,6.11-6.56s6.11,2.94,6.11,6.56v76.16c0,38.89-27.86,70.91-63.26,74.24v65.29c0,3.62-2.73,6.56-6.11,6.56s-6.11-2.94-6.11-6.56v-65.29c-35.4-3.33-63.26-35.36-63.26-74.24v-76.16Z"></path><path fill="#fff" d="M994.94,599.9h3.28c21.17,0,38.49-18.62,38.49-41.37v-28.55h-21.14v-8.13h21.14v-10.54h-21.14v-8.12h21.14v-11.05h-21.14v-8.12h21.14v-32.52c0-22.75-17.32-41.37-38.49-41.37h-3.28c-21.17,0-38.5,18.62-38.5,41.37v32.52h22.77v8.12h-22.77v11.05h22.77v8.12h-22.77v10.54h22.77v8.13h-22.77v28.55c0,22.75,17.33,41.37,38.5,41.37Z"></path><path fill="#fff" d="M1002.69,623.96v6.27c35.4-3.33,63.26-35.36,63.26-74.24v-76.16c0-3.62-2.73-6.56-6.11-6.56s-6.11,2.94-6.11,6.56v76.16c0,33.86-25.64,61.41-57.16,61.41,3.37,0,6.11,2.94,6.11,6.56Z"></path><path fill="#fff" d="M990.47,630.23v-6.27c0-3.62,2.74-6.56,6.11-6.56-31.52,0-57.16-27.55-57.16-61.41v-76.16c0-3.62-2.73-6.56-6.11-6.56s-6.11,2.94-6.11,6.56v76.16c0,38.89,27.86,70.91,63.26,74.24Z"></path><path fill="#fff" d="M990.47,623.96v71.57c0,3.62,2.74,6.56,6.11,6.56s6.11-2.94,6.11-6.56v-71.57c0-3.62-2.73-6.56-6.11-6.56s-6.11,2.94-6.11,6.56Z"></path><rect fill="#fff" height="61.11" width="9.11" y="856.51" x="862.49"></rect><rect fill="#fff" height="78.73" width="9.11" y="838.89" x="888.4"></rect><rect fill="#fff" height="62.44" width="9.11" y="855.17" x="914.3"></rect><rect fill="#fff" height="90.73" width="9.11" y="826.89" x="940.21"></rect><rect fill="#fff" height="109.27" width="9.11" y="808.34" x="966.11"></rect><rect fill="#fff" height="92.41" width="9.11" y="825.21" x="992.02"></rect><rect fill="#fff" height="65.33" width="9.11" y="852.28" x="1017.93"></rect><rect fill="#fff" height="45.36" width="9.11" y="872.25" x="1043.83"></rect><rect fill="#fff" height="57.91" width="9.11" y="859.71" x="1069.74"></rect><rect fill="#fff" height="78.73" width="9.11" y="838.89" x="1095.65"></rect><rect fill="#fff" height="65.33" width="9.11" y="852.28" x="1121.55"></rect><path fill="#ed7d2b" d="M1152.61,257.99c-3.41,0-6.44,1.83-8.27,4.6l8.27,6.28,8.23-6.34c-1.83-2.75-4.84-4.53-8.23-4.53Z"></path><path fill="#ed7d2b" d="M1152.61,242.53c-8.27,0-15.58,4.42-20.02,11.18l5.22,3.94c3.28-4.99,8.7-8.24,14.79-8.24s11.43,3.21,14.71,8.13l5.2-4.01c-4.46-6.66-11.72-10.99-19.91-10.99Z"></path><path fill="#ed7d2b" d="M1152.61,220.02c15.2,0,28.69,8.06,36.94,20.41l5.18-4.01c-9.4-14.08-24.77-23.27-42.12-23.27s-32.98,9.34-42.36,23.64l5.22,3.94c8.23-12.5,21.81-20.7,37.13-20.7Z"></path><path fill="#ed7d2b" d="M1152.61,229.23c-12.45,0-23.49,6.62-30.21,16.76l5.22,3.94c5.56-8.36,14.69-13.83,24.98-13.83s19.27,5.38,24.85,13.63l5.18-3.99c-6.74-10.01-17.69-16.51-30.04-16.51Z"></path><path fill="#2b478b" d="M771.23,717.59v253.79c0,27.22,20.61,49.37,45.95,49.37h358.8c25.34,0,45.95-22.15,45.95-49.37V233.96c0-8.48-2-16.48-5.53-23.46-7.78-15.42-22.98-25.91-40.42-25.91h-358.8c-25.34,0-45.95,22.15-45.95,49.37v483.64Zm45.95-521.99h358.8c2.2,0,4.35,.23,6.45,.64,14.19,2.79,25.47,14.62,28.46,29.71,.51,2.58,.79,5.26,.79,8V971.38c0,21.15-16.01,38.36-35.7,38.36h-358.8c-19.69,0-35.7-17.21-35.7-38.36V233.96c0-3.15,.36-6.2,1.03-9.13,3.82-16.75,17.91-29.22,34.67-29.22Z"></path></g></g></g></svg>