<svg viewBox="0 0 1620 1028" xmlns="http://www.w3.org/2000/svg"><g id="a"></g><g id="b"><g id="c"><g><path fill="#e8f2fa" d="M1530.6,1025.46c-102.72,0-1410.25,.15-1410.25,0-.57-1.22-293.2-128.45,36.7-493.06,111.44-123.16-35.45-216.72,75.79-321.07,127.84-119.92,194.39-20.89,336.54-75.27,25.12-9.6,50.32-25.05,75.55-48.76C703.85,31.99,784.5,6.9,866.64,1.25c158.84-10.86,337.6,50.23,429.85,139.51,18.57,17.98,103.03,111.01,36.45,238.87-42.03,80.73,134.05,157.83,196.63,250.02,159.09,234.38,2.48,392.75,1.03,395.8Z"></path><g opacity=".5"><g opacity=".5"><path fill="#a9c2ff" d="M572.57,354.58s-13.63-102.73-69.78-163.76c-7.46-8.11-21.61-2.84-21.31,7.9,0,.18,.01,.36,.02,.54,.84,18.33,63.75,95.34,91.06,155.32Z"></path></g><g opacity=".5"><path fill="#a9c2ff" d="M579.53,383.97s-56.37-128.18-151.63-184.47c-5.81-3.43-13.64-2.13-17.49,3.22-2.51,3.49-3.61,8.92-.72,17.38,7.7,22.56,114.03,98.04,169.83,163.87Z"></path></g></g><g opacity=".3"><path fill="#a9c2ff" d="M365.77,592.59s86.85,54.28,75.16,68.92c-11.69,14.64-92.16-67.07-92.16-67.07,0,0-99.08,34.37-122.48,62.04,0,0,112.79,25.77,97.65,37.24-15.15,11.47-133.84-10.19-133.84-10.19,0,0-80.89,54.22-50.32,102.85,30.56,48.63,68.91,50.51,81.56,43.09,12.65-7.42,76.36-71.05,83.33-61.49,6.96,9.55-22.82,64.67-54.92,81.2,0,0,95.08,36.47,126.85-.97,31.77-37.44,20.21-68.65,40.28-91.45,20.08-22.8,42.06-32.76,37.2-16.61-4.85,16.15-45.82,48.33-48.01,79.61-2.19,31.28-6.64,54.29,32.68,28.38,107.6-70.91,65.65-156.96,65.65-156.96,0,0,26.61-94.48-51.98-111.07,0,0-53.72-4.88-86.65,12.48Z"></path></g><g opacity=".3"><path fill="#a9c2ff" d="M455.68,383.93s28.27,50.2,18.06,54.59c-10.21,4.39-27.23-58.08-27.23-58.08,0,0-60.36-8.35-80.33-.39,0,0,49.78,42.47,38.73,44.35-11.04,1.88-65.01-40.04-65.01-40.04,0,0-56.91,6.47-55.59,39.14,1.33,32.67,20.26,43.61,28.85,43.14,8.59-.47,59.53-16.2,60.28-9.53,.75,6.67-30.47,26.9-51.6,26.94,0,0,37.65,43.29,64.72,32.55,27.07-10.75,30.3-29.61,47.16-35.96,16.85-6.35,30.93-5.69,23.75,1.25-7.18,6.94-37.38,12.62-47.63,27.94-10.24,15.32-19.22,25.85,8.31,22.93,75.36-7.99,79.16-62.63,79.16-62.63,0,0,41.1-41.06,6.02-69.96,0,0-25.86-16.47-47.66-16.23Z"></path></g><g opacity=".3"><path fill="#a9c2ff" d="M692.91,286.03s-.63,99.07,18.89,98.04c19.52-1.03-7.72-110.44-7.72-110.44,0,0,85.99-59.03,123.62-62,0,0-40.43,103.58-21.78,98.05,18.65-5.54,66.02-111.48,66.02-111.48,0,0,93.37-33.52,119.3,17.91,25.93,51.42,6.09,82.78-7.57,88.62-13.66,5.84-105.74,20.51-101.18,31.37,4.56,10.86,70.06,18.22,102.7,2.13,0,0-21.02,95.59-71.99,99.7-50.97,4.11-72.12-22.53-103.57-19.45-31.45,3.08-52.6,14.86-35.57,20.09,17.03,5.22,68.49-9.11,97.42,6.7,28.93,15.81,51.79,25.19,6.81,41.73-123.13,45.27-175.81-36.13-175.81-36.13,0,0-98.59-31.95-69.21-103.36,0,0,25.8-45.18,59.64-61.48Z"></path></g><g><g><path fill="#b6cfff" d="M1421.05,916.41s-18.42-20.3-1.14-33.19c0,0,12.62-7.22,22.92-6.63,0,0-14.59,23.11-9.87,25.41,4.72,2.3,14.29-26.85,14.29-26.85,0,0,28.73-2.63,37.97,1.57,0,0-24.56,18.99-19.39,20.12,5.17,1.13,31.7-17.51,31.7-17.51,0,0,26.74,4.3,25.31,19.71-1.43,15.41-10.64,20.17-14.69,19.76-4.05-.41-27.74-8.95-28.25-5.82-.52,3.13,13.74,13.38,23.73,13.86,0,0-18.85,19.64-31.38,13.97-12.53-5.67-13.6-14.65-21.41-18.02-7.81-3.37-14.48-3.36-11.25,.08,3.22,3.44,17.36,6.78,21.83,14.24,4.47,7.46,8.47,12.5-4.49,10.65-12.96-1.84-34.03-10.8-34.96-21.06l-.92-10.26Z"></path><g><path fill="#b6cfff" d="M1509.71,899.43s-72.63-2.64-88.67,16.98c0,0-3.55,10.04-14.46,19.17l-1.7,4.38s12.59-12.53,17.09-13.29c0,0-7.04-24.31,87.74-27.24Z"></path><path fill="#b6cfff" d="M1406.58,935.58s-15.59,10.89-16.67,30.35l2.83,.24s4.98-20.12,13.98-27.99c9-7.87-.14-2.6-.14-2.6Z"></path></g></g><g><path fill="#a9c2ff" d="M1356.64,890.88s29.3-15.5,15.63-36.54c0,0-10.94-12.92-22.66-16.24,0,0,6.25,31.37,0,32.11-6.25,.74-4.3-35.43-4.3-35.43,0,0-30.86-14.02-42.98-12.92,0,0,19.14,30.63,12.89,29.89-6.25-.74-27.74-31.74-27.74-31.74,0,0-31.65-5.54-36.72,12.18-5.08,17.71,3.13,26.57,7.81,27.68,4.69,1.11,34.77,.74,33.99,4.43-.78,3.69-21.1,9.6-32.43,6.27,0,0,12.5,29.16,28.91,27.68,16.41-1.48,21.49-11.07,31.65-11.81,10.16-.74,17.58,1.85,12.5,4.43-5.08,2.58-22.27,.85-30.47,7.44-8.2,6.59-14.85,10.65,.39,13.6,15.24,2.95,42.59,1.11,48.05-9.97l5.47-11.07Z"></path><g><path fill="#a9c2ff" d="M1265.22,837.73s82.04,25.1,91.42,53.15c0,0-.39,12.55,7.81,26.94v5.54s-8.6-18.82-13.28-21.41c0,0,18.36-24.36-85.95-64.22Z"></path><path fill="#a9c2ff" d="M1364.46,917.82s12.65,18.15,5.44,40.24l-3.26-.83s3.16-24.33-3.46-36.57c-6.62-12.24,1.28-2.84,1.28-2.84Z"></path></g></g><g><path fill="#cedfff" d="M1403.26,869.5s-38.62-20.43-20.6-48.16c0,0,14.42-17.03,29.87-21.41,0,0-8.24,41.35,0,42.32,8.24,.97,5.67-46.7,5.67-46.7,0,0,40.68-18.49,56.65-17.03,0,0-25.23,40.38-16.99,39.41,8.24-.97,36.56-41.84,36.56-41.84,0,0,41.71-7.3,48.41,16.05,6.69,23.35-4.12,35.03-10.3,36.49-6.18,1.46-45.83,.97-44.8,5.84,1.03,4.86,27.81,12.65,42.74,8.27,0,0-16.48,38.43-38.11,36.49-21.63-1.95-28.32-14.59-41.71-15.57-13.39-.97-23.17,2.43-16.48,5.84,6.69,3.41,29.35,1.12,40.17,9.8,10.81,8.69,19.57,14.04-.52,17.93-20.08,3.89-56.13,1.46-63.34-13.14l-7.21-14.59Z"></path><g><path fill="#cedfff" d="M1523.77,799.44s-108.15,33.08-120.51,70.06c0,0,.51,16.54-10.3,35.51v7.3s11.33-24.81,17.51-28.22c0,0-24.21-32.11,113.3-84.65Z"></path><path fill="#cedfff" d="M1392.96,905.01s-16.68,23.93-7.17,53.05l4.29-1.09s-4.17-32.08,4.56-48.21c8.73-16.13-1.68-3.75-1.68-3.75Z"></path></g></g><path fill="#bbd3ff" d="M1401.96,1021.22c41.79,0,75.66-32,75.66-71.47h-151.32c0,39.47,33.87,71.47,75.66,71.47Z"></path><path fill="#bbd3ff" d="M1478.66,1024.85h-153.41c0-4.87,4.18-8.82,9.33-8.82h134.74c5.15,0,9.33,3.95,9.33,8.82h0Z"></path><rect fill="#80a1e6" height="2.19" width="155.53" y="949.74" x="1323.81"></rect></g><g><path fill="#b0c0ff" d="M1113.13,407.01h-94.94v-46.64c0-17.84,14.82-32.3,33.09-32.3h61.85v78.95Z"></path><rect fill="#899bfa" ry="55.83" rx="55.83" height="619.36" width="175.78" y="407.01" x="983.2"></rect><rect fill="#6e85e8" ry="55.83" rx="55.83" height="619.36" width="175.78" y="407.01" x="1042.24"></rect><path fill="#b0c0ff" d="M1127.39,328.06h30.57c26.87,0,48.69,21.82,48.69,48.69v64.01c0,26.87-21.82,48.69-48.69,48.69h-30.58c-26.87,0-48.69-21.82-48.69-48.69v-64.01c0-26.87,21.82-48.69,48.69-48.69Z"></path><path fill="#899bfa" d="M1172.64,328.06h30.57c26.87,0,48.69,21.82,48.69,48.69v64.01c0,26.87-21.82,48.69-48.69,48.69h-30.57c-26.87,0-48.69-21.82-48.69-48.69v-64.01c0-26.87,21.82-48.69,48.69-48.69Z"></path><path fill="#b0c0ff" d="M946.74,974.11h316.53c14.42,0,26.13,11.71,26.13,26.13h0c0,14.42-11.71,26.13-26.13,26.13h-316.53c-14.42,0-26.13-11.71-26.13-26.13h0c0-14.42,11.71-26.13,26.13-26.13Z"></path><path fill="#4768cf" d="M1047.01,974.11h217.65c13.66,0,24.75,11.09,24.75,24.75v2.77c0,13.66-11.09,24.74-24.74,24.74h-217.65c-13.66,0-24.75-11.09-24.75-24.75v-2.77c0-13.66,11.09-24.75,24.75-24.75Z"></path></g><g><path fill="#2a3967" d="M387.9,520.97c-.05-1.24-1.06-14.58-22.57-15.27,0,0,10.58,1.19,12.4,5.58,0,0-7.2-5.43-13.07-3.68-5.86,1.75-9.31,11.45-9.34,14.64-.03,3.19,3.22,13.48,6.95,14.36,1.41,.33,3.03,.24,4.51,0-.99,1.46-1.96,3.07-2.89,4.87-8.58,16.64,.27,32.9,7.53,31.11,4.66-1.15,5.98,6.36,5.98,6.36l45.27-34.62s-16.63-32.5-34.77-23.35Z"></path><path fill="#9ddeda" d="M465.39,697.67c-.42,.92-2.34,5.23-5.42,9.61-2.5,3.56-5.8,7.16-9.69,9.02-2.99-1.36-8.38-3.37-10.67-4.7-8.27-4.77-20.06-18.3-29.68-32.8-1.47-2.21-2.89-4.44-4.24-6.67-.3-.41-.51-.82-.73-1.24-3.43-5.77-6.19-11.51-7.8-16.76l17.5-35.32c.06,.06,5.44,3.06,10.17,15.93,7.05,19.15,18.48,46.33,26.41,54.65,1.85,1.93,7.27,4.87,13.83,7.98h0c.14,.21,.25,.31,.32,.31Z"></path><path fill="#25468f" d="M403.66,1011.23l-9.62,3.38s-41.76-54.72-46.91-102.86c-.92-8.6,.97-26.82,.25-30.71-.33-1.82-.74-4-1.2-6.51-1.36-7.35-3.23-17.41-5.36-28.86-4.91-26.35-11.28-60.03-16.23-84.79l2.59-.79,28.03-8.54,5.79-17.38,20.87-5.19s4.66,8.62,8.83,49.32c.77,5.34,1.47,11.23,1.99,17.61,1.63,19.49,1.74,43.66-1.99,71.3-.96,7.07-4.93,34.88-4.47,43.49,2.1,39.36,17.4,100.52,17.4,100.52Z"></path><path fill="#1e3865" d="M392.72,795.91l-45.33,85.13c-.33-1.82-.74-4-1.2-6.51-1.36-7.35-3.23-17.41-5.36-28.86-4.91-26.35-11.28-60.03-16.23-84.79l2.59-.79,28.03-8.54,5.79-17.38,20.87-5.19s4.66,8.62,8.83,49.32c.77,5.34,1.47,11.23,1.99,17.61Z"></path><path fill="#25468f" d="M372.78,739.9l-1.05-8.5c-17.58,4.41-64.55-12.33-64.55-12.33,0,0-17.03,14.14-14.79,48.04,1.09,16.55,3.08,86.85,5.17,107.66,.75,7.54-4.43,26.94-6.51,32.18-20.44,51.44,3.15,114.8,3.15,114.8l6.12-2.33s38.72-132.61,42.71-146.66c7.55-26.56,13.62-61.11,17.67-87.78,.56,.02,12.09-45.08,12.09-45.08Z"></path><path fill="#ffae73" d="M386.12,641.28c-30.22,1.57-23.58-40.99-21.74-40.78,3.7-1.82,10.34-10.69,14.18-25.51l1.3,.57,21.81,9.69s-2.32,6.7-4.03,13.12c-1.33,5.02-2.29,9.87-1.49,11.23,1.72,.66,2.75,1.08,2.75,1.08,0,0,0,0,0,.02,.22,.53-4.73,30.17-12.79,30.59Z"></path><path fill="#f99352" d="M401.67,585.25s-2.32,6.7-4.03,13.12c-12.75-3.36-16.62-16.02-17.78-22.8l21.81,9.68Z"></path><path fill="#ffae73" d="M404.35,592.34s-30.5-6.67-25.81-24.54c4.69-17.88,3.91-30.78,23.58-27.28,19.67,3.5,21.65,11.2,21.62,17.53-.03,6.33-11.34,35.56-19.39,34.29Z"></path><path fill="#2a3967" d="M425.46,547.9c-3.28-6.48-7.14-6.13-9.55-4.99-14.33-12.52-28.39-2.29-28.39-2.29-5.41,12.35-17.13,17.39-17.13,17.39,0,0,4.68,4.53,18.26,4.43,4.15-.03,8.32-1.83,12.11-4.31-7.32,6.96-15.9,11.2-15.9,11.2,17-3.07,28.4-21.66,29.56-23.64,1.44,2.01,4.19,6.28,4.43,9.9,.31,4.91-1.47,14.44,1.5,14.8,0,0,10.02-12.78,5.1-22.5Z"></path><path fill="#1e3865" d="M329.77,1026.48h-48.43s-1.16-6.97,1.37-12.26c2.42-5.08,6.22-7.38,5.31-13.52,3.08,2.99,8.09,6.34,15.09,5.45,.86,1.31,5.54,8.35,8.4,10.29,3.17,2.15,17.28,1.38,18.25,10.04Z"></path><path fill="#1e3865" d="M433.75,1026.48h-48.43s-1.81-7.3,1.37-12.26c2.81-4.39,1.74-6.9-.35-10.53,2.19,.85,5.03,1.62,8.16,1.45,2.41-.13,4.96-1.17,7.2-2.39,2.08,2.25,11.01,11.8,13.8,13.69,3.16,2.15,17.28,1.38,18.25,10.04Z"></path><path fill="#9ddeda" d="M414.66,618.81l-7.94,100.74-4.86,61.69c-7.47,2.19-14.58,3.91-21.33,5.23-.44-5.17-2.21-11.36-2.21-11.36,.08,3.24-3.94,9.45-6.32,12.83-62.02,9.39-91.09-16.17-91.09-16.17,2.41-22.62,12.86-68.37,25.37-106.73,2.61-7.98,5.29-15.64,8.02-22.7,6.2-16.06,10.14-24.45,13.48-30.94,6.36-12.36,34.79-11.58,34.79-11.58,5.47,18.64,20.52,30.26,20.52,30.26,8.02-4.45,14-20.1,14-20.1l17.56,8.83Z"></path><path fill="#4fb8c0" d="M368.85,596.37s-5.16,.33-6.27,3.44c0,0,6.73,25.6,20.52,30.26l-14.25-33.71Z"></path><path fill="#4fb8c0" d="M383.1,630.07s12.87-20.22,12.81-23.25c0,0,5.32,1.95,4.99,5.07,0,0-11.09,16.79-17.8,18.19Z"></path><path fill="#7fcfcf" d="M347.78,620.96c.37,1.21,46.8,71.24,47.81,85.18,1.01,13.94-19.52,6.06-19.84,4.24-.32-1.82-27.97-89.42-27.97-89.42Z"></path><path fill="#7fcfcf" d="M406.72,719.55l-4.86,61.69c-66.42-18.07-70.07-150.47-70.07-150.47l41.05,70.01,33.52,18.3s.13,.16,.36,.47Z"></path><path fill="#9ddeda" d="M450.29,697.57c-.02,.07-.05,.11-.1,.11,.03-.05,.04-.1,.06-.13,.06-.11,.07-.11,.04,.02Z"></path><g><g><g><rect fill="#6b98f6" height="625.86" width="484.47" y="285.43" x="435.76"></rect><rect fill="#f1f9ff" height="591.73" width="443.19" y="302.31" x="456.4"></rect><path fill="#ffa051" d="M586.12,285.43v21.32c0,11.77,10.09,21.32,22.55,21.32h121.11c12.45,0,22.55-9.54,22.55-21.32v-21.32h-166.21Z"></path></g><g><rect fill="#a9c2ff" height="5.24" width="54.83" y="836.26" x="507.85"></rect><rect fill="#a9c2ff" height="5.24" width="54.83" y="836.26" x="575.38"></rect><rect fill="#a9c2ff" height="5.24" width="76.05" y="847.89" x="507.85"></rect></g><g><g><rect fill="#a9c2ff" height="7.39" width="372.21" y="499.4" x="493.75"></rect><rect fill="#a9c2ff" height="7.39" width="343.02" y="532.39" x="493.75"></rect><g><rect fill="#a9c2ff" height="7.39" width="101.46" y="515.89" x="629.12"></rect><rect fill="#a9c2ff" height="7.39" width="117.8" y="515.89" x="748.16"></rect><rect fill="#a9c2ff" height="7.39" width="120.27" y="515.89" x="493.75"></rect></g><g><rect fill="#a9c2ff" height="7.39" width="101.46" y="480.68" x="629.12"></rect><rect fill="#a9c2ff" height="7.39" width="117.8" y="480.68" x="748.16"></rect><rect fill="#a9c2ff" height="7.39" width="120.27" y="480.68" x="493.75"></rect></g></g><g><rect fill="#a9c2ff" height="7.39" width="372.21" y="598.17" x="493.75"></rect><rect fill="#a9c2ff" height="7.39" width="287.19" y="631.17" x="493.75"></rect><g><rect fill="#a9c2ff" height="7.39" width="101.46" y="579.45" x="629.12"></rect><rect fill="#a9c2ff" height="7.39" width="117.8" y="579.45" x="748.16"></rect><rect fill="#a9c2ff" height="7.39" width="120.27" y="579.45" x="493.75"></rect></g><g><rect fill="#a9c2ff" height="7.39" width="89.34" y="377.13" x="755.83"></rect><rect fill="#a9c2ff" height="7.39" width="74.9" y="392.64" x="636.63"></rect><rect fill="#a9c2ff" height="7.39" width="101.63" y="392.64" x="724.03"></rect><rect fill="#a9c2ff" height="7.39" width="91.36" y="410.55" x="636.63"></rect><rect fill="#a9c2ff" height="7.39" width="49.83" y="410.55" x="742.88"></rect><rect fill="#a9c2ff" height="7.39" width="105.9" y="377.13" x="636.63"></rect></g></g></g><g><rect fill="#a9c2ff" height="4.78" width="84.13" y="699.59" x="590.61"></rect><rect fill="#a9c2ff" height="4.78" width="77.54" y="720.96" x="590.61"></rect><g><rect fill="#a9c2ff" height="4.78" width="22.93" y="710.27" x="651.81"></rect><rect fill="#a9c2ff" height="4.78" width="54.84" y="710.27" x="590.61"></rect></g></g><g><rect fill="#a9c2ff" height="4.78" width="84.13" y="699.59" x="788.42"></rect><rect fill="#a9c2ff" height="4.78" width="77.53" y="720.96" x="788.42"></rect><g><rect fill="#a9c2ff" height="4.78" width="22.93" y="710.27" x="849.62"></rect><rect fill="#a9c2ff" height="4.78" width="54.84" y="710.27" x="788.42"></rect></g></g><g><path fill="#a9c2ff" d="M710.62,853c-16.08,0-30.09-10.79-33.31-25.64-.26-1.19,.56-2.35,1.81-2.6,1.26-.24,2.49,.52,2.75,1.71,2.78,12.82,14.87,22.13,28.74,22.13s25.8-9.2,28.68-21.87c.27-1.19,1.51-1.94,2.77-1.69,1.26,.26,2.06,1.42,1.79,2.61-3.34,14.68-17.32,25.34-33.24,25.34Z"></path><path fill="#a9c2ff" d="M679.53,817.37c-.15,0-.3-.01-.45-.04-1.26-.23-2.09-1.38-1.84-2.58,3.08-15.05,17.12-25.98,33.37-25.98s29.18,9.98,32.97,24.27c.31,1.18-.44,2.37-1.69,2.67-1.25,.3-2.51-.42-2.83-1.6-3.28-12.33-14.98-20.94-28.46-20.94s-26.14,9.43-28.8,22.41c-.22,1.05-1.19,1.78-2.28,1.78Z"></path><path fill="#a9c2ff" d="M710.62,866.54c-26.65,0-48.33-20.48-48.33-45.65s21.68-45.65,48.33-45.65,48.33,20.48,48.33,45.65-21.68,45.65-48.33,45.65Zm0-85.05c-23,0-41.71,17.67-41.71,39.4s18.71,39.4,41.71,39.4,41.71-17.67,41.71-39.4-18.71-39.4-41.71-39.4Z"></path><g><rect fill="#a9c2ff" height="2.89" width="19.14" y="815.17" x="701.05"></rect><rect fill="#a9c2ff" height="2.89" width="19.14" y="827.01" x="701.05"></rect><rect fill="#a9c2ff" height="2.89" width="28.17" y="820.89" x="696.53"></rect></g></g><g><path fill="#a8ccff" d="M572.61,744.57h-57.53v-54.34h57.53v54.34Zm-54.82-2.56h52.11v-49.23h-52.11v49.23Z"></path><path fill="#ff912b" d="M545.27,733.65c-1.21,0-2.36-.51-3.13-1.39l-17.75-20.29c-1.43-1.63-1.19-4.05,.54-5.41,1.73-1.35,4.29-1.12,5.72,.51l14.08,16.09,25.47-40.38c1.15-1.82,3.64-2.42,5.57-1.33,1.93,1.09,2.56,3.44,1.41,5.26l-28.42,45.06c-.68,1.07-1.86,1.77-3.18,1.86-.1,0-.21,.01-.31,.01Z"></path></g><g><path fill="#a8ccff" d="M774.29,744.57h-57.53v-54.34h57.53v54.34Zm-54.82-2.56h52.11v-49.23h-52.11v49.23Z"></path><path fill="#ff912b" d="M746.96,733.65c-1.21,0-2.36-.51-3.13-1.39l-17.75-20.29c-1.43-1.63-1.19-4.05,.54-5.41,1.73-1.35,4.29-1.12,5.72,.51l14.08,16.09,25.47-40.38c1.15-1.82,3.64-2.42,5.57-1.33,1.93,1.09,2.56,3.44,1.41,5.26l-28.42,45.06c-.68,1.07-1.86,1.77-3.18,1.86-.1,0-.21,.01-.31,.01Z"></path></g></g><g><path fill="#ffa051" d="M609.28,399.51c0,15.16-6.44,28.89-16.88,38.89-10.64,10.2-25.43,16.53-41.79,16.53s-31.15-6.32-41.79-16.53c-10.44-9.99-16.88-23.73-16.88-38.89,0-30.61,26.27-55.42,58.67-55.42s58.67,24.81,58.67,55.42Z"></path><path fill="#25468f" d="M550.74,356.87s-22.06-1.64-33.67,20.61c-10.38,19.89-14.36,21.26-9.88,27.57,4.48,6.31,47.46,17.72,79.25,4.74,0,0,11.52-4.74,7.1-12.98-4.42-8.25-16.26-42.03-42.8-39.93Z"></path><ellipse fill="#ffc69d" ry="23.04" rx="24.39" cy="388.94" cx="550.61"></ellipse><path fill="#ffc69d" d="M592.4,438.4c-10.64,10.2-25.43,16.53-41.79,16.53s-31.15-6.32-41.79-16.53c3.37-14.16,14.61-25.52,29.15-29.75,4-1.17,8.24-1.79,12.64-1.79s8.64,.62,12.64,1.79c14.54,4.23,25.78,15.59,29.15,29.75Z"></path><path fill="#25468f" d="M552.61,364.73s-7.47,18.48-26.39,17.78c0,0-2.58-21.29,26.39-17.78Z"></path><path fill="#25468f" d="M548.55,364.73s7.47,18.48,26.39,17.78c0,0,2.58-21.29-26.39-17.78Z"></path></g></g><path fill="#ffae73" d="M464.43,724.32c-4.01-.02-10.33-.28-13.99-1.6,0,0,11.68-.16,9.2-3.64-.45-.63-6.26-.15-12.74-.15-2.66,0-9.23,3.44-8.89,3.6-4.7-.59-8.97-1.45-10.35-1.73-.36-.07-.51-.14-.51-.14l-4.15,11.41s.87,.21,2.4,.48c3.86,.89,11.79,2.82,19.28,5.57,10.48,3.92,18.19-.95,21.68-4.4,2.22-2.18,3.96-5.08,3.84-7.19-.13-2.3-3.35-2.2-5.79-2.21Z"></path><path fill="#ffae73" d="M436.25,725.2l-2.55,8.8s-3.2-.55-8.3-1.44c-1.53-.28-2.4-.49-2.4-.49-4.08-.75-8.95-1.78-14.26-2.89h-.08c-9.09-2.06-19.28-4.53-27.87-7.29-.77-.25-1.53-.51-2.27-.76-5.08-1.77,4.74-26.11,9.18-23.09,1.17,.81,2.44,1.64,3.76,2.49,7.36,4.72,16.73,9.99,25.06,14.42,4.08,2.2,7.93,4.2,11.14,5.84,5.17,2.68,8.59,4.4,8.59,4.4Z"></path><path fill="#9ddeda" d="M391.48,700.54s.53,16.62-15.94,24.71c-19.04-6.49-29.22-33.31-37.09-51.74-1.09-2.54-2.11-5.09-3.13-7.56-3.64-9.21-6.55-18.28-8.3-26.12-1.09-4.67-1.82-8.94-1.96-12.44-.07-1.24-.15-2.41-.07-3.5,.14-19.93,15.06-22,17.03-19.73,2.47,2.82,5.09,7.42,7.78,12.99,4.15,8.86,8.51,20.35,12.59,31.76,2.26,6.26,4.44,12.51,6.62,18.28,1.24,3.5,2.48,6.8,3.64,9.83,2.26,5.78,4.29,10.45,6.11,13.4,1.17,1.93,4.51,4.61,8.95,7.63,1.17,.81,2.44,1.64,3.76,2.49Z"></path></g><rect fill="#25468f" height="13.41" width="127.48" y="656.57" x="1065.66"></rect><g><path fill="#ffae73" d="M1238.56,704.15c-4.59,10.72-25.05,49.97-25.05,49.97l-10.44-6.78s15.33-45.49,14.5-52.01c-.83-6.51-6.22-34.29-6.22-34.29l-1.45-60.51s14.88,5.54,17.76,20.6c2.87,15.06,15.51,72.3,10.91,83.02Z"></path><path fill="#ffae73" d="M1217.56,634.96l-19.37,81.2-68.67-3.01s-4.85-56.89,5.08-79.14c9.92-22.25,16.16-30.82,16.16-30.82,0,0,11.39-12.05,59.14-2.67l7.67,34.43Z"></path><path fill="#ffae73" d="M1121.66,841.07c.01,7.55,6.48,48.59,9.73,152.56,.07,2.09,2.16,3.68,8.59,1.96,8.92-2.38,9.97-.87,9.97-.87,0,0,10.27-66.12,12.31-132.33,1.02-33.2-40.63-37.85-40.59-21.32Z"></path><path fill="#ffae73" d="M1193.81,600.84c-1.2-5.74-1.55-20.36,.08-30.44l-1.59,.07-26.83,1.19s-.63,7.83-1.77,15.13c0,.06-.02,.12-.03,.18-.97,6.34-1.84,11.43-1.41,13.26,1.52,6.43,32.54,5.37,31.55,.61Z"></path><path fill="#f48f4e" d="M1165.47,571.66s-.63,7.83-1.77,15.13c14.64,1.67,24.34-9.8,28.6-16.32l-26.82,1.19Z"></path><path fill="#ffae73" d="M1159.51,577.89s34.41,5.41,37.65-14.88c3.24-20.29,9.86-33.26-11.97-37.58-21.83-4.31-27.35,2.82-30.17,9.35-2.83,6.53-4.37,41.18,4.5,43.11Z"></path><path fill="#ffae73" d="M1169.63,841.5c-.19,7.55,5.17,48.73,5.63,152.75,0,2.09,2.06,3.73,8.53,2.17,8.98-2.16,9.99-.63,9.99-.63,0,0,12.04-65.85,15.86-131.99,1.91-33.17-39.6-38.81-40.01-22.29Z"></path><path fill="#ffae73" d="M1197.11,1017.23c-.32,6.83-7.64,5.51-19.23,4.56-11.59-.95-7.3,1.09-23.46,1.74-16.16,.66-18.9-1.84-19.75-4-.76-1.92,2.51-3.28,10.78-5.43,1.04-.27,22.93-8.77,27.57-14.28,6.25-7.42,5.66-60.93,5.66-60.93l16.53,20.48s-.66,24.41-1.41,36.4c-.31,4.91,3.8,10.7,4.83,14.94,.55,2.3-1.4,4.1-1.51,6.51Z"></path><path fill="#f37a23" d="M1177.52,1024.02c-11.59-.95-8.43,1.73-24.59,2.39-16.16,.66-21.89-4.24-22.74-6.4-.76-1.92,6.98-3.76,15.25-5.91l.1,.14s10.57,4.99,23.85,3.36c10.82-1.33,21.76-5.91,29.22-6.88,.55,2.3,1.1,4.66,.98,7.07-.32,6.83-10.49,7.18-22.08,6.23Z"></path><path fill="#ffae73" d="M1153.84,1016.09c-.14,6.83-7.49,5.69-19.1,5.02-11.61-.67-7.27,1.26-23.41,2.31-16.14,1.05-18.94-1.39-19.85-3.53-.81-1.9,2.42-3.34,10.63-5.68,1.03-.29,22.68-9.32,27.18-14.93,6.05-7.56,4.02-61.04,4.02-61.04l17.07,20.08s0,24.42-.43,36.42c-.18,4.92,4.09,10.61,5.23,14.82,.61,2.29-1.29,4.14-1.34,6.54Z"></path><path fill="#ff9045" d="M1134.45,1023.34c-11.61-.67-8.38,1.93-24.52,2.98-16.14,1.05-22-3.71-22.9-5.85-.81-1.9,6.88-3.93,15.09-6.27l.11,.14s10.7,4.74,23.93,2.79c10.78-1.59,21.6-6.43,29.03-7.58,.61,2.29,1.23,4.63,1.17,7.04-.14,6.83-10.3,7.43-21.9,6.76Z"></path><path fill="#ffa166" d="M1153.79,716.17s-8.79-18.28-7.7-32.85c1.44-19.18,6.72-47.4-.34-44.68-15.8,6.07-16.69,72.71-16.69,72.71l24.73,4.83Z"></path><path fill="#ff912b" d="M1129.05,711.34s-19.01,102.92-26.48,162.16c-7.47,59.24-13.12,82.17-13.12,82.17,0,0,48.09,9.95,85.38,6.18,37.29-3.76,42.61,9.61,70.53-5.47,0,0-21.98-55.92-16.93-117.68,7.16-87.67-27.69-128.6-27.69-128.6,0,0-13.93,6.2-71.67,1.23Z"></path><path fill="#ffa166" d="M1178,705.37c-.51,0-.99-.29-1.2-.76-.23-.53-5.61-13.2-1.3-27.07,.2-.65,.92-1.02,1.6-.83,.68,.19,1.08,.87,.88,1.52-4.05,13.02,1.16,25.33,1.21,25.46,.27,.62-.05,1.34-.71,1.59-.16,.06-.33,.09-.49,.09Z"></path><path fill="#ffae73" d="M1097.69,773.88c-1.71,4.84-11.78,11.67-11.78,17.09s3.09,19.64,5.08,19.67c7.49,.11,5.12-10.04,7.99-13.29,2.87-3.26,8.9-5.15,9.19-7.87,.29-2.71,1.29-16.14,1.29-16.14,0,0-10.2-3.93-11.77,.54Z"></path><path fill="#ffae73" d="M1108.18,789.48s-6.89,13.57-7.11,12.75c-.22-.81,0-8.55,0-8.55l7.11-4.21Z"></path><path fill="#25468f" d="M1200.73,710.11s-8.98,11.95-66.27,1.57v-5.9s50.1,7.19,66.61-1.63l-.33,5.96Z"></path><path fill="#ffae73" d="M1151.84,598.08s-20.24,5-26.14,21.56c-5.44,15.27-5.54,71.69-10.16,82.14-3.66,8.28-18.85,74.01-18.85,74.01l12.78-2.46s26.92-59.41,30.8-72.03c3.88-12.62,1.08-42.32,7.11-52.9,6.03-10.58,4.46-50.32,4.46-50.32Z"></path><path fill="#ffa166" d="M1217.56,695.34c-.83-6.51-6.22-34.29-6.22-34.29,0,0,4.82-16.69,7.69-16.43,2.87,.26,1.65,47.47-1.47,50.72Z"></path><path fill="#0b3563" d="M1167.4,521.43s-13.56,1.22-18.3,9.36c-4.74,8.14-.18,16.68,13.05,24.01,13.23,7.33,12.76,25.13,2.19,27.42-10.56,2.29-30.42,12.18-24.29,20.98,6.13,8.8,26.32,3.06,22.1,15.63-8.03,23.87,28.3,31.89,42.52,25.79,14.22-6.1,16.3-22.95,27.57-22.8,20.68,.27,14.24-30.05,1.29-44.02-17.54-18.92-.43-26.47-13.42-41.3-12.23-13.97-30.54-23.2-52.72-15.06Z"></path></g><rect fill="#1e3865" ry="2.54" rx="2.54" height="5.09" width="1620" y="1022.91"></rect></g></g></g></svg>